<svg width="40" height="45" viewBox="0 0 40 45" fill="none" xmlns="http://www.w3.org/2000/svg">
<mask id="mask0_383_20933" style="mask-type:alpha" maskUnits="userSpaceOnUse" x="0" y="0" width="40" height="45">
<path d="M36.526 45H3.21429C1.43909 45 0 43.5609 0 41.7857V3.21429C0 1.43909 1.43909 0 3.21429 0H24.8377L39.7403 14.9026V41.7857C39.7403 43.5609 38.3012 45 36.526 45Z" fill="url(#paint0_linear_383_20933)"/>
</mask>
<g mask="url(#mask0_383_20933)">
<path d="M36.526 45H3.21429C1.43909 45 0 43.5609 0 41.7857V3.21429C0 1.43909 1.43909 0 3.21429 0H24.8377L39.7403 14.9026V41.7857C39.7403 43.5609 38.3012 45 36.526 45Z" fill="url(#paint1_linear_383_20933)"/>
<g opacity="0.26" filter="url(#filter0_f_383_20933)">
<rect x="7.01318" y="21.7695" width="26.0065" height="12.2727" fill="#E66000" style="mix-blend-mode:darken"/>
</g>
<mask id="path-4-outside-1_383_20933" maskUnits="userSpaceOnUse" x="13.5874" y="23.1846" width="13" height="10" fill="black">
<rect fill="white" x="13.5874" y="23.1846" width="13" height="10"/>
<path d="M14.8285 32.2423C14.6669 32.2423 14.5399 32.1923 14.4476 32.0922C14.3553 31.9922 14.3091 31.8691 14.3091 31.7229C14.3091 31.6613 14.3283 31.5844 14.3668 31.492L17.3101 24.5436C17.3639 24.4205 17.4447 24.3128 17.5524 24.2204C17.6679 24.1204 17.8102 24.0704 17.9795 24.0704H18.0949C18.2719 24.0704 18.4143 24.1204 18.522 24.2204C18.6297 24.3128 18.7105 24.4205 18.7644 24.5436L21.7076 31.492C21.7461 31.5844 21.7654 31.6613 21.7654 31.7229C21.7654 31.8691 21.7192 31.9922 21.6268 32.0922C21.5345 32.1923 21.4075 32.2423 21.246 32.2423C21.0074 32.2423 20.842 32.1346 20.7496 31.9191L19.9994 30.1185H16.075L15.3248 31.9191C15.2325 32.1346 15.067 32.2423 14.8285 32.2423ZM16.479 29.1605H19.5954L18.0372 25.4093L16.479 29.1605ZM24.7905 32.2423C24.6443 32.2423 24.5212 32.1923 24.4211 32.0922C24.3211 31.9922 24.2711 31.8691 24.2711 31.7229V24.6013C24.2711 24.4551 24.3211 24.332 24.4211 24.232C24.5212 24.1243 24.6443 24.0704 24.7905 24.0704C24.9367 24.0704 25.0598 24.1243 25.1598 24.232C25.2676 24.332 25.3214 24.4551 25.3214 24.6013V31.7229C25.3214 31.8691 25.2676 31.9922 25.1598 32.0922C25.0598 32.1923 24.9367 32.2423 24.7905 32.2423Z"/>
</mask>
<path d="M14.8285 32.2423C14.6669 32.2423 14.5399 32.1923 14.4476 32.0922C14.3553 31.9922 14.3091 31.8691 14.3091 31.7229C14.3091 31.6613 14.3283 31.5844 14.3668 31.492L17.3101 24.5436C17.3639 24.4205 17.4447 24.3128 17.5524 24.2204C17.6679 24.1204 17.8102 24.0704 17.9795 24.0704H18.0949C18.2719 24.0704 18.4143 24.1204 18.522 24.2204C18.6297 24.3128 18.7105 24.4205 18.7644 24.5436L21.7076 31.492C21.7461 31.5844 21.7654 31.6613 21.7654 31.7229C21.7654 31.8691 21.7192 31.9922 21.6268 32.0922C21.5345 32.1923 21.4075 32.2423 21.246 32.2423C21.0074 32.2423 20.842 32.1346 20.7496 31.9191L19.9994 30.1185H16.075L15.3248 31.9191C15.2325 32.1346 15.067 32.2423 14.8285 32.2423ZM16.479 29.1605H19.5954L18.0372 25.4093L16.479 29.1605ZM24.7905 32.2423C24.6443 32.2423 24.5212 32.1923 24.4211 32.0922C24.3211 31.9922 24.2711 31.8691 24.2711 31.7229V24.6013C24.2711 24.4551 24.3211 24.332 24.4211 24.232C24.5212 24.1243 24.6443 24.0704 24.7905 24.0704C24.9367 24.0704 25.0598 24.1243 25.1598 24.232C25.2676 24.332 25.3214 24.4551 25.3214 24.6013V31.7229C25.3214 31.8691 25.2676 31.9922 25.1598 32.0922C25.0598 32.1923 24.9367 32.2423 24.7905 32.2423Z" fill="white"/>
<path d="M14.4476 32.0922L14.6623 31.894V31.894L14.4476 32.0922ZM14.3668 31.492L14.0977 31.3781L14.0971 31.3797L14.3668 31.492ZM17.3101 24.5436L17.0423 24.4265L17.041 24.4297L17.3101 24.5436ZM17.5524 24.2204L17.7426 24.4423L17.7438 24.4413L17.5524 24.2204ZM18.522 24.2204L18.323 24.4347L18.3318 24.4423L18.522 24.2204ZM18.7644 24.5436L19.0335 24.4296L19.0321 24.4265L18.7644 24.5436ZM21.7076 31.492L21.9774 31.3796L21.9767 31.3781L21.7076 31.492ZM21.6268 32.0922L21.4121 31.894L21.4121 31.894L21.6268 32.0922ZM20.7496 31.9191L20.4799 32.0315L20.4811 32.0342L20.7496 31.9191ZM19.9994 30.1185L20.2691 30.0061L20.1942 29.8263H19.9994V30.1185ZM16.075 30.1185V29.8263H15.8802L15.8053 30.0061L16.075 30.1185ZM15.3248 31.9191L15.5934 32.0342L15.5945 32.0315L15.3248 31.9191ZM16.479 29.1605L16.2092 29.0484L16.0412 29.4527H16.479V29.1605ZM19.5954 29.1605V29.4527H20.0332L19.8653 29.0484L19.5954 29.1605ZM18.0372 25.4093L18.3071 25.2972L18.0372 24.6476L17.7674 25.2972L18.0372 25.4093ZM14.8285 32.2423V31.9501C14.7319 31.9501 14.689 31.9229 14.6623 31.894L14.4476 32.0922L14.2329 32.2904C14.3909 32.4616 14.6019 32.5345 14.8285 32.5345V32.2423ZM14.4476 32.0922L14.6623 31.894C14.6237 31.8522 14.6013 31.8016 14.6013 31.7229H14.3091H14.0169C14.0169 31.9366 14.0868 32.1322 14.2329 32.2904L14.4476 32.0922ZM14.3091 31.7229H14.6013C14.6013 31.7166 14.6048 31.6807 14.6365 31.6044L14.3668 31.492L14.0971 31.3797C14.0519 31.4881 14.0169 31.6061 14.0169 31.7229H14.3091ZM14.3668 31.492L14.6359 31.606L17.5791 24.6576L17.3101 24.5436L17.041 24.4297L14.0977 31.3781L14.3668 31.492ZM17.3101 24.5436L17.5778 24.6607C17.613 24.5802 17.6664 24.5077 17.7426 24.4423L17.5524 24.2204L17.3623 23.9986C17.2231 24.1179 17.1148 24.2608 17.0424 24.4265L17.3101 24.5436ZM17.5524 24.2204L17.7438 24.4413C17.8002 24.3924 17.8723 24.3626 17.9795 24.3626V24.0704V23.7782C17.7481 23.7782 17.5355 23.8485 17.3611 23.9996L17.5524 24.2204ZM17.9795 24.0704V24.3626H18.0949V24.0704V23.7782H17.9795V24.0704ZM18.0949 24.0704V24.3626C18.2141 24.3626 18.2801 24.3946 18.3232 24.4346L18.522 24.2204L18.7208 24.0063C18.5484 23.8462 18.3298 23.7782 18.0949 23.7782V24.0704ZM18.522 24.2204L18.3318 24.4423C18.4081 24.5077 18.4614 24.5802 18.4967 24.6607L18.7644 24.5436L19.0321 24.4265C18.9596 24.2608 18.8514 24.1179 18.7122 23.9986L18.522 24.2204ZM18.7644 24.5436L18.4953 24.6576L21.4386 31.606L21.7076 31.492L21.9767 31.3781L19.0334 24.4297L18.7644 24.5436ZM21.7076 31.492L21.4379 31.6044C21.4697 31.6807 21.4731 31.7166 21.4731 31.7229H21.7654H22.0576C22.0576 31.6061 22.0225 31.4881 21.9774 31.3797L21.7076 31.492ZM21.7654 31.7229H21.4731C21.4731 31.8016 21.4508 31.8522 21.4121 31.894L21.6268 32.0922L21.8416 32.2904C21.9876 32.1322 22.0576 31.9366 22.0576 31.7229H21.7654ZM21.6268 32.0922L21.4121 31.894C21.3854 31.9229 21.3426 31.9501 21.246 31.9501V32.2423V32.5345C21.4725 32.5345 21.6836 32.4616 21.8416 32.2904L21.6268 32.0922ZM21.246 32.2423V31.9501C21.1714 31.9501 21.1286 31.9337 21.1024 31.9166C21.0766 31.8998 21.046 31.8688 21.0182 31.804L20.7496 31.9191L20.4811 32.0342C20.5456 32.1849 20.6439 32.3155 20.7835 32.4064C20.9228 32.497 21.082 32.5345 21.246 32.5345V32.2423ZM20.7496 31.9191L21.0194 31.8067L20.2691 30.0061L19.9994 30.1185L19.7297 30.2309L20.4799 32.0315L20.7496 31.9191ZM19.9994 30.1185V29.8263H16.075V30.1185V30.4107H19.9994V30.1185ZM16.075 30.1185L15.8053 30.0061L15.0551 31.8067L15.3248 31.9191L15.5945 32.0315L16.3448 30.2309L16.075 30.1185ZM15.3248 31.9191L15.0562 31.804C15.0285 31.8688 14.9979 31.8998 14.972 31.9166C14.9458 31.9337 14.9031 31.9501 14.8285 31.9501V32.2423V32.5345C14.9925 32.5345 15.1517 32.497 15.2909 32.4064C15.4305 32.3155 15.5288 32.1849 15.5934 32.0342L15.3248 31.9191ZM16.479 29.1605V29.4527H19.5954V29.1605V28.8683H16.479V29.1605ZM19.5954 29.1605L19.8653 29.0484L18.3071 25.2972L18.0372 25.4093L17.7674 25.5214L19.3256 29.2726L19.5954 29.1605ZM18.0372 25.4093L17.7674 25.2972L16.2092 29.0484L16.479 29.1605L16.7489 29.2726L18.3071 25.5214L18.0372 25.4093ZM24.4211 32.0922L24.6278 31.8856V31.8856L24.4211 32.0922ZM24.4211 24.232L24.6279 24.4388L24.6353 24.4308L24.4211 24.232ZM25.1598 24.232L24.9457 24.4308L24.9531 24.4388L24.961 24.4461L25.1598 24.232ZM25.1598 32.0922L24.9609 31.878L24.9532 31.8856L25.1598 32.0922ZM24.7905 32.2423V31.9501C24.7189 31.9501 24.671 31.9288 24.6278 31.8856L24.4211 32.0922L24.2145 32.2989C24.3714 32.4557 24.5697 32.5345 24.7905 32.5345V32.2423ZM24.4211 32.0922L24.6278 31.8856C24.5845 31.8424 24.5633 31.7945 24.5633 31.7229H24.2711H23.9789C23.9789 31.9437 24.0577 32.142 24.2145 32.2989L24.4211 32.0922ZM24.2711 31.7229H24.5633V24.6013H24.2711H23.9789V31.7229H24.2711ZM24.2711 24.6013H24.5633C24.5633 24.5297 24.5845 24.4818 24.6278 24.4386L24.4211 24.232L24.2145 24.0254C24.0577 24.1822 23.9789 24.3805 23.9789 24.6013H24.2711ZM24.4211 24.232L24.6353 24.4308C24.6804 24.3823 24.7261 24.3626 24.7905 24.3626V24.0704V23.7782C24.5625 23.7782 24.362 23.8663 24.207 24.0332L24.4211 24.232ZM24.7905 24.0704V24.3626C24.8549 24.3626 24.9006 24.3823 24.9457 24.4308L25.1598 24.232L25.374 24.0332C25.219 23.8663 25.0185 23.7782 24.7905 23.7782V24.0704ZM25.1598 24.232L24.961 24.4461C25.0096 24.4912 25.0292 24.5369 25.0292 24.6013H25.3214H25.6136C25.6136 24.3734 25.5256 24.1728 25.3587 24.0179L25.1598 24.232ZM25.3214 24.6013H25.0292V31.7229H25.3214H25.6136V24.6013H25.3214ZM25.3214 31.7229H25.0292C25.0292 31.7873 25.0096 31.833 24.961 31.8781L25.1598 32.0922L25.3587 32.3064C25.5256 32.1514 25.6136 31.9508 25.6136 31.7229H25.3214ZM25.1598 32.0922L24.9532 31.8856C24.91 31.9288 24.8621 31.9501 24.7905 31.9501V32.2423V32.5345C25.0113 32.5345 25.2096 32.4557 25.3665 32.2989L25.1598 32.0922Z" fill="white" mask="url(#path-4-outside-1_383_20933)"/>
<g filter="url(#filter1_d_383_20933)">
<path d="M39.74 14.9026H28.0517C26.2765 14.9026 24.8374 13.4635 24.8374 11.6883V0L39.74 14.9026Z" fill="url(#paint2_linear_383_20933)"/>
</g>
</g>
<defs>
<filter id="filter0_f_383_20933" x="1.31513" y="16.0715" width="37.4025" height="23.6686" filterUnits="userSpaceOnUse" color-interpolation-filters="sRGB">
<feFlood flood-opacity="0" result="BackgroundImageFix"/>
<feBlend mode="normal" in="SourceGraphic" in2="BackgroundImageFix" result="shape"/>
<feGaussianBlur stdDeviation="2.84903" result="effect1_foregroundBlur_383_20933"/>
</filter>
<filter id="filter1_d_383_20933" x="21.477" y="-3.50649" width="22.208" height="22.2075" filterUnits="userSpaceOnUse" color-interpolation-filters="sRGB">
<feFlood flood-opacity="0" result="BackgroundImageFix"/>
<feColorMatrix in="SourceAlpha" type="matrix" values="0 0 0 0 0 0 0 0 0 0 0 0 0 0 0 0 0 0 127 0" result="hardAlpha"/>
<feOffset dx="0.292208" dy="0.146104"/>
<feGaussianBlur stdDeviation="1.8263"/>
<feColorMatrix type="matrix" values="0 0 0 0 0 0 0 0 0 0 0 0 0 0 0 0 0 0 0.33 0"/>
<feBlend mode="normal" in2="BackgroundImageFix" result="effect1_dropShadow_383_20933"/>
<feBlend mode="normal" in="SourceGraphic" in2="effect1_dropShadow_383_20933" result="shape"/>
</filter>
<linearGradient id="paint0_linear_383_20933" x1="19.8701" y1="0" x2="19.8701" y2="45" gradientUnits="userSpaceOnUse">
<stop stop-color="#FF7979"/>
<stop offset="1" stop-color="#E85555"/>
</linearGradient>
<linearGradient id="paint1_linear_383_20933" x1="19.8701" y1="0" x2="19.8701" y2="45" gradientUnits="userSpaceOnUse">
<stop stop-color="#FFA216"/>
<stop offset="1" stop-color="#EF8100"/>
</linearGradient>
<linearGradient id="paint2_linear_383_20933" x1="32.2887" y1="0" x2="32.2887" y2="14.9026" gradientUnits="userSpaceOnUse">
<stop stop-color="#FF7A1B"/>
<stop offset="1" stop-color="#E86100"/>
</linearGradient>
</defs>
</svg>
