<svg width="40" height="45" viewBox="0 0 40 45" fill="none" xmlns="http://www.w3.org/2000/svg">
<rect width="39.7403" height="45" fill="#E5E5E5"/>
<mask id="mask0_383_20961" style="mask-type:alpha" maskUnits="userSpaceOnUse" x="0" y="0" width="40" height="45">
<path d="M36.526 45H3.21429C1.43909 45 0 43.5609 0 41.7857V3.21429C0 1.43909 1.43909 0 3.21429 0H24.8377L39.7403 14.9026V41.7857C39.7403 43.5609 38.3012 45 36.526 45Z" fill="url(#paint0_linear_383_20961)"/>
</mask>
<g mask="url(#mask0_383_20961)">
<path d="M36.526 45H3.21429C1.43909 45 0 43.5609 0 41.7857V3.21429C0 1.43909 1.43909 0 3.21429 0H24.8377L39.7403 14.9026V41.7857C39.7403 43.5609 38.3012 45 36.526 45Z" fill="url(#paint1_linear_383_20961)"/>
<g opacity="0.2" filter="url(#filter0_f_383_20961)">
<rect x="7.01318" y="21.7695" width="26.0065" height="12.2727" fill="#780AAF" style="mix-blend-mode:darken"/>
</g>
<mask id="path-4-outside-1_383_20961" maskUnits="userSpaceOnUse" x="9.35059" y="23.1846" width="21" height="10" fill="black">
<rect fill="white" x="9.35059" y="23.1846" width="21" height="10"/>
<path d="M10.9342 32.2423C10.7726 32.2423 10.6457 32.1923 10.5533 32.0922C10.461 31.9922 10.4148 31.8691 10.4148 31.7229C10.4148 31.6613 10.4341 31.5844 10.4725 31.492L13.4158 24.5436C13.4697 24.4205 13.5505 24.3128 13.6582 24.2204C13.7736 24.1204 13.916 24.0704 14.0852 24.0704H14.2007C14.3776 24.0704 14.52 24.1204 14.6277 24.2204C14.7355 24.3128 14.8162 24.4205 14.8701 24.5436L17.8134 31.492C17.8518 31.5844 17.8711 31.6613 17.8711 31.7229C17.8711 31.8691 17.8249 31.9922 17.7326 32.0922C17.6402 32.1923 17.5133 32.2423 17.3517 32.2423C17.1131 32.2423 16.9477 32.1346 16.8554 31.9191L16.1051 30.1185H12.1808L11.4305 31.9191C11.3382 32.1346 11.1728 32.2423 10.9342 32.2423ZM12.5848 29.1605H15.7011L14.143 25.4093L12.5848 29.1605ZM22.6282 32.2423C22.3127 32.2423 22.0742 32.0653 21.9126 31.7113L19.0616 24.7976C19.0386 24.736 19.027 24.6706 19.027 24.6013C19.027 24.4474 19.0732 24.3205 19.1655 24.2204C19.2579 24.1204 19.3848 24.0704 19.5464 24.0704C19.7773 24.0704 19.9427 24.1897 20.0427 24.4282L22.7552 31.1919L25.4676 24.4282C25.5676 24.1897 25.733 24.0704 25.9639 24.0704C26.1255 24.0704 26.2524 24.1204 26.3448 24.2204C26.4371 24.3205 26.4833 24.4474 26.4833 24.6013C26.4833 24.6706 26.4717 24.736 26.4487 24.7976L23.5977 31.7113C23.4361 32.0653 23.1976 32.2423 22.8821 32.2423H22.6282ZM29.2111 32.2423C29.0649 32.2423 28.9418 32.1923 28.8418 32.0922C28.7417 31.9922 28.6917 31.8691 28.6917 31.7229V24.6013C28.6917 24.4551 28.7417 24.332 28.8418 24.232C28.9418 24.1243 29.0649 24.0704 29.2111 24.0704C29.3573 24.0704 29.4804 24.1243 29.5805 24.232C29.6882 24.332 29.7421 24.4551 29.7421 24.6013V31.7229C29.7421 31.8691 29.6882 31.9922 29.5805 32.0922C29.4804 32.1923 29.3573 32.2423 29.2111 32.2423Z"/>
</mask>
<path d="M10.9342 32.2423C10.7726 32.2423 10.6457 32.1923 10.5533 32.0922C10.461 31.9922 10.4148 31.8691 10.4148 31.7229C10.4148 31.6613 10.4341 31.5844 10.4725 31.492L13.4158 24.5436C13.4697 24.4205 13.5505 24.3128 13.6582 24.2204C13.7736 24.1204 13.916 24.0704 14.0852 24.0704H14.2007C14.3776 24.0704 14.52 24.1204 14.6277 24.2204C14.7355 24.3128 14.8162 24.4205 14.8701 24.5436L17.8134 31.492C17.8518 31.5844 17.8711 31.6613 17.8711 31.7229C17.8711 31.8691 17.8249 31.9922 17.7326 32.0922C17.6402 32.1923 17.5133 32.2423 17.3517 32.2423C17.1131 32.2423 16.9477 32.1346 16.8554 31.9191L16.1051 30.1185H12.1808L11.4305 31.9191C11.3382 32.1346 11.1728 32.2423 10.9342 32.2423ZM12.5848 29.1605H15.7011L14.143 25.4093L12.5848 29.1605ZM22.6282 32.2423C22.3127 32.2423 22.0742 32.0653 21.9126 31.7113L19.0616 24.7976C19.0386 24.736 19.027 24.6706 19.027 24.6013C19.027 24.4474 19.0732 24.3205 19.1655 24.2204C19.2579 24.1204 19.3848 24.0704 19.5464 24.0704C19.7773 24.0704 19.9427 24.1897 20.0427 24.4282L22.7552 31.1919L25.4676 24.4282C25.5676 24.1897 25.733 24.0704 25.9639 24.0704C26.1255 24.0704 26.2524 24.1204 26.3448 24.2204C26.4371 24.3205 26.4833 24.4474 26.4833 24.6013C26.4833 24.6706 26.4717 24.736 26.4487 24.7976L23.5977 31.7113C23.4361 32.0653 23.1976 32.2423 22.8821 32.2423H22.6282ZM29.2111 32.2423C29.0649 32.2423 28.9418 32.1923 28.8418 32.0922C28.7417 31.9922 28.6917 31.8691 28.6917 31.7229V24.6013C28.6917 24.4551 28.7417 24.332 28.8418 24.232C28.9418 24.1243 29.0649 24.0704 29.2111 24.0704C29.3573 24.0704 29.4804 24.1243 29.5805 24.232C29.6882 24.332 29.7421 24.4551 29.7421 24.6013V31.7229C29.7421 31.8691 29.6882 31.9922 29.5805 32.0922C29.4804 32.1923 29.3573 32.2423 29.2111 32.2423Z" fill="white"/>
<path d="M10.5533 32.0922L10.768 31.894V31.894L10.5533 32.0922ZM10.4725 31.492L10.2035 31.3781L10.2028 31.3797L10.4725 31.492ZM13.4158 24.5436L13.1481 24.4265L13.1467 24.4297L13.4158 24.5436ZM13.6582 24.2204L13.8483 24.4423L13.8496 24.4413L13.6582 24.2204ZM14.6277 24.2204L14.4287 24.4347L14.4376 24.4423L14.6277 24.2204ZM14.8701 24.5436L15.1392 24.4296L15.1378 24.4265L14.8701 24.5436ZM17.8134 31.492L18.0831 31.3796L18.0824 31.3781L17.8134 31.492ZM17.7326 32.0922L17.5179 31.894V31.894L17.7326 32.0922ZM16.8554 31.9191L16.5856 32.0315L16.5868 32.0342L16.8554 31.9191ZM16.1051 30.1185L16.3749 30.0061L16.2999 29.8263H16.1051V30.1185ZM12.1808 30.1185V29.8263H11.986L11.911 30.0061L12.1808 30.1185ZM11.4305 31.9191L11.6991 32.0342L11.7003 32.0315L11.4305 31.9191ZM12.5848 29.1605L12.3149 29.0484L12.147 29.4527H12.5848V29.1605ZM15.7011 29.1605V29.4527H16.1389L15.971 29.0484L15.7011 29.1605ZM14.143 25.4093L14.4128 25.2972L14.143 24.6476L13.8731 25.2972L14.143 25.4093ZM10.9342 32.2423V31.9501C10.8376 31.9501 10.7947 31.9229 10.768 31.894L10.5533 32.0922L10.3386 32.2904C10.4966 32.4616 10.7077 32.5345 10.9342 32.5345V32.2423ZM10.5533 32.0922L10.768 31.894C10.7294 31.8522 10.707 31.8016 10.707 31.7229H10.4148H10.1226C10.1226 31.9366 10.1926 32.1322 10.3386 32.2904L10.5533 32.0922ZM10.4148 31.7229H10.707C10.707 31.7166 10.7105 31.6807 10.7423 31.6044L10.4725 31.492L10.2028 31.3797C10.1576 31.4881 10.1226 31.6061 10.1226 31.7229H10.4148ZM10.4725 31.492L10.7416 31.606L13.6849 24.6576L13.4158 24.5436L13.1467 24.4297L10.2035 31.3781L10.4725 31.492ZM13.4158 24.5436L13.6835 24.6607C13.7187 24.5802 13.7721 24.5077 13.8483 24.4423L13.6582 24.2204L13.468 23.9986C13.3288 24.1179 13.2206 24.2608 13.1481 24.4265L13.4158 24.5436ZM13.6582 24.2204L13.8496 24.4413C13.906 24.3924 13.9781 24.3626 14.0852 24.3626V24.0704V23.7782C13.8538 23.7782 13.6412 23.8485 13.4668 23.9996L13.6582 24.2204ZM14.0852 24.0704V24.3626H14.2007V24.0704V23.7782H14.0852V24.0704ZM14.2007 24.0704V24.3626C14.3198 24.3626 14.3858 24.3946 14.4289 24.4346L14.6277 24.2204L14.8266 24.0063C14.6542 23.8462 14.4355 23.7782 14.2007 23.7782V24.0704ZM14.6277 24.2204L14.4376 24.4423C14.5138 24.5077 14.5672 24.5802 14.6024 24.6607L14.8701 24.5436L15.1378 24.4265C15.0653 24.2608 14.9571 24.1179 14.8179 23.9986L14.6277 24.2204ZM14.8701 24.5436L14.601 24.6576L17.5443 31.606L17.8134 31.492L18.0824 31.3781L15.1392 24.4297L14.8701 24.5436ZM17.8134 31.492L17.5436 31.6044C17.5754 31.6807 17.5789 31.7166 17.5789 31.7229H17.8711H18.1633C18.1633 31.6061 18.1283 31.4881 18.0831 31.3797L17.8134 31.492ZM17.8711 31.7229H17.5789C17.5789 31.8016 17.5565 31.8522 17.5179 31.894L17.7326 32.0922L17.9473 32.2904C18.0933 32.1322 18.1633 31.9366 18.1633 31.7229H17.8711ZM17.7326 32.0922L17.5179 31.894C17.4912 31.9229 17.4483 31.9501 17.3517 31.9501V32.2423V32.5345C17.5782 32.5345 17.7893 32.4616 17.9473 32.2904L17.7326 32.0922ZM17.3517 32.2423V31.9501C17.2771 31.9501 17.2343 31.9337 17.2082 31.9166C17.1823 31.8998 17.1517 31.8688 17.124 31.804L16.8554 31.9191L16.5868 32.0342C16.6514 32.1849 16.7497 32.3155 16.8893 32.4064C17.0285 32.497 17.1877 32.5345 17.3517 32.5345V32.2423ZM16.8554 31.9191L17.1251 31.8067L16.3749 30.0061L16.1051 30.1185L15.8354 30.2309L16.5856 32.0315L16.8554 31.9191ZM16.1051 30.1185V29.8263H12.1808V30.1185V30.4107H16.1051V30.1185ZM12.1808 30.1185L11.911 30.0061L11.1608 31.8067L11.4305 31.9191L11.7003 32.0315L12.4505 30.2309L12.1808 30.1185ZM11.4305 31.9191L11.162 31.804C11.1342 31.8688 11.1036 31.8998 11.0778 31.9166C11.0516 31.9337 11.0088 31.9501 10.9342 31.9501V32.2423V32.5345C11.0982 32.5345 11.2574 32.497 11.3967 32.4064C11.5362 32.3155 11.6345 32.1849 11.6991 32.0342L11.4305 31.9191ZM12.5848 29.1605V29.4527H15.7011V29.1605V28.8683H12.5848V29.1605ZM15.7011 29.1605L15.971 29.0484L14.4128 25.2972L14.143 25.4093L13.8731 25.5214L15.4313 29.2726L15.7011 29.1605ZM14.143 25.4093L13.8731 25.2972L12.3149 29.0484L12.5848 29.1605L12.8546 29.2726L14.4128 25.5214L14.143 25.4093ZM21.9126 31.7113L21.6422 31.8228L21.6468 31.8327L21.9126 31.7113ZM19.0616 24.7976L18.7879 24.9002L18.7915 24.909L19.0616 24.7976ZM19.1655 24.2204L18.9508 24.0222L18.9508 24.0222L19.1655 24.2204ZM20.0427 24.4282L20.314 24.3194L20.3122 24.3152L20.0427 24.4282ZM22.7552 31.1919L22.4839 31.3007L22.7552 31.977L23.0264 31.3007L22.7552 31.1919ZM25.4676 24.4282L25.1981 24.3152L25.1964 24.3194L25.4676 24.4282ZM26.3448 24.2204L26.5595 24.0222L26.5595 24.0222L26.3448 24.2204ZM26.4487 24.7976L26.7189 24.909L26.7223 24.9002L26.4487 24.7976ZM23.5977 31.7113L23.8637 31.8328L23.8679 31.8227L23.5977 31.7113ZM22.6282 32.2423V31.9501C22.529 31.9501 22.4525 31.9236 22.3868 31.8749C22.3176 31.8235 22.2448 31.7355 22.1784 31.59L21.9126 31.7113L21.6468 31.8327C21.7419 32.0411 21.8692 32.2186 22.0386 32.3442C22.2114 32.4725 22.4119 32.5345 22.6282 32.5345V32.2423ZM21.9126 31.7113L22.1827 31.5999L19.3318 24.6862L19.0616 24.7976L18.7915 24.909L21.6424 31.8227L21.9126 31.7113ZM19.0616 24.7976L19.3352 24.695C19.3251 24.6679 19.3192 24.6374 19.3192 24.6013H19.027H18.7348C18.7348 24.7037 18.752 24.8041 18.788 24.9002L19.0616 24.7976ZM19.027 24.6013H19.3192C19.3192 24.5106 19.3443 24.4576 19.3802 24.4186L19.1655 24.2204L18.9508 24.0222C18.8021 24.1834 18.7348 24.3843 18.7348 24.6013H19.027ZM19.1655 24.2204L19.3802 24.4186C19.4069 24.3897 19.4498 24.3626 19.5464 24.3626V24.0704V23.7782C19.3199 23.7782 19.1088 23.8511 18.9508 24.0222L19.1655 24.2204ZM19.5464 24.0704V24.3626C19.6089 24.3626 19.6462 24.3778 19.6727 24.3969C19.7015 24.4176 19.7385 24.4584 19.7733 24.5412L20.0427 24.4282L20.3122 24.3152C20.2469 24.1595 20.1512 24.0213 20.0145 23.9228C19.8756 23.8227 19.7148 23.7782 19.5464 23.7782V24.0704ZM20.0427 24.4282L19.7715 24.537L22.4839 31.3007L22.7552 31.1919L23.0264 31.0832L20.3139 24.3194L20.0427 24.4282ZM22.7552 31.1919L23.0264 31.3007L25.7388 24.537L25.4676 24.4282L25.1964 24.3194L22.4839 31.0832L22.7552 31.1919ZM25.4676 24.4282L25.737 24.5412C25.7718 24.4584 25.8088 24.4176 25.8376 24.3969C25.8641 24.3778 25.9014 24.3626 25.9639 24.3626V24.0704V23.7782C25.7956 23.7782 25.6347 23.8227 25.4958 23.9228C25.3591 24.0213 25.2634 24.1595 25.1981 24.3152L25.4676 24.4282ZM25.9639 24.0704V24.3626C26.0605 24.3626 26.1034 24.3897 26.1301 24.4186L26.3448 24.2204L26.5595 24.0222C26.4015 23.8511 26.1904 23.7782 25.9639 23.7782V24.0704ZM26.3448 24.2204L26.1301 24.4186C26.166 24.4576 26.1911 24.5106 26.1911 24.6013H26.4833H26.7755C26.7755 24.3843 26.7082 24.1834 26.5595 24.0222L26.3448 24.2204ZM26.4833 24.6013H26.1911C26.1911 24.6374 26.1852 24.6679 26.1751 24.695L26.4487 24.7976L26.7223 24.9002C26.7583 24.8041 26.7755 24.7037 26.7755 24.6013H26.4833ZM26.4487 24.7976L26.1785 24.6862L23.3276 31.5999L23.5977 31.7113L23.8679 31.8227L26.7188 24.909L26.4487 24.7976ZM23.5977 31.7113L23.3319 31.59C23.2655 31.7355 23.1927 31.8235 23.1235 31.8749C23.0578 31.9236 22.9813 31.9501 22.8821 31.9501V32.2423V32.5345C23.0984 32.5345 23.2989 32.4725 23.4717 32.3442C23.6411 32.2186 23.7684 32.0411 23.8636 31.8327L23.5977 31.7113ZM22.8821 32.2423V31.9501H22.6282V32.2423V32.5345H22.8821V32.2423ZM28.8418 32.0922L29.0484 31.8856V31.8856L28.8418 32.0922ZM28.8418 24.232L29.0485 24.4388L29.0559 24.4308L28.8418 24.232ZM29.5805 24.232L29.3663 24.4308L29.3737 24.4388L29.3816 24.4461L29.5805 24.232ZM29.5805 32.0922L29.3815 31.878L29.3739 31.8856L29.5805 32.0922ZM29.2111 32.2423V31.9501C29.1395 31.9501 29.0916 31.9288 29.0484 31.8856L28.8418 32.0922L28.6352 32.2989C28.792 32.4557 28.9903 32.5345 29.2111 32.5345V32.2423ZM28.8418 32.0922L29.0484 31.8856C29.0052 31.8424 28.9839 31.7945 28.9839 31.7229H28.6917H28.3995C28.3995 31.9437 28.4783 32.142 28.6352 32.2989L28.8418 32.0922ZM28.6917 31.7229H28.9839V24.6013H28.6917H28.3995V31.7229H28.6917ZM28.6917 24.6013H28.9839C28.9839 24.5297 29.0052 24.4818 29.0484 24.4386L28.8418 24.232L28.6352 24.0254C28.4783 24.1822 28.3995 24.3805 28.3995 24.6013H28.6917ZM28.8418 24.232L29.0559 24.4308C29.101 24.3823 29.1467 24.3626 29.2111 24.3626V24.0704V23.7782C28.9832 23.7782 28.7826 23.8663 28.6276 24.0332L28.8418 24.232ZM29.2111 24.0704V24.3626C29.2756 24.3626 29.3213 24.3823 29.3663 24.4308L29.5805 24.232L29.7946 24.0332C29.6396 23.8663 29.4391 23.7782 29.2111 23.7782V24.0704ZM29.5805 24.232L29.3816 24.4461C29.4302 24.4912 29.4499 24.5369 29.4499 24.6013H29.7421H30.0343C30.0343 24.3734 29.9462 24.1728 29.7793 24.0179L29.5805 24.232ZM29.7421 24.6013H29.4499V31.7229H29.7421H30.0343V24.6013H29.7421ZM29.7421 31.7229H29.4499C29.4499 31.7873 29.4302 31.833 29.3816 31.8781L29.5805 32.0922L29.7793 32.3064C29.9462 32.1514 30.0343 31.9508 30.0343 31.7229H29.7421ZM29.5805 32.0922L29.3739 31.8856C29.3306 31.9288 29.2827 31.9501 29.2111 31.9501V32.2423V32.5345C29.4319 32.5345 29.6302 32.4557 29.7871 32.2989L29.5805 32.0922Z" fill="white" mask="url(#path-4-outside-1_383_20961)"/>
<g filter="url(#filter1_d_383_20961)">
<path d="M39.74 14.9026H28.0517C26.2765 14.9026 24.8374 13.4635 24.8374 11.6883V0L39.74 14.9026Z" fill="url(#paint2_linear_383_20961)"/>
</g>
</g>
<defs>
<filter id="filter0_f_383_20961" x="1.31513" y="16.0715" width="37.4025" height="23.6686" filterUnits="userSpaceOnUse" color-interpolation-filters="sRGB">
<feFlood flood-opacity="0" result="BackgroundImageFix"/>
<feBlend mode="normal" in="SourceGraphic" in2="BackgroundImageFix" result="shape"/>
<feGaussianBlur stdDeviation="2.84903" result="effect1_foregroundBlur_383_20961"/>
</filter>
<filter id="filter1_d_383_20961" x="21.477" y="-3.50649" width="22.208" height="22.2075" filterUnits="userSpaceOnUse" color-interpolation-filters="sRGB">
<feFlood flood-opacity="0" result="BackgroundImageFix"/>
<feColorMatrix in="SourceAlpha" type="matrix" values="0 0 0 0 0 0 0 0 0 0 0 0 0 0 0 0 0 0 127 0" result="hardAlpha"/>
<feOffset dx="0.292208" dy="0.146104"/>
<feGaussianBlur stdDeviation="1.8263"/>
<feColorMatrix type="matrix" values="0 0 0 0 0 0 0 0 0 0 0 0 0 0 0 0 0 0 0.33 0"/>
<feBlend mode="normal" in2="BackgroundImageFix" result="effect1_dropShadow_383_20961"/>
<feBlend mode="normal" in="SourceGraphic" in2="effect1_dropShadow_383_20961" result="shape"/>
</filter>
<linearGradient id="paint0_linear_383_20961" x1="19.8701" y1="0" x2="19.8701" y2="45" gradientUnits="userSpaceOnUse">
<stop stop-color="#FF7979"/>
<stop offset="1" stop-color="#E85555"/>
</linearGradient>
<linearGradient id="paint1_linear_383_20961" x1="19.8701" y1="0" x2="19.8701" y2="45" gradientUnits="userSpaceOnUse">
<stop stop-color="#CB74F4"/>
<stop offset="0.942892" stop-color="#A849F3"/>
</linearGradient>
<linearGradient id="paint2_linear_383_20961" x1="32.2887" y1="0" x2="32.2887" y2="14.9026" gradientUnits="userSpaceOnUse">
<stop stop-color="#B051E0"/>
<stop offset="1" stop-color="#952BCB"/>
</linearGradient>
</defs>
</svg>
