<svg width="40" height="45" viewBox="0 0 40 45" fill="none" xmlns="http://www.w3.org/2000/svg">
<mask id="mask0_383_20947" style="mask-type:alpha" maskUnits="userSpaceOnUse" x="0" y="0" width="40" height="45">
<path d="M36.526 45H3.21429C1.43909 45 0 43.5609 0 41.7857V3.21429C0 1.43909 1.43909 0 3.21429 0H24.8377L39.7403 14.9026V41.7857C39.7403 43.5609 38.3012 45 36.526 45Z" fill="url(#paint0_linear_383_20947)"/>
</mask>
<g mask="url(#mask0_383_20947)">
<path d="M36.526 45H3.21429C1.43909 45 0 43.5609 0 41.7857V3.21429C0 1.43909 1.43909 0 3.21429 0H24.8377L39.7403 14.9026V41.7857C39.7403 43.5609 38.3012 45 36.526 45Z" fill="url(#paint1_linear_383_20947)"/>
<g opacity="0.27" filter="url(#filter0_f_383_20947)">
<rect x="7.01318" y="21.7695" width="26.0065" height="12.2727" fill="#0072A2" style="mix-blend-mode:darken"/>
</g>
<mask id="path-4-outside-1_383_20947" maskUnits="userSpaceOnUse" x="5.99023" y="23.1846" width="28" height="10" fill="black">
<rect fill="white" x="5.99023" y="23.1846" width="28" height="10"/>
<path d="M7.7912 32.1846C7.645 32.1846 7.52188 32.1346 7.42185 32.0345C7.32182 31.9345 7.2718 31.8114 7.2718 31.6652V24.6591C7.2718 24.5128 7.32182 24.3897 7.42185 24.2897C7.52188 24.182 7.645 24.1281 7.7912 24.1281H10.1112C10.8037 24.1281 11.4039 24.2474 11.9118 24.4859C12.4196 24.7168 12.8428 25.0284 13.1814 25.4208C13.52 25.8056 13.7701 26.2365 13.9317 26.7136C14.1009 27.1906 14.1856 27.6716 14.1856 28.1563C14.1856 28.6411 14.1009 29.122 13.9317 29.5991C13.7701 30.0762 13.52 30.511 13.1814 30.9034C12.8428 31.2881 12.4196 31.5998 11.9118 31.8383C11.4039 32.0691 10.8037 32.1846 10.1112 32.1846H7.7912ZM8.32214 31.2035H9.98422C10.6306 31.2035 11.1885 31.0765 11.6578 30.8226C12.1349 30.561 12.5004 30.2032 12.7544 29.7492C13.016 29.2875 13.1468 28.7565 13.1468 28.1563C13.1468 27.5561 13.016 27.0291 12.7544 26.5751C12.5004 26.1134 12.1349 25.7556 11.6578 25.5016C11.1885 25.24 10.6306 25.1092 9.98422 25.1092H8.32214V31.2035ZM20.3142 32.3C19.4909 32.3 18.7791 32.123 18.1789 31.7691C17.5787 31.4151 17.1132 30.9265 16.7823 30.3032C16.4514 29.6799 16.2783 28.9643 16.2629 28.1563C16.2783 27.3484 16.4514 26.6328 16.7823 26.0095C17.1132 25.3862 17.5787 24.8976 18.1789 24.5436C18.7791 24.1897 19.4909 24.0127 20.3142 24.0127C21.1376 24.0127 21.8493 24.1897 22.4495 24.5436C23.0497 24.8976 23.5153 25.3862 23.8461 26.0095C24.177 26.6328 24.3502 27.3484 24.3655 28.1563C24.3502 28.9643 24.177 29.6799 23.8461 30.3032C23.5153 30.9265 23.0497 31.4151 22.4495 31.7691C21.8493 32.123 21.1376 32.3 20.3142 32.3ZM20.3142 31.3189C20.9529 31.3189 21.4954 31.1804 21.9417 30.9034C22.388 30.6187 22.7265 30.2378 22.9574 29.7607C23.1959 29.2836 23.3152 28.7488 23.3152 28.1563C23.3152 27.5638 23.1959 27.0291 22.9574 26.552C22.7265 26.0749 22.388 25.6978 21.9417 25.4208C21.4954 25.1361 20.9529 24.9938 20.3142 24.9938C19.6756 24.9938 19.1331 25.1361 18.6868 25.4208C18.2405 25.6978 17.8981 26.0749 17.6595 26.552C17.4287 27.0291 17.3133 27.5638 17.3133 28.1563C17.3133 28.7488 17.4287 29.2836 17.6595 29.7607C17.8981 30.2378 18.2405 30.6187 18.6868 30.9034C19.1331 31.1804 19.6756 31.3189 20.3142 31.3189ZM30.4774 32.3C29.7156 32.3 29.0269 32.1346 28.4114 31.8037C27.8035 31.4651 27.3225 30.988 26.9686 30.3724C26.6146 29.7492 26.4376 29.0105 26.4376 28.1563C26.4376 27.2945 26.6146 26.5558 26.9686 25.9402C27.3225 25.3247 27.8035 24.8514 28.4114 24.5205C29.0269 24.182 29.7156 24.0127 30.4774 24.0127C31.0468 24.0127 31.5393 24.0819 31.9548 24.2204C32.3703 24.359 32.7551 24.5282 33.109 24.7283C33.186 24.7668 33.2437 24.8206 33.2822 24.8899C33.3283 24.9515 33.3553 25.0361 33.363 25.1438C33.3707 25.2669 33.3322 25.3747 33.2475 25.467C33.1629 25.5593 33.0475 25.6055 32.9013 25.6055C32.8243 25.6055 32.7551 25.5901 32.6935 25.5593C32.3857 25.3978 32.0702 25.2669 31.7471 25.1669C31.4239 25.0669 31.0353 25.0169 30.5813 25.0169C29.9041 25.0169 29.3347 25.1554 28.873 25.4324C28.4114 25.7094 28.0651 26.0864 27.8342 26.5635C27.6034 27.0329 27.488 27.5638 27.488 28.1563C27.488 28.7488 27.6034 29.2836 27.8342 29.7607C28.0651 30.2301 28.4114 30.6033 28.873 30.8803C29.3347 31.1573 29.9041 31.2958 30.5813 31.2958C31.0353 31.2958 31.4239 31.2458 31.7471 31.1458C32.0702 31.0457 32.3857 30.9149 32.6935 30.7533C32.7551 30.7226 32.8243 30.7072 32.9013 30.7072C33.0475 30.7072 33.1629 30.7533 33.2475 30.8457C33.3322 30.938 33.3707 31.0457 33.363 31.1689C33.3553 31.2766 33.3283 31.3651 33.2822 31.4343C33.2437 31.4959 33.186 31.5459 33.109 31.5844C32.7551 31.7844 32.3703 31.9537 31.9548 32.0922C31.5393 32.2307 31.0468 32.3 30.4774 32.3Z"/>
</mask>
<path d="M7.7912 32.1846C7.645 32.1846 7.52188 32.1346 7.42185 32.0345C7.32182 31.9345 7.2718 31.8114 7.2718 31.6652V24.6591C7.2718 24.5128 7.32182 24.3897 7.42185 24.2897C7.52188 24.182 7.645 24.1281 7.7912 24.1281H10.1112C10.8037 24.1281 11.4039 24.2474 11.9118 24.4859C12.4196 24.7168 12.8428 25.0284 13.1814 25.4208C13.52 25.8056 13.7701 26.2365 13.9317 26.7136C14.1009 27.1906 14.1856 27.6716 14.1856 28.1563C14.1856 28.6411 14.1009 29.122 13.9317 29.5991C13.7701 30.0762 13.52 30.511 13.1814 30.9034C12.8428 31.2881 12.4196 31.5998 11.9118 31.8383C11.4039 32.0691 10.8037 32.1846 10.1112 32.1846H7.7912ZM8.32214 31.2035H9.98422C10.6306 31.2035 11.1885 31.0765 11.6578 30.8226C12.1349 30.561 12.5004 30.2032 12.7544 29.7492C13.016 29.2875 13.1468 28.7565 13.1468 28.1563C13.1468 27.5561 13.016 27.0291 12.7544 26.5751C12.5004 26.1134 12.1349 25.7556 11.6578 25.5016C11.1885 25.24 10.6306 25.1092 9.98422 25.1092H8.32214V31.2035ZM20.3142 32.3C19.4909 32.3 18.7791 32.123 18.1789 31.7691C17.5787 31.4151 17.1132 30.9265 16.7823 30.3032C16.4514 29.6799 16.2783 28.9643 16.2629 28.1563C16.2783 27.3484 16.4514 26.6328 16.7823 26.0095C17.1132 25.3862 17.5787 24.8976 18.1789 24.5436C18.7791 24.1897 19.4909 24.0127 20.3142 24.0127C21.1376 24.0127 21.8493 24.1897 22.4495 24.5436C23.0497 24.8976 23.5153 25.3862 23.8461 26.0095C24.177 26.6328 24.3502 27.3484 24.3655 28.1563C24.3502 28.9643 24.177 29.6799 23.8461 30.3032C23.5153 30.9265 23.0497 31.4151 22.4495 31.7691C21.8493 32.123 21.1376 32.3 20.3142 32.3ZM20.3142 31.3189C20.9529 31.3189 21.4954 31.1804 21.9417 30.9034C22.388 30.6187 22.7265 30.2378 22.9574 29.7607C23.1959 29.2836 23.3152 28.7488 23.3152 28.1563C23.3152 27.5638 23.1959 27.0291 22.9574 26.552C22.7265 26.0749 22.388 25.6978 21.9417 25.4208C21.4954 25.1361 20.9529 24.9938 20.3142 24.9938C19.6756 24.9938 19.1331 25.1361 18.6868 25.4208C18.2405 25.6978 17.8981 26.0749 17.6595 26.552C17.4287 27.0291 17.3133 27.5638 17.3133 28.1563C17.3133 28.7488 17.4287 29.2836 17.6595 29.7607C17.8981 30.2378 18.2405 30.6187 18.6868 30.9034C19.1331 31.1804 19.6756 31.3189 20.3142 31.3189ZM30.4774 32.3C29.7156 32.3 29.0269 32.1346 28.4114 31.8037C27.8035 31.4651 27.3225 30.988 26.9686 30.3724C26.6146 29.7492 26.4376 29.0105 26.4376 28.1563C26.4376 27.2945 26.6146 26.5558 26.9686 25.9402C27.3225 25.3247 27.8035 24.8514 28.4114 24.5205C29.0269 24.182 29.7156 24.0127 30.4774 24.0127C31.0468 24.0127 31.5393 24.0819 31.9548 24.2204C32.3703 24.359 32.7551 24.5282 33.109 24.7283C33.186 24.7668 33.2437 24.8206 33.2822 24.8899C33.3283 24.9515 33.3553 25.0361 33.363 25.1438C33.3707 25.2669 33.3322 25.3747 33.2475 25.467C33.1629 25.5593 33.0475 25.6055 32.9013 25.6055C32.8243 25.6055 32.7551 25.5901 32.6935 25.5593C32.3857 25.3978 32.0702 25.2669 31.7471 25.1669C31.4239 25.0669 31.0353 25.0169 30.5813 25.0169C29.9041 25.0169 29.3347 25.1554 28.873 25.4324C28.4114 25.7094 28.0651 26.0864 27.8342 26.5635C27.6034 27.0329 27.488 27.5638 27.488 28.1563C27.488 28.7488 27.6034 29.2836 27.8342 29.7607C28.0651 30.2301 28.4114 30.6033 28.873 30.8803C29.3347 31.1573 29.9041 31.2958 30.5813 31.2958C31.0353 31.2958 31.4239 31.2458 31.7471 31.1458C32.0702 31.0457 32.3857 30.9149 32.6935 30.7533C32.7551 30.7226 32.8243 30.7072 32.9013 30.7072C33.0475 30.7072 33.1629 30.7533 33.2475 30.8457C33.3322 30.938 33.3707 31.0457 33.363 31.1689C33.3553 31.2766 33.3283 31.3651 33.2822 31.4343C33.2437 31.4959 33.186 31.5459 33.109 31.5844C32.7551 31.7844 32.3703 31.9537 31.9548 32.0922C31.5393 32.2307 31.0468 32.3 30.4774 32.3Z" fill="white"/>
<path d="M7.42185 32.0345L7.62847 31.8279L7.62847 31.8279L7.42185 32.0345ZM7.42185 24.2897L7.62862 24.4965L7.63598 24.4885L7.42185 24.2897ZM11.9118 24.4859L11.7875 24.7504L11.7909 24.7519L11.9118 24.4859ZM13.1814 25.4208L12.9602 25.6117L12.962 25.6139L13.1814 25.4208ZM13.9317 26.7136L13.6549 26.8073L13.6563 26.8113L13.9317 26.7136ZM13.9317 29.5991L13.6562 29.5014L13.6549 29.5054L13.9317 29.5991ZM13.1814 30.9034L13.4008 31.0964L13.4027 31.0943L13.1814 30.9034ZM11.9118 31.8383L12.0327 32.1043L12.036 32.1028L11.9118 31.8383ZM8.32214 31.2035H8.02994V31.4957H8.32214V31.2035ZM11.6578 30.8226L11.7969 31.0796L11.7983 31.0788L11.6578 30.8226ZM12.7544 29.7492L12.5001 29.6051L12.4993 29.6065L12.7544 29.7492ZM12.7544 26.5751L12.4983 26.7159L12.5012 26.721L12.7544 26.5751ZM11.6578 25.5016L11.5156 25.7569L11.5205 25.7596L11.6578 25.5016ZM8.32214 25.1092V24.817H8.02994V25.1092H8.32214ZM7.7912 32.1846V31.8924C7.7196 31.8924 7.67169 31.8711 7.62847 31.8279L7.42185 32.0345L7.21523 32.2411C7.37208 32.398 7.5704 32.4768 7.7912 32.4768V32.1846ZM7.42185 32.0345L7.62847 31.8279C7.58526 31.7847 7.56401 31.7368 7.56401 31.6652H7.2718H6.97959C6.97959 31.886 7.05838 32.0843 7.21523 32.2411L7.42185 32.0345ZM7.2718 31.6652H7.56401V24.6591H7.2718H6.97959V31.6652H7.2718ZM7.2718 24.6591H7.56401C7.56401 24.5874 7.58526 24.5395 7.62847 24.4963L7.42185 24.2897L7.21523 24.0831C7.05838 24.2399 6.97959 24.4382 6.97959 24.6591H7.2718ZM7.42185 24.2897L7.63598 24.4885C7.68107 24.44 7.72676 24.4203 7.7912 24.4203V24.1281V23.8359C7.56324 23.8359 7.3627 23.924 7.20772 24.0909L7.42185 24.2897ZM7.7912 24.1281V24.4203H10.1112V24.1281V23.8359H7.7912V24.1281ZM10.1112 24.1281V24.4203C10.7706 24.4203 11.3266 24.5339 11.7875 24.7504L11.9118 24.4859L12.036 24.2214C11.4813 23.9609 10.8368 23.8359 10.1112 23.8359V24.1281ZM11.9118 24.4859L11.7909 24.7519C12.2632 24.9666 12.6513 25.2537 12.9602 25.6117L13.1814 25.4208L13.4027 25.23C13.0344 24.8031 12.576 24.4669 12.0327 24.2199L11.9118 24.4859ZM13.1814 25.4208L12.962 25.6139C13.2756 25.9702 13.5059 26.3674 13.6549 26.8073L13.9317 26.7136L14.2084 26.6198C14.0342 26.1055 13.7644 25.641 13.4008 25.2278L13.1814 25.4208ZM13.9317 26.7136L13.6563 26.8113C13.8149 27.2584 13.8934 27.7063 13.8934 28.1563H14.1856H14.4778C14.4778 27.6368 14.387 27.1229 14.207 26.6158L13.9317 26.7136ZM14.1856 28.1563H13.8934C13.8934 28.6064 13.8149 29.0543 13.6563 29.5014L13.9317 29.5991L14.207 29.6968C14.387 29.1898 14.4778 28.6759 14.4778 28.1563H14.1856ZM13.9317 29.5991L13.6549 29.5054C13.5057 29.9458 13.2749 30.3477 12.9602 30.7125L13.1814 30.9034L13.4027 31.0943C13.7651 30.6742 14.0344 30.2066 14.2084 29.6929L13.9317 29.5991ZM13.1814 30.9034L12.962 30.7103C12.6524 31.0623 12.2626 31.3507 11.7875 31.5738L11.9118 31.8383L12.036 32.1028C12.5767 31.8488 13.0333 31.514 13.4008 31.0964L13.1814 30.9034ZM11.9118 31.8383L11.7909 31.5723C11.329 31.7822 10.7718 31.8924 10.1112 31.8924V32.1846V32.4768C10.8356 32.4768 11.4788 32.3561 12.0327 32.1043L11.9118 31.8383ZM10.1112 32.1846V31.8924H7.7912V32.1846V32.4768H10.1112V32.1846ZM8.32214 31.2035V31.4957H9.98422V31.2035V30.9113H8.32214V31.2035ZM9.98422 31.2035V31.4957C10.669 31.4957 11.2767 31.361 11.7969 31.0796L11.6578 30.8226L11.5188 30.5656C11.1003 30.792 10.5922 30.9113 9.98422 30.9113V31.2035ZM11.6578 30.8226L11.7983 31.0788C12.3212 30.7921 12.7274 30.3959 13.0094 29.8918L12.7544 29.7492L12.4993 29.6065C12.2734 30.0104 11.9487 30.3298 11.5173 30.5664L11.6578 30.8226ZM12.7544 29.7492L13.0086 29.8932C13.2982 29.3821 13.439 28.8003 13.439 28.1563H13.1468H12.8546C12.8546 28.7128 12.7337 29.1929 12.5001 29.6051L12.7544 29.7492ZM13.1468 28.1563H13.439C13.439 27.5125 13.2983 26.9336 13.0075 26.4292L12.7544 26.5751L12.5012 26.721C12.7337 27.1245 12.8546 27.5998 12.8546 28.1563H13.1468ZM12.7544 26.5751L13.0104 26.4342C12.7284 25.9215 12.321 25.5236 11.7951 25.2437L11.6578 25.5016L11.5205 25.7596C11.9489 25.9876 12.2725 26.3053 12.4983 26.7159L12.7544 26.5751ZM11.6578 25.5016L11.8001 25.2464C11.2792 24.9561 10.6703 24.817 9.98422 24.817V25.1092V25.4014C10.5909 25.4014 11.0977 25.524 11.5156 25.7569L11.6578 25.5016ZM9.98422 25.1092V24.817H8.32214V25.1092V25.4014H9.98422V25.1092ZM8.32214 25.1092H8.02994V31.2035H8.32214H8.61435V25.1092H8.32214ZM18.1789 31.7691L18.3274 31.5174V31.5174L18.1789 31.7691ZM16.7823 30.3032L16.5242 30.4402V30.4402L16.7823 30.3032ZM16.2629 28.1563L15.9705 28.1508L15.9708 28.1619L16.2629 28.1563ZM16.7823 26.0095L17.0404 26.1465V26.1465L16.7823 26.0095ZM18.1789 24.5436L18.0305 24.2919V24.2919L18.1789 24.5436ZM22.4495 24.5436L22.598 24.2919V24.2919L22.4495 24.5436ZM23.8461 26.0095L23.588 26.1465V26.1465L23.8461 26.0095ZM24.3655 28.1563L24.6579 28.1619L24.6577 28.1508L24.3655 28.1563ZM23.8461 30.3032L23.588 30.1662V30.1662L23.8461 30.3032ZM22.4495 31.7691L22.3011 31.5174L22.4495 31.7691ZM21.9417 30.9034L22.0958 31.1517L22.0988 31.1497L21.9417 30.9034ZM22.9574 29.7607L22.696 29.63L22.6944 29.6334L22.9574 29.7607ZM22.9574 26.552L22.6943 26.6793L22.696 26.6827L22.9574 26.552ZM21.9417 25.4208L21.7845 25.6672L21.7876 25.6691L21.9417 25.4208ZM18.6868 25.4208L18.8409 25.6691L18.8439 25.6672L18.6868 25.4208ZM17.6595 26.552L17.3981 26.4213L17.3965 26.4247L17.6595 26.552ZM17.6595 29.7607L17.3965 29.888L17.3982 29.8914L17.6595 29.7607ZM18.6868 30.9034L18.5296 31.1498L18.5327 31.1517L18.6868 30.9034ZM20.3142 32.3V32.0078C19.5335 32.0078 18.875 31.8403 18.3274 31.5174L18.1789 31.7691L18.0305 32.0207C18.6832 32.4057 19.4482 32.5922 20.3142 32.5922V32.3ZM18.1789 31.7691L18.3274 31.5174C17.7742 31.1911 17.3463 30.7425 17.0404 30.1662L16.7823 30.3032L16.5242 30.4402C16.88 31.1105 17.3832 31.639 18.0305 32.0207L18.1789 31.7691ZM16.7823 30.3032L17.0404 30.1662C16.734 29.589 16.5697 28.9195 16.5551 28.1508L16.2629 28.1563L15.9708 28.1619C15.9869 29.009 16.1689 29.7709 16.5242 30.4402L16.7823 30.3032ZM16.2629 28.1563L16.5551 28.1619C16.5697 27.3931 16.734 26.7237 17.0404 26.1465L16.7823 26.0095L16.5242 25.8725C16.1689 26.5418 15.9869 27.3036 15.9708 28.1508L16.2629 28.1563ZM16.7823 26.0095L17.0404 26.1465C17.3463 25.5702 17.7742 25.1215 18.3274 24.7953L18.1789 24.5436L18.0305 24.2919C17.3832 24.6736 16.88 25.2022 16.5242 25.8725L16.7823 26.0095ZM18.1789 24.5436L18.3274 24.7953C18.875 24.4724 19.5335 24.3049 20.3142 24.3049V24.0127V23.7205C19.4482 23.7205 18.6832 23.907 18.0305 24.2919L18.1789 24.5436ZM20.3142 24.0127V24.3049C21.0949 24.3049 21.7534 24.4724 22.3011 24.7953L22.4495 24.5436L22.598 24.2919C21.9452 23.907 21.1802 23.7205 20.3142 23.7205V24.0127ZM22.4495 24.5436L22.3011 24.7953C22.8542 25.1215 23.2821 25.5702 23.588 26.1465L23.8461 26.0095L24.1042 25.8725C23.7484 25.2022 23.2452 24.6736 22.598 24.2919L22.4495 24.5436ZM23.8461 26.0095L23.588 26.1465C23.8945 26.7237 24.0587 27.3931 24.0734 28.1619L24.3655 28.1563L24.6577 28.1508C24.6416 27.3036 24.4596 26.5418 24.1042 25.8725L23.8461 26.0095ZM24.3655 28.1563L24.0734 28.1508C24.0587 28.9195 23.8945 29.589 23.588 30.1662L23.8461 30.3032L24.1042 30.4402C24.4596 29.7709 24.6416 29.009 24.6577 28.1619L24.3655 28.1563ZM23.8461 30.3032L23.588 30.1662C23.2821 30.7425 22.8542 31.1911 22.3011 31.5174L22.4495 31.7691L22.598 32.0207C23.2452 31.639 23.7484 31.1105 24.1042 30.4402L23.8461 30.3032ZM22.4495 31.7691L22.3011 31.5174C21.7534 31.8403 21.0949 32.0078 20.3142 32.0078V32.3V32.5922C21.1802 32.5922 21.9452 32.4057 22.598 32.0207L22.4495 31.7691ZM20.3142 31.3189V31.6111C20.9956 31.6111 21.5941 31.463 22.0958 31.1517L21.9417 30.9034L21.7876 30.6551C21.3966 30.8978 20.9102 31.0267 20.3142 31.0267V31.3189ZM21.9417 30.9034L22.0988 31.1497C22.5908 30.8359 22.966 30.4137 23.2204 29.888L22.9574 29.7607L22.6944 29.6334C22.4871 30.0618 22.1851 30.4015 21.7845 30.657L21.9417 30.9034ZM22.9574 29.7607L23.2188 29.8914C23.4797 29.3694 23.6074 28.7891 23.6074 28.1563H23.3152H23.023C23.023 28.7086 22.9121 29.1978 22.696 29.63L22.9574 29.7607ZM23.3152 28.1563H23.6074C23.6074 27.5236 23.4797 26.9433 23.2188 26.4213L22.9574 26.552L22.696 26.6827C22.9121 27.1148 23.023 27.6041 23.023 28.1563H23.3152ZM22.9574 26.552L23.2204 26.4247C22.9657 25.8983 22.5896 25.4791 22.0958 25.1726L21.9417 25.4208L21.7876 25.6691C22.1864 25.9166 22.4874 26.2515 22.6944 26.6792L22.9574 26.552ZM21.9417 25.4208L22.0988 25.1745C21.5967 24.8542 20.997 24.7016 20.3142 24.7016V24.9938V25.286C20.9088 25.286 21.3941 25.4181 21.7845 25.6672L21.9417 25.4208ZM20.3142 24.9938V24.7016C19.6315 24.7016 19.0318 24.8542 18.5296 25.1745L18.6868 25.4208L18.8439 25.6672C19.2344 25.4181 19.7196 25.286 20.3142 25.286V24.9938ZM18.6868 25.4208L18.5327 25.1726C18.0397 25.4786 17.6605 25.8966 17.3982 26.4213L17.6595 26.552L17.9209 26.6827C18.1356 26.2532 18.4413 25.9171 18.8409 25.6691L18.6868 25.4208ZM17.6595 26.552L17.3965 26.4247C17.1443 26.9459 17.021 27.525 17.021 28.1563H17.3133H17.6055C17.6055 27.6027 17.7131 27.1122 17.9226 26.6792L17.6595 26.552ZM17.3133 28.1563H17.021C17.021 28.7877 17.1443 29.3668 17.3965 29.888L17.6595 29.7607L17.9226 29.6334C17.7131 29.2005 17.6055 28.71 17.6055 28.1563H17.3133ZM17.6595 29.7607L17.3982 29.8914C17.6601 30.4154 18.0384 30.8364 18.5296 31.1497L18.6868 30.9034L18.8439 30.657C18.4425 30.401 18.136 30.0602 17.9209 29.63L17.6595 29.7607ZM18.6868 30.9034L18.5327 31.1517C19.0343 31.463 19.6329 31.6111 20.3142 31.6111V31.3189V31.0267C19.7182 31.0267 19.2318 30.8978 18.8409 30.6551L18.6868 30.9034ZM28.4114 31.8037L28.2692 32.059L28.273 32.0611L28.4114 31.8037ZM26.9686 30.3724L26.7145 30.5167L26.7153 30.5181L26.9686 30.3724ZM26.9686 25.9402L27.2219 26.0859V26.0859L26.9686 25.9402ZM28.4114 24.5205L28.5511 24.7772L28.5522 24.7766L28.4114 24.5205ZM31.9548 24.2204L32.0472 23.9432V23.9432L31.9548 24.2204ZM33.109 24.7283L32.9653 24.9827L32.9717 24.9863L32.9784 24.9897L33.109 24.7283ZM33.2822 24.8899L33.0267 25.0318L33.0364 25.0493L33.0484 25.0652L33.2822 24.8899ZM33.363 25.1438L33.6546 25.1256L33.6544 25.123L33.363 25.1438ZM33.2475 25.467L33.4629 25.6645L33.4629 25.6645L33.2475 25.467ZM32.6935 25.5593L32.5577 25.8181L32.5628 25.8207L32.6935 25.5593ZM31.7471 25.1669L31.8335 24.8878V24.8878L31.7471 25.1669ZM28.873 25.4324L28.7227 25.1818V25.1818L28.873 25.4324ZM27.8342 26.5635L28.0965 26.6925L28.0973 26.6908L27.8342 26.5635ZM27.8342 29.7607L27.5712 29.888L27.572 29.8897L27.8342 29.7607ZM28.873 30.8803L28.7227 31.1309V31.1309L28.873 30.8803ZM31.7471 31.1458L31.8335 31.4249V31.4249L31.7471 31.1458ZM32.6935 30.7533L32.5628 30.4919L32.5577 30.4946L32.6935 30.7533ZM33.2475 30.8457L33.4629 30.6482V30.6482L33.2475 30.8457ZM33.363 31.1689L33.6544 31.1897L33.6546 31.1871L33.363 31.1689ZM33.2822 31.4343L33.0389 31.2722L33.0344 31.2795L33.2822 31.4343ZM33.109 31.5844L32.9784 31.323L32.9717 31.3263L32.9653 31.33L33.109 31.5844ZM31.9548 32.0922L32.0472 32.3694V32.3694L31.9548 32.0922ZM30.4774 32.3V32.0078C29.7595 32.0078 29.119 31.8523 28.5497 31.5463L28.4114 31.8037L28.273 32.0611C28.9349 32.4168 29.6718 32.5922 30.4774 32.5922V32.3ZM28.4114 31.8037L28.5535 31.5484C27.9929 31.2362 27.55 30.7974 27.2219 30.2268L26.9686 30.3724L26.7153 30.5181C27.0951 31.1786 27.614 31.6941 28.2692 32.059L28.4114 31.8037ZM26.9686 30.3724L27.2227 30.2281C26.8981 29.6566 26.7298 28.9696 26.7298 28.1563H26.4376H26.1454C26.1454 29.0513 26.3312 29.8417 26.7145 30.5167L26.9686 30.3724ZM26.4376 28.1563H26.7298C26.7298 27.3347 26.8983 26.6486 27.2219 26.0859L26.9686 25.9402L26.7153 25.7946C26.3309 26.463 26.1454 27.2543 26.1454 28.1563H26.4376ZM26.9686 25.9402L27.2219 26.0859C27.5497 25.5158 27.9918 25.0816 28.5511 24.7772L28.4114 24.5205L28.2717 24.2639C27.6151 24.6213 27.0954 25.1335 26.7153 25.7946L26.9686 25.9402ZM28.4114 24.5205L28.5522 24.7766C29.121 24.4637 29.7606 24.3049 30.4774 24.3049V24.0127V23.7205C29.6707 23.7205 28.9329 23.9002 28.2705 24.2645L28.4114 24.5205ZM30.4774 24.0127V24.3049C31.0243 24.3049 31.4841 24.3716 31.8624 24.4977L31.9548 24.2204L32.0472 23.9432C31.5945 23.7923 31.0693 23.7205 30.4774 23.7205V24.0127ZM31.9548 24.2204L31.8624 24.4977C32.2615 24.6307 32.6288 24.7925 32.9653 24.9827L33.109 24.7283L33.2528 24.4739C32.8813 24.2639 32.4792 24.0872 32.0472 23.9432L31.9548 24.2204ZM33.109 24.7283L32.9784 24.9897C33.0074 25.0042 33.0193 25.0185 33.0267 25.0318L33.2822 24.8899L33.5376 24.748C33.4681 24.6228 33.3646 24.5294 33.2397 24.4669L33.109 24.7283ZM33.2822 24.8899L33.0484 25.0652C33.0499 25.0672 33.0663 25.0912 33.0715 25.1646L33.363 25.1438L33.6544 25.123C33.6443 24.981 33.6068 24.8357 33.5159 24.7146L33.2822 24.8899ZM33.363 25.1438L33.0713 25.1621C33.074 25.2045 33.0641 25.2347 33.0321 25.2696L33.2475 25.467L33.4629 25.6645C33.6003 25.5146 33.6673 25.3294 33.6546 25.1256L33.363 25.1438ZM33.2475 25.467L33.0321 25.2696C33.0122 25.2913 32.9806 25.3133 32.9013 25.3133V25.6055V25.8977C33.1144 25.8977 33.3136 25.8274 33.4629 25.6645L33.2475 25.467ZM32.9013 25.6055V25.3133C32.8643 25.3133 32.8406 25.3062 32.8242 25.298L32.6935 25.5593L32.5628 25.8207C32.6695 25.8741 32.7844 25.8977 32.9013 25.8977V25.6055ZM32.6935 25.5593L32.8293 25.3006C32.5062 25.131 32.1742 24.9932 31.8335 24.8878L31.7471 25.1669L31.6607 25.446C31.9663 25.5407 32.2653 25.6645 32.5577 25.8181L32.6935 25.5593ZM31.7471 25.1669L31.8335 24.8878C31.4746 24.7767 31.0552 24.7247 30.5813 24.7247V25.0169V25.3091C31.0153 25.3091 31.3732 25.3571 31.6607 25.446L31.7471 25.1669ZM30.5813 25.0169V24.7247C29.8647 24.7247 29.2401 24.8714 28.7227 25.1818L28.873 25.4324L29.0234 25.6829C29.4293 25.4394 29.9436 25.3091 30.5813 25.3091V25.0169ZM28.873 25.4324L28.7227 25.1818C28.2131 25.4876 27.8272 25.9071 27.5712 26.4362L27.8342 26.5635L28.0973 26.6908C28.3029 26.2658 28.6096 25.9312 29.0234 25.6829L28.873 25.4324ZM27.8342 26.5635L27.572 26.4346C27.319 26.9491 27.1958 27.5251 27.1958 28.1563H27.488H27.7802C27.7802 27.6026 27.8878 27.1167 28.0965 26.6925L27.8342 26.5635ZM27.488 28.1563H27.1958C27.1958 28.7877 27.319 29.3668 27.5712 29.888L27.8342 29.7607L28.0973 29.6334C27.8878 29.2005 27.7802 28.71 27.7802 28.1563H27.488ZM27.8342 29.7607L27.572 29.8897C27.8285 30.411 28.2143 30.8258 28.7227 31.1309L28.873 30.8803L29.0234 30.6297C28.6084 30.3808 28.3017 30.0491 28.0965 29.6317L27.8342 29.7607ZM28.873 30.8803L28.7227 31.1309C29.2401 31.4413 29.8647 31.588 30.5813 31.588V31.2958V31.0036C29.9436 31.0036 29.4293 30.8733 29.0234 30.6297L28.873 30.8803ZM30.5813 31.2958V31.588C31.0552 31.588 31.4746 31.536 31.8335 31.4249L31.7471 31.1458L31.6607 30.8666C31.3732 30.9556 31.0153 31.0036 30.5813 31.0036V31.2958ZM31.7471 31.1458L31.8335 31.4249C32.1742 31.3195 32.5062 31.1817 32.8293 31.0121L32.6935 30.7533L32.5577 30.4946C32.2653 30.6481 31.9663 30.772 31.6607 30.8666L31.7471 31.1458ZM32.6935 30.7533L32.8242 31.0147C32.8406 31.0065 32.8643 30.9994 32.9013 30.9994V30.7072V30.415C32.7844 30.415 32.6695 30.4386 32.5628 30.492L32.6935 30.7533ZM32.9013 30.7072V30.9994C32.9806 30.9994 33.0122 31.0214 33.0321 31.0431L33.2475 30.8457L33.4629 30.6482C33.3136 30.4853 33.1144 30.415 32.9013 30.415V30.7072ZM33.2475 30.8457L33.0321 31.0431C33.0641 31.0779 33.074 31.1081 33.0713 31.1506L33.363 31.1689L33.6546 31.1871C33.6673 30.9833 33.6003 30.7981 33.4629 30.6482L33.2475 30.8457ZM33.363 31.1689L33.0715 31.148C33.0664 31.2199 33.05 31.2558 33.039 31.2722L33.2822 31.4343L33.5253 31.5964C33.6067 31.4743 33.6442 31.3332 33.6544 31.1897L33.363 31.1689ZM33.2822 31.4343L33.0344 31.2795C33.0293 31.2876 33.0162 31.3041 32.9784 31.323L33.109 31.5844L33.2397 31.8457C33.3558 31.7877 33.4581 31.7042 33.53 31.5892L33.2822 31.4343ZM33.109 31.5844L32.9653 31.33C32.6288 31.5201 32.2615 31.682 31.8624 31.815L31.9548 32.0922L32.0472 32.3694C32.4792 32.2255 32.8813 32.0487 33.2528 31.8388L33.109 31.5844ZM31.9548 32.0922L31.8624 31.815C31.4841 31.9411 31.0243 32.0078 30.4774 32.0078V32.3V32.5922C31.0693 32.5922 31.5945 32.5204 32.0472 32.3694L31.9548 32.0922Z" fill="white" mask="url(#path-4-outside-1_383_20947)"/>
<g filter="url(#filter1_d_383_20947)">
<path d="M39.7405 14.9026H28.0522C26.277 14.9026 24.8379 13.4635 24.8379 11.6883V0L39.7405 14.9026Z" fill="url(#paint2_linear_383_20947)"/>
</g>
</g>
<defs>
<filter id="filter0_f_383_20947" x="1.31513" y="16.0715" width="37.4025" height="23.6686" filterUnits="userSpaceOnUse" color-interpolation-filters="sRGB">
<feFlood flood-opacity="0" result="BackgroundImageFix"/>
<feBlend mode="normal" in="SourceGraphic" in2="BackgroundImageFix" result="shape"/>
<feGaussianBlur stdDeviation="2.84903" result="effect1_foregroundBlur_383_20947"/>
</filter>
<filter id="filter1_d_383_20947" x="21.4775" y="-3.50649" width="22.208" height="22.2075" filterUnits="userSpaceOnUse" color-interpolation-filters="sRGB">
<feFlood flood-opacity="0" result="BackgroundImageFix"/>
<feColorMatrix in="SourceAlpha" type="matrix" values="0 0 0 0 0 0 0 0 0 0 0 0 0 0 0 0 0 0 127 0" result="hardAlpha"/>
<feOffset dx="0.292208" dy="0.146104"/>
<feGaussianBlur stdDeviation="1.8263"/>
<feColorMatrix type="matrix" values="0 0 0 0 0 0 0 0 0 0 0 0 0 0 0 0 0 0 0.33 0"/>
<feBlend mode="normal" in2="BackgroundImageFix" result="effect1_dropShadow_383_20947"/>
<feBlend mode="normal" in="SourceGraphic" in2="effect1_dropShadow_383_20947" result="shape"/>
</filter>
<linearGradient id="paint0_linear_383_20947" x1="19.8701" y1="0" x2="19.8701" y2="45" gradientUnits="userSpaceOnUse">
<stop stop-color="#FF7979"/>
<stop offset="1" stop-color="#E85555"/>
</linearGradient>
<linearGradient id="paint1_linear_383_20947" x1="19.8701" y1="0" x2="19.8701" y2="45" gradientUnits="userSpaceOnUse">
<stop stop-color="#6ABDF8"/>
<stop offset="1" stop-color="#008BD6"/>
</linearGradient>
<linearGradient id="paint2_linear_383_20947" x1="32.2892" y1="0" x2="32.2892" y2="14.9026" gradientUnits="userSpaceOnUse">
<stop stop-color="#009FE3"/>
<stop offset="1" stop-color="#0087C1"/>
</linearGradient>
</defs>
</svg>
