<svg width="40" height="45" viewBox="0 0 40 45" fill="none" xmlns="http://www.w3.org/2000/svg">
<mask id="mask0_383_20912" style="mask-type:alpha" maskUnits="userSpaceOnUse" x="0" y="0" width="40" height="45">
<path d="M36.526 45H3.21429C1.43909 45 0 43.5609 0 41.7857V3.21429C0 1.43909 1.43909 0 3.21429 0H24.8377L39.7403 14.9026V41.7857C39.7403 43.5609 38.3012 45 36.526 45Z" fill="url(#paint0_linear_383_20912)"/>
</mask>
<g mask="url(#mask0_383_20912)">
<path d="M36.526 45H3.21429C1.43909 45 0 43.5609 0 41.7857V3.21429C0 1.43909 1.43909 0 3.21429 0H24.8377L39.7403 14.9026V41.7857C39.7403 43.5609 38.3012 45 36.526 45Z" fill="url(#paint1_linear_383_20912)"/>
<g filter="url(#filter0_f_383_20912)">
<rect x="7.01318" y="21.7695" width="26.0065" height="12.2727" fill="#5552E9" fill-opacity="0.39" style="mix-blend-mode:darken"/>
</g>
<mask id="path-4-outside-1_383_20912" maskUnits="userSpaceOnUse" x="9.49707" y="23.1846" width="21" height="10" fill="black">
<rect fill="white" x="9.49707" y="23.1846" width="21" height="10"/>
<path d="M14.3507 32.3C13.5427 32.3 12.8348 32.123 12.2269 31.7691C11.619 31.4151 11.1458 30.9303 10.8072 30.3147C10.4686 29.6915 10.2994 28.9758 10.2994 28.1679C10.2994 27.5446 10.4032 26.979 10.611 26.4712C10.8188 25.9556 11.1035 25.517 11.4651 25.1554C11.8345 24.786 12.2615 24.5052 12.7463 24.3128C13.2311 24.1127 13.7543 24.0127 14.316 24.0127C14.9701 24.0127 15.5203 24.0935 15.9666 24.2551C16.4206 24.4167 16.8284 24.6129 17.1901 24.8437C17.2439 24.8745 17.2939 24.9245 17.3401 24.9938C17.394 25.063 17.4209 25.1515 17.4209 25.2592C17.4209 25.3824 17.3786 25.4939 17.2939 25.594C17.2093 25.6863 17.09 25.7325 16.9361 25.7325C16.8515 25.7325 16.7707 25.7132 16.6937 25.6748C16.3552 25.4747 16.0051 25.317 15.6434 25.2015C15.2817 25.0861 14.8778 25.0284 14.4315 25.0284C13.8544 25.0284 13.3311 25.1515 12.8617 25.3978C12.4 25.6363 12.0307 25.9903 11.7537 26.4596C11.4844 26.9213 11.3497 27.4907 11.3497 28.1679C11.3497 28.7604 11.4728 29.2952 11.7191 29.7722C11.9653 30.2416 12.3231 30.6148 12.7925 30.8918C13.2619 31.1689 13.8274 31.3074 14.4892 31.3074C14.897 31.3074 15.2702 31.2612 15.6088 31.1689C15.9473 31.0688 16.2474 30.9457 16.5091 30.7995V28.7104H14.6046C14.4738 28.7104 14.3622 28.6642 14.2699 28.5719C14.1775 28.4795 14.1314 28.3679 14.1314 28.2371C14.1314 28.1063 14.1775 27.9947 14.2699 27.9024C14.3622 27.8101 14.4738 27.7639 14.6046 27.7639H16.8784C17.0323 27.7639 17.1631 27.8178 17.2709 27.9255C17.3786 28.0332 17.4324 28.164 17.4324 28.3179V30.938C17.4324 31.0996 17.3901 31.2458 17.3055 31.3766C17.2285 31.4997 17.1247 31.5921 16.9938 31.6536C16.6168 31.846 16.2051 32.0037 15.7588 32.1269C15.3202 32.2423 14.8508 32.3 14.3507 32.3ZM20.847 32.2423C20.7008 32.2423 20.5777 32.1923 20.4777 32.0922C20.3777 31.9922 20.3276 31.8691 20.3276 31.7229V24.6013C20.3276 24.4551 20.3777 24.332 20.4777 24.232C20.5777 24.1243 20.7008 24.0704 20.847 24.0704C20.9932 24.0704 21.1164 24.1243 21.2164 24.232C21.3241 24.332 21.378 24.4551 21.378 24.6013V31.7229C21.378 31.8691 21.3241 31.9922 21.2164 32.0922C21.1164 32.1923 20.9932 32.2423 20.847 32.2423ZM24.9463 32.2423C24.8001 32.2423 24.677 32.1923 24.577 32.0922C24.477 31.9922 24.4269 31.8691 24.4269 31.7229V24.6591C24.4269 24.5128 24.477 24.3897 24.577 24.2897C24.677 24.182 24.8001 24.1281 24.9463 24.1281H29.4363C29.5748 24.1281 29.6902 24.1781 29.7825 24.2782C29.8826 24.3705 29.9326 24.4859 29.9326 24.6244C29.9326 24.7629 29.8826 24.8784 29.7825 24.9707C29.6902 25.063 29.5748 25.1092 29.4363 25.1092H25.4773V27.66H29.0323C29.1708 27.66 29.2862 27.71 29.3785 27.8101C29.4786 27.9024 29.5286 28.0178 29.5286 28.1563C29.5286 28.2948 29.4786 28.4103 29.3785 28.5026C29.2862 28.5949 29.1708 28.6411 29.0323 28.6411H25.4773V31.7229C25.4773 31.8691 25.4234 31.9922 25.3157 32.0922C25.2157 32.1923 25.0925 32.2423 24.9463 32.2423Z"/>
</mask>
<path d="M14.3507 32.3C13.5427 32.3 12.8348 32.123 12.2269 31.7691C11.619 31.4151 11.1458 30.9303 10.8072 30.3147C10.4686 29.6915 10.2994 28.9758 10.2994 28.1679C10.2994 27.5446 10.4032 26.979 10.611 26.4712C10.8188 25.9556 11.1035 25.517 11.4651 25.1554C11.8345 24.786 12.2615 24.5052 12.7463 24.3128C13.2311 24.1127 13.7543 24.0127 14.316 24.0127C14.9701 24.0127 15.5203 24.0935 15.9666 24.2551C16.4206 24.4167 16.8284 24.6129 17.1901 24.8437C17.2439 24.8745 17.2939 24.9245 17.3401 24.9938C17.394 25.063 17.4209 25.1515 17.4209 25.2592C17.4209 25.3824 17.3786 25.4939 17.2939 25.594C17.2093 25.6863 17.09 25.7325 16.9361 25.7325C16.8515 25.7325 16.7707 25.7132 16.6937 25.6748C16.3552 25.4747 16.0051 25.317 15.6434 25.2015C15.2817 25.0861 14.8778 25.0284 14.4315 25.0284C13.8544 25.0284 13.3311 25.1515 12.8617 25.3978C12.4 25.6363 12.0307 25.9903 11.7537 26.4596C11.4844 26.9213 11.3497 27.4907 11.3497 28.1679C11.3497 28.7604 11.4728 29.2952 11.7191 29.7722C11.9653 30.2416 12.3231 30.6148 12.7925 30.8918C13.2619 31.1689 13.8274 31.3074 14.4892 31.3074C14.897 31.3074 15.2702 31.2612 15.6088 31.1689C15.9473 31.0688 16.2474 30.9457 16.5091 30.7995V28.7104H14.6046C14.4738 28.7104 14.3622 28.6642 14.2699 28.5719C14.1775 28.4795 14.1314 28.3679 14.1314 28.2371C14.1314 28.1063 14.1775 27.9947 14.2699 27.9024C14.3622 27.8101 14.4738 27.7639 14.6046 27.7639H16.8784C17.0323 27.7639 17.1631 27.8178 17.2709 27.9255C17.3786 28.0332 17.4324 28.164 17.4324 28.3179V30.938C17.4324 31.0996 17.3901 31.2458 17.3055 31.3766C17.2285 31.4997 17.1247 31.5921 16.9938 31.6536C16.6168 31.846 16.2051 32.0037 15.7588 32.1269C15.3202 32.2423 14.8508 32.3 14.3507 32.3ZM20.847 32.2423C20.7008 32.2423 20.5777 32.1923 20.4777 32.0922C20.3777 31.9922 20.3276 31.8691 20.3276 31.7229V24.6013C20.3276 24.4551 20.3777 24.332 20.4777 24.232C20.5777 24.1243 20.7008 24.0704 20.847 24.0704C20.9932 24.0704 21.1164 24.1243 21.2164 24.232C21.3241 24.332 21.378 24.4551 21.378 24.6013V31.7229C21.378 31.8691 21.3241 31.9922 21.2164 32.0922C21.1164 32.1923 20.9932 32.2423 20.847 32.2423ZM24.9463 32.2423C24.8001 32.2423 24.677 32.1923 24.577 32.0922C24.477 31.9922 24.4269 31.8691 24.4269 31.7229V24.6591C24.4269 24.5128 24.477 24.3897 24.577 24.2897C24.677 24.182 24.8001 24.1281 24.9463 24.1281H29.4363C29.5748 24.1281 29.6902 24.1781 29.7825 24.2782C29.8826 24.3705 29.9326 24.4859 29.9326 24.6244C29.9326 24.7629 29.8826 24.8784 29.7825 24.9707C29.6902 25.063 29.5748 25.1092 29.4363 25.1092H25.4773V27.66H29.0323C29.1708 27.66 29.2862 27.71 29.3785 27.8101C29.4786 27.9024 29.5286 28.0178 29.5286 28.1563C29.5286 28.2948 29.4786 28.4103 29.3785 28.5026C29.2862 28.5949 29.1708 28.6411 29.0323 28.6411H25.4773V31.7229C25.4773 31.8691 25.4234 31.9922 25.3157 32.0922C25.2157 32.1923 25.0925 32.2423 24.9463 32.2423Z" fill="white"/>
<path d="M12.2269 31.7691L12.3739 31.5165V31.5165L12.2269 31.7691ZM10.8072 30.3147L10.5504 30.4542L10.5512 30.4556L10.8072 30.3147ZM10.611 26.4712L10.8815 26.5818L10.882 26.5804L10.611 26.4712ZM11.4651 25.1554L11.2585 24.9487L11.2585 24.9487L11.4651 25.1554ZM12.7463 24.3128L12.8541 24.5844L12.8578 24.5829L12.7463 24.3128ZM15.9666 24.2551L15.8671 24.5298L15.8686 24.5304L15.9666 24.2551ZM17.1901 24.8437L17.0328 25.09L17.0389 25.0939L17.0451 25.0974L17.1901 24.8437ZM17.3401 24.9938L17.097 25.1559L17.1029 25.1647L17.1095 25.1732L17.3401 24.9938ZM17.2939 25.594L17.5095 25.7916L17.517 25.7827L17.2939 25.594ZM16.6937 25.6748L16.5451 25.9263L16.5539 25.9315L16.5631 25.9361L16.6937 25.6748ZM12.8617 25.3978L12.9959 25.6574L12.9975 25.6565L12.8617 25.3978ZM11.7537 26.4596L11.502 26.3111L11.5013 26.3124L11.7537 26.4596ZM11.7191 29.7722L11.4594 29.9063L11.4603 29.908L11.7191 29.7722ZM12.7925 30.8918L12.941 30.6402V30.6402L12.7925 30.8918ZM15.6088 31.1689L15.6857 31.4508L15.6916 31.4491L15.6088 31.1689ZM16.5091 30.7995L16.6516 31.0546L16.8013 30.971V30.7995H16.5091ZM16.5091 28.7104H16.8013V28.4182H16.5091V28.7104ZM17.3055 31.3766L17.0601 31.2179L17.0577 31.2217L17.3055 31.3766ZM16.9938 31.6536L16.8694 31.3891L16.861 31.3933L16.9938 31.6536ZM15.7588 32.1269L15.8332 32.4095L15.8365 32.4085L15.7588 32.1269ZM14.3507 32.3V32.0078C13.5866 32.0078 12.9309 31.8408 12.3739 31.5165L12.2269 31.7691L12.0799 32.0216C12.7387 32.4052 13.4989 32.5922 14.3507 32.5922V32.3ZM12.2269 31.7691L12.3739 31.5165C11.8118 31.1892 11.3763 30.743 11.0633 30.1739L10.8072 30.3147L10.5512 30.4556C10.9153 31.1176 11.4263 31.641 12.0799 32.0216L12.2269 31.7691ZM10.8072 30.3147L11.064 30.1753C10.7517 29.6004 10.5916 28.934 10.5916 28.1679H10.2994H10.0072C10.0072 29.0177 10.1856 29.7825 10.5504 30.4542L10.8072 30.3147ZM10.2994 28.1679H10.5916C10.5916 27.5774 10.6899 27.0501 10.8815 26.5818L10.611 26.4712L10.3405 26.3605C10.1166 26.908 10.0072 27.5118 10.0072 28.1679H10.2994ZM10.611 26.4712L10.882 26.5804C11.0764 26.0981 11.3402 25.6935 11.6717 25.362L11.4651 25.1554L11.2585 24.9487C10.8667 25.3405 10.5611 25.8131 10.34 26.362L10.611 26.4712ZM11.4651 25.1554L11.6717 25.362C12.013 25.0208 12.4064 24.762 12.8541 24.5844L12.7463 24.3128L12.6385 24.0412C12.1167 24.2483 11.656 24.5513 11.2585 24.9487L11.4651 25.1554ZM12.7463 24.3128L12.8578 24.5829C13.3047 24.3984 13.7898 24.3049 14.316 24.3049V24.0127V23.7205C13.7188 23.7205 13.1574 23.827 12.6348 24.0427L12.7463 24.3128ZM14.316 24.0127V24.3049C14.9481 24.3049 15.4622 24.3832 15.8671 24.5298L15.9666 24.2551L16.0661 23.9803C15.5783 23.8037 14.9921 23.7205 14.316 23.7205V24.0127ZM15.9666 24.2551L15.8686 24.5304C16.3043 24.6855 16.6919 24.8724 17.0328 25.09L17.1901 24.8437L17.3473 24.5974C16.9649 24.3534 16.5368 24.1479 16.0646 23.9798L15.9666 24.2551ZM17.1901 24.8437L17.0451 25.0974C17.0485 25.0994 17.0678 25.1121 17.097 25.1559L17.3401 24.9938L17.5832 24.8317C17.5201 24.737 17.4394 24.6496 17.335 24.59L17.1901 24.8437ZM17.3401 24.9938L17.1095 25.1732C17.115 25.1803 17.1287 25.2013 17.1287 25.2592H17.4209H17.7131C17.7131 25.1017 17.6729 24.9457 17.5708 24.8144L17.3401 24.9938ZM17.4209 25.2592H17.1287C17.1287 25.3086 17.114 25.3543 17.0709 25.4052L17.2939 25.594L17.517 25.7827C17.6432 25.6336 17.7131 25.4561 17.7131 25.2592H17.4209ZM17.2939 25.594L17.0785 25.3965C17.0615 25.4151 17.0283 25.4403 16.9361 25.4403V25.7325V26.0247C17.1518 26.0247 17.3571 25.9576 17.5093 25.7914L17.2939 25.594ZM16.9361 25.7325V25.4403C16.8976 25.4403 16.8615 25.4319 16.8244 25.4134L16.6937 25.6748L16.5631 25.9361C16.6799 25.9945 16.8054 26.0247 16.9361 26.0247V25.7325ZM16.6937 25.6748L16.8424 25.4232C16.4856 25.2124 16.1155 25.0455 15.7322 24.9232L15.6434 25.2015L15.5546 25.4799C15.8946 25.5884 16.2247 25.737 16.5451 25.9263L16.6937 25.6748ZM15.6434 25.2015L15.7322 24.9232C15.3373 24.7971 14.9028 24.7362 14.4315 24.7362V25.0284V25.3206C14.8528 25.3206 15.2262 25.3751 15.5546 25.4799L15.6434 25.2015ZM14.4315 25.0284V24.7362C13.8114 24.7362 13.2409 24.8689 12.726 25.139L12.8617 25.3978L12.9975 25.6565C13.4213 25.4342 13.8974 25.3206 14.4315 25.3206V25.0284ZM12.8617 25.3978L12.7276 25.1381C12.2146 25.4032 11.8056 25.7968 11.502 26.3111L11.7537 26.4596L12.0053 26.6082C12.2558 26.1837 12.5855 25.8694 12.9959 25.6574L12.8617 25.3978ZM11.7537 26.4596L11.5013 26.3124C11.1998 26.8292 11.0575 27.4526 11.0575 28.1679H11.3497H11.6419C11.6419 27.5289 11.7689 27.0134 12.0061 26.6069L11.7537 26.4596ZM11.3497 28.1679H11.0575C11.0575 28.8021 11.1896 29.3836 11.4594 29.9063L11.7191 29.7722L11.9787 29.6382C11.756 29.2067 11.6419 28.7187 11.6419 28.1679H11.3497ZM11.7191 29.7722L11.4603 29.908C11.7325 30.4269 12.1292 30.8397 12.644 31.1435L12.7925 30.8918L12.941 30.6402C12.517 30.39 12.1981 30.0563 11.9778 29.6365L11.7191 29.7722ZM12.7925 30.8918L12.644 31.1435C13.1671 31.4522 13.7864 31.5996 14.4892 31.5996V31.3074V31.0152C13.8685 31.0152 13.3566 30.8855 12.941 30.6402L12.7925 30.8918ZM14.4892 31.3074V31.5996C14.9189 31.5996 15.3184 31.5509 15.6857 31.4508L15.6088 31.1689L15.5319 30.8869C15.222 30.9714 14.8751 31.0152 14.4892 31.0152V31.3074ZM15.6088 31.1689L15.6916 31.4491C16.0474 31.344 16.3681 31.213 16.6516 31.0546L16.5091 30.7995L16.3665 30.5444C16.1268 30.6784 15.8473 30.7937 15.526 30.8886L15.6088 31.1689ZM16.5091 30.7995H16.8013V28.7104H16.5091H16.2169V30.7995H16.5091ZM16.5091 28.7104V28.4182H14.6046V28.7104V29.0026H16.5091V28.7104ZM14.6046 28.7104V28.4182C14.5511 28.4182 14.5139 28.4027 14.4765 28.3652L14.2699 28.5719L14.0633 28.7785C14.2105 28.9257 14.3964 29.0026 14.6046 29.0026V28.7104ZM14.2699 28.5719L14.4765 28.3652C14.4391 28.3278 14.4236 28.2906 14.4236 28.2371H14.1314H13.8392C13.8392 28.4453 13.916 28.6312 14.0633 28.7785L14.2699 28.5719ZM14.1314 28.2371H14.4236C14.4236 28.1837 14.4391 28.1465 14.4765 28.109L14.2699 27.9024L14.0633 27.6958C13.916 27.843 13.8392 28.029 13.8392 28.2371H14.1314ZM14.2699 27.9024L14.4765 28.109C14.5139 28.0716 14.5511 28.0561 14.6046 28.0561V27.7639V27.4717C14.3964 27.4717 14.2105 27.5485 14.0633 27.6958L14.2699 27.9024ZM14.6046 27.7639V28.0561H16.8784V27.7639V27.4717H14.6046V27.7639ZM16.8784 27.7639V28.0561C16.9557 28.0561 17.0119 28.0798 17.0642 28.1321L17.2709 27.9255L17.4775 27.7189C17.3143 27.5557 17.1089 27.4717 16.8784 27.4717V27.7639ZM17.2709 27.9255L17.0642 28.1321C17.1165 28.1844 17.1402 28.2406 17.1402 28.3179H17.4324H17.7247C17.7247 28.0874 17.6406 27.882 17.4775 27.7189L17.2709 27.9255ZM17.4324 28.3179H17.1402V30.938H17.4324H17.7247V28.3179H17.4324ZM17.4324 30.938H17.1402C17.1402 31.0455 17.113 31.1362 17.0602 31.2179L17.3055 31.3766L17.5508 31.5354C17.6672 31.3554 17.7247 31.1537 17.7247 30.938H17.4324ZM17.3055 31.3766L17.0577 31.2217C17.0104 31.2975 16.9492 31.3517 16.8694 31.3892L16.9938 31.6536L17.1183 31.918C17.3001 31.8325 17.4467 31.702 17.5533 31.5315L17.3055 31.3766ZM16.9938 31.6536L16.861 31.3933C16.5031 31.5759 16.1101 31.7268 15.6811 31.8452L15.7588 32.1269L15.8365 32.4085C16.3001 32.2807 16.7305 32.1161 17.1266 31.9139L16.9938 31.6536ZM15.7588 32.1269L15.6845 31.8443C15.2725 31.9527 14.8283 32.0078 14.3507 32.0078V32.3V32.5922C14.8734 32.5922 15.368 32.5319 15.8332 32.4094L15.7588 32.1269ZM20.4777 32.0922L20.6843 31.8856V31.8856L20.4777 32.0922ZM20.4777 24.232L20.6845 24.4388L20.6918 24.4308L20.4777 24.232ZM21.2164 24.232L21.0023 24.4308L21.0096 24.4388L21.0176 24.4461L21.2164 24.232ZM21.2164 32.0922L21.0174 31.878L21.0098 31.8856L21.2164 32.0922ZM20.847 32.2423V31.9501C20.7754 31.9501 20.7275 31.9288 20.6843 31.8856L20.4777 32.0922L20.2711 32.2989C20.4279 32.4557 20.6262 32.5345 20.847 32.5345V32.2423ZM20.4777 32.0922L20.6843 31.8856C20.6411 31.8424 20.6199 31.7945 20.6199 31.7229H20.3276H20.0354C20.0354 31.9437 20.1142 32.142 20.2711 32.2989L20.4777 32.0922ZM20.3276 31.7229H20.6199V24.6013H20.3276H20.0354V31.7229H20.3276ZM20.3276 24.6013H20.6199C20.6199 24.5297 20.6411 24.4818 20.6843 24.4386L20.4777 24.232L20.2711 24.0254C20.1142 24.1822 20.0354 24.3805 20.0354 24.6013H20.3276ZM20.4777 24.232L20.6918 24.4308C20.7369 24.3823 20.7826 24.3626 20.847 24.3626V24.0704V23.7782C20.6191 23.7782 20.4185 23.8663 20.2636 24.0332L20.4777 24.232ZM20.847 24.0704V24.3626C20.9115 24.3626 20.9572 24.3823 21.0023 24.4308L21.2164 24.232L21.4305 24.0332C21.2756 23.8663 21.075 23.7782 20.847 23.7782V24.0704ZM21.2164 24.232L21.0176 24.4461C21.0661 24.4912 21.0858 24.5369 21.0858 24.6013H21.378H21.6702C21.6702 24.3734 21.5821 24.1728 21.4152 24.0179L21.2164 24.232ZM21.378 24.6013H21.0858V31.7229H21.378H21.6702V24.6013H21.378ZM21.378 31.7229H21.0858C21.0858 31.7873 21.0661 31.833 21.0176 31.8781L21.2164 32.0922L21.4152 32.3064C21.5821 32.1514 21.6702 31.9508 21.6702 31.7229H21.378ZM21.2164 32.0922L21.0098 31.8856C20.9666 31.9288 20.9186 31.9501 20.847 31.9501V32.2423V32.5345C21.0678 32.5345 21.2662 32.4557 21.423 32.2989L21.2164 32.0922ZM24.577 32.0922L24.7836 31.8856V31.8856L24.577 32.0922ZM24.577 24.2897L24.7837 24.4965L24.7911 24.4885L24.577 24.2897ZM29.7825 24.2782L29.5678 24.4764L29.5757 24.4849L29.5843 24.4929L29.7825 24.2782ZM29.7825 24.9707L29.5842 24.7558L29.5759 24.7641L29.7825 24.9707ZM25.4773 25.1092V24.817H25.1851V25.1092H25.4773ZM25.4773 27.66H25.1851V27.9522H25.4773V27.66ZM29.3785 27.8101L29.1638 28.0083L29.1718 28.0169L29.1803 28.0248L29.3785 27.8101ZM29.3785 28.5026L29.1802 28.2877L29.1719 28.296L29.3785 28.5026ZM25.4773 28.6411V28.3489H25.1851V28.6411H25.4773ZM25.3157 32.0922L25.1167 31.878L25.1091 31.8856L25.3157 32.0922ZM24.9463 32.2423V31.9501C24.8747 31.9501 24.8268 31.9288 24.7836 31.8856L24.577 32.0922L24.3704 32.2989C24.5272 32.4557 24.7255 32.5345 24.9463 32.5345V32.2423ZM24.577 32.0922L24.7836 31.8856C24.7404 31.8424 24.7191 31.7945 24.7191 31.7229H24.4269H24.1347C24.1347 31.9437 24.2135 32.142 24.3704 32.2989L24.577 32.0922ZM24.4269 31.7229H24.7191V24.6591H24.4269H24.1347V31.7229H24.4269ZM24.4269 24.6591H24.7191C24.7191 24.5874 24.7404 24.5395 24.7836 24.4963L24.577 24.2897L24.3704 24.0831C24.2135 24.2399 24.1347 24.4382 24.1347 24.6591H24.4269ZM24.577 24.2897L24.7911 24.4885C24.8362 24.44 24.8819 24.4203 24.9463 24.4203V24.1281V23.8359C24.7184 23.8359 24.5178 23.924 24.3629 24.0909L24.577 24.2897ZM24.9463 24.1281V24.4203H29.4363V24.1281V23.8359H24.9463V24.1281ZM29.4363 24.1281V24.4203C29.4948 24.4203 29.5319 24.4374 29.5678 24.4764L29.7825 24.2782L29.9972 24.08C29.8485 23.9188 29.6547 23.8359 29.4363 23.8359V24.1281ZM29.7825 24.2782L29.5843 24.4929C29.6232 24.5288 29.6404 24.5659 29.6404 24.6244H29.9326H30.2248C30.2248 24.406 30.1419 24.2122 29.9807 24.0634L29.7825 24.2782ZM29.9326 24.6244H29.6404C29.6404 24.683 29.6232 24.72 29.5843 24.756L29.7825 24.9707L29.9807 25.1854C30.1419 25.0367 30.2248 24.8429 30.2248 24.6244H29.9326ZM29.7825 24.9707L29.5759 24.7641C29.5419 24.798 29.5025 24.817 29.4363 24.817V25.1092V25.4014C29.647 25.4014 29.8384 25.328 29.9891 25.1773L29.7825 24.9707ZM29.4363 25.1092V24.817H25.4773V25.1092V25.4014H29.4363V25.1092ZM25.4773 25.1092H25.1851V27.66H25.4773H25.7695V25.1092H25.4773ZM25.4773 27.66V27.9522H29.0323V27.66V27.3678H25.4773V27.66ZM29.0323 27.66V27.9522C29.0908 27.9522 29.1279 27.9693 29.1638 28.0083L29.3785 27.8101L29.5933 27.6119C29.4445 27.4507 29.2507 27.3678 29.0323 27.3678V27.66ZM29.3785 27.8101L29.1803 28.0248C29.2193 28.0607 29.2364 28.0978 29.2364 28.1563H29.5286H29.8208C29.8208 27.9379 29.7379 27.7441 29.5767 27.5954L29.3785 27.8101ZM29.5286 28.1563H29.2364C29.2364 28.2149 29.2193 28.252 29.1803 28.2879L29.3785 28.5026L29.5767 28.7173C29.7379 28.5686 29.8208 28.3748 29.8208 28.1563H29.5286ZM29.3785 28.5026L29.1719 28.296C29.138 28.3299 29.0985 28.3489 29.0323 28.3489V28.6411V28.9333C29.2431 28.9333 29.4344 28.8599 29.5852 28.7092L29.3785 28.5026ZM29.0323 28.6411V28.3489H25.4773V28.6411V28.9333H29.0323V28.6411ZM25.4773 28.6411H25.1851V31.7229H25.4773H25.7695V28.6411H25.4773ZM25.4773 31.7229H25.1851C25.1851 31.7873 25.1654 31.833 25.1169 31.8781L25.3157 32.0922L25.5145 32.3064C25.6814 32.1514 25.7695 31.9508 25.7695 31.7229H25.4773ZM25.3157 32.0922L25.1091 31.8856C25.0658 31.9288 25.0179 31.9501 24.9463 31.9501V32.2423V32.5345C25.1671 32.5345 25.3655 32.4557 25.5223 32.2989L25.3157 32.0922Z" fill="white" mask="url(#path-4-outside-1_383_20912)"/>
<g filter="url(#filter1_d_383_20912)">
<path d="M39.7405 14.9026H28.0522C26.277 14.9026 24.8379 13.4635 24.8379 11.6883V0L39.7405 14.9026Z" fill="url(#paint2_linear_383_20912)"/>
</g>
</g>
<defs>
<filter id="filter0_f_383_20912" x="1.31513" y="16.0715" width="37.4025" height="23.6686" filterUnits="userSpaceOnUse" color-interpolation-filters="sRGB">
<feFlood flood-opacity="0" result="BackgroundImageFix"/>
<feBlend mode="normal" in="SourceGraphic" in2="BackgroundImageFix" result="shape"/>
<feGaussianBlur stdDeviation="2.84903" result="effect1_foregroundBlur_383_20912"/>
</filter>
<filter id="filter1_d_383_20912" x="21.4775" y="-3.50649" width="22.208" height="22.2075" filterUnits="userSpaceOnUse" color-interpolation-filters="sRGB">
<feFlood flood-opacity="0" result="BackgroundImageFix"/>
<feColorMatrix in="SourceAlpha" type="matrix" values="0 0 0 0 0 0 0 0 0 0 0 0 0 0 0 0 0 0 127 0" result="hardAlpha"/>
<feOffset dx="0.292208" dy="0.146104"/>
<feGaussianBlur stdDeviation="1.8263"/>
<feColorMatrix type="matrix" values="0 0 0 0 0 0 0 0 0 0 0 0 0 0 0 0 0 0 0.33 0"/>
<feBlend mode="normal" in2="BackgroundImageFix" result="effect1_dropShadow_383_20912"/>
<feBlend mode="normal" in="SourceGraphic" in2="effect1_dropShadow_383_20912" result="shape"/>
</filter>
<linearGradient id="paint0_linear_383_20912" x1="19.8701" y1="0" x2="19.8701" y2="45" gradientUnits="userSpaceOnUse">
<stop stop-color="#FF7979"/>
<stop offset="1" stop-color="#E85555"/>
</linearGradient>
<linearGradient id="paint1_linear_383_20912" x1="19.8701" y1="0" x2="19.8701" y2="45" gradientUnits="userSpaceOnUse">
<stop stop-color="#A28AFF"/>
<stop offset="1" stop-color="#7655FB"/>
</linearGradient>
<linearGradient id="paint2_linear_383_20912" x1="32.2892" y1="0" x2="32.2892" y2="14.9026" gradientUnits="userSpaceOnUse">
<stop stop-color="#8A71F1"/>
<stop offset="1" stop-color="#5C39E9"/>
</linearGradient>
</defs>
</svg>
