<svg width="40" height="45" viewBox="0 0 40 45" fill="none" xmlns="http://www.w3.org/2000/svg">
<mask id="mask0_383_20926" style="mask-type:alpha" maskUnits="userSpaceOnUse" x="0" y="0" width="40" height="45">
<path d="M36.526 45H3.21429C1.43909 45 0 43.5609 0 41.7857V3.21429C0 1.43909 1.43909 0 3.21429 0H24.8377L39.7403 14.9026V41.7857C39.7403 43.5609 38.3012 45 36.526 45Z" fill="url(#paint0_linear_383_20926)"/>
</mask>
<g mask="url(#mask0_383_20926)">
<path d="M36.526 45H3.21429C1.43909 45 0 43.5609 0 41.7857V3.21429C0 1.43909 1.43909 0 3.21429 0H24.8377L39.7403 14.9026V41.7857C39.7403 43.5609 38.3012 45 36.526 45Z" fill="url(#paint1_linear_383_20926)"/>
<g opacity="0.51" filter="url(#filter0_f_383_20926)">
<rect x="7.01318" y="21.7695" width="26.0065" height="12.2727" fill="#E33CC8" style="mix-blend-mode:darken"/>
</g>
<mask id="path-4-outside-1_383_20926" maskUnits="userSpaceOnUse" x="6.45117" y="23.1846" width="24" height="10" fill="black">
<rect fill="white" x="6.45117" y="23.1846" width="24" height="10"/>
<path d="M9.39026 32.3C9.09786 32.3 8.82085 32.2654 8.55922 32.1961C8.3053 32.1269 8.0706 32.0307 7.85515 31.9076C7.7859 31.8691 7.72434 31.8152 7.67047 31.746C7.62431 31.6767 7.60122 31.5882 7.60122 31.4805C7.60122 31.3574 7.63969 31.2497 7.71664 31.1573C7.80129 31.0573 7.90901 31.0073 8.03982 31.0073C8.11677 31.0073 8.18603 31.0227 8.24758 31.0534C8.40148 31.1304 8.56692 31.1919 8.7439 31.2381C8.92857 31.2843 9.12094 31.3074 9.32101 31.3074C9.55185 31.3074 9.77116 31.265 9.97892 31.1804C10.1944 31.0958 10.3714 30.9342 10.5099 30.6956C10.6484 30.4494 10.7176 30.0839 10.7176 29.5991V24.6013C10.7176 24.4551 10.7676 24.332 10.8677 24.232C10.9677 24.1243 11.0908 24.0704 11.237 24.0704C11.3832 24.0704 11.5063 24.1243 11.6064 24.232C11.7141 24.332 11.768 24.4551 11.768 24.6013V29.5299C11.768 30.0839 11.6987 30.5417 11.5602 30.9034C11.4294 31.2573 11.2486 31.5382 11.0177 31.746C10.7946 31.946 10.5406 32.0884 10.2559 32.173C9.97122 32.2577 9.68267 32.3 9.39026 32.3ZM15.2747 32.2423C15.1285 32.2423 15.0054 32.1923 14.9054 32.0922C14.8053 31.9922 14.7553 31.8691 14.7553 31.7229V24.6591C14.7553 24.5128 14.8053 24.3897 14.9054 24.2897C15.0054 24.182 15.1285 24.1281 15.2747 24.1281H17.9063C18.4911 24.1281 18.9798 24.2051 19.3722 24.359C19.7723 24.5052 20.0878 24.7052 20.3187 24.9591C20.5572 25.2054 20.7265 25.4785 20.8265 25.7786C20.9342 26.0787 20.9881 26.3827 20.9881 26.6905C20.9881 26.9983 20.9342 27.3022 20.8265 27.6023C20.7265 27.9024 20.5572 28.1794 20.3187 28.4334C20.0878 28.6796 19.7723 28.8797 19.3722 29.0335C18.9798 29.1797 18.4911 29.2528 17.9063 29.2528H15.8057V31.7229C15.8057 31.8691 15.7518 31.9922 15.6441 32.0922C15.544 32.1923 15.4209 32.2423 15.2747 32.2423ZM15.8057 28.2602H17.8025C18.3796 28.2602 18.822 28.1833 19.1298 28.0294C19.4376 27.8678 19.6492 27.6677 19.7646 27.4292C19.8801 27.1829 19.9378 26.9367 19.9378 26.6905C19.9378 26.4366 19.8801 26.1903 19.7646 25.9518C19.6492 25.7132 19.4376 25.517 19.1298 25.3631C18.822 25.2015 18.3796 25.1207 17.8025 25.1207H15.8057V28.2602ZM26.8847 32.3C26.0768 32.3 25.3689 32.123 24.761 31.7691C24.1531 31.4151 23.6798 30.9303 23.3413 30.3147C23.0027 29.6915 22.8334 28.9758 22.8334 28.1679C22.8334 27.5446 22.9373 26.979 23.1451 26.4712C23.3528 25.9556 23.6375 25.517 23.9992 25.1554C24.3685 24.786 24.7956 24.5052 25.2804 24.3128C25.7651 24.1127 26.2884 24.0127 26.8501 24.0127C27.5042 24.0127 28.0543 24.0935 28.5006 24.2551C28.9546 24.4167 29.3625 24.6129 29.7241 24.8437C29.778 24.8745 29.828 24.9245 29.8742 24.9938C29.928 25.063 29.955 25.1515 29.955 25.2592C29.955 25.3824 29.9126 25.4939 29.828 25.594C29.7434 25.6863 29.6241 25.7325 29.4702 25.7325C29.3855 25.7325 29.3048 25.7132 29.2278 25.6748C28.8892 25.4747 28.5391 25.317 28.1775 25.2015C27.8158 25.0861 27.4118 25.0284 26.9655 25.0284C26.3884 25.0284 25.8652 25.1515 25.3958 25.3978C24.9341 25.6363 24.5648 25.9903 24.2877 26.4596C24.0184 26.9213 23.8838 27.4907 23.8838 28.1679C23.8838 28.7604 24.0069 29.2952 24.2531 29.7722C24.4993 30.2416 24.8572 30.6148 25.3265 30.8918C25.7959 31.1689 26.3615 31.3074 27.0232 31.3074C27.4311 31.3074 27.8043 31.2612 28.1428 31.1689C28.4814 31.0688 28.7815 30.9457 29.0431 30.7995V28.7104H27.1387C27.0079 28.7104 26.8963 28.6642 26.8039 28.5719C26.7116 28.4795 26.6654 28.3679 26.6654 28.2371C26.6654 28.1063 26.7116 27.9947 26.8039 27.9024C26.8963 27.8101 27.0079 27.7639 27.1387 27.7639H29.4125C29.5664 27.7639 29.6972 27.8178 29.8049 27.9255C29.9126 28.0332 29.9665 28.164 29.9665 28.3179V30.938C29.9665 31.0996 29.9242 31.2458 29.8395 31.3766C29.7626 31.4997 29.6587 31.5921 29.5279 31.6536C29.1509 31.846 28.7392 32.0037 28.2929 32.1269C27.8543 32.2423 27.3849 32.3 26.8847 32.3Z"/>
</mask>
<path d="M9.39026 32.3C9.09786 32.3 8.82085 32.2654 8.55922 32.1961C8.3053 32.1269 8.0706 32.0307 7.85515 31.9076C7.7859 31.8691 7.72434 31.8152 7.67047 31.746C7.62431 31.6767 7.60122 31.5882 7.60122 31.4805C7.60122 31.3574 7.63969 31.2497 7.71664 31.1573C7.80129 31.0573 7.90901 31.0073 8.03982 31.0073C8.11677 31.0073 8.18603 31.0227 8.24758 31.0534C8.40148 31.1304 8.56692 31.1919 8.7439 31.2381C8.92857 31.2843 9.12094 31.3074 9.32101 31.3074C9.55185 31.3074 9.77116 31.265 9.97892 31.1804C10.1944 31.0958 10.3714 30.9342 10.5099 30.6956C10.6484 30.4494 10.7176 30.0839 10.7176 29.5991V24.6013C10.7176 24.4551 10.7676 24.332 10.8677 24.232C10.9677 24.1243 11.0908 24.0704 11.237 24.0704C11.3832 24.0704 11.5063 24.1243 11.6064 24.232C11.7141 24.332 11.768 24.4551 11.768 24.6013V29.5299C11.768 30.0839 11.6987 30.5417 11.5602 30.9034C11.4294 31.2573 11.2486 31.5382 11.0177 31.746C10.7946 31.946 10.5406 32.0884 10.2559 32.173C9.97122 32.2577 9.68267 32.3 9.39026 32.3ZM15.2747 32.2423C15.1285 32.2423 15.0054 32.1923 14.9054 32.0922C14.8053 31.9922 14.7553 31.8691 14.7553 31.7229V24.6591C14.7553 24.5128 14.8053 24.3897 14.9054 24.2897C15.0054 24.182 15.1285 24.1281 15.2747 24.1281H17.9063C18.4911 24.1281 18.9798 24.2051 19.3722 24.359C19.7723 24.5052 20.0878 24.7052 20.3187 24.9591C20.5572 25.2054 20.7265 25.4785 20.8265 25.7786C20.9342 26.0787 20.9881 26.3827 20.9881 26.6905C20.9881 26.9983 20.9342 27.3022 20.8265 27.6023C20.7265 27.9024 20.5572 28.1794 20.3187 28.4334C20.0878 28.6796 19.7723 28.8797 19.3722 29.0335C18.9798 29.1797 18.4911 29.2528 17.9063 29.2528H15.8057V31.7229C15.8057 31.8691 15.7518 31.9922 15.6441 32.0922C15.544 32.1923 15.4209 32.2423 15.2747 32.2423ZM15.8057 28.2602H17.8025C18.3796 28.2602 18.822 28.1833 19.1298 28.0294C19.4376 27.8678 19.6492 27.6677 19.7646 27.4292C19.8801 27.1829 19.9378 26.9367 19.9378 26.6905C19.9378 26.4366 19.8801 26.1903 19.7646 25.9518C19.6492 25.7132 19.4376 25.517 19.1298 25.3631C18.822 25.2015 18.3796 25.1207 17.8025 25.1207H15.8057V28.2602ZM26.8847 32.3C26.0768 32.3 25.3689 32.123 24.761 31.7691C24.1531 31.4151 23.6798 30.9303 23.3413 30.3147C23.0027 29.6915 22.8334 28.9758 22.8334 28.1679C22.8334 27.5446 22.9373 26.979 23.1451 26.4712C23.3528 25.9556 23.6375 25.517 23.9992 25.1554C24.3685 24.786 24.7956 24.5052 25.2804 24.3128C25.7651 24.1127 26.2884 24.0127 26.8501 24.0127C27.5042 24.0127 28.0543 24.0935 28.5006 24.2551C28.9546 24.4167 29.3625 24.6129 29.7241 24.8437C29.778 24.8745 29.828 24.9245 29.8742 24.9938C29.928 25.063 29.955 25.1515 29.955 25.2592C29.955 25.3824 29.9126 25.4939 29.828 25.594C29.7434 25.6863 29.6241 25.7325 29.4702 25.7325C29.3855 25.7325 29.3048 25.7132 29.2278 25.6748C28.8892 25.4747 28.5391 25.317 28.1775 25.2015C27.8158 25.0861 27.4118 25.0284 26.9655 25.0284C26.3884 25.0284 25.8652 25.1515 25.3958 25.3978C24.9341 25.6363 24.5648 25.9903 24.2877 26.4596C24.0184 26.9213 23.8838 27.4907 23.8838 28.1679C23.8838 28.7604 24.0069 29.2952 24.2531 29.7722C24.4993 30.2416 24.8572 30.6148 25.3265 30.8918C25.7959 31.1689 26.3615 31.3074 27.0232 31.3074C27.4311 31.3074 27.8043 31.2612 28.1428 31.1689C28.4814 31.0688 28.7815 30.9457 29.0431 30.7995V28.7104H27.1387C27.0079 28.7104 26.8963 28.6642 26.8039 28.5719C26.7116 28.4795 26.6654 28.3679 26.6654 28.2371C26.6654 28.1063 26.7116 27.9947 26.8039 27.9024C26.8963 27.8101 27.0079 27.7639 27.1387 27.7639H29.4125C29.5664 27.7639 29.6972 27.8178 29.8049 27.9255C29.9126 28.0332 29.9665 28.164 29.9665 28.3179V30.938C29.9665 31.0996 29.9242 31.2458 29.8395 31.3766C29.7626 31.4997 29.6587 31.5921 29.5279 31.6536C29.1509 31.846 28.7392 32.0037 28.2929 32.1269C27.8543 32.2423 27.3849 32.3 26.8847 32.3Z" fill="white"/>
<path d="M8.55922 32.1961L8.48234 32.478L8.48445 32.4786L8.55922 32.1961ZM7.85515 31.9076L8.00014 31.6538L7.99706 31.6521L7.85515 31.9076ZM7.67047 31.746L7.42734 31.9081L7.43326 31.9169L7.43982 31.9254L7.67047 31.746ZM7.71664 31.1573L7.49357 30.9686L7.49216 30.9702L7.71664 31.1573ZM8.24758 31.0534L8.11691 31.3148L8.24758 31.0534ZM8.7439 31.2381L8.67014 31.5209L8.67303 31.5216L8.7439 31.2381ZM9.97892 31.1804L9.87206 30.9084L9.86867 30.9098L9.97892 31.1804ZM10.5099 30.6956L10.7626 30.8424L10.7645 30.8389L10.5099 30.6956ZM10.8677 24.232L11.0744 24.4388L11.0818 24.4308L10.8677 24.232ZM11.6064 24.232L11.3922 24.4308L11.3996 24.4388L11.4075 24.4461L11.6064 24.232ZM11.5602 30.9034L11.2873 30.7989L11.2861 30.8021L11.5602 30.9034ZM11.0177 31.746L11.2128 31.9635L11.2132 31.9632L11.0177 31.746ZM10.2559 32.173L10.3392 32.4531V32.4531L10.2559 32.173ZM9.39026 32.3V32.0078C9.12109 32.0078 8.86935 31.9759 8.634 31.9136L8.55922 32.1961L8.48445 32.4786C8.77235 32.5548 9.07463 32.5922 9.39026 32.5922V32.3ZM8.55922 32.1961L8.63611 31.9142C8.40454 31.851 8.19291 31.764 8.00012 31.6538L7.85515 31.9076L7.71017 32.1613C7.9483 32.2973 8.20605 32.4027 8.48234 32.478L8.55922 32.1961ZM7.85515 31.9076L7.99706 31.6521C7.96573 31.6347 7.93344 31.6081 7.90113 31.5666L7.67047 31.746L7.43982 31.9254C7.51524 32.0223 7.60606 32.1034 7.71324 32.163L7.85515 31.9076ZM7.67047 31.746L7.91361 31.5839C7.90764 31.5749 7.89343 31.5473 7.89343 31.4805H7.60122H7.30901C7.30901 31.6291 7.34097 31.7785 7.42734 31.9081L7.67047 31.746ZM7.60122 31.4805H7.89343C7.89343 31.4239 7.90908 31.3828 7.94112 31.3444L7.71664 31.1573L7.49216 30.9702C7.37031 31.1165 7.30901 31.2908 7.30901 31.4805H7.60122ZM7.71664 31.1573L7.93971 31.3461C7.96894 31.3115 7.99514 31.2995 8.03982 31.2995V31.0073V30.7151C7.82289 30.7151 7.63363 30.803 7.49358 30.9686L7.71664 31.1573ZM8.03982 31.0073V31.2995C8.07682 31.2995 8.1005 31.3066 8.11691 31.3148L8.24758 31.0534L8.37826 30.7921C8.27155 30.7387 8.15672 30.7151 8.03982 30.7151V31.0073ZM8.24758 31.0534L8.11691 31.3148C8.29008 31.4014 8.47472 31.4699 8.67014 31.5209L8.7439 31.2381L8.81766 30.9554C8.65911 30.914 8.51288 30.8594 8.37826 30.7921L8.24758 31.0534ZM8.7439 31.2381L8.67303 31.5216C8.88203 31.5738 9.09827 31.5996 9.32101 31.5996V31.3074V31.0152C9.14362 31.0152 8.97512 30.9947 8.81477 30.9546L8.7439 31.2381ZM9.32101 31.3074V31.5996C9.58854 31.5996 9.84538 31.5503 10.0892 31.451L9.97892 31.1804L9.86867 30.9098C9.69694 30.9798 9.51517 31.0152 9.32101 31.0152V31.3074ZM9.97892 31.1804L10.0858 31.4524C10.3737 31.3392 10.5975 31.1266 10.7626 30.8424L10.5099 30.6956L10.2572 30.5489C10.1452 30.7418 10.015 30.8523 9.87207 30.9084L9.97892 31.1804ZM10.5099 30.6956L10.7645 30.8389C10.9395 30.5279 11.0098 30.1027 11.0098 29.5991H10.7176H10.4254C10.4254 30.0651 10.3573 30.3709 10.2552 30.5524L10.5099 30.6956ZM10.7176 29.5991H11.0098V24.6013H10.7176H10.4254V29.5991H10.7176ZM10.7176 24.6013H11.0098C11.0098 24.5297 11.0311 24.4818 11.0743 24.4386L10.8677 24.232L10.661 24.0254C10.5042 24.1822 10.4254 24.3805 10.4254 24.6013H10.7176ZM10.8677 24.232L11.0818 24.4308C11.1269 24.3823 11.1726 24.3626 11.237 24.3626V24.0704V23.7782C11.0091 23.7782 10.8085 23.8663 10.6535 24.0332L10.8677 24.232ZM11.237 24.0704V24.3626C11.3015 24.3626 11.3471 24.3823 11.3922 24.4308L11.6064 24.232L11.8205 24.0332C11.6655 23.8663 11.465 23.7782 11.237 23.7782V24.0704ZM11.6064 24.232L11.4075 24.4461C11.4561 24.4912 11.4758 24.5369 11.4758 24.6013H11.768H12.0602C12.0602 24.3734 11.9721 24.1728 11.8052 24.0179L11.6064 24.232ZM11.768 24.6013H11.4758V29.5299H11.768H12.0602V24.6013H11.768ZM11.768 29.5299H11.4758C11.4758 30.0623 11.4088 30.4816 11.2873 30.7989L11.5602 30.9034L11.8331 31.0079C11.9886 30.6018 12.0602 30.1055 12.0602 29.5299H11.768ZM11.5602 30.9034L11.2861 30.8021C11.1682 31.1211 11.0111 31.3588 10.8222 31.5288L11.0177 31.746L11.2132 31.9632C11.486 31.7176 11.6905 31.3936 11.8343 31.0047L11.5602 30.9034ZM11.0177 31.746L10.8227 31.5284C10.6314 31.6999 10.4156 31.8207 10.1727 31.8929L10.2559 32.173L10.3392 32.4531C10.6657 32.356 10.9577 32.1922 11.2128 31.9635L11.0177 31.746ZM10.2559 32.173L10.1727 31.8929C9.91455 31.9697 9.65402 32.0078 9.39026 32.0078V32.3V32.5922C9.71131 32.5922 10.0279 32.5457 10.3392 32.4531L10.2559 32.173ZM14.9054 32.0922L15.112 31.8856V31.8856L14.9054 32.0922ZM14.9054 24.2897L15.1121 24.4965L15.1195 24.4885L14.9054 24.2897ZM19.3722 24.359L19.2655 24.6311L19.2719 24.6334L19.3722 24.359ZM20.3187 24.9591L20.1023 25.1558L20.1088 25.1625L20.3187 24.9591ZM20.8265 25.7786L20.5492 25.8711L20.5515 25.8774L20.8265 25.7786ZM20.8265 27.6023L20.5514 27.5036L20.5493 27.5099L20.8265 27.6023ZM20.3187 28.4334L20.1057 28.2333L20.1055 28.2335L20.3187 28.4334ZM19.3722 29.0335L19.4742 29.3074L19.4771 29.3063L19.3722 29.0335ZM15.8057 29.2528V28.9606H15.5134V29.2528H15.8057ZM15.6441 32.0922L15.4451 31.878L15.4374 31.8856L15.6441 32.0922ZM15.8057 28.2602H15.5134V28.5524H15.8057V28.2602ZM19.1298 28.0294L19.2605 28.2908L19.2656 28.2881L19.1298 28.0294ZM19.7646 27.4292L20.0277 27.5565L20.0292 27.5532L19.7646 27.4292ZM19.1298 25.3631L18.994 25.6219L18.9991 25.6245L19.1298 25.3631ZM15.8057 25.1207V24.8285H15.5134V25.1207H15.8057ZM15.2747 32.2423V31.9501C15.2031 31.9501 15.1552 31.9288 15.112 31.8856L14.9054 32.0922L14.6987 32.2989C14.8556 32.4557 15.0539 32.5345 15.2747 32.5345V32.2423ZM14.9054 32.0922L15.112 31.8856C15.0688 31.8424 15.0475 31.7945 15.0475 31.7229H14.7553H14.4631C14.4631 31.9437 14.5419 32.142 14.6987 32.2989L14.9054 32.0922ZM14.7553 31.7229H15.0475V24.6591H14.7553H14.4631V31.7229H14.7553ZM14.7553 24.6591H15.0475C15.0475 24.5874 15.0688 24.5395 15.112 24.4963L14.9054 24.2897L14.6987 24.0831C14.5419 24.2399 14.4631 24.4382 14.4631 24.6591H14.7553ZM14.9054 24.2897L15.1195 24.4885C15.1646 24.44 15.2103 24.4203 15.2747 24.4203V24.1281V23.8359C15.0468 23.8359 14.8462 23.924 14.6912 24.0909L14.9054 24.2897ZM15.2747 24.1281V24.4203H17.9063V24.1281V23.8359H15.2747V24.1281ZM17.9063 24.1281V24.4203C18.4678 24.4203 18.9175 24.4945 19.2655 24.631L19.3722 24.359L19.4789 24.0869C19.0421 23.9156 18.5145 23.8359 17.9063 23.8359V24.1281ZM19.3722 24.359L19.2719 24.6334C19.6382 24.7672 19.9101 24.9442 20.1024 25.1557L20.3187 24.9591L20.5349 24.7626C20.2655 24.4663 19.9065 24.2431 19.4725 24.0845L19.3722 24.359ZM20.3187 24.9591L20.1088 25.1625C20.3194 25.3799 20.4643 25.6159 20.5493 25.871L20.8265 25.7786L21.1037 25.6862C20.9887 25.3412 20.795 25.0308 20.5285 24.7558L20.3187 24.9591ZM20.8265 25.7786L20.5515 25.8774C20.6483 26.1469 20.6959 26.4175 20.6959 26.6905H20.9881H21.2803C21.2803 26.3478 21.2202 26.0105 21.1015 25.6799L20.8265 25.7786ZM20.9881 26.6905H20.6959C20.6959 26.9634 20.6483 27.234 20.5515 27.5036L20.8265 27.6023L21.1015 27.701C21.2202 27.3704 21.2803 27.0331 21.2803 26.6905H20.9881ZM20.8265 27.6023L20.5493 27.5099C20.4639 27.766 20.3182 28.007 20.1057 28.2333L20.3187 28.4334L20.5316 28.6334C20.7962 28.3518 20.989 28.0388 21.1037 27.6947L20.8265 27.6023ZM20.3187 28.4334L20.1055 28.2335C19.9118 28.4401 19.6371 28.6186 19.2673 28.7608L19.3722 29.0335L19.4771 29.3063C19.9076 29.1407 20.2638 28.9191 20.5318 28.6332L20.3187 28.4334ZM19.3722 29.0335L19.2702 28.7597C18.9205 28.89 18.4691 28.9606 17.9063 28.9606V29.2528V29.5451C18.5132 29.5451 19.039 29.4695 19.4742 29.3074L19.3722 29.0335ZM17.9063 29.2528V28.9606H15.8057V29.2528V29.5451H17.9063V29.2528ZM15.8057 29.2528H15.5134V31.7229H15.8057H16.0979V29.2528H15.8057ZM15.8057 31.7229H15.5134C15.5134 31.7873 15.4938 31.833 15.4452 31.8781L15.6441 32.0922L15.8429 32.3064C16.0098 32.1514 16.0979 31.9508 16.0979 31.7229H15.8057ZM15.6441 32.0922L15.4374 31.8856C15.3942 31.9288 15.3463 31.9501 15.2747 31.9501V32.2423V32.5345C15.4955 32.5345 15.6938 32.4557 15.8507 32.2989L15.6441 32.0922ZM15.8057 28.2602V28.5524H17.8025V28.2602V27.968H15.8057V28.2602ZM17.8025 28.2602V28.5524C18.3981 28.5524 18.8935 28.4742 19.2605 28.2907L19.1298 28.0294L18.9991 27.768C18.7506 27.8923 18.3611 27.968 17.8025 27.968V28.2602ZM19.1298 28.0294L19.2656 28.2881C19.6116 28.1065 19.8776 27.8666 20.0277 27.5565L19.7646 27.4292L19.5016 27.3019C19.4208 27.4689 19.2636 27.6291 18.994 27.7707L19.1298 28.0294ZM19.7646 27.4292L20.0292 27.5532C20.1609 27.2722 20.23 26.9839 20.23 26.6905H19.9378H19.6456C19.6456 26.8895 19.5992 27.0936 19.5001 27.3052L19.7646 27.4292ZM19.9378 26.6905H20.23C20.23 26.3905 20.1614 26.1009 20.0277 25.8245L19.7646 25.9518L19.5016 26.0791C19.5987 26.2797 19.6456 26.4826 19.6456 26.6905H19.9378ZM19.7646 25.9518L20.0277 25.8245C19.8767 25.5126 19.6087 25.2759 19.2605 25.1018L19.1298 25.3631L18.9991 25.6245C19.2665 25.7582 19.4217 25.9139 19.5016 26.0791L19.7646 25.9518ZM19.1298 25.3631L19.2656 25.1044C18.8969 24.9108 18.3993 24.8285 17.8025 24.8285V25.1207V25.4129C18.3598 25.4129 18.7471 25.4922 18.994 25.6218L19.1298 25.3631ZM17.8025 25.1207V24.8285H15.8057V25.1207V25.4129H17.8025V25.1207ZM15.8057 25.1207H15.5134V28.2602H15.8057H16.0979V25.1207H15.8057ZM24.761 31.7691L24.908 31.5165V31.5165L24.761 31.7691ZM23.3413 30.3147L23.0845 30.4542L23.0852 30.4556L23.3413 30.3147ZM23.1451 26.4712L23.4155 26.5818L23.4161 26.5804L23.1451 26.4712ZM23.9992 25.1554L23.7926 24.9487V24.9487L23.9992 25.1554ZM25.2804 24.3128L25.3882 24.5844L25.3918 24.5829L25.2804 24.3128ZM28.5006 24.2551L28.4012 24.5298L28.4027 24.5304L28.5006 24.2551ZM29.7241 24.8437L29.5669 25.09L29.5729 25.0939L29.5791 25.0974L29.7241 24.8437ZM29.8742 24.9938L29.631 25.1559L29.637 25.1647L29.6435 25.1732L29.8742 24.9938ZM29.828 25.594L30.0436 25.7916L30.0511 25.7827L29.828 25.594ZM29.2278 25.6748L29.0791 25.9263L29.088 25.9315L29.0971 25.9361L29.2278 25.6748ZM25.3958 25.3978L25.5299 25.6574L25.5315 25.6565L25.3958 25.3978ZM24.2877 26.4596L24.0361 26.3111L24.0353 26.3124L24.2877 26.4596ZM24.2531 29.7722L23.9934 29.9063L23.9943 29.908L24.2531 29.7722ZM25.3265 30.8918L25.4751 30.6402V30.6402L25.3265 30.8918ZM28.1428 31.1689L28.2197 31.4508L28.2256 31.4491L28.1428 31.1689ZM29.0431 30.7995L29.1857 31.0546L29.3353 30.971V30.7995H29.0431ZM29.0431 28.7104H29.3353V28.4182H29.0431V28.7104ZM29.8395 31.3766L29.5942 31.2179L29.5917 31.2217L29.8395 31.3766ZM29.5279 31.6536L29.4034 31.3891L29.3951 31.3933L29.5279 31.6536ZM28.2929 32.1269L28.3673 32.4095L28.3706 32.4085L28.2929 32.1269ZM26.8847 32.3V32.0078C26.1206 32.0078 25.465 31.8408 24.908 31.5165L24.761 31.7691L24.6139 32.0216C25.2727 32.4052 26.0329 32.5922 26.8847 32.5922V32.3ZM24.761 31.7691L24.908 31.5165C24.3458 31.1892 23.9103 30.743 23.5973 30.1739L23.3413 30.3147L23.0852 30.4556C23.4494 31.1176 23.9603 31.641 24.6139 32.0216L24.761 31.7691ZM23.3413 30.3147L23.598 30.1753C23.2858 29.6004 23.1256 28.934 23.1256 28.1679H22.8334H22.5412C22.5412 29.0177 22.7196 29.7825 23.0845 30.4542L23.3413 30.3147ZM22.8334 28.1679H23.1256C23.1256 27.5774 23.2239 27.0501 23.4155 26.5818L23.1451 26.4712L22.8746 26.3605C22.6507 26.908 22.5412 27.5118 22.5412 28.1679H22.8334ZM23.1451 26.4712L23.4161 26.5804C23.6104 26.0981 23.8743 25.6935 24.2058 25.362L23.9992 25.1554L23.7926 24.9487C23.4008 25.3405 23.0952 25.8131 22.874 26.362L23.1451 26.4712ZM23.9992 25.1554L24.2058 25.362C24.547 25.0208 24.9405 24.762 25.3881 24.5844L25.2804 24.3128L25.1726 24.0412C24.6507 24.2483 24.19 24.5513 23.7926 24.9487L23.9992 25.1554ZM25.2804 24.3128L25.3918 24.5829C25.8388 24.3984 26.3239 24.3049 26.8501 24.3049V24.0127V23.7205C26.2529 23.7205 25.6915 23.827 25.1689 24.0427L25.2804 24.3128ZM26.8501 24.0127V24.3049C27.4821 24.3049 27.9963 24.3832 28.4012 24.5298L28.5006 24.2551L28.6001 23.9803C28.1124 23.8037 27.5262 23.7205 26.8501 23.7205V24.0127ZM28.5006 24.2551L28.4027 24.5304C28.8384 24.6855 29.2259 24.8724 29.5669 25.09L29.7241 24.8437L29.8813 24.5974C29.499 24.3534 29.0709 24.1479 28.5986 23.9798L28.5006 24.2551ZM29.7241 24.8437L29.5791 25.0974C29.5825 25.0994 29.6018 25.1121 29.631 25.1559L29.8742 24.9938L30.1173 24.8317C30.0542 24.737 29.9734 24.6496 29.8691 24.59L29.7241 24.8437ZM29.8742 24.9938L29.6435 25.1732C29.6491 25.1803 29.6628 25.2013 29.6628 25.2592H29.955H30.2472C30.2472 25.1017 30.207 24.9457 30.1048 24.8144L29.8742 24.9938ZM29.955 25.2592H29.6628C29.6628 25.3086 29.648 25.3543 29.6049 25.4052L29.828 25.594L30.0511 25.7827C30.1772 25.6336 30.2472 25.4561 30.2472 25.2592H29.955ZM29.828 25.594L29.6126 25.3965C29.5956 25.4151 29.5623 25.4403 29.4702 25.4403V25.7325V26.0247C29.6858 26.0247 29.8911 25.9576 30.0434 25.7914L29.828 25.594ZM29.4702 25.7325V25.4403C29.4317 25.4403 29.3955 25.4319 29.3585 25.4134L29.2278 25.6748L29.0971 25.9361C29.214 25.9945 29.3394 26.0247 29.4702 26.0247V25.7325ZM29.2278 25.6748L29.3765 25.4232C29.0197 25.2124 28.6496 25.0455 28.2663 24.9232L28.1775 25.2015L28.0886 25.4799C28.4287 25.5884 28.7588 25.737 29.0791 25.9263L29.2278 25.6748ZM28.1775 25.2015L28.2663 24.9232C27.8714 24.7971 27.4368 24.7362 26.9655 24.7362V25.0284V25.3206C27.3868 25.3206 27.7602 25.3751 28.0886 25.4799L28.1775 25.2015ZM26.9655 25.0284V24.7362C26.3454 24.7362 25.7749 24.8689 25.26 25.139L25.3958 25.3978L25.5315 25.6565C25.9554 25.4342 26.4314 25.3206 26.9655 25.3206V25.0284ZM25.3958 25.3978L25.2617 25.1381C24.7487 25.4032 24.3396 25.7968 24.0361 26.3111L24.2877 26.4596L24.5394 26.6082C24.7899 26.1837 25.1195 25.8694 25.5299 25.6574L25.3958 25.3978ZM24.2877 26.4596L24.0353 26.3124C23.7339 26.8292 23.5916 27.4526 23.5916 28.1679H23.8838H24.176C24.176 27.5289 24.303 27.0134 24.5401 26.6069L24.2877 26.4596ZM23.8838 28.1679H23.5916C23.5916 28.8021 23.7237 29.3836 23.9934 29.9063L24.2531 29.7722L24.5128 29.6382C24.2901 29.2067 24.176 28.7187 24.176 28.1679H23.8838ZM24.2531 29.7722L23.9943 29.908C24.2666 30.4269 24.6632 30.8397 25.178 31.1435L25.3265 30.8918L25.4751 30.6402C25.0511 30.39 24.7321 30.0563 24.5119 29.6365L24.2531 29.7722ZM25.3265 30.8918L25.178 31.1435C25.7011 31.4522 26.3204 31.5996 27.0232 31.5996V31.3074V31.0152C26.4025 31.0152 25.8907 30.8855 25.4751 30.6402L25.3265 30.8918ZM27.0232 31.3074V31.5996C27.4529 31.5996 27.8524 31.5509 28.2197 31.4508L28.1428 31.1689L28.066 30.8869C27.7561 30.9714 27.4092 31.0152 27.0232 31.0152V31.3074ZM28.1428 31.1689L28.2256 31.4491C28.5814 31.344 28.9021 31.213 29.1857 31.0546L29.0431 30.7995L28.9006 30.5444C28.6609 30.6784 28.3814 30.7937 28.06 30.8886L28.1428 31.1689ZM29.0431 30.7995H29.3353V28.7104H29.0431H28.7509V30.7995H29.0431ZM29.0431 28.7104V28.4182H27.1387V28.7104V29.0026H29.0431V28.7104ZM27.1387 28.7104V28.4182C27.0852 28.4182 27.048 28.4027 27.0106 28.3652L26.8039 28.5719L26.5973 28.7785C26.7446 28.9257 26.9305 29.0026 27.1387 29.0026V28.7104ZM26.8039 28.5719L27.0106 28.3652C26.9731 28.3278 26.9576 28.2906 26.9576 28.2371H26.6654H26.3732C26.3732 28.4453 26.4501 28.6312 26.5973 28.7785L26.8039 28.5719ZM26.6654 28.2371H26.9576C26.9576 28.1837 26.9731 28.1465 27.0106 28.109L26.8039 27.9024L26.5973 27.6958C26.4501 27.843 26.3732 28.029 26.3732 28.2371H26.6654ZM26.8039 27.9024L27.0106 28.109C27.048 28.0716 27.0852 28.0561 27.1387 28.0561V27.7639V27.4717C26.9305 27.4717 26.7446 27.5485 26.5973 27.6958L26.8039 27.9024ZM27.1387 27.7639V28.0561H29.4125V27.7639V27.4717H27.1387V27.7639ZM29.4125 27.7639V28.0561C29.4898 28.0561 29.546 28.0798 29.5983 28.1321L29.8049 27.9255L30.0115 27.7189C29.8484 27.5557 29.643 27.4717 29.4125 27.4717V27.7639ZM29.8049 27.9255L29.5983 28.1321C29.6506 28.1844 29.6743 28.2406 29.6743 28.3179H29.9665H30.2587C30.2587 28.0874 30.1747 27.882 30.0115 27.7189L29.8049 27.9255ZM29.9665 28.3179H29.6743V30.938H29.9665H30.2587V28.3179H29.9665ZM29.9665 30.938H29.6743C29.6743 31.0455 29.6471 31.1362 29.5942 31.2179L29.8395 31.3766L30.0849 31.5354C30.2013 31.3554 30.2587 31.1537 30.2587 30.938H29.9665ZM29.8395 31.3766L29.5917 31.2217C29.5444 31.2975 29.4833 31.3517 29.4035 31.3892L29.5279 31.6536L29.6523 31.918C29.8342 31.8325 29.9808 31.702 30.0873 31.5315L29.8395 31.3766ZM29.5279 31.6536L29.3951 31.3933C29.0372 31.5759 28.6442 31.7268 28.2152 31.8452L28.2929 32.1269L28.3706 32.4085C28.8342 32.2807 29.2645 32.1161 29.6607 31.9139L29.5279 31.6536ZM28.2929 32.1269L28.2185 31.8443C27.8065 31.9527 27.3623 32.0078 26.8847 32.0078V32.3V32.5922C27.4074 32.5922 27.902 32.5319 28.3672 32.4094L28.2929 32.1269Z" fill="white" mask="url(#path-4-outside-1_383_20926)"/>
<g filter="url(#filter1_d_383_20926)">
<path d="M39.74 14.9026H28.0517C26.2765 14.9026 24.8374 13.4635 24.8374 11.6883V0L39.74 14.9026Z" fill="url(#paint2_linear_383_20926)"/>
</g>
</g>
<defs>
<filter id="filter0_f_383_20926" x="1.31513" y="16.0715" width="37.4025" height="23.6686" filterUnits="userSpaceOnUse" color-interpolation-filters="sRGB">
<feFlood flood-opacity="0" result="BackgroundImageFix"/>
<feBlend mode="normal" in="SourceGraphic" in2="BackgroundImageFix" result="shape"/>
<feGaussianBlur stdDeviation="2.84903" result="effect1_foregroundBlur_383_20926"/>
</filter>
<filter id="filter1_d_383_20926" x="21.477" y="-3.50649" width="22.208" height="22.2075" filterUnits="userSpaceOnUse" color-interpolation-filters="sRGB">
<feFlood flood-opacity="0" result="BackgroundImageFix"/>
<feColorMatrix in="SourceAlpha" type="matrix" values="0 0 0 0 0 0 0 0 0 0 0 0 0 0 0 0 0 0 127 0" result="hardAlpha"/>
<feOffset dx="0.292208" dy="0.146104"/>
<feGaussianBlur stdDeviation="1.8263"/>
<feColorMatrix type="matrix" values="0 0 0 0 0 0 0 0 0 0 0 0 0 0 0 0 0 0 0.33 0"/>
<feBlend mode="normal" in2="BackgroundImageFix" result="effect1_dropShadow_383_20926"/>
<feBlend mode="normal" in="SourceGraphic" in2="effect1_dropShadow_383_20926" result="shape"/>
</filter>
<linearGradient id="paint0_linear_383_20926" x1="19.8701" y1="0" x2="19.8701" y2="45" gradientUnits="userSpaceOnUse">
<stop stop-color="#FF7979"/>
<stop offset="1" stop-color="#E85555"/>
</linearGradient>
<linearGradient id="paint1_linear_383_20926" x1="19.8701" y1="0" x2="19.8701" y2="45" gradientUnits="userSpaceOnUse">
<stop stop-color="#ED81FF"/>
<stop offset="1" stop-color="#DC5DD7"/>
</linearGradient>
<linearGradient id="paint2_linear_383_20926" x1="28.1247" y1="-4.67532" x2="32.2887" y2="14.9026" gradientUnits="userSpaceOnUse">
<stop stop-color="#F171BE"/>
<stop offset="1" stop-color="#D823D1"/>
</linearGradient>
</defs>
</svg>
