<svg width="40" height="45" viewBox="0 0 40 45" fill="none" xmlns="http://www.w3.org/2000/svg">
<rect width="39.7403" height="45" fill="#E5E5E5"/>
<mask id="mask0_383_20975" style="mask-type:alpha" maskUnits="userSpaceOnUse" x="0" y="0" width="40" height="45">
<path d="M36.526 45H3.21429C1.43909 45 0 43.5609 0 41.7857V3.21429C0 1.43909 1.43909 0 3.21429 0H24.8377L39.7403 14.9026V41.7857C39.7403 43.5609 38.3012 45 36.526 45Z" fill="url(#paint0_linear_383_20975)"/>
</mask>
<g mask="url(#mask0_383_20975)">
<path d="M36.526 45H3.21429C1.43909 45 0 43.5609 0 41.7857V3.21429C0 1.43909 1.43909 0 3.21429 0H24.8377L39.7403 14.9026V41.7857C39.7403 43.5609 38.3012 45 36.526 45Z" fill="url(#paint1_linear_383_20975)"/>
<g opacity="0.2" filter="url(#filter0_f_383_20975)">
<rect x="7.01318" y="21.7695" width="26.0065" height="12.2727" fill="#780AAF" style="mix-blend-mode:darken"/>
</g>
<mask id="path-4-outside-1_383_20975" maskUnits="userSpaceOnUse" x="6.55176" y="23.1846" width="28" height="10" fill="black">
<rect fill="white" x="6.55176" y="23.1846" width="28" height="10"/>
<path d="M7.43567 32.2423C7.28947 32.2423 7.16635 32.1923 7.06632 32.0922C6.96629 31.9922 6.91627 31.8691 6.91627 31.7229V24.8322C6.91627 24.6244 6.98937 24.4474 7.13558 24.3012C7.28178 24.1473 7.45876 24.0704 7.66652 24.0704H8.04741C8.20131 24.0704 8.34366 24.1166 8.47447 24.2089C8.60528 24.3012 8.69762 24.4167 8.75149 24.5552L11.3716 31.0881L13.9916 24.5552C14.0532 24.4167 14.1455 24.3012 14.2687 24.2089C14.3995 24.1166 14.5418 24.0704 14.6957 24.0704H15.0766C15.2844 24.0704 15.4614 24.1473 15.6076 24.3012C15.7538 24.4474 15.8269 24.6244 15.8269 24.8322V31.7229C15.8269 31.8691 15.7768 31.9922 15.6768 32.0922C15.5768 32.1923 15.4537 32.2423 15.3075 32.2423C15.1613 32.2423 15.0343 32.1923 14.9266 32.0922C14.8265 31.9922 14.7765 31.8691 14.7765 31.7229V25.1669L12.1103 31.7575C12.0487 31.9037 11.9525 32.023 11.8217 32.1153C11.6909 32.2 11.5409 32.2423 11.3716 32.2423C11.2023 32.2423 11.0522 32.2 10.9214 32.1153C10.7906 32.023 10.6944 31.9037 10.6329 31.7575L7.96661 25.1669V31.7229C7.96661 31.8691 7.91275 31.9922 7.80502 32.0922C7.70499 32.1923 7.58187 32.2423 7.43567 32.2423ZM19.3913 32.2423C19.2451 32.2423 19.122 32.1923 19.022 32.0922C18.9219 31.9922 18.8719 31.8691 18.8719 31.7229V24.6013C18.8719 24.4551 18.9219 24.332 19.022 24.232C19.122 24.1243 19.2451 24.0704 19.3913 24.0704C19.5375 24.0704 19.6606 24.1243 19.7607 24.232C19.8684 24.332 19.9223 24.4551 19.9223 24.6013V28.2718L23.8697 24.2551C23.9082 24.2089 23.962 24.1666 24.0313 24.1281C24.1005 24.0896 24.1775 24.0704 24.2621 24.0704C24.4006 24.0704 24.5199 24.1204 24.6199 24.2204C24.72 24.3128 24.7623 24.4282 24.7469 24.5667C24.7315 24.7129 24.6892 24.8206 24.6199 24.8899L21.9537 27.5446L25.0124 31.3997C25.097 31.5074 25.1393 31.619 25.1393 31.7344C25.147 31.8729 25.1009 31.9922 25.0008 32.0922C24.9008 32.1923 24.7777 32.2423 24.6315 32.2423C24.4545 32.2423 24.316 32.173 24.216 32.0345L21.2381 28.2371L19.9223 29.5645V31.7229C19.9223 31.8691 19.8684 31.9922 19.7607 32.0922C19.6606 32.1923 19.5375 32.2423 19.3913 32.2423ZM30.1708 32.2423C29.8554 32.2423 29.6168 32.0653 29.4552 31.7113L26.6043 24.7976C26.5812 24.736 26.5697 24.6706 26.5697 24.6013C26.5697 24.4474 26.6158 24.3205 26.7082 24.2204C26.8005 24.1204 26.9275 24.0704 27.0891 24.0704C27.3199 24.0704 27.4854 24.1897 27.5854 24.4282L30.2978 31.1919L33.0102 24.4282C33.1103 24.1897 33.2757 24.0704 33.5065 24.0704C33.6681 24.0704 33.7951 24.1204 33.8874 24.2204C33.9798 24.3205 34.0259 24.4474 34.0259 24.6013C34.0259 24.6706 34.0144 24.736 33.9913 24.7976L31.1404 31.7113C30.9788 32.0653 30.7403 32.2423 30.4248 32.2423H30.1708Z"/>
</mask>
<path d="M7.43567 32.2423C7.28947 32.2423 7.16635 32.1923 7.06632 32.0922C6.96629 31.9922 6.91627 31.8691 6.91627 31.7229V24.8322C6.91627 24.6244 6.98937 24.4474 7.13558 24.3012C7.28178 24.1473 7.45876 24.0704 7.66652 24.0704H8.04741C8.20131 24.0704 8.34366 24.1166 8.47447 24.2089C8.60528 24.3012 8.69762 24.4167 8.75149 24.5552L11.3716 31.0881L13.9916 24.5552C14.0532 24.4167 14.1455 24.3012 14.2687 24.2089C14.3995 24.1166 14.5418 24.0704 14.6957 24.0704H15.0766C15.2844 24.0704 15.4614 24.1473 15.6076 24.3012C15.7538 24.4474 15.8269 24.6244 15.8269 24.8322V31.7229C15.8269 31.8691 15.7768 31.9922 15.6768 32.0922C15.5768 32.1923 15.4537 32.2423 15.3075 32.2423C15.1613 32.2423 15.0343 32.1923 14.9266 32.0922C14.8265 31.9922 14.7765 31.8691 14.7765 31.7229V25.1669L12.1103 31.7575C12.0487 31.9037 11.9525 32.023 11.8217 32.1153C11.6909 32.2 11.5409 32.2423 11.3716 32.2423C11.2023 32.2423 11.0522 32.2 10.9214 32.1153C10.7906 32.023 10.6944 31.9037 10.6329 31.7575L7.96661 25.1669V31.7229C7.96661 31.8691 7.91275 31.9922 7.80502 32.0922C7.70499 32.1923 7.58187 32.2423 7.43567 32.2423ZM19.3913 32.2423C19.2451 32.2423 19.122 32.1923 19.022 32.0922C18.9219 31.9922 18.8719 31.8691 18.8719 31.7229V24.6013C18.8719 24.4551 18.9219 24.332 19.022 24.232C19.122 24.1243 19.2451 24.0704 19.3913 24.0704C19.5375 24.0704 19.6606 24.1243 19.7607 24.232C19.8684 24.332 19.9223 24.4551 19.9223 24.6013V28.2718L23.8697 24.2551C23.9082 24.2089 23.962 24.1666 24.0313 24.1281C24.1005 24.0896 24.1775 24.0704 24.2621 24.0704C24.4006 24.0704 24.5199 24.1204 24.6199 24.2204C24.72 24.3128 24.7623 24.4282 24.7469 24.5667C24.7315 24.7129 24.6892 24.8206 24.6199 24.8899L21.9537 27.5446L25.0124 31.3997C25.097 31.5074 25.1393 31.619 25.1393 31.7344C25.147 31.8729 25.1009 31.9922 25.0008 32.0922C24.9008 32.1923 24.7777 32.2423 24.6315 32.2423C24.4545 32.2423 24.316 32.173 24.216 32.0345L21.2381 28.2371L19.9223 29.5645V31.7229C19.9223 31.8691 19.8684 31.9922 19.7607 32.0922C19.6606 32.1923 19.5375 32.2423 19.3913 32.2423ZM30.1708 32.2423C29.8554 32.2423 29.6168 32.0653 29.4552 31.7113L26.6043 24.7976C26.5812 24.736 26.5697 24.6706 26.5697 24.6013C26.5697 24.4474 26.6158 24.3205 26.7082 24.2204C26.8005 24.1204 26.9275 24.0704 27.0891 24.0704C27.3199 24.0704 27.4854 24.1897 27.5854 24.4282L30.2978 31.1919L33.0102 24.4282C33.1103 24.1897 33.2757 24.0704 33.5065 24.0704C33.6681 24.0704 33.7951 24.1204 33.8874 24.2204C33.9798 24.3205 34.0259 24.4474 34.0259 24.6013C34.0259 24.6706 34.0144 24.736 33.9913 24.7976L31.1404 31.7113C30.9788 32.0653 30.7403 32.2423 30.4248 32.2423H30.1708Z" fill="white"/>
<path d="M7.06632 32.0922L7.27294 31.8856V31.8856L7.06632 32.0922ZM7.13558 24.3012L7.34227 24.5079L7.34743 24.5025L7.13558 24.3012ZM8.47447 24.2089L8.64298 23.9702L8.64298 23.9702L8.47447 24.2089ZM8.75149 24.5552L8.47913 24.6611L8.48028 24.6639L8.75149 24.5552ZM11.3716 31.0881L11.1004 31.1968L11.3716 31.8731L11.6428 31.1968L11.3716 31.0881ZM13.9916 24.5552L13.7244 24.4364L13.7204 24.4464L13.9916 24.5552ZM14.2687 24.2089L14.1001 23.9701L14.0933 23.9751L14.2687 24.2089ZM15.6076 24.3012L15.3956 24.5026L15.4009 24.5079L15.6076 24.3012ZM15.6768 32.0922L15.8834 32.2989V32.2989L15.6768 32.0922ZM14.9266 32.0922L14.7198 32.299L14.7277 32.3064L14.9266 32.0922ZM14.7765 25.1669H15.0687L14.5056 25.0573L14.7765 25.1669ZM12.1103 31.7575L12.3796 31.8709L12.3811 31.8671L12.1103 31.7575ZM11.8217 32.1153L11.9806 32.3608L11.9902 32.354L11.8217 32.1153ZM10.9214 32.1153L10.7528 32.3542L10.7627 32.3606L10.9214 32.1153ZM10.6329 31.7575L10.362 31.8671L10.3636 31.8709L10.6329 31.7575ZM7.96661 25.1669L8.2375 25.0573L7.67441 25.1669H7.96661ZM7.80502 32.0922L7.60605 31.878L7.5984 31.8856L7.80502 32.0922ZM7.43567 32.2423V31.9501C7.36407 31.9501 7.31616 31.9288 7.27294 31.8856L7.06632 32.0922L6.8597 32.2989C7.01655 32.4557 7.21487 32.5345 7.43567 32.5345V32.2423ZM7.06632 32.0922L7.27294 31.8856C7.22973 31.8424 7.20848 31.7945 7.20848 31.7229H6.91627H6.62407C6.62407 31.9437 6.70285 32.142 6.8597 32.2989L7.06632 32.0922ZM6.91627 31.7229H7.20848V24.8322H6.91627H6.62407V31.7229H6.91627ZM6.91627 24.8322H7.20848C7.20848 24.7015 7.25109 24.599 7.3422 24.5079L7.13558 24.3012L6.92895 24.0946C6.72766 24.2959 6.62407 24.5473 6.62407 24.8322H6.91627ZM7.13558 24.3012L7.34743 24.5025C7.43981 24.4052 7.5408 24.3626 7.66652 24.3626V24.0704V23.7782C7.37672 23.7782 7.12374 23.8894 6.92373 24.1L7.13558 24.3012ZM7.66652 24.0704V24.3626H8.04741V24.0704V23.7782H7.66652V24.0704ZM8.04741 24.0704V24.3626C8.13842 24.3626 8.22233 24.3886 8.30596 24.4476L8.47447 24.2089L8.64298 23.9702C8.46499 23.8445 8.2642 23.7782 8.04741 23.7782V24.0704ZM8.47447 24.2089L8.30596 24.4476C8.39367 24.5095 8.44772 24.5803 8.47915 24.6611L8.75149 24.5552L9.02382 24.4493C8.94753 24.2531 8.8169 24.0929 8.64298 23.9702L8.47447 24.2089ZM8.75149 24.5552L8.48028 24.6639L11.1004 31.1968L11.3716 31.0881L11.6428 30.9793L9.02269 24.4464L8.75149 24.5552ZM11.3716 31.0881L11.6428 31.1968L14.2629 24.6639L13.9916 24.5552L13.7204 24.4464L11.1004 30.9793L11.3716 31.0881ZM13.9916 24.5552L14.2587 24.6738C14.2997 24.5816 14.3601 24.5056 14.444 24.4427L14.2687 24.2089L14.0933 23.9751C13.931 24.0969 13.8068 24.2517 13.7246 24.4365L13.9916 24.5552ZM14.2687 24.2089L14.4372 24.4476C14.5208 24.3886 14.6047 24.3626 14.6957 24.3626V24.0704V23.7782C14.4789 23.7782 14.2781 23.8445 14.1002 23.9702L14.2687 24.2089ZM14.6957 24.0704V24.3626H15.0766V24.0704V23.7782H14.6957V24.0704ZM15.0766 24.0704V24.3626C15.2023 24.3626 15.3033 24.4052 15.3957 24.5025L15.6076 24.3012L15.8194 24.1C15.6194 23.8894 15.3664 23.7782 15.0766 23.7782V24.0704ZM15.6076 24.3012L15.4009 24.5079C15.492 24.599 15.5347 24.7015 15.5347 24.8322H15.8269H16.1191C16.1191 24.5473 16.0155 24.2959 15.8142 24.0946L15.6076 24.3012ZM15.8269 24.8322H15.5347V31.7229H15.8269H16.1191V24.8322H15.8269ZM15.8269 31.7229H15.5347C15.5347 31.7945 15.5134 31.8424 15.4702 31.8856L15.6768 32.0922L15.8834 32.2989C16.0403 32.142 16.1191 31.9437 16.1191 31.7229H15.8269ZM15.6768 32.0922L15.4702 31.8856C15.427 31.9288 15.3791 31.9501 15.3075 31.9501V32.2423V32.5345C15.5283 32.5345 15.7266 32.4557 15.8834 32.2989L15.6768 32.0922ZM15.3075 32.2423V31.9501C15.2355 31.9501 15.1794 31.9283 15.1254 31.8781L14.9266 32.0922L14.7277 32.3064C14.8892 32.4563 15.0871 32.5345 15.3075 32.5345V32.2423ZM14.9266 32.0922L15.1332 31.8856C15.09 31.8424 15.0687 31.7945 15.0687 31.7229H14.7765H14.4843C14.4843 31.9437 14.5631 32.142 14.7199 32.2989L14.9266 32.0922ZM14.7765 31.7229H15.0687V25.1669H14.7765H14.4843V31.7229H14.7765ZM14.7765 25.1669L14.5056 25.0573L11.8394 31.6479L12.1103 31.7575L12.3811 31.8671L15.0474 25.2765L14.7765 25.1669ZM12.1103 31.7575L11.841 31.6441C11.8008 31.7394 11.7398 31.8155 11.6532 31.8766L11.8217 32.1153L11.9902 32.354C12.1653 32.2305 12.2966 32.068 12.3796 31.8709L12.1103 31.7575ZM11.8217 32.1153L11.663 31.87C11.5835 31.9214 11.4896 31.9501 11.3716 31.9501V32.2423V32.5345C11.5921 32.5345 11.7983 32.4785 11.9805 32.3606L11.8217 32.1153ZM11.3716 32.2423V31.9501C11.2535 31.9501 11.1596 31.9214 11.0802 31.87L10.9214 32.1153L10.7627 32.3606C10.9449 32.4785 11.151 32.5345 11.3716 32.5345V32.2423ZM10.9214 32.1153L11.0899 31.8766C11.0033 31.8155 10.9423 31.7394 10.9022 31.6441L10.6329 31.7575L10.3636 31.8709C10.4465 32.068 10.5779 32.2305 10.7529 32.354L10.9214 32.1153ZM10.6329 31.7575L10.9037 31.6479L8.2375 25.0573L7.96661 25.1669L7.69573 25.2765L10.362 31.8671L10.6329 31.7575ZM7.96661 25.1669H7.67441V31.7229H7.96661H8.25882V25.1669H7.96661ZM7.96661 31.7229H7.67441C7.67441 31.7873 7.65475 31.833 7.60619 31.8781L7.80502 32.0922L8.00386 32.3064C8.17075 32.1514 8.25882 31.9508 8.25882 31.7229H7.96661ZM7.80502 32.0922L7.5984 31.8856C7.55518 31.9288 7.50727 31.9501 7.43567 31.9501V32.2423V32.5345C7.65647 32.5345 7.8548 32.4557 8.01165 32.2989L7.80502 32.0922ZM19.022 32.0922L19.2286 31.8856V31.8856L19.022 32.0922ZM19.022 24.232L19.2287 24.4388L19.2361 24.4308L19.022 24.232ZM19.7607 24.232L19.5465 24.4308L19.5539 24.4388L19.5618 24.4461L19.7607 24.232ZM19.9223 28.2718H19.6301V28.986L20.1307 28.4766L19.9223 28.2718ZM23.8697 24.2551L24.0781 24.4599L24.0865 24.4513L24.0942 24.4421L23.8697 24.2551ZM24.6199 24.2204L24.4132 24.4272L24.4217 24.4352L24.6199 24.2204ZM24.7469 24.5667L24.4565 24.5344L24.4563 24.5361L24.7469 24.5667ZM24.6199 24.8899L24.8261 25.097L24.8266 25.0965L24.6199 24.8899ZM21.9537 27.5446L21.7475 27.3375L21.5625 27.5217L21.7248 27.7262L21.9537 27.5446ZM25.0124 31.3997L25.2422 31.2192L25.2413 31.2181L25.0124 31.3997ZM25.1393 31.7344H24.8471V31.7425L24.8476 31.7506L25.1393 31.7344ZM25.0008 32.0922L25.2075 32.2989L25.0008 32.0922ZM24.216 32.0345L24.453 31.8633L24.4459 31.8542L24.216 32.0345ZM21.2381 28.2371L21.468 28.0568L21.2637 27.7962L21.0306 28.0314L21.2381 28.2371ZM19.9223 29.5645L19.7147 29.3588L19.6301 29.4442V29.5645H19.9223ZM19.7607 32.0922L19.5617 31.878L19.5541 31.8856L19.7607 32.0922ZM19.3913 32.2423V31.9501C19.3197 31.9501 19.2718 31.9288 19.2286 31.8856L19.022 32.0922L18.8154 32.2989C18.9722 32.4557 19.1705 32.5345 19.3913 32.5345V32.2423ZM19.022 32.0922L19.2286 31.8856C19.1854 31.8424 19.1641 31.7945 19.1641 31.7229H18.8719H18.5797C18.5797 31.9437 18.6585 32.142 18.8154 32.2989L19.022 32.0922ZM18.8719 31.7229H19.1641V24.6013H18.8719H18.5797V31.7229H18.8719ZM18.8719 24.6013H19.1641C19.1641 24.5297 19.1854 24.4818 19.2286 24.4386L19.022 24.232L18.8154 24.0254C18.6585 24.1822 18.5797 24.3805 18.5797 24.6013H18.8719ZM19.022 24.232L19.2361 24.4308C19.2812 24.3823 19.3269 24.3626 19.3913 24.3626V24.0704V23.7782C19.1634 23.7782 18.9628 23.8663 18.8078 24.0332L19.022 24.232ZM19.3913 24.0704V24.3626C19.4558 24.3626 19.5015 24.3823 19.5465 24.4308L19.7607 24.232L19.9748 24.0332C19.8198 23.8663 19.6193 23.7782 19.3913 23.7782V24.0704ZM19.7607 24.232L19.5618 24.4461C19.6104 24.4912 19.6301 24.5369 19.6301 24.6013H19.9223H20.2145C20.2145 24.3734 20.1264 24.1728 19.9595 24.0179L19.7607 24.232ZM19.9223 24.6013H19.6301V28.2718H19.9223H20.2145V24.6013H19.9223ZM19.9223 28.2718L20.1307 28.4766L24.0781 24.4599L23.8697 24.2551L23.6613 24.0503L19.7139 28.0669L19.9223 28.2718ZM23.8697 24.2551L24.0942 24.4421C24.1035 24.4309 24.126 24.4098 24.1732 24.3835L24.0313 24.1281L23.8894 23.8727C23.7981 23.9234 23.7128 23.9869 23.6452 24.068L23.8697 24.2551ZM24.0313 24.1281L24.1732 24.3835C24.1961 24.3708 24.2236 24.3626 24.2621 24.3626V24.0704V23.7782C24.1313 23.7782 24.005 23.8084 23.8894 23.8727L24.0313 24.1281ZM24.2621 24.0704V24.3626C24.3213 24.3626 24.3668 24.3805 24.4133 24.4271L24.6199 24.2204L24.8266 24.0138C24.673 23.8603 24.48 23.7782 24.2621 23.7782V24.0704ZM24.6199 24.2204L24.4217 24.4352C24.4517 24.4628 24.4619 24.4857 24.4565 24.5344L24.7469 24.5667L25.0373 24.599C25.0627 24.3708 24.9883 24.1628 24.8181 24.0057L24.6199 24.2204ZM24.7469 24.5667L24.4563 24.5361C24.4446 24.6477 24.4166 24.68 24.4133 24.6833L24.6199 24.8899L24.8266 25.0965C24.9618 24.9613 25.0185 24.7781 25.0375 24.5973L24.7469 24.5667ZM24.6199 24.8899L24.4138 24.6828L21.7475 27.3375L21.9537 27.5446L22.1599 27.7517L24.8261 25.097L24.6199 24.8899ZM21.9537 27.5446L21.7248 27.7262L24.7835 31.5813L25.0124 31.3997L25.2413 31.2181L22.1826 27.363L21.9537 27.5446ZM25.0124 31.3997L24.7826 31.5802C24.8347 31.6465 24.8471 31.6961 24.8471 31.7344H25.1393H25.4316C25.4316 31.5419 25.3594 31.3684 25.2422 31.2192L25.0124 31.3997ZM25.1393 31.7344L24.8476 31.7506C24.8506 31.8043 24.8368 31.843 24.7942 31.8856L25.0008 32.0922L25.2075 32.2989C25.365 32.1414 25.4435 31.9416 25.4311 31.7182L25.1393 31.7344ZM25.0008 32.0922L24.7942 31.8856C24.751 31.9288 24.7031 31.9501 24.6315 31.9501V32.2423V32.5345C24.8523 32.5345 25.0506 32.4557 25.2075 32.2989L25.0008 32.0922ZM24.6315 32.2423V31.9501C24.5444 31.9501 24.4957 31.9227 24.4529 31.8634L24.216 32.0345L23.9791 32.2056C24.1363 32.4233 24.3647 32.5345 24.6315 32.5345V32.2423ZM24.216 32.0345L24.4459 31.8542L21.468 28.0568L21.2381 28.2371L21.0081 28.4175L23.986 32.2148L24.216 32.0345ZM21.2381 28.2371L21.0306 28.0314L19.7147 29.3588L19.9223 29.5645L20.1298 29.7702L21.4456 28.4429L21.2381 28.2371ZM19.9223 29.5645H19.6301V31.7229H19.9223H20.2145V29.5645H19.9223ZM19.9223 31.7229H19.6301C19.6301 31.7873 19.6104 31.833 19.5618 31.8781L19.7607 32.0922L19.9595 32.3064C20.1264 32.1514 20.2145 31.9508 20.2145 31.7229H19.9223ZM19.7607 32.0922L19.5541 31.8856C19.5108 31.9288 19.4629 31.9501 19.3913 31.9501V32.2423V32.5345C19.6121 32.5345 19.8105 32.4557 19.9673 32.2989L19.7607 32.0922ZM29.4552 31.7113L29.1849 31.8228L29.1894 31.8327L29.4552 31.7113ZM26.6043 24.7976L26.3306 24.9002L26.3342 24.909L26.6043 24.7976ZM26.7082 24.2204L26.4935 24.0222V24.0222L26.7082 24.2204ZM27.5854 24.4282L27.8566 24.3194L27.8549 24.3152L27.5854 24.4282ZM30.2978 31.1919L30.0266 31.3007L30.2978 31.977L30.569 31.3007L30.2978 31.1919ZM33.0102 24.4282L32.7407 24.3152L32.739 24.3194L33.0102 24.4282ZM33.8874 24.2204L34.1022 24.0222L34.1022 24.0222L33.8874 24.2204ZM33.9913 24.7976L34.2616 24.909L34.2649 24.9002L33.9913 24.7976ZM31.1404 31.7113L31.4064 31.8328L31.4105 31.8227L31.1404 31.7113ZM30.1708 32.2423V31.9501C30.0717 31.9501 29.9951 31.9236 29.9294 31.8749C29.8602 31.8235 29.7875 31.7355 29.7211 31.59L29.4552 31.7113L29.1894 31.8327C29.2846 32.0411 29.4119 32.2186 29.5812 32.3442C29.7541 32.4725 29.9545 32.5345 30.1708 32.5345V32.2423ZM29.4552 31.7113L29.7254 31.5999L26.8744 24.6862L26.6043 24.7976L26.3342 24.909L29.1851 31.8227L29.4552 31.7113ZM26.6043 24.7976L26.8779 24.695C26.8678 24.6679 26.8619 24.6374 26.8619 24.6013H26.5697H26.2775C26.2775 24.7037 26.2947 24.8041 26.3307 24.9002L26.6043 24.7976ZM26.5697 24.6013H26.8619C26.8619 24.5106 26.887 24.4576 26.9229 24.4186L26.7082 24.2204L26.4935 24.0222C26.3447 24.1834 26.2775 24.3843 26.2775 24.6013H26.5697ZM26.7082 24.2204L26.9229 24.4186C26.9496 24.3897 26.9925 24.3626 27.0891 24.3626V24.0704V23.7782C26.8625 23.7782 26.6515 23.8511 26.4935 24.0222L26.7082 24.2204ZM27.0891 24.0704V24.3626C27.1516 24.3626 27.1889 24.3778 27.2154 24.3969C27.2442 24.4176 27.2812 24.4584 27.3159 24.5412L27.5854 24.4282L27.8549 24.3152C27.7896 24.1595 27.6938 24.0213 27.5572 23.9228C27.4183 23.8227 27.2574 23.7782 27.0891 23.7782V24.0704ZM27.5854 24.4282L27.3142 24.537L30.0266 31.3007L30.2978 31.1919L30.569 31.0832L27.8566 24.3194L27.5854 24.4282ZM30.2978 31.1919L30.569 31.3007L33.2814 24.537L33.0102 24.4282L32.739 24.3194L30.0266 31.0832L30.2978 31.1919ZM33.0102 24.4282L33.2797 24.5412C33.3144 24.4584 33.3514 24.4176 33.3802 24.3969C33.4068 24.3778 33.444 24.3626 33.5065 24.3626V24.0704V23.7782C33.3382 23.7782 33.1774 23.8227 33.0385 23.9228C32.9018 24.0213 32.8061 24.1595 32.7408 24.3152L33.0102 24.4282ZM33.5065 24.0704V24.3626C33.6032 24.3626 33.646 24.3897 33.6727 24.4186L33.8874 24.2204L34.1022 24.0222C33.9442 23.8511 33.7331 23.7782 33.5065 23.7782V24.0704ZM33.8874 24.2204L33.6727 24.4186C33.7087 24.4576 33.7337 24.5106 33.7337 24.6013H34.0259H34.3182C34.3182 24.3843 34.2509 24.1834 34.1022 24.0222L33.8874 24.2204ZM34.0259 24.6013H33.7337C33.7337 24.6374 33.7279 24.6679 33.7177 24.695L33.9913 24.7976L34.2649 24.9002C34.301 24.8041 34.3182 24.7037 34.3182 24.6013H34.0259ZM33.9913 24.7976L33.7212 24.6862L30.8703 31.5999L31.1404 31.7113L31.4105 31.8227L34.2615 24.909L33.9913 24.7976ZM31.1404 31.7113L30.8746 31.59C30.8081 31.7355 30.7354 31.8235 30.6662 31.8749C30.6005 31.9236 30.524 31.9501 30.4248 31.9501V32.2423V32.5345C30.6411 32.5345 30.8415 32.4725 31.0144 32.3442C31.1837 32.2186 31.3111 32.0411 31.4062 31.8327L31.1404 31.7113ZM30.4248 32.2423V31.9501H30.1708V32.2423V32.5345H30.4248V32.2423Z" fill="white" mask="url(#path-4-outside-1_383_20975)"/>
<g filter="url(#filter1_d_383_20975)">
<path d="M39.74 14.9026H28.0517C26.2765 14.9026 24.8374 13.4635 24.8374 11.6883V0L39.74 14.9026Z" fill="url(#paint2_linear_383_20975)"/>
</g>
</g>
<defs>
<filter id="filter0_f_383_20975" x="1.31513" y="16.0715" width="37.4025" height="23.6686" filterUnits="userSpaceOnUse" color-interpolation-filters="sRGB">
<feFlood flood-opacity="0" result="BackgroundImageFix"/>
<feBlend mode="normal" in="SourceGraphic" in2="BackgroundImageFix" result="shape"/>
<feGaussianBlur stdDeviation="2.84903" result="effect1_foregroundBlur_383_20975"/>
</filter>
<filter id="filter1_d_383_20975" x="21.477" y="-3.50649" width="22.208" height="22.2075" filterUnits="userSpaceOnUse" color-interpolation-filters="sRGB">
<feFlood flood-opacity="0" result="BackgroundImageFix"/>
<feColorMatrix in="SourceAlpha" type="matrix" values="0 0 0 0 0 0 0 0 0 0 0 0 0 0 0 0 0 0 127 0" result="hardAlpha"/>
<feOffset dx="0.292208" dy="0.146104"/>
<feGaussianBlur stdDeviation="1.8263"/>
<feColorMatrix type="matrix" values="0 0 0 0 0 0 0 0 0 0 0 0 0 0 0 0 0 0 0.33 0"/>
<feBlend mode="normal" in2="BackgroundImageFix" result="effect1_dropShadow_383_20975"/>
<feBlend mode="normal" in="SourceGraphic" in2="effect1_dropShadow_383_20975" result="shape"/>
</filter>
<linearGradient id="paint0_linear_383_20975" x1="19.8701" y1="0" x2="19.8701" y2="45" gradientUnits="userSpaceOnUse">
<stop stop-color="#FF7979"/>
<stop offset="1" stop-color="#E85555"/>
</linearGradient>
<linearGradient id="paint1_linear_383_20975" x1="19.8701" y1="0" x2="19.8701" y2="45" gradientUnits="userSpaceOnUse">
<stop stop-color="#CB74F4"/>
<stop offset="0.942892" stop-color="#A849F3"/>
</linearGradient>
<linearGradient id="paint2_linear_383_20975" x1="32.2887" y1="0" x2="32.2887" y2="14.9026" gradientUnits="userSpaceOnUse">
<stop stop-color="#B051E0"/>
<stop offset="1" stop-color="#952BCB"/>
</linearGradient>
</defs>
</svg>
