<svg width="40" height="45" viewBox="0 0 40 45" fill="none" xmlns="http://www.w3.org/2000/svg">
<mask id="mask0_383_20954" style="mask-type:alpha" maskUnits="userSpaceOnUse" x="0" y="0" width="40" height="45">
<path d="M36.526 45H3.21429C1.43909 45 0 43.5609 0 41.7857V3.21429C0 1.43909 1.43909 0 3.21429 0H24.8377L39.7403 14.9026V41.7857C39.7403 43.5609 38.3012 45 36.526 45Z" fill="url(#paint0_linear_383_20954)"/>
</mask>
<g mask="url(#mask0_383_20954)">
<path d="M36.526 45H3.21429C1.43909 45 0 43.5609 0 41.7857V3.21429C0 1.43909 1.43909 0 3.21429 0H24.8377L39.7403 14.9026V41.7857C39.7403 43.5609 38.3012 45 36.526 45Z" fill="url(#paint1_linear_383_20954)"/>
<g filter="url(#filter0_f_383_20954)">
<rect x="7.0127" y="21.7695" width="26.0065" height="12.2727" fill="#0B07C6" fill-opacity="0.16" style="mix-blend-mode:darken"/>
</g>
<mask id="path-4-outside-1_383_20954" maskUnits="userSpaceOnUse" x="5.99023" y="23.1846" width="28" height="10" fill="black">
<rect fill="white" x="5.99023" y="23.1846" width="28" height="10"/>
<path d="M7.74612 32.2423C7.59991 32.2423 7.4768 32.1923 7.37676 32.0922C7.27673 31.9922 7.22672 31.8691 7.22672 31.7229V24.8322C7.22672 24.6244 7.29982 24.4474 7.44602 24.3012C7.59222 24.1473 7.7692 24.0704 7.97696 24.0704H8.35785C8.51175 24.0704 8.6541 24.1166 8.78491 24.2089C8.91573 24.3012 9.00806 24.4167 9.06193 24.5552L11.682 31.0881L14.3021 24.5552C14.3636 24.4167 14.456 24.3012 14.5791 24.2089C14.7099 24.1166 14.8523 24.0704 15.0062 24.0704H15.3871C15.5948 24.0704 15.7718 24.1473 15.918 24.3012C16.0642 24.4474 16.1373 24.6244 16.1373 24.8322V31.7229C16.1373 31.8691 16.0873 31.9922 15.9873 32.0922C15.8872 32.1923 15.7641 32.2423 15.6179 32.2423C15.4717 32.2423 15.3447 32.1923 15.237 32.0922C15.137 31.9922 15.087 31.8691 15.087 31.7229V25.1669L12.4207 31.7575C12.3592 31.9037 12.263 32.023 12.1322 32.1153C12.0013 32.2 11.8513 32.2423 11.682 32.2423C11.5127 32.2423 11.3627 32.2 11.2319 32.1153C11.1011 32.023 11.0049 31.9037 10.9433 31.7575L8.27706 25.1669V31.7229C8.27706 31.8691 8.22319 31.9922 8.11547 32.0922C8.01543 32.1923 7.89232 32.2423 7.74612 32.2423ZM19.7018 32.2423C19.5556 32.2423 19.4325 32.1923 19.3324 32.0922C19.2324 31.9922 19.1824 31.8691 19.1824 31.7229V24.6591C19.1824 24.5128 19.2324 24.3897 19.3324 24.2897C19.4325 24.182 19.5556 24.1281 19.7018 24.1281H22.3334C22.9182 24.1281 23.4068 24.2051 23.7993 24.359C24.1994 24.5052 24.5149 24.7052 24.7457 24.9591C24.9843 25.2054 25.1535 25.4785 25.2536 25.7786C25.3613 26.0787 25.4152 26.3827 25.4152 26.6905C25.4152 26.9983 25.3613 27.3022 25.2536 27.6023C25.1535 27.9024 24.9843 28.1794 24.7457 28.4334C24.5149 28.6796 24.1994 28.8797 23.7993 29.0335C23.4068 29.1797 22.9182 29.2528 22.3334 29.2528H20.2327V31.7229C20.2327 31.8691 20.1788 31.9922 20.0711 32.0922C19.9711 32.1923 19.848 32.2423 19.7018 32.2423ZM20.2327 28.2602H22.2295C22.8066 28.2602 23.2491 28.1833 23.5569 28.0294C23.8647 27.8678 24.0763 27.6677 24.1917 27.4292C24.3071 27.1829 24.3648 26.9367 24.3648 26.6905C24.3648 26.4366 24.3071 26.1903 24.1917 25.9518C24.0763 25.7132 23.8647 25.517 23.5569 25.3631C23.2491 25.2015 22.8066 25.1207 22.2295 25.1207H20.2327V28.2602ZM30.0191 32.3C29.5035 32.3 29.0418 32.2538 28.634 32.1615C28.2339 32.0615 27.8914 31.9537 27.6067 31.8383C27.5221 31.7998 27.449 31.746 27.3874 31.6767C27.3336 31.5998 27.3066 31.5074 27.3066 31.3997C27.3066 31.2766 27.349 31.165 27.4336 31.065C27.5182 30.9649 27.6298 30.9149 27.7683 30.9149C27.8376 30.9149 27.9107 30.9303 27.9876 30.9611C28.2185 31.0534 28.4878 31.1342 28.7956 31.2035C29.1034 31.265 29.4458 31.2958 29.8228 31.2958C30.1614 31.2958 30.4923 31.2612 30.8155 31.1919C31.1464 31.115 31.4195 30.9842 31.635 30.7995C31.8504 30.6148 31.9582 30.3532 31.9582 30.0146C31.9582 29.7299 31.8774 29.4798 31.7158 29.2644C31.5542 29.0412 31.2887 28.8681 30.9194 28.745C30.55 28.6219 30.046 28.5603 29.4073 28.5603H29.2226C29.0918 28.5603 28.9764 28.5141 28.8764 28.4218C28.784 28.3218 28.7379 28.2064 28.7379 28.0755C28.7379 27.9447 28.784 27.8332 28.8764 27.7408C28.9764 27.6408 29.0918 27.5908 29.2226 27.5908H29.2919C30.046 27.5908 30.6308 27.4753 31.0463 27.2445C31.4618 27.0137 31.6696 26.6635 31.6696 26.1942C31.6696 25.8325 31.5195 25.544 31.2195 25.3285C30.9194 25.1053 30.4615 24.9938 29.8459 24.9938C29.4843 24.9938 29.1534 25.0322 28.8533 25.1092C28.5609 25.1784 28.2954 25.2669 28.0569 25.3747C28.0261 25.3824 27.9953 25.3939 27.9645 25.4093C27.9338 25.417 27.8953 25.4208 27.8491 25.4208C27.7337 25.4208 27.6337 25.3824 27.549 25.3054C27.4644 25.2208 27.4221 25.1169 27.4221 24.9938C27.4221 24.8168 27.499 24.686 27.6529 24.6013C27.9222 24.4551 28.2493 24.3205 28.634 24.1974C29.0187 24.0742 29.4535 24.0127 29.9383 24.0127C30.8309 24.0127 31.5157 24.1935 31.9928 24.5552C32.4776 24.9168 32.7199 25.4285 32.7199 26.0903C32.7199 26.475 32.6468 26.7982 32.5006 27.0598C32.3621 27.3138 32.1851 27.5177 31.9697 27.6716C31.7619 27.8178 31.5465 27.9332 31.3233 28.0178C31.4849 28.0563 31.6619 28.1179 31.8543 28.2025C32.0466 28.2872 32.2313 28.4103 32.4083 28.5719C32.5853 28.7258 32.7276 28.9258 32.8354 29.1721C32.9508 29.4183 33.0085 29.7184 33.0085 30.0723C33.0085 30.5648 32.8738 30.9765 32.6045 31.3074C32.3429 31.6305 31.9851 31.8768 31.5311 32.0461C31.0848 32.2153 30.5808 32.3 30.0191 32.3Z"/>
</mask>
<path d="M7.74612 32.2423C7.59991 32.2423 7.4768 32.1923 7.37676 32.0922C7.27673 31.9922 7.22672 31.8691 7.22672 31.7229V24.8322C7.22672 24.6244 7.29982 24.4474 7.44602 24.3012C7.59222 24.1473 7.7692 24.0704 7.97696 24.0704H8.35785C8.51175 24.0704 8.6541 24.1166 8.78491 24.2089C8.91573 24.3012 9.00806 24.4167 9.06193 24.5552L11.682 31.0881L14.3021 24.5552C14.3636 24.4167 14.456 24.3012 14.5791 24.2089C14.7099 24.1166 14.8523 24.0704 15.0062 24.0704H15.3871C15.5948 24.0704 15.7718 24.1473 15.918 24.3012C16.0642 24.4474 16.1373 24.6244 16.1373 24.8322V31.7229C16.1373 31.8691 16.0873 31.9922 15.9873 32.0922C15.8872 32.1923 15.7641 32.2423 15.6179 32.2423C15.4717 32.2423 15.3447 32.1923 15.237 32.0922C15.137 31.9922 15.087 31.8691 15.087 31.7229V25.1669L12.4207 31.7575C12.3592 31.9037 12.263 32.023 12.1322 32.1153C12.0013 32.2 11.8513 32.2423 11.682 32.2423C11.5127 32.2423 11.3627 32.2 11.2319 32.1153C11.1011 32.023 11.0049 31.9037 10.9433 31.7575L8.27706 25.1669V31.7229C8.27706 31.8691 8.22319 31.9922 8.11547 32.0922C8.01543 32.1923 7.89232 32.2423 7.74612 32.2423ZM19.7018 32.2423C19.5556 32.2423 19.4325 32.1923 19.3324 32.0922C19.2324 31.9922 19.1824 31.8691 19.1824 31.7229V24.6591C19.1824 24.5128 19.2324 24.3897 19.3324 24.2897C19.4325 24.182 19.5556 24.1281 19.7018 24.1281H22.3334C22.9182 24.1281 23.4068 24.2051 23.7993 24.359C24.1994 24.5052 24.5149 24.7052 24.7457 24.9591C24.9843 25.2054 25.1535 25.4785 25.2536 25.7786C25.3613 26.0787 25.4152 26.3827 25.4152 26.6905C25.4152 26.9983 25.3613 27.3022 25.2536 27.6023C25.1535 27.9024 24.9843 28.1794 24.7457 28.4334C24.5149 28.6796 24.1994 28.8797 23.7993 29.0335C23.4068 29.1797 22.9182 29.2528 22.3334 29.2528H20.2327V31.7229C20.2327 31.8691 20.1788 31.9922 20.0711 32.0922C19.9711 32.1923 19.848 32.2423 19.7018 32.2423ZM20.2327 28.2602H22.2295C22.8066 28.2602 23.2491 28.1833 23.5569 28.0294C23.8647 27.8678 24.0763 27.6677 24.1917 27.4292C24.3071 27.1829 24.3648 26.9367 24.3648 26.6905C24.3648 26.4366 24.3071 26.1903 24.1917 25.9518C24.0763 25.7132 23.8647 25.517 23.5569 25.3631C23.2491 25.2015 22.8066 25.1207 22.2295 25.1207H20.2327V28.2602ZM30.0191 32.3C29.5035 32.3 29.0418 32.2538 28.634 32.1615C28.2339 32.0615 27.8914 31.9537 27.6067 31.8383C27.5221 31.7998 27.449 31.746 27.3874 31.6767C27.3336 31.5998 27.3066 31.5074 27.3066 31.3997C27.3066 31.2766 27.349 31.165 27.4336 31.065C27.5182 30.9649 27.6298 30.9149 27.7683 30.9149C27.8376 30.9149 27.9107 30.9303 27.9876 30.9611C28.2185 31.0534 28.4878 31.1342 28.7956 31.2035C29.1034 31.265 29.4458 31.2958 29.8228 31.2958C30.1614 31.2958 30.4923 31.2612 30.8155 31.1919C31.1464 31.115 31.4195 30.9842 31.635 30.7995C31.8504 30.6148 31.9582 30.3532 31.9582 30.0146C31.9582 29.7299 31.8774 29.4798 31.7158 29.2644C31.5542 29.0412 31.2887 28.8681 30.9194 28.745C30.55 28.6219 30.046 28.5603 29.4073 28.5603H29.2226C29.0918 28.5603 28.9764 28.5141 28.8764 28.4218C28.784 28.3218 28.7379 28.2064 28.7379 28.0755C28.7379 27.9447 28.784 27.8332 28.8764 27.7408C28.9764 27.6408 29.0918 27.5908 29.2226 27.5908H29.2919C30.046 27.5908 30.6308 27.4753 31.0463 27.2445C31.4618 27.0137 31.6696 26.6635 31.6696 26.1942C31.6696 25.8325 31.5195 25.544 31.2195 25.3285C30.9194 25.1053 30.4615 24.9938 29.8459 24.9938C29.4843 24.9938 29.1534 25.0322 28.8533 25.1092C28.5609 25.1784 28.2954 25.2669 28.0569 25.3747C28.0261 25.3824 27.9953 25.3939 27.9645 25.4093C27.9338 25.417 27.8953 25.4208 27.8491 25.4208C27.7337 25.4208 27.6337 25.3824 27.549 25.3054C27.4644 25.2208 27.4221 25.1169 27.4221 24.9938C27.4221 24.8168 27.499 24.686 27.6529 24.6013C27.9222 24.4551 28.2493 24.3205 28.634 24.1974C29.0187 24.0742 29.4535 24.0127 29.9383 24.0127C30.8309 24.0127 31.5157 24.1935 31.9928 24.5552C32.4776 24.9168 32.7199 25.4285 32.7199 26.0903C32.7199 26.475 32.6468 26.7982 32.5006 27.0598C32.3621 27.3138 32.1851 27.5177 31.9697 27.6716C31.7619 27.8178 31.5465 27.9332 31.3233 28.0178C31.4849 28.0563 31.6619 28.1179 31.8543 28.2025C32.0466 28.2872 32.2313 28.4103 32.4083 28.5719C32.5853 28.7258 32.7276 28.9258 32.8354 29.1721C32.9508 29.4183 33.0085 29.7184 33.0085 30.0723C33.0085 30.5648 32.8738 30.9765 32.6045 31.3074C32.3429 31.6305 31.9851 31.8768 31.5311 32.0461C31.0848 32.2153 30.5808 32.3 30.0191 32.3Z" fill="white"/>
<path d="M7.37676 32.0922L7.58339 31.8856V31.8856L7.37676 32.0922ZM7.44602 24.3012L7.65271 24.5079L7.65787 24.5025L7.44602 24.3012ZM8.78491 24.2089L8.95343 23.9702L8.95342 23.9702L8.78491 24.2089ZM9.06193 24.5552L8.78957 24.6611L8.79072 24.6639L9.06193 24.5552ZM11.682 31.0881L11.4108 31.1968L11.682 31.8731L11.9532 31.1968L11.682 31.0881ZM14.3021 24.5552L14.0349 24.4364L14.0309 24.4464L14.3021 24.5552ZM14.5791 24.2089L14.4105 23.9701L14.4038 23.9751L14.5791 24.2089ZM15.918 24.3012L15.7061 24.5026L15.7114 24.5079L15.918 24.3012ZM15.9873 32.0922L16.1939 32.2989V32.2989L15.9873 32.0922ZM15.237 32.0922L15.0302 32.299L15.0382 32.3064L15.237 32.0922ZM15.087 25.1669H15.3792L14.8161 25.0573L15.087 25.1669ZM12.4207 31.7575L12.69 31.8709L12.6916 31.8671L12.4207 31.7575ZM12.1322 32.1153L12.291 32.3608L12.3007 32.354L12.1322 32.1153ZM11.2319 32.1153L11.0632 32.3542L11.0731 32.3606L11.2319 32.1153ZM10.9433 31.7575L10.6724 31.8671L10.674 31.8709L10.9433 31.7575ZM8.27706 25.1669L8.54794 25.0573L7.98485 25.1669H8.27706ZM8.11547 32.0922L7.9165 31.878L7.90884 31.8856L8.11547 32.0922ZM7.74612 32.2423V31.9501C7.67451 31.9501 7.6266 31.9288 7.58339 31.8856L7.37676 32.0922L7.17014 32.2989C7.32699 32.4557 7.52531 32.5345 7.74612 32.5345V32.2423ZM7.37676 32.0922L7.58339 31.8856C7.54017 31.8424 7.51892 31.7945 7.51892 31.7229H7.22672H6.93451C6.93451 31.9437 7.01329 32.142 7.17014 32.2989L7.37676 32.0922ZM7.22672 31.7229H7.51892V24.8322H7.22672H6.93451V31.7229H7.22672ZM7.22672 24.8322H7.51892C7.51892 24.7015 7.56154 24.599 7.65264 24.5079L7.44602 24.3012L7.2394 24.0946C7.0381 24.2959 6.93451 24.5473 6.93451 24.8322H7.22672ZM7.44602 24.3012L7.65787 24.5025C7.75026 24.4052 7.85124 24.3626 7.97696 24.3626V24.0704V23.7782C7.68716 23.7782 7.43418 23.8894 7.23417 24.1L7.44602 24.3012ZM7.97696 24.0704V24.3626H8.35785V24.0704V23.7782H7.97696V24.0704ZM8.35785 24.0704V24.3626C8.44886 24.3626 8.53277 24.3886 8.6164 24.4476L8.78491 24.2089L8.95342 23.9702C8.77543 23.8445 8.57464 23.7782 8.35785 23.7782V24.0704ZM8.78491 24.2089L8.6164 24.4476C8.70411 24.5095 8.75816 24.5803 8.78959 24.6611L9.06193 24.5552L9.33427 24.4493C9.25797 24.2531 9.12734 24.0929 8.95343 23.9702L8.78491 24.2089ZM9.06193 24.5552L8.79072 24.6639L11.4108 31.1968L11.682 31.0881L11.9532 30.9793L9.33314 24.4464L9.06193 24.5552ZM11.682 31.0881L11.9532 31.1968L14.5733 24.6639L14.3021 24.5552L14.0309 24.4464L11.4108 30.9793L11.682 31.0881ZM14.3021 24.5552L14.5691 24.6738C14.6101 24.5816 14.6706 24.5056 14.7544 24.4427L14.5791 24.2089L14.4038 23.9751C14.2414 24.0969 14.1172 24.2517 14.0351 24.4365L14.3021 24.5552ZM14.5791 24.2089L14.7476 24.4476C14.8312 24.3886 14.9152 24.3626 15.0062 24.3626V24.0704V23.7782C14.7894 23.7782 14.5886 23.8445 14.4106 23.9702L14.5791 24.2089ZM15.0062 24.0704V24.3626H15.3871V24.0704V23.7782H15.0062V24.0704ZM15.3871 24.0704V24.3626C15.5128 24.3626 15.6138 24.4052 15.7061 24.5025L15.918 24.3012L16.1298 24.1C15.9298 23.8894 15.6769 23.7782 15.3871 23.7782V24.0704ZM15.918 24.3012L15.7114 24.5079C15.8025 24.599 15.8451 24.7015 15.8451 24.8322H16.1373H16.4295C16.4295 24.5473 16.3259 24.2959 16.1246 24.0946L15.918 24.3012ZM16.1373 24.8322H15.8451V31.7229H16.1373H16.4295V24.8322H16.1373ZM16.1373 31.7229H15.8451C15.8451 31.7945 15.8238 31.8424 15.7806 31.8856L15.9873 32.0922L16.1939 32.2989C16.3507 32.142 16.4295 31.9437 16.4295 31.7229H16.1373ZM15.9873 32.0922L15.7806 31.8856C15.7374 31.9288 15.6895 31.9501 15.6179 31.9501V32.2423V32.5345C15.8387 32.5345 16.037 32.4557 16.1939 32.2989L15.9873 32.0922ZM15.6179 32.2423V31.9501C15.5459 31.9501 15.4899 31.9283 15.4358 31.8781L15.237 32.0922L15.0382 32.3064C15.1996 32.4563 15.3975 32.5345 15.6179 32.5345V32.2423ZM15.237 32.0922L15.4436 31.8856C15.4004 31.8424 15.3792 31.7945 15.3792 31.7229H15.087H14.7948C14.7948 31.9437 14.8735 32.142 15.0304 32.2989L15.237 32.0922ZM15.087 31.7229H15.3792V25.1669H15.087H14.7948V31.7229H15.087ZM15.087 25.1669L14.8161 25.0573L12.1498 31.6479L12.4207 31.7575L12.6916 31.8671L15.3578 25.2765L15.087 25.1669ZM12.4207 31.7575L12.1514 31.6441C12.1113 31.7394 12.0502 31.8155 11.9636 31.8766L12.1322 32.1153L12.3007 32.354C12.4757 32.2305 12.607 32.068 12.69 31.8709L12.4207 31.7575ZM12.1322 32.1153L11.9734 31.87C11.894 31.9214 11.8 31.9501 11.682 31.9501V32.2423V32.5345C11.9025 32.5345 12.1087 32.4785 12.2909 32.3606L12.1322 32.1153ZM11.682 32.2423V31.9501C11.564 31.9501 11.47 31.9214 11.3906 31.87L11.2319 32.1153L11.0731 32.3606C11.2553 32.4785 11.4615 32.5345 11.682 32.5345V32.2423ZM11.2319 32.1153L11.4004 31.8766C11.3138 31.8155 11.2528 31.7394 11.2126 31.6441L10.9433 31.7575L10.674 31.8709C10.757 32.068 10.8883 32.2305 11.0634 32.354L11.2319 32.1153ZM10.9433 31.7575L11.2142 31.6479L8.54794 25.0573L8.27706 25.1669L8.00618 25.2765L10.6724 31.8671L10.9433 31.7575ZM8.27706 25.1669H7.98485V31.7229H8.27706H8.56926V25.1669H8.27706ZM8.27706 31.7229H7.98485C7.98485 31.7873 7.96519 31.833 7.91663 31.8781L8.11547 32.0922L8.3143 32.3064C8.48119 32.1514 8.56926 31.9508 8.56926 31.7229H8.27706ZM8.11547 32.0922L7.90884 31.8856C7.86563 31.9288 7.81772 31.9501 7.74612 31.9501V32.2423V32.5345C7.96692 32.5345 8.16524 32.4557 8.32209 32.2989L8.11547 32.0922ZM19.3324 32.0922L19.539 31.8856V31.8856L19.3324 32.0922ZM19.3324 24.2897L19.5392 24.4965L19.5465 24.4885L19.3324 24.2897ZM23.7993 24.359L23.6925 24.6311L23.699 24.6334L23.7993 24.359ZM24.7457 24.9591L24.5294 25.1558L24.5358 25.1625L24.7457 24.9591ZM25.2536 25.7786L24.9763 25.8711L24.9785 25.8774L25.2536 25.7786ZM25.2536 27.6023L24.9785 27.5036L24.9764 27.5099L25.2536 27.6023ZM24.7457 28.4334L24.5327 28.2333L24.5325 28.2335L24.7457 28.4334ZM23.7993 29.0335L23.9013 29.3074L23.9042 29.3063L23.7993 29.0335ZM20.2327 29.2528V28.9606H19.9405V29.2528H20.2327ZM20.0711 32.0922L19.8722 31.878L19.8645 31.8856L20.0711 32.0922ZM20.2327 28.2602H19.9405V28.5524H20.2327V28.2602ZM23.5569 28.0294L23.6876 28.2908L23.6927 28.2881L23.5569 28.0294ZM24.1917 27.4292L24.4547 27.5565L24.4563 27.5532L24.1917 27.4292ZM23.5569 25.3631L23.421 25.6219L23.4262 25.6245L23.5569 25.3631ZM20.2327 25.1207V24.8285H19.9405V25.1207H20.2327ZM19.7018 32.2423V31.9501C19.6302 31.9501 19.5823 31.9288 19.539 31.8856L19.3324 32.0922L19.1258 32.2989C19.2826 32.4557 19.481 32.5345 19.7018 32.5345V32.2423ZM19.3324 32.0922L19.539 31.8856C19.4958 31.8424 19.4746 31.7945 19.4746 31.7229H19.1824H18.8902C18.8902 31.9437 18.9689 32.142 19.1258 32.2989L19.3324 32.0922ZM19.1824 31.7229H19.4746V24.6591H19.1824H18.8902V31.7229H19.1824ZM19.1824 24.6591H19.4746C19.4746 24.5874 19.4958 24.5395 19.539 24.4963L19.3324 24.2897L19.1258 24.0831C18.9689 24.2399 18.8902 24.4382 18.8902 24.6591H19.1824ZM19.3324 24.2897L19.5465 24.4885C19.5916 24.44 19.6373 24.4203 19.7018 24.4203V24.1281V23.8359C19.4738 23.8359 19.2733 23.924 19.1183 24.0909L19.3324 24.2897ZM19.7018 24.1281V24.4203H22.3334V24.1281V23.8359H19.7018V24.1281ZM22.3334 24.1281V24.4203C22.8948 24.4203 23.3445 24.4945 23.6926 24.631L23.7993 24.359L23.9059 24.0869C23.4691 23.9156 22.9416 23.8359 22.3334 23.8359V24.1281ZM23.7993 24.359L23.699 24.6334C24.0652 24.7672 24.3372 24.9442 24.5295 25.1557L24.7457 24.9591L24.9619 24.7626C24.6925 24.4663 24.3335 24.2431 23.8995 24.0845L23.7993 24.359ZM24.7457 24.9591L24.5358 25.1625C24.7465 25.3799 24.8913 25.6159 24.9764 25.871L25.2536 25.7786L25.5308 25.6862C25.4158 25.3412 25.222 25.0308 24.9556 24.7558L24.7457 24.9591ZM25.2536 25.7786L24.9785 25.8774C25.0753 26.1469 25.123 26.4175 25.123 26.6905H25.4152H25.7074C25.7074 26.3478 25.6473 26.0105 25.5286 25.6799L25.2536 25.7786ZM25.4152 26.6905H25.123C25.123 26.9634 25.0753 27.234 24.9785 27.5036L25.2536 27.6023L25.5286 27.701C25.6473 27.3704 25.7074 27.0331 25.7074 26.6905H25.4152ZM25.2536 27.6023L24.9764 27.5099C24.891 27.766 24.7453 28.007 24.5327 28.2333L24.7457 28.4334L24.9587 28.6334C25.2232 28.3518 25.4161 28.0388 25.5308 27.6947L25.2536 27.6023ZM24.7457 28.4334L24.5325 28.2335C24.3388 28.4401 24.0641 28.6186 23.6944 28.7608L23.7993 29.0335L23.9042 29.3063C24.3346 29.1407 24.6909 28.9191 24.9589 28.6332L24.7457 28.4334ZM23.7993 29.0335L23.6972 28.7597C23.3476 28.89 22.8961 28.9606 22.3334 28.9606V29.2528V29.5451C22.9403 29.5451 23.4661 29.4695 23.9013 29.3074L23.7993 29.0335ZM22.3334 29.2528V28.9606H20.2327V29.2528V29.5451H22.3334V29.2528ZM20.2327 29.2528H19.9405V31.7229H20.2327H20.5249V29.2528H20.2327ZM20.2327 31.7229H19.9405C19.9405 31.7873 19.9208 31.833 19.8723 31.8781L20.0711 32.0922L20.27 32.3064C20.4368 32.1514 20.5249 31.9508 20.5249 31.7229H20.2327ZM20.0711 32.0922L19.8645 31.8856C19.8213 31.9288 19.7734 31.9501 19.7018 31.9501V32.2423V32.5345C19.9226 32.5345 20.1209 32.4557 20.2777 32.2989L20.0711 32.0922ZM20.2327 28.2602V28.5524H22.2295V28.2602V27.968H20.2327V28.2602ZM22.2295 28.2602V28.5524C22.8251 28.5524 23.3205 28.4742 23.6875 28.2907L23.5569 28.0294L23.4262 27.768C23.1776 27.8923 22.7881 27.968 22.2295 27.968V28.2602ZM23.5569 28.0294L23.6927 28.2881C24.0386 28.1065 24.3047 27.8666 24.4547 27.5565L24.1917 27.4292L23.9287 27.3019C23.8479 27.4689 23.6907 27.6291 23.421 27.7707L23.5569 28.0294ZM24.1917 27.4292L24.4563 27.5532C24.588 27.2722 24.657 26.9839 24.657 26.6905H24.3648H24.0726C24.0726 26.8895 24.0263 27.0936 23.9271 27.3052L24.1917 27.4292ZM24.3648 26.6905H24.657C24.657 26.3905 24.5885 26.1009 24.4547 25.8245L24.1917 25.9518L23.9287 26.0791C24.0257 26.2797 24.0726 26.4826 24.0726 26.6905H24.3648ZM24.1917 25.9518L24.4547 25.8245C24.3038 25.5126 24.0357 25.2759 23.6875 25.1018L23.5569 25.3631L23.4262 25.6245C23.6936 25.7582 23.8487 25.9139 23.9287 26.0791L24.1917 25.9518ZM23.5569 25.3631L23.6927 25.1044C23.324 24.9108 22.8264 24.8285 22.2295 24.8285V25.1207V25.4129C22.7868 25.4129 23.1742 25.4922 23.421 25.6218L23.5569 25.3631ZM22.2295 25.1207V24.8285H20.2327V25.1207V25.4129H22.2295V25.1207ZM20.2327 25.1207H19.9405V28.2602H20.2327H20.5249V25.1207H20.2327ZM28.634 32.1615L28.5631 32.445L28.5695 32.4465L28.634 32.1615ZM27.6067 31.8383L27.4857 32.1045L27.497 32.1091L27.6067 31.8383ZM27.3874 31.6767L27.1481 31.8443L27.1578 31.8582L27.169 31.8708L27.3874 31.6767ZM27.4336 31.065L27.6567 31.2537H27.6567L27.4336 31.065ZM27.9876 30.9611L28.0962 30.6898V30.6898L27.9876 30.9611ZM28.7956 31.2035L28.7314 31.4886L28.7383 31.49L28.7956 31.2035ZM30.8155 31.1919L30.8767 31.4777L30.8817 31.4766L30.8155 31.1919ZM31.7158 29.2644L31.4791 29.4358L31.482 29.4397L31.7158 29.2644ZM28.8764 28.4218L28.6617 28.62L28.6696 28.6286L28.6782 28.6365L28.8764 28.4218ZM28.8764 27.7408L29.083 27.9474V27.9474L28.8764 27.7408ZM31.2195 25.3285L31.0451 25.563L31.049 25.5659L31.2195 25.3285ZM28.8533 25.1092L28.9207 25.3936L28.9259 25.3922L28.8533 25.1092ZM28.0569 25.3747L28.1278 25.6582L28.1532 25.6518L28.1772 25.641L28.0569 25.3747ZM27.9645 25.4093L28.0354 25.6928L28.0665 25.685L28.0952 25.6707L27.9645 25.4093ZM27.549 25.3054L27.3422 25.5123L27.3525 25.5216L27.549 25.3054ZM27.6529 24.6013L27.5135 24.3445L27.5121 24.3453L27.6529 24.6013ZM28.634 24.1974L28.7231 24.4757V24.4757L28.634 24.1974ZM31.9928 24.5552L31.8162 24.788L31.8181 24.7894L31.9928 24.5552ZM32.5006 27.0598L32.2455 26.9173L32.2441 26.9199L32.5006 27.0598ZM31.9697 27.6716L32.1379 27.9105L32.1395 27.9093L31.9697 27.6716ZM31.3233 28.0178L31.2197 27.7446L30.3306 28.0819L31.2556 28.3021L31.3233 28.0178ZM31.8543 28.2025L31.972 27.935V27.935L31.8543 28.2025ZM32.4083 28.5719L32.2112 28.7877L32.2166 28.7924L32.4083 28.5719ZM32.8354 29.1721L32.5676 29.2892L32.5708 29.2961L32.8354 29.1721ZM32.6045 31.3074L32.3779 31.1229L32.3774 31.1235L32.6045 31.3074ZM31.5311 32.0461L31.429 31.7723L31.4275 31.7729L31.5311 32.0461ZM30.0191 32.3V32.0078C29.5204 32.0078 29.0809 31.9631 28.6985 31.8765L28.634 32.1615L28.5695 32.4465C29.0027 32.5446 29.4866 32.5922 30.0191 32.5922V32.3ZM28.634 32.1615L28.7049 31.878C28.3138 31.7802 27.9851 31.6764 27.7165 31.5675L27.6067 31.8383L27.497 32.1091C27.7978 32.2311 28.1539 32.3427 28.5631 32.445L28.634 32.1615ZM27.6067 31.8383L27.7277 31.5723C27.68 31.5506 27.6402 31.5212 27.6058 31.4826L27.3874 31.6767L27.169 31.8708C27.2578 31.9707 27.3642 32.049 27.4858 32.1043L27.6067 31.8383ZM27.3874 31.6767L27.6268 31.5091C27.6122 31.4883 27.5989 31.4566 27.5989 31.3997H27.3066H27.0144C27.0144 31.5583 27.0549 31.7112 27.1481 31.8443L27.3874 31.6767ZM27.3066 31.3997H27.5989C27.5989 31.3504 27.6136 31.3047 27.6567 31.2537L27.4336 31.065L27.2105 30.8762C27.0844 31.0253 27.0144 31.2028 27.0144 31.3997H27.3066ZM27.4336 31.065L27.6567 31.2537C27.6823 31.2235 27.7102 31.2071 27.7683 31.2071V30.9149V30.6227C27.5495 30.6227 27.3542 30.7064 27.2105 30.8762L27.4336 31.065ZM27.7683 30.9149V31.2071C27.7939 31.2071 27.83 31.2128 27.8791 31.2324L27.9876 30.9611L28.0962 30.6898C27.9913 30.6479 27.8813 30.6227 27.7683 30.6227V30.9149ZM27.9876 30.9611L27.8791 31.2324C28.1276 31.3318 28.4123 31.4168 28.7314 31.4886L28.7956 31.2035L28.8597 30.9184C28.5633 30.8517 28.3094 30.7751 28.0962 30.6898L27.9876 30.9611ZM28.7956 31.2035L28.7383 31.49C29.0683 31.556 29.4303 31.588 29.8228 31.588V31.2958V31.0036C29.4613 31.0036 29.1385 30.9741 28.8529 30.9169L28.7956 31.2035ZM29.8228 31.2958V31.588C30.1815 31.588 30.5329 31.5513 30.8767 31.4777L30.8155 31.1919L30.7542 30.9062C30.4517 30.9711 30.1413 31.0036 29.8228 31.0036V31.2958ZM30.8155 31.1919L30.8817 31.4766C31.2493 31.391 31.5676 31.2421 31.8251 31.0214L31.635 30.7995L31.4448 30.5776C31.2714 30.7263 31.0434 30.8389 30.7493 30.9073L30.8155 31.1919ZM31.635 30.7995L31.8251 31.0214C32.118 30.7704 32.2504 30.4204 32.2504 30.0146H31.9582H31.6659C31.6659 30.286 31.5829 30.4593 31.4448 30.5776L31.635 30.7995ZM31.9582 30.0146H32.2504C32.2504 29.6706 32.1513 29.3581 31.9495 29.0891L31.7158 29.2644L31.482 29.4397C31.6034 29.6016 31.6659 29.7893 31.6659 30.0146H31.9582ZM31.7158 29.2644L31.9524 29.093C31.7429 28.8037 31.4159 28.6025 31.0118 28.4678L30.9194 28.745L30.827 29.0222C31.1615 29.1337 31.3654 29.2788 31.4791 29.4358L31.7158 29.2644ZM30.9194 28.745L31.0118 28.4678C30.5997 28.3304 30.06 28.2681 29.4073 28.2681V28.5603V28.8525C30.032 28.8525 30.5003 28.9133 30.827 29.0222L30.9194 28.745ZM29.4073 28.5603V28.2681H29.2226V28.5603V28.8525H29.4073V28.5603ZM29.2226 28.5603V28.2681C29.1685 28.2681 29.1231 28.2518 29.0746 28.2071L28.8764 28.4218L28.6782 28.6365C28.8298 28.7765 29.0152 28.8525 29.2226 28.8525V28.5603ZM28.8764 28.4218L29.0911 28.2236C29.0464 28.1751 29.0301 28.1297 29.0301 28.0755H28.7379H28.4457C28.4457 28.283 28.5217 28.4684 28.6617 28.62L28.8764 28.4218ZM28.7379 28.0755H29.0301C29.0301 28.0221 29.0456 27.9849 29.083 27.9474L28.8764 27.7408L28.6698 27.5342C28.5225 27.6814 28.4457 27.8674 28.4457 28.0755H28.7379ZM28.8764 27.7408L29.083 27.9474C29.1332 27.8973 29.176 27.883 29.2226 27.883V27.5908V27.2986C29.0076 27.2986 28.8197 27.3843 28.6698 27.5342L28.8764 27.7408ZM29.2226 27.5908V27.883H29.2919V27.5908V27.2986H29.2226V27.5908ZM29.2919 27.5908V27.883C30.0694 27.883 30.711 27.7651 31.1882 27.4999L31.0463 27.2445L30.9044 26.9891C30.5506 27.1856 30.0226 27.2986 29.2919 27.2986V27.5908ZM31.0463 27.2445L31.1882 27.4999C31.4336 27.3636 31.6306 27.1844 31.7651 26.9579C31.8996 26.7312 31.9618 26.4732 31.9618 26.1942H31.6696H31.3774C31.3774 26.3845 31.3357 26.5363 31.2625 26.6597C31.1891 26.7833 31.0746 26.8945 30.9044 26.9891L31.0463 27.2445ZM31.6696 26.1942H31.9618C31.9618 25.736 31.7645 25.3601 31.3899 25.0911L31.2195 25.3285L31.049 25.5659C31.2746 25.7278 31.3774 25.929 31.3774 26.1942H31.6696ZM31.2195 25.3285L31.3938 25.094C31.02 24.8161 30.4872 24.7016 29.8459 24.7016V24.9938V25.286C30.4358 25.286 30.8187 25.3946 31.0451 25.563L31.2195 25.3285ZM29.8459 24.9938V24.7016C29.4638 24.7016 29.1081 24.7422 28.7807 24.8261L28.8533 25.1092L28.9259 25.3922C29.1987 25.3223 29.5048 25.286 29.8459 25.286V24.9938ZM28.8533 25.1092L28.786 24.8249C28.478 24.8978 28.1945 24.9919 27.9366 25.1084L28.0569 25.3747L28.1772 25.641C28.3964 25.542 28.6438 25.4591 28.9206 25.3935L28.8533 25.1092ZM28.0569 25.3747L27.986 25.0912C27.9329 25.1045 27.8821 25.1238 27.8339 25.1479L27.9645 25.4093L28.0952 25.6707C28.1085 25.664 28.1193 25.6603 28.1278 25.6582L28.0569 25.3747ZM27.9645 25.4093L27.8937 25.1258C27.8946 25.1256 27.8916 25.1264 27.8835 25.1272C27.8756 25.128 27.8643 25.1286 27.8491 25.1286V25.4208V25.713C27.9094 25.713 27.9736 25.7082 28.0354 25.6928L27.9645 25.4093ZM27.8491 25.4208V25.1286C27.8057 25.1286 27.7759 25.1168 27.7456 25.0892L27.549 25.3054L27.3525 25.5216C27.4914 25.648 27.6617 25.713 27.8491 25.713V25.4208ZM27.549 25.3054L27.7557 25.0988C27.7275 25.0707 27.7143 25.0419 27.7143 24.9938H27.4221H27.1299C27.1299 25.1919 27.2012 25.3709 27.3424 25.512L27.549 25.3054ZM27.4221 24.9938H27.7143C27.7143 24.9486 27.7237 24.9246 27.7316 24.9111C27.7395 24.8977 27.7555 24.8784 27.7937 24.8574L27.6529 24.6013L27.5121 24.3453C27.3964 24.4089 27.297 24.4974 27.2279 24.6148C27.1589 24.7321 27.1299 24.8619 27.1299 24.9938H27.4221ZM27.6529 24.6013L27.7923 24.8581C28.0414 24.7229 28.3506 24.5949 28.7231 24.4757L28.634 24.1974L28.5449 23.9191C28.1479 24.0461 27.803 24.1874 27.5135 24.3445L27.6529 24.6013ZM28.634 24.1974L28.7231 24.4757C29.0739 24.3634 29.4779 24.3049 29.9383 24.3049V24.0127V23.7205C29.4291 23.7205 28.9636 23.7851 28.5449 23.9191L28.634 24.1974ZM29.9383 24.0127V24.3049C30.797 24.3049 31.4095 24.4797 31.8163 24.788L31.9928 24.5552L32.1693 24.3223C31.6219 23.9073 30.8647 23.7205 29.9383 23.7205V24.0127ZM31.9928 24.5552L31.8181 24.7894C32.2212 25.0901 32.4277 25.5107 32.4277 26.0903H32.7199H33.0121C33.0121 25.3463 32.7339 24.7435 32.1675 24.321L31.9928 24.5552ZM32.7199 26.0903H32.4277C32.4277 26.4389 32.3615 26.7099 32.2456 26.9173L32.5006 27.0598L32.7557 27.2024C32.9322 26.8865 33.0121 26.5111 33.0121 26.0903H32.7199ZM32.5006 27.0598L32.2441 26.9199C32.1248 27.1387 31.9762 27.3078 31.7999 27.4338L31.9697 27.6716L32.1395 27.9093C32.3941 27.7275 32.5995 27.4888 32.7572 27.1998L32.5006 27.0598ZM31.9697 27.6716L31.8015 27.4326C31.6125 27.5656 31.4186 27.6692 31.2197 27.7446L31.3233 28.0178L31.427 28.291C31.6744 28.1972 31.9114 28.0699 32.1379 27.9105L31.9697 27.6716ZM31.3233 28.0178L31.2556 28.3021C31.3963 28.3356 31.5563 28.3907 31.7366 28.47L31.8543 28.2025L31.972 27.935C31.7675 27.8451 31.5735 27.777 31.391 27.7336L31.3233 28.0178ZM31.8543 28.2025L31.7366 28.47C31.8961 28.5402 32.0545 28.6445 32.2113 28.7877L32.4083 28.5719L32.6053 28.3561C32.4081 28.176 32.1972 28.0341 31.972 27.935L31.8543 28.2025ZM32.4083 28.5719L32.2166 28.7924C32.3564 28.914 32.4747 29.0768 32.5677 29.2892L32.8354 29.1721L33.1031 29.0549C32.9805 28.7748 32.8141 28.5375 32.6 28.3514L32.4083 28.5719ZM32.8354 29.1721L32.5708 29.2961C32.6634 29.4936 32.7163 29.7488 32.7163 30.0723H33.0085H33.3007C33.3007 29.6879 33.2382 29.3429 33.0999 29.048L32.8354 29.1721ZM33.0085 30.0723H32.7163C32.7163 30.5085 32.5984 30.852 32.3779 31.1229L32.6045 31.3074L32.8311 31.4918C33.1493 31.101 33.3007 30.6211 33.3007 30.0723H33.0085ZM32.6045 31.3074L32.3774 31.1235C32.1538 31.3998 31.8422 31.6182 31.429 31.7723L31.5311 32.0461L31.6332 32.3199C32.128 32.1354 32.532 31.8613 32.8316 31.4912L32.6045 31.3074ZM31.5311 32.0461L31.4275 31.7729C31.0196 31.9276 30.5515 32.0078 30.0191 32.0078V32.3V32.5922C30.6101 32.5922 31.15 32.5031 31.6347 32.3193L31.5311 32.0461Z" fill="white" mask="url(#path-4-outside-1_383_20954)"/>
<g filter="url(#filter1_d_383_20954)">
<path d="M39.74 14.9026H28.0517C26.2765 14.9026 24.8374 13.4635 24.8374 11.6883V0L39.74 14.9026Z" fill="url(#paint2_linear_383_20954)"/>
</g>
</g>
<defs>
<filter id="filter0_f_383_20954" x="1.31464" y="16.0715" width="37.4025" height="23.6686" filterUnits="userSpaceOnUse" color-interpolation-filters="sRGB">
<feFlood flood-opacity="0" result="BackgroundImageFix"/>
<feBlend mode="normal" in="SourceGraphic" in2="BackgroundImageFix" result="shape"/>
<feGaussianBlur stdDeviation="2.84903" result="effect1_foregroundBlur_383_20954"/>
</filter>
<filter id="filter1_d_383_20954" x="21.477" y="-3.50649" width="22.208" height="22.2075" filterUnits="userSpaceOnUse" color-interpolation-filters="sRGB">
<feFlood flood-opacity="0" result="BackgroundImageFix"/>
<feColorMatrix in="SourceAlpha" type="matrix" values="0 0 0 0 0 0 0 0 0 0 0 0 0 0 0 0 0 0 127 0" result="hardAlpha"/>
<feOffset dx="0.292208" dy="0.146104"/>
<feGaussianBlur stdDeviation="1.8263"/>
<feColorMatrix type="matrix" values="0 0 0 0 0 0 0 0 0 0 0 0 0 0 0 0 0 0 0.33 0"/>
<feBlend mode="normal" in2="BackgroundImageFix" result="effect1_dropShadow_383_20954"/>
<feBlend mode="normal" in="SourceGraphic" in2="effect1_dropShadow_383_20954" result="shape"/>
</filter>
<linearGradient id="paint0_linear_383_20954" x1="19.8701" y1="0" x2="19.8701" y2="45" gradientUnits="userSpaceOnUse">
<stop stop-color="#FF7979"/>
<stop offset="1" stop-color="#E85555"/>
</linearGradient>
<linearGradient id="paint1_linear_383_20954" x1="19.8701" y1="0" x2="19.8701" y2="45" gradientUnits="userSpaceOnUse">
<stop stop-color="#7CA9FF"/>
<stop offset="1" stop-color="#4377DC"/>
</linearGradient>
<linearGradient id="paint2_linear_383_20954" x1="32.2887" y1="0" x2="32.2887" y2="14.9026" gradientUnits="userSpaceOnUse">
<stop stop-color="#4B7BF7"/>
<stop offset="1" stop-color="#1A4DD1"/>
</linearGradient>
</defs>
</svg>
