<svg width="40" height="45" viewBox="0 0 40 45" fill="none" xmlns="http://www.w3.org/2000/svg">
<mask id="mask0_383_20906" style="mask-type:alpha" maskUnits="userSpaceOnUse" x="0" y="0" width="40" height="45">
<path d="M36.526 45H3.21429C1.43909 45 0 43.5609 0 41.7857V3.21429C0 1.43909 1.43909 0 3.21429 0H24.8377L39.7403 14.9026V41.7857C39.7403 43.5609 38.3012 45 36.526 45Z" fill="url(#paint0_linear_383_20906)"/>
</mask>
<g mask="url(#mask0_383_20906)">
<path d="M36.526 45H3.21429C1.43909 45 0 43.5609 0 41.7857V3.21429C0 1.43909 1.43909 0 3.21429 0H24.8377L39.7403 14.9026V41.7857C39.7403 43.5609 38.3012 45 36.526 45Z" fill="url(#paint1_linear_383_20906)"/>
<mask id="path-3-outside-1_383_20906" maskUnits="userSpaceOnUse" x="7.45117" y="23.1846" width="25" height="10" fill="black">
<rect fill="white" x="7.45117" y="23.1846" width="25" height="10"/>
<path d="M9.09017 32.2423C8.94396 32.2423 8.82085 32.1923 8.72081 32.0922C8.62078 31.9922 8.57077 31.8691 8.57077 31.7229V24.6591C8.57077 24.5128 8.62078 24.3897 8.72081 24.2897C8.82085 24.182 8.94396 24.1281 9.09017 24.1281H11.7218C12.3066 24.1281 12.7952 24.2051 13.1876 24.359C13.5878 24.5052 13.9033 24.7052 14.1341 24.9591C14.3726 25.2054 14.5419 25.4785 14.642 25.7786C14.7497 26.0787 14.8036 26.3827 14.8036 26.6905C14.8036 26.9983 14.7497 27.3022 14.642 27.6023C14.5419 27.9024 14.3726 28.1794 14.1341 28.4334C13.9033 28.6796 13.5878 28.8797 13.1876 29.0335C12.7952 29.1797 12.3066 29.2528 11.7218 29.2528H9.62111V31.7229C9.62111 31.8691 9.56724 31.9922 9.45952 32.0922C9.35948 32.1923 9.23637 32.2423 9.09017 32.2423ZM9.62111 28.2602H11.6179C12.195 28.2602 12.6375 28.1833 12.9453 28.0294C13.2531 27.8678 13.4647 27.6677 13.5801 27.4292C13.6955 27.1829 13.7532 26.9367 13.7532 26.6905C13.7532 26.4366 13.6955 26.1903 13.5801 25.9518C13.4647 25.7132 13.2531 25.517 12.9453 25.3631C12.6375 25.2015 12.195 25.1207 11.6179 25.1207H9.62111V28.2602ZM17.653 32.1846C17.5068 32.1846 17.3837 32.1346 17.2837 32.0345C17.1837 31.9345 17.1336 31.8114 17.1336 31.6652V24.6591C17.1336 24.5128 17.1837 24.3897 17.2837 24.2897C17.3837 24.182 17.5068 24.1281 17.653 24.1281H19.973C20.6656 24.1281 21.2658 24.2474 21.7736 24.4859C22.2815 24.7168 22.7047 25.0284 23.0433 25.4208C23.3818 25.8056 23.6319 26.2365 23.7935 26.7136C23.9628 27.1906 24.0474 27.6716 24.0474 28.1563C24.0474 28.6411 23.9628 29.122 23.7935 29.5991C23.6319 30.0762 23.3818 30.511 23.0433 30.9034C22.7047 31.2881 22.2815 31.5998 21.7736 31.8383C21.2658 32.0691 20.6656 32.1846 19.973 32.1846H17.653ZM18.184 31.2035H19.8461C20.4924 31.2035 21.0503 31.0765 21.5197 30.8226C21.9968 30.561 22.3623 30.2032 22.6162 29.7492C22.8778 29.2875 23.0086 28.7565 23.0086 28.1563C23.0086 27.5561 22.8778 27.0291 22.6162 26.5751C22.3623 26.1134 21.9968 25.7556 21.5197 25.5016C21.0503 25.24 20.4924 25.1092 19.8461 25.1092H18.184V31.2035ZM27.1289 32.2423C26.9827 32.2423 26.8596 32.1923 26.7596 32.0922C26.6595 31.9922 26.6095 31.8691 26.6095 31.7229V24.6591C26.6095 24.5128 26.6595 24.3897 26.7596 24.2897C26.8596 24.182 26.9827 24.1281 27.1289 24.1281H31.6188C31.7574 24.1281 31.8728 24.1781 31.9651 24.2782C32.0651 24.3705 32.1152 24.4859 32.1152 24.6244C32.1152 24.7629 32.0651 24.8784 31.9651 24.9707C31.8728 25.063 31.7574 25.1092 31.6188 25.1092H27.6599V27.66H31.2149C31.3534 27.66 31.4688 27.71 31.5611 27.8101C31.6612 27.9024 31.7112 28.0178 31.7112 28.1563C31.7112 28.2948 31.6612 28.4103 31.5611 28.5026C31.4688 28.5949 31.3534 28.6411 31.2149 28.6411H27.6599V31.7229C27.6599 31.8691 27.606 31.9922 27.4983 32.0922C27.3982 32.1923 27.2751 32.2423 27.1289 32.2423Z"/>
</mask>
<path d="M9.09017 32.2423C8.94396 32.2423 8.82085 32.1923 8.72081 32.0922C8.62078 31.9922 8.57077 31.8691 8.57077 31.7229V24.6591C8.57077 24.5128 8.62078 24.3897 8.72081 24.2897C8.82085 24.182 8.94396 24.1281 9.09017 24.1281H11.7218C12.3066 24.1281 12.7952 24.2051 13.1876 24.359C13.5878 24.5052 13.9033 24.7052 14.1341 24.9591C14.3726 25.2054 14.5419 25.4785 14.642 25.7786C14.7497 26.0787 14.8036 26.3827 14.8036 26.6905C14.8036 26.9983 14.7497 27.3022 14.642 27.6023C14.5419 27.9024 14.3726 28.1794 14.1341 28.4334C13.9033 28.6796 13.5878 28.8797 13.1876 29.0335C12.7952 29.1797 12.3066 29.2528 11.7218 29.2528H9.62111V31.7229C9.62111 31.8691 9.56724 31.9922 9.45952 32.0922C9.35948 32.1923 9.23637 32.2423 9.09017 32.2423ZM9.62111 28.2602H11.6179C12.195 28.2602 12.6375 28.1833 12.9453 28.0294C13.2531 27.8678 13.4647 27.6677 13.5801 27.4292C13.6955 27.1829 13.7532 26.9367 13.7532 26.6905C13.7532 26.4366 13.6955 26.1903 13.5801 25.9518C13.4647 25.7132 13.2531 25.517 12.9453 25.3631C12.6375 25.2015 12.195 25.1207 11.6179 25.1207H9.62111V28.2602ZM17.653 32.1846C17.5068 32.1846 17.3837 32.1346 17.2837 32.0345C17.1837 31.9345 17.1336 31.8114 17.1336 31.6652V24.6591C17.1336 24.5128 17.1837 24.3897 17.2837 24.2897C17.3837 24.182 17.5068 24.1281 17.653 24.1281H19.973C20.6656 24.1281 21.2658 24.2474 21.7736 24.4859C22.2815 24.7168 22.7047 25.0284 23.0433 25.4208C23.3818 25.8056 23.6319 26.2365 23.7935 26.7136C23.9628 27.1906 24.0474 27.6716 24.0474 28.1563C24.0474 28.6411 23.9628 29.122 23.7935 29.5991C23.6319 30.0762 23.3818 30.511 23.0433 30.9034C22.7047 31.2881 22.2815 31.5998 21.7736 31.8383C21.2658 32.0691 20.6656 32.1846 19.973 32.1846H17.653ZM18.184 31.2035H19.8461C20.4924 31.2035 21.0503 31.0765 21.5197 30.8226C21.9968 30.561 22.3623 30.2032 22.6162 29.7492C22.8778 29.2875 23.0086 28.7565 23.0086 28.1563C23.0086 27.5561 22.8778 27.0291 22.6162 26.5751C22.3623 26.1134 21.9968 25.7556 21.5197 25.5016C21.0503 25.24 20.4924 25.1092 19.8461 25.1092H18.184V31.2035ZM27.1289 32.2423C26.9827 32.2423 26.8596 32.1923 26.7596 32.0922C26.6595 31.9922 26.6095 31.8691 26.6095 31.7229V24.6591C26.6095 24.5128 26.6595 24.3897 26.7596 24.2897C26.8596 24.182 26.9827 24.1281 27.1289 24.1281H31.6188C31.7574 24.1281 31.8728 24.1781 31.9651 24.2782C32.0651 24.3705 32.1152 24.4859 32.1152 24.6244C32.1152 24.7629 32.0651 24.8784 31.9651 24.9707C31.8728 25.063 31.7574 25.1092 31.6188 25.1092H27.6599V27.66H31.2149C31.3534 27.66 31.4688 27.71 31.5611 27.8101C31.6612 27.9024 31.7112 28.0178 31.7112 28.1563C31.7112 28.2948 31.6612 28.4103 31.5611 28.5026C31.4688 28.5949 31.3534 28.6411 31.2149 28.6411H27.6599V31.7229C27.6599 31.8691 27.606 31.9922 27.4983 32.0922C27.3982 32.1923 27.2751 32.2423 27.1289 32.2423Z" fill="white"/>
<path d="M8.72081 32.0922L8.92744 31.8856V31.8856L8.72081 32.0922ZM8.72081 24.2897L8.92758 24.4965L8.93494 24.4885L8.72081 24.2897ZM13.1876 24.359L13.0809 24.6311L13.0874 24.6334L13.1876 24.359ZM14.1341 24.9591L13.9178 25.1558L13.9242 25.1625L14.1341 24.9591ZM14.642 25.7786L14.3647 25.8711L14.3669 25.8774L14.642 25.7786ZM14.642 27.6023L14.3669 27.5036L14.3648 27.5099L14.642 27.6023ZM14.1341 28.4334L13.9211 28.2333L13.9209 28.2335L14.1341 28.4334ZM13.1876 29.0335L13.2897 29.3074L13.2925 29.3063L13.1876 29.0335ZM9.62111 29.2528V28.9606H9.3289V29.2528H9.62111ZM9.45952 32.0922L9.26055 31.878L9.25289 31.8856L9.45952 32.0922ZM9.62111 28.2602H9.3289V28.5524H9.62111V28.2602ZM12.9453 28.0294L13.076 28.2908L13.0811 28.2881L12.9453 28.0294ZM13.5801 27.4292L13.8431 27.5565L13.8447 27.5532L13.5801 27.4292ZM12.9453 25.3631L12.8094 25.6219L12.8146 25.6245L12.9453 25.3631ZM9.62111 25.1207V24.8285H9.3289V25.1207H9.62111ZM9.09017 32.2423V31.9501C9.01856 31.9501 8.97065 31.9288 8.92744 31.8856L8.72081 32.0922L8.51419 32.2989C8.67104 32.4557 8.86936 32.5345 9.09017 32.5345V32.2423ZM8.72081 32.0922L8.92744 31.8856C8.88422 31.8424 8.86297 31.7945 8.86297 31.7229H8.57077H8.27856C8.27856 31.9437 8.35734 32.142 8.51419 32.2989L8.72081 32.0922ZM8.57077 31.7229H8.86297V24.6591H8.57077H8.27856V31.7229H8.57077ZM8.57077 24.6591H8.86297C8.86297 24.5874 8.88422 24.5395 8.92744 24.4963L8.72081 24.2897L8.51419 24.0831C8.35734 24.2399 8.27856 24.4382 8.27856 24.6591H8.57077ZM8.72081 24.2897L8.93494 24.4885C8.98003 24.44 9.02573 24.4203 9.09017 24.4203V24.1281V23.8359C8.8622 23.8359 8.66166 23.924 8.50669 24.0909L8.72081 24.2897ZM9.09017 24.1281V24.4203H11.7218V24.1281V23.8359H9.09017V24.1281ZM11.7218 24.1281V24.4203C12.2832 24.4203 12.7329 24.4945 13.081 24.631L13.1876 24.359L13.2943 24.0869C12.8575 23.9156 12.33 23.8359 11.7218 23.8359V24.1281ZM13.1876 24.359L13.0874 24.6334C13.4536 24.7672 13.7256 24.9442 13.9179 25.1557L14.1341 24.9591L14.3503 24.7626C14.0809 24.4663 13.7219 24.2431 13.2879 24.0845L13.1876 24.359ZM14.1341 24.9591L13.9242 25.1625C14.1349 25.3799 14.2797 25.6159 14.3648 25.871L14.642 25.7786L14.9192 25.6862C14.8042 25.3412 14.6104 25.0308 14.344 24.7558L14.1341 24.9591ZM14.642 25.7786L14.3669 25.8774C14.4637 26.1469 14.5114 26.4175 14.5114 26.6905H14.8036H15.0958C15.0958 26.3478 15.0357 26.0105 14.917 25.6799L14.642 25.7786ZM14.8036 26.6905H14.5114C14.5114 26.9634 14.4637 27.234 14.3669 27.5036L14.642 27.6023L14.917 27.701C15.0357 27.3704 15.0958 27.0331 15.0958 26.6905H14.8036ZM14.642 27.6023L14.3648 27.5099C14.2794 27.766 14.1337 28.007 13.9211 28.2333L14.1341 28.4334L14.3471 28.6334C14.6116 28.3518 14.8045 28.0388 14.9192 27.6947L14.642 27.6023ZM14.1341 28.4334L13.9209 28.2335C13.7272 28.4401 13.4525 28.6186 13.0828 28.7608L13.1876 29.0335L13.2925 29.3063C13.723 29.1407 14.0793 28.9191 14.3473 28.6332L14.1341 28.4334ZM13.1876 29.0335L13.0856 28.7597C12.736 28.89 12.2845 28.9606 11.7218 28.9606V29.2528V29.5451C12.3286 29.5451 12.8544 29.4695 13.2897 29.3074L13.1876 29.0335ZM11.7218 29.2528V28.9606H9.62111V29.2528V29.5451H11.7218V29.2528ZM9.62111 29.2528H9.3289V31.7229H9.62111H9.91332V29.2528H9.62111ZM9.62111 31.7229H9.3289C9.3289 31.7873 9.30924 31.833 9.26068 31.8781L9.45952 32.0922L9.65835 32.3064C9.82524 32.1514 9.91332 31.9508 9.91332 31.7229H9.62111ZM9.45952 32.0922L9.25289 31.8856C9.20968 31.9288 9.16177 31.9501 9.09017 31.9501V32.2423V32.5345C9.31097 32.5345 9.50929 32.4557 9.66614 32.2989L9.45952 32.0922ZM9.62111 28.2602V28.5524H11.6179V28.2602V27.968H9.62111V28.2602ZM11.6179 28.2602V28.5524C12.2135 28.5524 12.7089 28.4742 13.0759 28.2907L12.9453 28.0294L12.8146 27.768C12.566 27.8923 12.1765 27.968 11.6179 27.968V28.2602ZM12.9453 28.0294L13.0811 28.2881C13.427 28.1065 13.6931 27.8666 13.8431 27.5565L13.5801 27.4292L13.3171 27.3019C13.2363 27.4689 13.0791 27.6291 12.8094 27.7707L12.9453 28.0294ZM13.5801 27.4292L13.8447 27.5532C13.9764 27.2722 14.0454 26.9839 14.0454 26.6905H13.7532H13.461C13.461 26.8895 13.4146 27.0936 13.3155 27.3052L13.5801 27.4292ZM13.7532 26.6905H14.0454C14.0454 26.3905 13.9769 26.1009 13.8431 25.8245L13.5801 25.9518L13.3171 26.0791C13.4141 26.2797 13.461 26.4826 13.461 26.6905H13.7532ZM13.5801 25.9518L13.8431 25.8245C13.6922 25.5126 13.4241 25.2759 13.0759 25.1018L12.9453 25.3631L12.8146 25.6245C13.082 25.7582 13.2371 25.9139 13.3171 26.0791L13.5801 25.9518ZM12.9453 25.3631L13.0811 25.1044C12.7124 24.9108 12.2148 24.8285 11.6179 24.8285V25.1207V25.4129C12.1752 25.4129 12.5625 25.4922 12.8094 25.6218L12.9453 25.3631ZM11.6179 25.1207V24.8285H9.62111V25.1207V25.4129H11.6179V25.1207ZM9.62111 25.1207H9.3289V28.2602H9.62111H9.91332V25.1207H9.62111ZM17.2837 32.0345L17.4903 31.8279V31.8279L17.2837 32.0345ZM17.2837 24.2897L17.4905 24.4965L17.4978 24.4885L17.2837 24.2897ZM21.7736 24.4859L21.6494 24.7504L21.6527 24.7519L21.7736 24.4859ZM23.0433 25.4208L22.822 25.6117L22.8239 25.6139L23.0433 25.4208ZM23.7935 26.7136L23.5167 26.8073L23.5181 26.8113L23.7935 26.7136ZM23.7935 29.5991L23.5181 29.5014L23.5167 29.5054L23.7935 29.5991ZM23.0433 30.9034L23.2626 31.0964L23.2645 31.0943L23.0433 30.9034ZM21.7736 31.8383L21.8945 32.1043L21.8978 32.1028L21.7736 31.8383ZM18.184 31.2035H17.8918V31.4957H18.184V31.2035ZM21.5197 30.8226L21.6587 31.0796L21.6602 31.0788L21.5197 30.8226ZM22.6162 29.7492L22.362 29.6051L22.3612 29.6065L22.6162 29.7492ZM22.6162 26.5751L22.3601 26.7159L22.363 26.721L22.6162 26.5751ZM21.5197 25.5016L21.3774 25.7569L21.3824 25.7596L21.5197 25.5016ZM18.184 25.1092V24.817H17.8918V25.1092H18.184ZM17.653 32.1846V31.8924C17.5814 31.8924 17.5335 31.8711 17.4903 31.8279L17.2837 32.0345L17.0771 32.2411C17.2339 32.398 17.4322 32.4768 17.653 32.4768V32.1846ZM17.2837 32.0345L17.4903 31.8279C17.4471 31.7847 17.4258 31.7368 17.4258 31.6652H17.1336H16.8414C16.8414 31.886 16.9202 32.0843 17.0771 32.2411L17.2837 32.0345ZM17.1336 31.6652H17.4258V24.6591H17.1336H16.8414V31.6652H17.1336ZM17.1336 24.6591H17.4258C17.4258 24.5874 17.4471 24.5395 17.4903 24.4963L17.2837 24.2897L17.0771 24.0831C16.9202 24.2399 16.8414 24.4382 16.8414 24.6591H17.1336ZM17.2837 24.2897L17.4978 24.4885C17.5429 24.44 17.5886 24.4203 17.653 24.4203V24.1281V23.8359C17.4251 23.8359 17.2245 23.924 17.0696 24.0909L17.2837 24.2897ZM17.653 24.1281V24.4203H19.973V24.1281V23.8359H17.653V24.1281ZM19.973 24.1281V24.4203C20.6324 24.4203 21.1884 24.5339 21.6494 24.7504L21.7736 24.4859L21.8978 24.2214C21.3431 23.9609 20.6987 23.8359 19.973 23.8359V24.1281ZM21.7736 24.4859L21.6527 24.7519C22.1251 24.9666 22.5131 25.2537 22.822 25.6117L23.0433 25.4208L23.2645 25.23C22.8962 24.8031 22.4379 24.4669 21.8945 24.2199L21.7736 24.4859ZM23.0433 25.4208L22.8239 25.6139C23.1374 25.9702 23.3677 26.3674 23.5167 26.8073L23.7935 26.7136L24.0703 26.6198C23.8961 26.1055 23.6262 25.641 23.2626 25.2278L23.0433 25.4208ZM23.7935 26.7136L23.5181 26.8113C23.6768 27.2584 23.7552 27.7063 23.7552 28.1563H24.0474H24.3396C24.3396 27.6368 24.2488 27.1229 24.0689 26.6158L23.7935 26.7136ZM24.0474 28.1563H23.7552C23.7552 28.6064 23.6768 29.0543 23.5181 29.5014L23.7935 29.5991L24.0689 29.6968C24.2488 29.1898 24.3396 28.6759 24.3396 28.1563H24.0474ZM23.7935 29.5991L23.5167 29.5054C23.3676 29.9458 23.1367 30.3477 22.822 30.7125L23.0433 30.9034L23.2645 31.0943C23.6269 30.6742 23.8962 30.2066 24.0703 29.6929L23.7935 29.5991ZM23.0433 30.9034L22.8239 30.7103C22.5142 31.0623 22.1244 31.3507 21.6494 31.5738L21.7736 31.8383L21.8978 32.1028C22.4385 31.8488 22.8952 31.514 23.2626 31.0964L23.0433 30.9034ZM21.7736 31.8383L21.6527 31.5723C21.1908 31.7822 20.6336 31.8924 19.973 31.8924V32.1846V32.4768C20.6975 32.4768 21.3407 32.3561 21.8945 32.1043L21.7736 31.8383ZM19.973 32.1846V31.8924H17.653V32.1846V32.4768H19.973V32.1846ZM18.184 31.2035V31.4957H19.8461V31.2035V30.9113H18.184V31.2035ZM19.8461 31.2035V31.4957C20.5308 31.4957 21.1385 31.361 21.6587 31.0796L21.5197 30.8226L21.3806 30.5656C20.9621 30.792 20.4541 30.9113 19.8461 30.9113V31.2035ZM21.5197 30.8226L21.6602 31.0788C22.183 30.7921 22.5893 30.3959 22.8712 29.8918L22.6162 29.7492L22.3612 29.6065C22.1353 30.0104 21.8105 30.3298 21.3792 30.5664L21.5197 30.8226ZM22.6162 29.7492L22.8704 29.8932C23.1601 29.3821 23.3008 28.8003 23.3008 28.1563H23.0086H22.7164C22.7164 28.7128 22.5956 29.1929 22.362 29.6051L22.6162 29.7492ZM23.0086 28.1563H23.3008C23.3008 27.5125 23.1601 26.9336 22.8694 26.4292L22.6162 26.5751L22.363 26.721C22.5955 27.1245 22.7164 27.5998 22.7164 28.1563H23.0086ZM22.6162 26.5751L22.8722 26.4342C22.5902 25.9215 22.1828 25.5236 21.657 25.2437L21.5197 25.5016L21.3824 25.7596C21.8107 25.9876 22.1343 26.3053 22.3602 26.7159L22.6162 26.5751ZM21.5197 25.5016L21.6619 25.2464C21.141 24.9561 20.5321 24.817 19.8461 24.817V25.1092V25.4014C20.4527 25.4014 20.9596 25.524 21.3774 25.7569L21.5197 25.5016ZM19.8461 25.1092V24.817H18.184V25.1092V25.4014H19.8461V25.1092ZM18.184 25.1092H17.8918V31.2035H18.184H18.4762V25.1092H18.184ZM26.7596 32.0922L26.9662 31.8856V31.8856L26.7596 32.0922ZM26.7596 24.2897L26.9663 24.4965L26.9737 24.4885L26.7596 24.2897ZM31.9651 24.2782L31.7504 24.4764L31.7583 24.4849L31.7669 24.4929L31.9651 24.2782ZM31.9651 24.9707L31.7668 24.7558L31.7585 24.7641L31.9651 24.9707ZM27.6599 25.1092V24.817H27.3677V25.1092H27.6599ZM27.6599 27.66H27.3677V27.9522H27.6599V27.66ZM31.5611 27.8101L31.3464 28.0083L31.3543 28.0169L31.3629 28.0248L31.5611 27.8101ZM31.5611 28.5026L31.3628 28.2877L31.3545 28.296L31.5611 28.5026ZM27.6599 28.6411V28.3489H27.3677V28.6411H27.6599ZM27.4983 32.0922L27.2993 31.878L27.2917 31.8856L27.4983 32.0922ZM27.1289 32.2423V31.9501C27.0573 31.9501 27.0094 31.9288 26.9662 31.8856L26.7596 32.0922L26.553 32.2989C26.7098 32.4557 26.9081 32.5345 27.1289 32.5345V32.2423ZM26.7596 32.0922L26.9662 31.8856C26.923 31.8424 26.9017 31.7945 26.9017 31.7229H26.6095H26.3173C26.3173 31.9437 26.3961 32.142 26.553 32.2989L26.7596 32.0922ZM26.6095 31.7229H26.9017V24.6591H26.6095H26.3173V31.7229H26.6095ZM26.6095 24.6591H26.9017C26.9017 24.5874 26.923 24.5395 26.9662 24.4963L26.7596 24.2897L26.553 24.0831C26.3961 24.2399 26.3173 24.4382 26.3173 24.6591H26.6095ZM26.7596 24.2897L26.9737 24.4885C27.0188 24.44 27.0645 24.4203 27.1289 24.4203V24.1281V23.8359C26.901 23.8359 26.7004 23.924 26.5454 24.0909L26.7596 24.2897ZM27.1289 24.1281V24.4203H31.6188V24.1281V23.8359H27.1289V24.1281ZM31.6188 24.1281V24.4203C31.6774 24.4203 31.7145 24.4374 31.7504 24.4764L31.9651 24.2782L32.1798 24.08C32.0311 23.9188 31.8373 23.8359 31.6188 23.8359V24.1281ZM31.9651 24.2782L31.7669 24.4929C31.8058 24.5288 31.823 24.5659 31.823 24.6244H32.1152H32.4074C32.4074 24.406 32.3244 24.2122 32.1633 24.0634L31.9651 24.2782ZM32.1152 24.6244H31.823C31.823 24.683 31.8058 24.72 31.7669 24.756L31.9651 24.9707L32.1633 25.1854C32.3244 25.0367 32.4074 24.8429 32.4074 24.6244H32.1152ZM31.9651 24.9707L31.7585 24.7641C31.7245 24.798 31.6851 24.817 31.6188 24.817V25.1092V25.4014C31.8296 25.4014 32.021 25.328 32.1717 25.1773L31.9651 24.9707ZM31.6188 25.1092V24.817H27.6599V25.1092V25.4014H31.6188V25.1092ZM27.6599 25.1092H27.3677V27.66H27.6599H27.9521V25.1092H27.6599ZM27.6599 27.66V27.9522H31.2149V27.66V27.3678H27.6599V27.66ZM31.2149 27.66V27.9522C31.2734 27.9522 31.3105 27.9693 31.3464 28.0083L31.5611 27.8101L31.7758 27.6119C31.6271 27.4507 31.4333 27.3678 31.2149 27.3678V27.66ZM31.5611 27.8101L31.3629 28.0248C31.4019 28.0607 31.419 28.0978 31.419 28.1563H31.7112H32.0034C32.0034 27.9379 31.9205 27.7441 31.7593 27.5954L31.5611 27.8101ZM31.7112 28.1563H31.419C31.419 28.2149 31.4019 28.252 31.3629 28.2879L31.5611 28.5026L31.7593 28.7173C31.9205 28.5686 32.0034 28.3748 32.0034 28.1563H31.7112ZM31.5611 28.5026L31.3545 28.296C31.3206 28.3299 31.2811 28.3489 31.2149 28.3489V28.6411V28.9333C31.4257 28.9333 31.617 28.8599 31.7678 28.7092L31.5611 28.5026ZM31.2149 28.6411V28.3489H27.6599V28.6411V28.9333H31.2149V28.6411ZM27.6599 28.6411H27.3677V31.7229H27.6599H27.9521V28.6411H27.6599ZM27.6599 31.7229H27.3677C27.3677 31.7873 27.348 31.833 27.2994 31.8781L27.4983 32.0922L27.6971 32.3064C27.864 32.1514 27.9521 31.9508 27.9521 31.7229H27.6599ZM27.4983 32.0922L27.2917 31.8856C27.2484 31.9288 27.2005 31.9501 27.1289 31.9501V32.2423V32.5345C27.3497 32.5345 27.548 32.4557 27.7049 32.2989L27.4983 32.0922Z" fill="white" mask="url(#path-3-outside-1_383_20906)"/>
<g filter="url(#filter0_d_383_20906)">
<path d="M39.7405 14.9026H28.0522C26.277 14.9026 24.8379 13.4635 24.8379 11.6883V0L39.7405 14.9026Z" fill="url(#paint2_linear_383_20906)"/>
</g>
</g>
<defs>
<filter id="filter0_d_383_20906" x="21.4775" y="-3.50649" width="22.208" height="22.2075" filterUnits="userSpaceOnUse" color-interpolation-filters="sRGB">
<feFlood flood-opacity="0" result="BackgroundImageFix"/>
<feColorMatrix in="SourceAlpha" type="matrix" values="0 0 0 0 0 0 0 0 0 0 0 0 0 0 0 0 0 0 127 0" result="hardAlpha"/>
<feOffset dx="0.292208" dy="0.146104"/>
<feGaussianBlur stdDeviation="1.8263"/>
<feColorMatrix type="matrix" values="0 0 0 0 0 0 0 0 0 0 0 0 0 0 0 0 0 0 0.33 0"/>
<feBlend mode="normal" in2="BackgroundImageFix" result="effect1_dropShadow_383_20906"/>
<feBlend mode="normal" in="SourceGraphic" in2="effect1_dropShadow_383_20906" result="shape"/>
</filter>
<linearGradient id="paint0_linear_383_20906" x1="19.8701" y1="0" x2="19.8701" y2="45" gradientUnits="userSpaceOnUse">
<stop stop-color="#FF7979"/>
<stop offset="1" stop-color="#E85555"/>
</linearGradient>
<linearGradient id="paint1_linear_383_20906" x1="19.8701" y1="0" x2="19.8701" y2="45" gradientUnits="userSpaceOnUse">
<stop stop-color="#FF7981"/>
<stop offset="1" stop-color="#E85567"/>
</linearGradient>
<linearGradient id="paint2_linear_383_20906" x1="32.2892" y1="0" x2="32.2892" y2="14.9026" gradientUnits="userSpaceOnUse">
<stop stop-color="#D03954"/>
<stop offset="1" stop-color="#C02A3C"/>
</linearGradient>
</defs>
</svg>
