<svg width="40" height="45" viewBox="0 0 40 45" fill="none" xmlns="http://www.w3.org/2000/svg">
<mask id="mask0_383_20968" style="mask-type:alpha" maskUnits="userSpaceOnUse" x="0" y="0" width="40" height="45">
<path d="M36.526 45H3.21429C1.43909 45 0 43.5609 0 41.7857V3.21429C0 1.43909 1.43909 0 3.21429 0H24.8377L39.7403 14.9026V41.7857C39.7403 43.5609 38.3012 45 36.526 45Z" fill="url(#paint0_linear_383_20968)"/>
</mask>
<g mask="url(#mask0_383_20968)">
<path d="M36.526 45H3.21429C1.43909 45 0 43.5609 0 41.7857V3.21429C0 1.43909 1.43909 0 3.21429 0H24.8377L39.7403 14.9026V41.7857C39.7403 43.5609 38.3012 45 36.526 45Z" fill="url(#paint1_linear_383_20968)"/>
<g opacity="0.23" filter="url(#filter0_f_383_20968)">
<rect x="2.19141" y="21.7695" width="35.6494" height="12.2727" fill="#E32E06" style="mix-blend-mode:darken"/>
</g>
<mask id="path-4-outside-1_383_20968" maskUnits="userSpaceOnUse" x="8.74365" y="23.1846" width="24" height="10" fill="black">
<rect fill="white" x="8.74365" y="23.1846" width="24" height="10"/>
<path d="M9.803 32.2423C9.6568 32.2423 9.53368 32.1923 9.43365 32.0922C9.33362 31.9922 9.2836 31.8691 9.2836 31.7229V24.6591C9.2836 24.5128 9.33362 24.3897 9.43365 24.2897C9.53368 24.182 9.6568 24.1281 9.803 24.1281H12.4346C13.0194 24.1281 13.5081 24.2051 13.9005 24.359C14.3006 24.5052 14.6161 24.7052 14.8469 24.9591C15.0855 25.2054 15.2548 25.4785 15.3548 25.7786C15.4625 26.0787 15.5164 26.3827 15.5164 26.6905C15.5164 26.9983 15.4625 27.3022 15.3548 27.6023C15.2548 27.9024 15.0855 28.1794 14.8469 28.4334C14.6161 28.6796 14.3006 28.8797 13.9005 29.0335C13.5081 29.1797 13.0194 29.2528 12.4346 29.2528H10.3339V31.7229C10.3339 31.8691 10.2801 31.9922 10.1724 32.0922C10.0723 32.1923 9.9492 32.2423 9.803 32.2423ZM10.3339 28.2602H12.3307C12.9079 28.2602 13.3503 28.1833 13.6581 28.0294C13.9659 27.8678 14.1775 27.6677 14.2929 27.4292C14.4083 27.1829 14.4661 26.9367 14.4661 26.6905C14.4661 26.4366 14.4083 26.1903 14.2929 25.9518C14.1775 25.7132 13.9659 25.517 13.6581 25.3631C13.3503 25.2015 12.9079 25.1207 12.3307 25.1207H10.3339V28.2602ZM18.3659 32.2423C18.2197 32.2423 18.0966 32.1923 17.9965 32.0922C17.8965 31.9922 17.8465 31.8691 17.8465 31.7229V24.6591C17.8465 24.5128 17.8965 24.3897 17.9965 24.2897C18.0966 24.182 18.2197 24.1281 18.3659 24.1281H20.9975C21.5823 24.1281 22.0709 24.2051 22.4634 24.359C22.8635 24.5052 23.179 24.7052 23.4098 24.9591C23.6484 25.2054 23.8176 25.4785 23.9177 25.7786C24.0254 26.0787 24.0793 26.3827 24.0793 26.6905C24.0793 26.9983 24.0254 27.3022 23.9177 27.6023C23.8176 27.9024 23.6484 28.1794 23.4098 28.4334C23.179 28.6796 22.8635 28.8797 22.4634 29.0335C22.0709 29.1797 21.5823 29.2528 20.9975 29.2528H18.8968V31.7229C18.8968 31.8691 18.843 31.9922 18.7352 32.0922C18.6352 32.1923 18.5121 32.2423 18.3659 32.2423ZM18.8968 28.2602H20.8936C21.4707 28.2602 21.9132 28.1833 22.221 28.0294C22.5288 27.8678 22.7404 27.6677 22.8558 27.4292C22.9712 27.1829 23.0289 26.9367 23.0289 26.6905C23.0289 26.4366 22.9712 26.1903 22.8558 25.9518C22.7404 25.7132 22.5288 25.517 22.221 25.3631C21.9132 25.2015 21.4707 25.1207 20.8936 25.1207H18.8968V28.2602ZM28.7986 32.2423C28.6524 32.2423 28.5293 32.1923 28.4292 32.0922C28.3292 31.9922 28.2792 31.8691 28.2792 31.7229V25.1092H25.9246C25.7861 25.1092 25.6707 25.063 25.5783 24.9707C25.486 24.8784 25.4398 24.7629 25.4398 24.6244C25.4398 24.4859 25.486 24.3705 25.5783 24.2782C25.6707 24.1781 25.7861 24.1281 25.9246 24.1281H31.6726C31.8111 24.1281 31.9265 24.1781 32.0189 24.2782C32.1189 24.3705 32.1689 24.4859 32.1689 24.6244C32.1689 24.7629 32.1189 24.8784 32.0189 24.9707C31.9265 25.063 31.8111 25.1092 31.6726 25.1092H29.3295V31.7229C29.3295 31.8691 29.2757 31.9922 29.1679 32.0922C29.0679 32.1923 28.9448 32.2423 28.7986 32.2423Z"/>
</mask>
<path d="M9.803 32.2423C9.6568 32.2423 9.53368 32.1923 9.43365 32.0922C9.33362 31.9922 9.2836 31.8691 9.2836 31.7229V24.6591C9.2836 24.5128 9.33362 24.3897 9.43365 24.2897C9.53368 24.182 9.6568 24.1281 9.803 24.1281H12.4346C13.0194 24.1281 13.5081 24.2051 13.9005 24.359C14.3006 24.5052 14.6161 24.7052 14.8469 24.9591C15.0855 25.2054 15.2548 25.4785 15.3548 25.7786C15.4625 26.0787 15.5164 26.3827 15.5164 26.6905C15.5164 26.9983 15.4625 27.3022 15.3548 27.6023C15.2548 27.9024 15.0855 28.1794 14.8469 28.4334C14.6161 28.6796 14.3006 28.8797 13.9005 29.0335C13.5081 29.1797 13.0194 29.2528 12.4346 29.2528H10.3339V31.7229C10.3339 31.8691 10.2801 31.9922 10.1724 32.0922C10.0723 32.1923 9.9492 32.2423 9.803 32.2423ZM10.3339 28.2602H12.3307C12.9079 28.2602 13.3503 28.1833 13.6581 28.0294C13.9659 27.8678 14.1775 27.6677 14.2929 27.4292C14.4083 27.1829 14.4661 26.9367 14.4661 26.6905C14.4661 26.4366 14.4083 26.1903 14.2929 25.9518C14.1775 25.7132 13.9659 25.517 13.6581 25.3631C13.3503 25.2015 12.9079 25.1207 12.3307 25.1207H10.3339V28.2602ZM18.3659 32.2423C18.2197 32.2423 18.0966 32.1923 17.9965 32.0922C17.8965 31.9922 17.8465 31.8691 17.8465 31.7229V24.6591C17.8465 24.5128 17.8965 24.3897 17.9965 24.2897C18.0966 24.182 18.2197 24.1281 18.3659 24.1281H20.9975C21.5823 24.1281 22.0709 24.2051 22.4634 24.359C22.8635 24.5052 23.179 24.7052 23.4098 24.9591C23.6484 25.2054 23.8176 25.4785 23.9177 25.7786C24.0254 26.0787 24.0793 26.3827 24.0793 26.6905C24.0793 26.9983 24.0254 27.3022 23.9177 27.6023C23.8176 27.9024 23.6484 28.1794 23.4098 28.4334C23.179 28.6796 22.8635 28.8797 22.4634 29.0335C22.0709 29.1797 21.5823 29.2528 20.9975 29.2528H18.8968V31.7229C18.8968 31.8691 18.843 31.9922 18.7352 32.0922C18.6352 32.1923 18.5121 32.2423 18.3659 32.2423ZM18.8968 28.2602H20.8936C21.4707 28.2602 21.9132 28.1833 22.221 28.0294C22.5288 27.8678 22.7404 27.6677 22.8558 27.4292C22.9712 27.1829 23.0289 26.9367 23.0289 26.6905C23.0289 26.4366 22.9712 26.1903 22.8558 25.9518C22.7404 25.7132 22.5288 25.517 22.221 25.3631C21.9132 25.2015 21.4707 25.1207 20.8936 25.1207H18.8968V28.2602ZM28.7986 32.2423C28.6524 32.2423 28.5293 32.1923 28.4292 32.0922C28.3292 31.9922 28.2792 31.8691 28.2792 31.7229V25.1092H25.9246C25.7861 25.1092 25.6707 25.063 25.5783 24.9707C25.486 24.8784 25.4398 24.7629 25.4398 24.6244C25.4398 24.4859 25.486 24.3705 25.5783 24.2782C25.6707 24.1781 25.7861 24.1281 25.9246 24.1281H31.6726C31.8111 24.1281 31.9265 24.1781 32.0189 24.2782C32.1189 24.3705 32.1689 24.4859 32.1689 24.6244C32.1689 24.7629 32.1189 24.8784 32.0189 24.9707C31.9265 25.063 31.8111 25.1092 31.6726 25.1092H29.3295V31.7229C29.3295 31.8691 29.2757 31.9922 29.1679 32.0922C29.0679 32.1923 28.9448 32.2423 28.7986 32.2423Z" fill="white"/>
<path d="M9.43365 32.0922L9.64027 31.8856V31.8856L9.43365 32.0922ZM9.43365 24.2897L9.64042 24.4965L9.64778 24.4885L9.43365 24.2897ZM13.9005 24.359L13.7938 24.6311L13.8002 24.6334L13.9005 24.359ZM14.8469 24.9591L14.6306 25.1558L14.6371 25.1625L14.8469 24.9591ZM15.3548 25.7786L15.0775 25.8711L15.0798 25.8774L15.3548 25.7786ZM15.3548 27.6023L15.0797 27.5036L15.0776 27.5099L15.3548 27.6023ZM14.8469 28.4334L14.634 28.2333L14.6338 28.2335L14.8469 28.4334ZM13.9005 29.0335L14.0025 29.3074L14.0054 29.3063L13.9005 29.0335ZM10.3339 29.2528V28.9606H10.0417V29.2528H10.3339ZM10.1724 32.0922L9.97338 31.878L9.96573 31.8856L10.1724 32.0922ZM10.3339 28.2602H10.0417V28.5524H10.3339V28.2602ZM13.6581 28.0294L13.7888 28.2908L13.7939 28.2881L13.6581 28.0294ZM14.2929 27.4292L14.556 27.5565L14.5575 27.5532L14.2929 27.4292ZM13.6581 25.3631L13.5222 25.6219L13.5274 25.6245L13.6581 25.3631ZM10.3339 25.1207V24.8285H10.0417V25.1207H10.3339ZM9.803 32.2423V31.9501C9.7314 31.9501 9.68349 31.9288 9.64027 31.8856L9.43365 32.0922L9.22703 32.2989C9.38388 32.4557 9.5822 32.5345 9.803 32.5345V32.2423ZM9.43365 32.0922L9.64027 31.8856C9.59706 31.8424 9.57581 31.7945 9.57581 31.7229H9.2836H8.9914C8.9914 31.9437 9.07018 32.142 9.22703 32.2989L9.43365 32.0922ZM9.2836 31.7229H9.57581V24.6591H9.2836H8.9914V31.7229H9.2836ZM9.2836 24.6591H9.57581C9.57581 24.5874 9.59706 24.5395 9.64027 24.4963L9.43365 24.2897L9.22703 24.0831C9.07018 24.2399 8.9914 24.4382 8.9914 24.6591H9.2836ZM9.43365 24.2897L9.64778 24.4885C9.69287 24.44 9.73857 24.4203 9.803 24.4203V24.1281V23.8359C9.57504 23.8359 9.3745 23.924 9.21952 24.0909L9.43365 24.2897ZM9.803 24.1281V24.4203H12.4346V24.1281V23.8359H9.803V24.1281ZM12.4346 24.1281V24.4203C12.9961 24.4203 13.4458 24.4945 13.7938 24.631L13.9005 24.359L14.0072 24.0869C13.5703 23.9156 13.0428 23.8359 12.4346 23.8359V24.1281ZM13.9005 24.359L13.8002 24.6334C14.1665 24.7672 14.4384 24.9442 14.6307 25.1557L14.8469 24.9591L15.0632 24.7626C14.7938 24.4663 14.4348 24.2431 14.0008 24.0845L13.9005 24.359ZM14.8469 24.9591L14.6371 25.1625C14.8477 25.3799 14.9925 25.6159 15.0776 25.871L15.3548 25.7786L15.632 25.6862C15.517 25.3412 15.3232 25.0308 15.0568 24.7558L14.8469 24.9591ZM15.3548 25.7786L15.0798 25.8774C15.1766 26.1469 15.2242 26.4175 15.2242 26.6905H15.5164H15.8086C15.8086 26.3478 15.7485 26.0105 15.6298 25.6799L15.3548 25.7786ZM15.5164 26.6905H15.2242C15.2242 26.9634 15.1766 27.234 15.0798 27.5036L15.3548 27.6023L15.6298 27.701C15.7485 27.3704 15.8086 27.0331 15.8086 26.6905H15.5164ZM15.3548 27.6023L15.0776 27.5099C14.9922 27.766 14.8465 28.007 14.634 28.2333L14.8469 28.4334L15.0599 28.6334C15.3244 28.3518 15.5173 28.0388 15.632 27.6947L15.3548 27.6023ZM14.8469 28.4334L14.6338 28.2335C14.4401 28.4401 14.1654 28.6186 13.7956 28.7608L13.9005 29.0335L14.0054 29.3063C14.4359 29.1407 14.7921 28.9191 15.0601 28.6332L14.8469 28.4334ZM13.9005 29.0335L13.7985 28.7597C13.4488 28.89 12.9974 28.9606 12.4346 28.9606V29.2528V29.5451C13.0415 29.5451 13.5673 29.4695 14.0025 29.3074L13.9005 29.0335ZM12.4346 29.2528V28.9606H10.3339V29.2528V29.5451H12.4346V29.2528ZM10.3339 29.2528H10.0417V31.7229H10.3339H10.6262V29.2528H10.3339ZM10.3339 31.7229H10.0417C10.0417 31.7873 10.0221 31.833 9.97352 31.8781L10.1724 32.0922L10.3712 32.3064C10.5381 32.1514 10.6262 31.9508 10.6262 31.7229H10.3339ZM10.1724 32.0922L9.96573 31.8856C9.92251 31.9288 9.8746 31.9501 9.803 31.9501V32.2423V32.5345C10.0238 32.5345 10.2221 32.4557 10.379 32.2989L10.1724 32.0922ZM10.3339 28.2602V28.5524H12.3307V28.2602V27.968H10.3339V28.2602ZM12.3307 28.2602V28.5524C12.9263 28.5524 13.4218 28.4742 13.7888 28.2907L13.6581 28.0294L13.5274 27.768C13.2788 27.8923 12.8894 27.968 12.3307 27.968V28.2602ZM13.6581 28.0294L13.7939 28.2881C14.1399 28.1065 14.4059 27.8666 14.556 27.5565L14.2929 27.4292L14.0299 27.3019C13.9491 27.4689 13.7919 27.6291 13.5223 27.7707L13.6581 28.0294ZM14.2929 27.4292L14.5575 27.5532C14.6892 27.2722 14.7583 26.9839 14.7583 26.6905H14.4661H14.1738C14.1738 26.8895 14.1275 27.0936 14.0283 27.3052L14.2929 27.4292ZM14.4661 26.6905H14.7583C14.7583 26.3905 14.6897 26.1009 14.556 25.8245L14.2929 25.9518L14.0299 26.0791C14.127 26.2797 14.1738 26.4826 14.1738 26.6905H14.4661ZM14.2929 25.9518L14.556 25.8245C14.405 25.5126 14.137 25.2759 13.7888 25.1018L13.6581 25.3631L13.5274 25.6245C13.7948 25.7582 13.95 25.9139 14.0299 26.0791L14.2929 25.9518ZM13.6581 25.3631L13.7939 25.1044C13.4252 24.9108 12.9276 24.8285 12.3307 24.8285V25.1207V25.4129C12.8881 25.4129 13.2754 25.4922 13.5223 25.6218L13.6581 25.3631ZM12.3307 25.1207V24.8285H10.3339V25.1207V25.4129H12.3307V25.1207ZM10.3339 25.1207H10.0417V28.2602H10.3339H10.6262V25.1207H10.3339ZM17.9965 32.0922L18.2031 31.8856V31.8856L17.9965 32.0922ZM17.9965 24.2897L18.2033 24.4965L18.2107 24.4885L17.9965 24.2897ZM22.4634 24.359L22.3567 24.6311L22.3631 24.6334L22.4634 24.359ZM23.4098 24.9591L23.1935 25.1558L23.1999 25.1625L23.4098 24.9591ZM23.9177 25.7786L23.6404 25.8711L23.6427 25.8774L23.9177 25.7786ZM23.9177 27.6023L23.6426 27.5036L23.6405 27.5099L23.9177 27.6023ZM23.4098 28.4334L23.1968 28.2333L23.1966 28.2335L23.4098 28.4334ZM22.4634 29.0335L22.5654 29.3074L22.5683 29.3063L22.4634 29.0335ZM18.8968 29.2528V28.9606H18.6046V29.2528H18.8968ZM18.7352 32.0922L18.5363 31.878L18.5286 31.8856L18.7352 32.0922ZM18.8968 28.2602H18.6046V28.5524H18.8968V28.2602ZM22.221 28.0294L22.3517 28.2908L22.3568 28.2881L22.221 28.0294ZM22.8558 27.4292L23.1189 27.5565L23.1204 27.5532L22.8558 27.4292ZM22.221 25.3631L22.0851 25.6219L22.0903 25.6245L22.221 25.3631ZM18.8968 25.1207V24.8285H18.6046V25.1207H18.8968ZM18.3659 32.2423V31.9501C18.2943 31.9501 18.2464 31.9288 18.2031 31.8856L17.9965 32.0922L17.7899 32.2989C17.9468 32.4557 18.1451 32.5345 18.3659 32.5345V32.2423ZM17.9965 32.0922L18.2031 31.8856C18.1599 31.8424 18.1387 31.7945 18.1387 31.7229H17.8465H17.5543C17.5543 31.9437 17.6331 32.142 17.7899 32.2989L17.9965 32.0922ZM17.8465 31.7229H18.1387V24.6591H17.8465H17.5543V31.7229H17.8465ZM17.8465 24.6591H18.1387C18.1387 24.5874 18.1599 24.5395 18.2031 24.4963L17.9965 24.2897L17.7899 24.0831C17.6331 24.2399 17.5543 24.4382 17.5543 24.6591H17.8465ZM17.9965 24.2897L18.2107 24.4885C18.2557 24.44 18.3014 24.4203 18.3659 24.4203V24.1281V23.8359C18.1379 23.8359 17.9374 23.924 17.7824 24.0909L17.9965 24.2897ZM18.3659 24.1281V24.4203H20.9975V24.1281V23.8359H18.3659V24.1281ZM20.9975 24.1281V24.4203C21.5589 24.4203 22.0086 24.4945 22.3567 24.631L22.4634 24.359L22.57 24.0869C22.1332 23.9156 21.6057 23.8359 20.9975 23.8359V24.1281ZM22.4634 24.359L22.3631 24.6334C22.7294 24.7672 23.0013 24.9442 23.1936 25.1557L23.4098 24.9591L23.626 24.7626C23.3567 24.4663 22.9976 24.2431 22.5636 24.0845L22.4634 24.359ZM23.4098 24.9591L23.1999 25.1625C23.4106 25.3799 23.5554 25.6159 23.6405 25.871L23.9177 25.7786L24.1949 25.6862C24.0799 25.3412 23.8861 25.0308 23.6197 24.7558L23.4098 24.9591ZM23.9177 25.7786L23.6427 25.8774C23.7394 26.1469 23.7871 26.4175 23.7871 26.6905H24.0793H24.3715C24.3715 26.3478 24.3114 26.0105 24.1927 25.6799L23.9177 25.7786ZM24.0793 26.6905H23.7871C23.7871 26.9634 23.7394 27.234 23.6427 27.5036L23.9177 27.6023L24.1927 27.701C24.3114 27.3704 24.3715 27.0331 24.3715 26.6905H24.0793ZM23.9177 27.6023L23.6405 27.5099C23.5551 27.766 23.4094 28.007 23.1968 28.2333L23.4098 28.4334L23.6228 28.6334C23.8873 28.3518 24.0802 28.0388 24.1949 27.6947L23.9177 27.6023ZM23.4098 28.4334L23.1966 28.2335C23.0029 28.4401 22.7282 28.6186 22.3585 28.7608L22.4634 29.0335L22.5683 29.3063C22.9987 29.1407 23.355 28.9191 23.623 28.6332L23.4098 28.4334ZM22.4634 29.0335L22.3614 28.7597C22.0117 28.89 21.5603 28.9606 20.9975 28.9606V29.2528V29.5451C21.6044 29.5451 22.1302 29.4695 22.5654 29.3074L22.4634 29.0335ZM20.9975 29.2528V28.9606H18.8968V29.2528V29.5451H20.9975V29.2528ZM18.8968 29.2528H18.6046V31.7229H18.8968H19.189V29.2528H18.8968ZM18.8968 31.7229H18.6046C18.6046 31.7873 18.585 31.833 18.5364 31.8781L18.7352 32.0922L18.9341 32.3064C19.101 32.1514 19.189 31.9508 19.189 31.7229H18.8968ZM18.7352 32.0922L18.5286 31.8856C18.4854 31.9288 18.4375 31.9501 18.3659 31.9501V32.2423V32.5345C18.5867 32.5345 18.785 32.4557 18.9419 32.2989L18.7352 32.0922ZM18.8968 28.2602V28.5524H20.8936V28.2602V27.968H18.8968V28.2602ZM20.8936 28.2602V28.5524C21.4892 28.5524 21.9846 28.4742 22.3517 28.2907L22.221 28.0294L22.0903 27.768C21.8417 27.8923 21.4522 27.968 20.8936 27.968V28.2602ZM22.221 28.0294L22.3568 28.2881C22.7028 28.1065 22.9688 27.8666 23.1188 27.5565L22.8558 27.4292L22.5928 27.3019C22.512 27.4689 22.3548 27.6291 22.0851 27.7707L22.221 28.0294ZM22.8558 27.4292L23.1204 27.5532C23.2521 27.2722 23.3211 26.9839 23.3211 26.6905H23.0289H22.7367C22.7367 26.8895 22.6904 27.0936 22.5912 27.3052L22.8558 27.4292ZM23.0289 26.6905H23.3211C23.3211 26.3905 23.2526 26.1009 23.1188 25.8245L22.8558 25.9518L22.5928 26.0791C22.6898 26.2797 22.7367 26.4826 22.7367 26.6905H23.0289ZM22.8558 25.9518L23.1188 25.8245C22.9679 25.5126 22.6998 25.2759 22.3517 25.1018L22.221 25.3631L22.0903 25.6245C22.3577 25.7582 22.5129 25.9139 22.5928 26.0791L22.8558 25.9518ZM22.221 25.3631L22.3568 25.1044C21.9881 24.9108 21.4905 24.8285 20.8936 24.8285V25.1207V25.4129C21.451 25.4129 21.8383 25.4922 22.0851 25.6218L22.221 25.3631ZM20.8936 25.1207V24.8285H18.8968V25.1207V25.4129H20.8936V25.1207ZM18.8968 25.1207H18.6046V28.2602H18.8968H19.189V25.1207H18.8968ZM28.4292 32.0922L28.2226 32.2989L28.4292 32.0922ZM28.2792 25.1092H28.5714V24.817H28.2792V25.1092ZM25.5783 24.9707L25.3717 25.1773L25.3717 25.1773L25.5783 24.9707ZM25.5783 24.2782L25.7851 24.4849L25.793 24.4764L25.5783 24.2782ZM32.0189 24.2782L31.8042 24.4764L31.8121 24.4849L31.8207 24.4929L32.0189 24.2782ZM32.0189 24.9707L31.8205 24.7558L31.8122 24.7641L32.0189 24.9707ZM29.3295 25.1092V24.817H29.0373V25.1092H29.3295ZM29.1679 32.0922L28.969 31.878L28.9613 31.8856L29.1679 32.0922ZM28.7986 32.2423V31.9501C28.727 31.9501 28.6791 31.9288 28.6359 31.8856L28.4292 32.0922L28.2226 32.2989C28.3795 32.4557 28.5778 32.5345 28.7986 32.5345V32.2423ZM28.4292 32.0922L28.6359 31.8856C28.5926 31.8424 28.5714 31.7945 28.5714 31.7229H28.2792H27.987C27.987 31.9437 28.0658 32.142 28.2226 32.2989L28.4292 32.0922ZM28.2792 31.7229H28.5714V25.1092H28.2792H27.987V31.7229H28.2792ZM28.2792 25.1092V24.817H25.9246V25.1092V25.4014H28.2792V25.1092ZM25.9246 25.1092V24.817C25.8584 24.817 25.8189 24.798 25.7849 24.7641L25.5783 24.9707L25.3717 25.1773C25.5224 25.328 25.7138 25.4014 25.9246 25.4014V25.1092ZM25.5783 24.9707L25.7849 24.7641C25.751 24.7301 25.732 24.6906 25.732 24.6244H25.4398H25.1476C25.1476 24.8352 25.221 25.0266 25.3717 25.1773L25.5783 24.9707ZM25.4398 24.6244H25.732C25.732 24.5582 25.751 24.5187 25.7849 24.4848L25.5783 24.2782L25.3717 24.0715C25.221 24.2223 25.1476 24.4136 25.1476 24.6244H25.4398ZM25.5783 24.2782L25.793 24.4764C25.829 24.4374 25.866 24.4203 25.9246 24.4203V24.1281V23.8359C25.7061 23.8359 25.5123 23.9188 25.3636 24.08L25.5783 24.2782ZM25.9246 24.1281V24.4203H31.6726V24.1281V23.8359H25.9246V24.1281ZM31.6726 24.1281V24.4203C31.7312 24.4203 31.7682 24.4374 31.8042 24.4764L32.0189 24.2782L32.2336 24.08C32.0848 23.9188 31.891 23.8359 31.6726 23.8359V24.1281ZM32.0189 24.2782L31.8207 24.4929C31.8596 24.5288 31.8767 24.5659 31.8767 24.6244H32.1689H32.4611C32.4611 24.406 32.3782 24.2122 32.2171 24.0634L32.0189 24.2782ZM32.1689 24.6244H31.8767C31.8767 24.683 31.8596 24.72 31.8207 24.756L32.0189 24.9707L32.2171 25.1854C32.3782 25.0367 32.4611 24.8429 32.4611 24.6244H32.1689ZM32.0189 24.9707L31.8122 24.7641C31.7783 24.798 31.7388 24.817 31.6726 24.817V25.1092V25.4014C31.8834 25.4014 32.0748 25.328 32.2255 25.1773L32.0189 24.9707ZM31.6726 25.1092V24.817H29.3295V25.1092V25.4014H31.6726V25.1092ZM29.3295 25.1092H29.0373V31.7229H29.3295H29.6217V25.1092H29.3295ZM29.3295 31.7229H29.0373C29.0373 31.7873 29.0177 31.833 28.9691 31.8781L29.1679 32.0922L29.3668 32.3064C29.5337 32.1514 29.6217 31.9508 29.6217 31.7229H29.3295ZM29.1679 32.0922L28.9613 31.8856C28.9181 31.9288 28.8702 31.9501 28.7986 31.9501V32.2423V32.5345C29.0194 32.5345 29.2177 32.4557 29.3746 32.2989L29.1679 32.0922Z" fill="white" mask="url(#path-4-outside-1_383_20968)"/>
<g filter="url(#filter1_d_383_20968)">
<path d="M39.74 14.9026H28.0517C26.2765 14.9026 24.8374 13.4635 24.8374 11.6883V0L39.74 14.9026Z" fill="url(#paint2_linear_383_20968)"/>
</g>
</g>
<defs>
<filter id="filter0_f_383_20968" x="-3.50665" y="16.0715" width="47.0455" height="23.6686" filterUnits="userSpaceOnUse" color-interpolation-filters="sRGB">
<feFlood flood-opacity="0" result="BackgroundImageFix"/>
<feBlend mode="normal" in="SourceGraphic" in2="BackgroundImageFix" result="shape"/>
<feGaussianBlur stdDeviation="2.84903" result="effect1_foregroundBlur_383_20968"/>
</filter>
<filter id="filter1_d_383_20968" x="21.477" y="-3.50649" width="22.208" height="22.2075" filterUnits="userSpaceOnUse" color-interpolation-filters="sRGB">
<feFlood flood-opacity="0" result="BackgroundImageFix"/>
<feColorMatrix in="SourceAlpha" type="matrix" values="0 0 0 0 0 0 0 0 0 0 0 0 0 0 0 0 0 0 127 0" result="hardAlpha"/>
<feOffset dx="0.292208" dy="0.146104"/>
<feGaussianBlur stdDeviation="1.8263"/>
<feColorMatrix type="matrix" values="0 0 0 0 0 0 0 0 0 0 0 0 0 0 0 0 0 0 0.33 0"/>
<feBlend mode="normal" in2="BackgroundImageFix" result="effect1_dropShadow_383_20968"/>
<feBlend mode="normal" in="SourceGraphic" in2="effect1_dropShadow_383_20968" result="shape"/>
</filter>
<linearGradient id="paint0_linear_383_20968" x1="19.8701" y1="0" x2="19.8701" y2="45" gradientUnits="userSpaceOnUse">
<stop stop-color="#FF7979"/>
<stop offset="1" stop-color="#E85555"/>
</linearGradient>
<linearGradient id="paint1_linear_383_20968" x1="19.8701" y1="0" x2="19.8701" y2="45" gradientUnits="userSpaceOnUse">
<stop stop-color="#FF8777"/>
<stop offset="1" stop-color="#F0695F"/>
</linearGradient>
<linearGradient id="paint2_linear_383_20968" x1="32.2887" y1="0" x2="32.2887" y2="14.9026" gradientUnits="userSpaceOnUse">
<stop stop-color="#DA5D4C"/>
<stop offset="1" stop-color="#E32900"/>
</linearGradient>
</defs>
</svg>
