<svg width="40" height="45" viewBox="0 0 40 45" fill="none" xmlns="http://www.w3.org/2000/svg">
<mask id="mask0_383_20982" style="mask-type:alpha" maskUnits="userSpaceOnUse" x="0" y="0" width="40" height="45">
<path d="M36.526 45H3.21429C1.43909 45 0 43.5609 0 41.7857V3.21429C0 1.43909 1.43909 0 3.21429 0H24.8377L39.7403 14.9026V41.7857C39.7403 43.5609 38.3012 45 36.526 45Z" fill="url(#paint0_linear_383_20982)"/>
</mask>
<g mask="url(#mask0_383_20982)">
<path d="M36.526 45H3.21429C1.43909 45 0 43.5609 0 41.7857V3.21429C0 1.43909 1.43909 0 3.21429 0H24.8377L39.7403 14.9026V41.7857C39.7403 43.5609 38.3012 45 36.526 45Z" fill="url(#paint1_linear_383_20982)"/>
<mask id="path-3-outside-1_383_20982" maskUnits="userSpaceOnUse" x="7.45117" y="23.1846" width="25" height="10" fill="black">
<rect fill="white" x="7.45117" y="23.1846" width="25" height="10"/>
<path d="M9.09017 32.2423C8.94396 32.2423 8.82085 32.1923 8.72081 32.0922C8.62078 31.9922 8.57077 31.8691 8.57077 31.7229V24.6591C8.57077 24.5128 8.62078 24.3897 8.72081 24.2897C8.82085 24.182 8.94396 24.1281 9.09017 24.1281H11.7218C12.3066 24.1281 12.7952 24.2051 13.1876 24.359C13.5878 24.5052 13.9033 24.7052 14.1341 24.9591C14.3726 25.2054 14.5419 25.4785 14.642 25.7786C14.7497 26.0787 14.8036 26.3827 14.8036 26.6905C14.8036 26.9983 14.7497 27.3022 14.642 27.6023C14.5419 27.9024 14.3726 28.1794 14.1341 28.4334C13.9033 28.6796 13.5878 28.8797 13.1876 29.0335C12.7952 29.1797 12.3066 29.2528 11.7218 29.2528H9.62111V31.7229C9.62111 31.8691 9.56724 31.9922 9.45952 32.0922C9.35948 32.1923 9.23637 32.2423 9.09017 32.2423ZM9.62111 28.2602H11.6179C12.195 28.2602 12.6375 28.1833 12.9453 28.0294C13.2531 27.8678 13.4647 27.6677 13.5801 27.4292C13.6955 27.1829 13.7532 26.9367 13.7532 26.6905C13.7532 26.4366 13.6955 26.1903 13.5801 25.9518C13.4647 25.7132 13.2531 25.517 12.9453 25.3631C12.6375 25.2015 12.195 25.1207 11.6179 25.1207H9.62111V28.2602ZM19.6729 32.3C19.0958 32.3 18.5764 32.2461 18.1147 32.1384C17.6607 32.023 17.2645 31.8922 16.9259 31.746C16.8412 31.7075 16.7643 31.6459 16.695 31.5613C16.6335 31.469 16.6027 31.3728 16.6027 31.2727C16.6027 31.1419 16.645 31.0303 16.7297 30.938C16.8143 30.838 16.9297 30.788 17.0759 30.788C17.1529 30.788 17.226 30.8034 17.2952 30.8341C17.5569 30.9496 17.8762 31.0573 18.2532 31.1573C18.638 31.2573 19.0766 31.3074 19.569 31.3074C19.9538 31.3074 20.2962 31.2689 20.5963 31.1919C20.9041 31.1073 21.1465 30.9688 21.3235 30.7764C21.5004 30.5764 21.5889 30.3109 21.5889 29.98C21.5889 29.7338 21.5004 29.5376 21.3235 29.3914C21.1465 29.2375 20.9118 29.1105 20.6194 29.0105C20.327 28.9104 20.0038 28.8181 19.6498 28.7334C19.3036 28.6488 18.9573 28.5565 18.611 28.4564C18.2648 28.3487 17.9454 28.2102 17.653 28.0409C17.3606 27.8716 17.1259 27.6562 16.949 27.3946C16.772 27.1252 16.6835 26.7867 16.6835 26.3788C16.6835 25.9479 16.7951 25.5555 17.0182 25.2015C17.2491 24.8399 17.5876 24.5513 18.0339 24.3359C18.4802 24.1204 19.0266 24.0127 19.6729 24.0127C20.1269 24.0127 20.5463 24.0473 20.931 24.1166C21.3158 24.1858 21.662 24.2782 21.9698 24.3936C22.0545 24.4244 22.1276 24.4744 22.1891 24.5436C22.2584 24.6129 22.293 24.7168 22.293 24.8553C22.293 24.9707 22.2507 25.0823 22.166 25.19C22.0891 25.29 21.9775 25.34 21.8313 25.34C21.8005 25.34 21.7698 25.3362 21.739 25.3285C21.7082 25.3131 21.6774 25.3016 21.6466 25.2939C21.385 25.2015 21.0965 25.1284 20.781 25.0746C20.4732 25.013 20.1423 24.9822 19.7884 24.9822C19.2035 24.9822 18.7149 25.0938 18.3225 25.317C17.9301 25.5401 17.7338 25.8671 17.7338 26.298C17.7338 26.5828 17.8223 26.8097 17.9993 26.979C18.1763 27.1483 18.411 27.283 18.7034 27.383C18.9958 27.483 19.3151 27.5754 19.6614 27.66C20.0077 27.737 20.3539 27.8255 20.7002 27.9255C21.0465 28.0255 21.3658 28.1602 21.6582 28.3295C21.9506 28.4911 22.1853 28.7104 22.3623 28.9874C22.5392 29.2567 22.6277 29.6107 22.6277 30.0493C22.6277 30.4802 22.5046 30.8688 22.2584 31.215C22.0198 31.5536 21.6774 31.8191 21.2311 32.0114C20.7925 32.2038 20.2731 32.3 19.6729 32.3ZM25.5734 32.1846C25.4272 32.1846 25.3041 32.1346 25.2041 32.0345C25.104 31.9345 25.054 31.8114 25.054 31.6652V24.6591C25.054 24.5128 25.104 24.3897 25.2041 24.2897C25.3041 24.182 25.4272 24.1281 25.5734 24.1281H27.8934C28.5859 24.1281 29.1861 24.2474 29.694 24.4859C30.2019 24.7168 30.6251 25.0284 30.9636 25.4208C31.3022 25.8056 31.5523 26.2365 31.7139 26.7136C31.8832 27.1906 31.9678 27.6716 31.9678 28.1563C31.9678 28.6411 31.8832 29.122 31.7139 29.5991C31.5523 30.0762 31.3022 30.511 30.9636 30.9034C30.6251 31.2881 30.2019 31.5998 29.694 31.8383C29.1861 32.0691 28.5859 32.1846 27.8934 32.1846H25.5734ZM26.1044 31.2035H27.7665C28.4128 31.2035 28.9707 31.0765 29.4401 30.8226C29.9172 30.561 30.2827 30.2032 30.5366 29.7492C30.7982 29.2875 30.929 28.7565 30.929 28.1563C30.929 27.5561 30.7982 27.0291 30.5366 26.5751C30.2827 26.1134 29.9172 25.7556 29.4401 25.5016C28.9707 25.24 28.4128 25.1092 27.7665 25.1092H26.1044V31.2035Z"/>
</mask>
<path d="M9.09017 32.2423C8.94396 32.2423 8.82085 32.1923 8.72081 32.0922C8.62078 31.9922 8.57077 31.8691 8.57077 31.7229V24.6591C8.57077 24.5128 8.62078 24.3897 8.72081 24.2897C8.82085 24.182 8.94396 24.1281 9.09017 24.1281H11.7218C12.3066 24.1281 12.7952 24.2051 13.1876 24.359C13.5878 24.5052 13.9033 24.7052 14.1341 24.9591C14.3726 25.2054 14.5419 25.4785 14.642 25.7786C14.7497 26.0787 14.8036 26.3827 14.8036 26.6905C14.8036 26.9983 14.7497 27.3022 14.642 27.6023C14.5419 27.9024 14.3726 28.1794 14.1341 28.4334C13.9033 28.6796 13.5878 28.8797 13.1876 29.0335C12.7952 29.1797 12.3066 29.2528 11.7218 29.2528H9.62111V31.7229C9.62111 31.8691 9.56724 31.9922 9.45952 32.0922C9.35948 32.1923 9.23637 32.2423 9.09017 32.2423ZM9.62111 28.2602H11.6179C12.195 28.2602 12.6375 28.1833 12.9453 28.0294C13.2531 27.8678 13.4647 27.6677 13.5801 27.4292C13.6955 27.1829 13.7532 26.9367 13.7532 26.6905C13.7532 26.4366 13.6955 26.1903 13.5801 25.9518C13.4647 25.7132 13.2531 25.517 12.9453 25.3631C12.6375 25.2015 12.195 25.1207 11.6179 25.1207H9.62111V28.2602ZM19.6729 32.3C19.0958 32.3 18.5764 32.2461 18.1147 32.1384C17.6607 32.023 17.2645 31.8922 16.9259 31.746C16.8412 31.7075 16.7643 31.6459 16.695 31.5613C16.6335 31.469 16.6027 31.3728 16.6027 31.2727C16.6027 31.1419 16.645 31.0303 16.7297 30.938C16.8143 30.838 16.9297 30.788 17.0759 30.788C17.1529 30.788 17.226 30.8034 17.2952 30.8341C17.5569 30.9496 17.8762 31.0573 18.2532 31.1573C18.638 31.2573 19.0766 31.3074 19.569 31.3074C19.9538 31.3074 20.2962 31.2689 20.5963 31.1919C20.9041 31.1073 21.1465 30.9688 21.3235 30.7764C21.5004 30.5764 21.5889 30.3109 21.5889 29.98C21.5889 29.7338 21.5004 29.5376 21.3235 29.3914C21.1465 29.2375 20.9118 29.1105 20.6194 29.0105C20.327 28.9104 20.0038 28.8181 19.6498 28.7334C19.3036 28.6488 18.9573 28.5565 18.611 28.4564C18.2648 28.3487 17.9454 28.2102 17.653 28.0409C17.3606 27.8716 17.1259 27.6562 16.949 27.3946C16.772 27.1252 16.6835 26.7867 16.6835 26.3788C16.6835 25.9479 16.7951 25.5555 17.0182 25.2015C17.2491 24.8399 17.5876 24.5513 18.0339 24.3359C18.4802 24.1204 19.0266 24.0127 19.6729 24.0127C20.1269 24.0127 20.5463 24.0473 20.931 24.1166C21.3158 24.1858 21.662 24.2782 21.9698 24.3936C22.0545 24.4244 22.1276 24.4744 22.1891 24.5436C22.2584 24.6129 22.293 24.7168 22.293 24.8553C22.293 24.9707 22.2507 25.0823 22.166 25.19C22.0891 25.29 21.9775 25.34 21.8313 25.34C21.8005 25.34 21.7698 25.3362 21.739 25.3285C21.7082 25.3131 21.6774 25.3016 21.6466 25.2939C21.385 25.2015 21.0965 25.1284 20.781 25.0746C20.4732 25.013 20.1423 24.9822 19.7884 24.9822C19.2035 24.9822 18.7149 25.0938 18.3225 25.317C17.9301 25.5401 17.7338 25.8671 17.7338 26.298C17.7338 26.5828 17.8223 26.8097 17.9993 26.979C18.1763 27.1483 18.411 27.283 18.7034 27.383C18.9958 27.483 19.3151 27.5754 19.6614 27.66C20.0077 27.737 20.3539 27.8255 20.7002 27.9255C21.0465 28.0255 21.3658 28.1602 21.6582 28.3295C21.9506 28.4911 22.1853 28.7104 22.3623 28.9874C22.5392 29.2567 22.6277 29.6107 22.6277 30.0493C22.6277 30.4802 22.5046 30.8688 22.2584 31.215C22.0198 31.5536 21.6774 31.8191 21.2311 32.0114C20.7925 32.2038 20.2731 32.3 19.6729 32.3ZM25.5734 32.1846C25.4272 32.1846 25.3041 32.1346 25.2041 32.0345C25.104 31.9345 25.054 31.8114 25.054 31.6652V24.6591C25.054 24.5128 25.104 24.3897 25.2041 24.2897C25.3041 24.182 25.4272 24.1281 25.5734 24.1281H27.8934C28.5859 24.1281 29.1861 24.2474 29.694 24.4859C30.2019 24.7168 30.6251 25.0284 30.9636 25.4208C31.3022 25.8056 31.5523 26.2365 31.7139 26.7136C31.8832 27.1906 31.9678 27.6716 31.9678 28.1563C31.9678 28.6411 31.8832 29.122 31.7139 29.5991C31.5523 30.0762 31.3022 30.511 30.9636 30.9034C30.6251 31.2881 30.2019 31.5998 29.694 31.8383C29.1861 32.0691 28.5859 32.1846 27.8934 32.1846H25.5734ZM26.1044 31.2035H27.7665C28.4128 31.2035 28.9707 31.0765 29.4401 30.8226C29.9172 30.561 30.2827 30.2032 30.5366 29.7492C30.7982 29.2875 30.929 28.7565 30.929 28.1563C30.929 27.5561 30.7982 27.0291 30.5366 26.5751C30.2827 26.1134 29.9172 25.7556 29.4401 25.5016C28.9707 25.24 28.4128 25.1092 27.7665 25.1092H26.1044V31.2035Z" fill="white"/>
<path d="M8.72081 32.0922L8.92744 31.8856V31.8856L8.72081 32.0922ZM8.72081 24.2897L8.92758 24.4965L8.93494 24.4885L8.72081 24.2897ZM13.1876 24.359L13.0809 24.6311L13.0874 24.6334L13.1876 24.359ZM14.1341 24.9591L13.9178 25.1558L13.9242 25.1625L14.1341 24.9591ZM14.642 25.7786L14.3647 25.8711L14.3669 25.8774L14.642 25.7786ZM14.642 27.6023L14.3669 27.5036L14.3648 27.5099L14.642 27.6023ZM14.1341 28.4334L13.9211 28.2333L13.9209 28.2335L14.1341 28.4334ZM13.1876 29.0335L13.2897 29.3074L13.2925 29.3063L13.1876 29.0335ZM9.62111 29.2528V28.9606H9.3289V29.2528H9.62111ZM9.45952 32.0922L9.26055 31.878L9.25289 31.8856L9.45952 32.0922ZM9.62111 28.2602H9.3289V28.5524H9.62111V28.2602ZM12.9453 28.0294L13.076 28.2908L13.0811 28.2881L12.9453 28.0294ZM13.5801 27.4292L13.8431 27.5565L13.8447 27.5532L13.5801 27.4292ZM12.9453 25.3631L12.8094 25.6219L12.8146 25.6245L12.9453 25.3631ZM9.62111 25.1207V24.8285H9.3289V25.1207H9.62111ZM9.09017 32.2423V31.9501C9.01856 31.9501 8.97065 31.9288 8.92744 31.8856L8.72081 32.0922L8.51419 32.2989C8.67104 32.4557 8.86936 32.5345 9.09017 32.5345V32.2423ZM8.72081 32.0922L8.92744 31.8856C8.88422 31.8424 8.86297 31.7945 8.86297 31.7229H8.57077H8.27856C8.27856 31.9437 8.35734 32.142 8.51419 32.2989L8.72081 32.0922ZM8.57077 31.7229H8.86297V24.6591H8.57077H8.27856V31.7229H8.57077ZM8.57077 24.6591H8.86297C8.86297 24.5874 8.88422 24.5395 8.92744 24.4963L8.72081 24.2897L8.51419 24.0831C8.35734 24.2399 8.27856 24.4382 8.27856 24.6591H8.57077ZM8.72081 24.2897L8.93494 24.4885C8.98003 24.44 9.02573 24.4203 9.09017 24.4203V24.1281V23.8359C8.8622 23.8359 8.66166 23.924 8.50669 24.0909L8.72081 24.2897ZM9.09017 24.1281V24.4203H11.7218V24.1281V23.8359H9.09017V24.1281ZM11.7218 24.1281V24.4203C12.2832 24.4203 12.7329 24.4945 13.081 24.631L13.1876 24.359L13.2943 24.0869C12.8575 23.9156 12.33 23.8359 11.7218 23.8359V24.1281ZM13.1876 24.359L13.0874 24.6334C13.4536 24.7672 13.7256 24.9442 13.9179 25.1557L14.1341 24.9591L14.3503 24.7626C14.0809 24.4663 13.7219 24.2431 13.2879 24.0845L13.1876 24.359ZM14.1341 24.9591L13.9242 25.1625C14.1349 25.3799 14.2797 25.6159 14.3648 25.871L14.642 25.7786L14.9192 25.6862C14.8042 25.3412 14.6104 25.0308 14.344 24.7558L14.1341 24.9591ZM14.642 25.7786L14.3669 25.8774C14.4637 26.1469 14.5114 26.4175 14.5114 26.6905H14.8036H15.0958C15.0958 26.3478 15.0357 26.0105 14.917 25.6799L14.642 25.7786ZM14.8036 26.6905H14.5114C14.5114 26.9634 14.4637 27.234 14.3669 27.5036L14.642 27.6023L14.917 27.701C15.0357 27.3704 15.0958 27.0331 15.0958 26.6905H14.8036ZM14.642 27.6023L14.3648 27.5099C14.2794 27.766 14.1337 28.007 13.9211 28.2333L14.1341 28.4334L14.3471 28.6334C14.6116 28.3518 14.8045 28.0388 14.9192 27.6947L14.642 27.6023ZM14.1341 28.4334L13.9209 28.2335C13.7272 28.4401 13.4525 28.6186 13.0828 28.7608L13.1876 29.0335L13.2925 29.3063C13.723 29.1407 14.0793 28.9191 14.3473 28.6332L14.1341 28.4334ZM13.1876 29.0335L13.0856 28.7597C12.736 28.89 12.2845 28.9606 11.7218 28.9606V29.2528V29.5451C12.3286 29.5451 12.8544 29.4695 13.2897 29.3074L13.1876 29.0335ZM11.7218 29.2528V28.9606H9.62111V29.2528V29.5451H11.7218V29.2528ZM9.62111 29.2528H9.3289V31.7229H9.62111H9.91332V29.2528H9.62111ZM9.62111 31.7229H9.3289C9.3289 31.7873 9.30924 31.833 9.26068 31.8781L9.45952 32.0922L9.65835 32.3064C9.82524 32.1514 9.91332 31.9508 9.91332 31.7229H9.62111ZM9.45952 32.0922L9.25289 31.8856C9.20968 31.9288 9.16177 31.9501 9.09017 31.9501V32.2423V32.5345C9.31097 32.5345 9.50929 32.4557 9.66614 32.2989L9.45952 32.0922ZM9.62111 28.2602V28.5524H11.6179V28.2602V27.968H9.62111V28.2602ZM11.6179 28.2602V28.5524C12.2135 28.5524 12.7089 28.4742 13.0759 28.2907L12.9453 28.0294L12.8146 27.768C12.566 27.8923 12.1765 27.968 11.6179 27.968V28.2602ZM12.9453 28.0294L13.0811 28.2881C13.427 28.1065 13.6931 27.8666 13.8431 27.5565L13.5801 27.4292L13.3171 27.3019C13.2363 27.4689 13.0791 27.6291 12.8094 27.7707L12.9453 28.0294ZM13.5801 27.4292L13.8447 27.5532C13.9764 27.2722 14.0454 26.9839 14.0454 26.6905H13.7532H13.461C13.461 26.8895 13.4146 27.0936 13.3155 27.3052L13.5801 27.4292ZM13.7532 26.6905H14.0454C14.0454 26.3905 13.9769 26.1009 13.8431 25.8245L13.5801 25.9518L13.3171 26.0791C13.4141 26.2797 13.461 26.4826 13.461 26.6905H13.7532ZM13.5801 25.9518L13.8431 25.8245C13.6922 25.5126 13.4241 25.2759 13.0759 25.1018L12.9453 25.3631L12.8146 25.6245C13.082 25.7582 13.2371 25.9139 13.3171 26.0791L13.5801 25.9518ZM12.9453 25.3631L13.0811 25.1044C12.7124 24.9108 12.2148 24.8285 11.6179 24.8285V25.1207V25.4129C12.1752 25.4129 12.5625 25.4922 12.8094 25.6218L12.9453 25.3631ZM11.6179 25.1207V24.8285H9.62111V25.1207V25.4129H11.6179V25.1207ZM9.62111 25.1207H9.3289V28.2602H9.62111H9.91332V25.1207H9.62111ZM18.1147 32.1384L18.0427 32.4217L18.0483 32.423L18.1147 32.1384ZM16.9259 31.746L16.8049 32.012L16.81 32.0142L16.9259 31.746ZM16.695 31.5613L16.4519 31.7234L16.4598 31.7353L16.4689 31.7463L16.695 31.5613ZM16.7297 30.938L16.9452 31.1356L16.9527 31.1268L16.7297 30.938ZM17.2952 30.8341L17.1766 31.1012L17.1773 31.1015L17.2952 30.8341ZM18.2532 31.1573L18.1783 31.4398L18.1797 31.4401L18.2532 31.1573ZM20.5963 31.1919L20.6689 31.475L20.6738 31.4737L20.5963 31.1919ZM21.3235 30.7764L21.5385 30.9743L21.5423 30.97L21.3235 30.7764ZM21.3235 29.3914L21.1317 29.6119L21.1374 29.6166L21.3235 29.3914ZM20.6194 29.0105L20.5248 29.2869V29.2869L20.6194 29.0105ZM19.6498 28.7334L19.5805 29.0173L19.5819 29.0176L19.6498 28.7334ZM18.611 28.4564L18.5242 28.7355L18.5299 28.7372L18.611 28.4564ZM17.653 28.0409L17.7994 27.788V27.788L17.653 28.0409ZM16.949 27.3946L16.7047 27.555L16.7069 27.5583L16.949 27.3946ZM17.0182 25.2015L16.7719 25.0443L16.771 25.0457L17.0182 25.2015ZM18.0339 24.3359L18.161 24.599V24.599L18.0339 24.3359ZM20.931 24.1166L20.9828 23.829H20.9828L20.931 24.1166ZM21.9698 24.3936L21.8672 24.6672L21.87 24.6682L21.9698 24.3936ZM22.1891 24.5436L21.9707 24.7378L21.9764 24.7442L21.9825 24.7502L22.1891 24.5436ZM22.166 25.19L21.9363 25.0095L21.9344 25.0118L22.166 25.19ZM21.739 25.3285L21.6083 25.5899L21.637 25.6042L21.6681 25.612L21.739 25.3285ZM21.6466 25.2939L21.5494 25.5694L21.5624 25.574L21.5758 25.5774L21.6466 25.2939ZM20.781 25.0746L20.7237 25.3612L20.7318 25.3626L20.781 25.0746ZM18.3225 25.317L18.1781 25.0629V25.0629L18.3225 25.317ZM17.9993 26.979L18.2013 26.7679V26.7679L17.9993 26.979ZM18.7034 27.383L18.6088 27.6595V27.6595L18.7034 27.383ZM19.6614 27.66L19.592 27.9439L19.598 27.9453L19.6614 27.66ZM20.7002 27.9255L20.6191 28.2062V28.2062L20.7002 27.9255ZM21.6582 28.3295L21.5118 28.5824L21.5169 28.5852L21.6582 28.3295ZM22.3623 28.9874L22.116 29.1447L22.1181 29.1479L22.3623 28.9874ZM22.2584 31.215L22.0202 31.0457L22.0195 31.0467L22.2584 31.215ZM21.2311 32.0114L21.1155 31.7431L21.1138 31.7438L21.2311 32.0114ZM19.6729 32.3V32.0078C19.1135 32.0078 18.617 31.9555 18.1811 31.8538L18.1147 32.1384L18.0483 32.423C18.5359 32.5367 19.0781 32.5922 19.6729 32.5922V32.3ZM18.1147 32.1384L18.1867 31.8552C17.7439 31.7426 17.3629 31.6164 17.0417 31.4777L16.9259 31.746L16.81 32.0142C17.166 32.1679 17.5775 32.3033 18.0427 32.4216L18.1147 32.1384ZM16.9259 31.746L17.0468 31.4799C17.0096 31.463 16.967 31.4323 16.9212 31.3763L16.695 31.5613L16.4689 31.7463C16.5616 31.8596 16.6729 31.9519 16.805 32.012L16.9259 31.746ZM16.695 31.5613L16.9382 31.3992C16.905 31.3494 16.8949 31.3089 16.8949 31.2727H16.6027H16.3105C16.3105 31.4367 16.362 31.5885 16.4519 31.7234L16.695 31.5613ZM16.6027 31.2727H16.8949C16.8949 31.2115 16.9122 31.1713 16.9451 31.1355L16.7297 30.938L16.5143 30.7406C16.3779 30.8894 16.3105 31.0724 16.3105 31.2727H16.6027ZM16.7297 30.938L16.9527 31.1268C16.975 31.1004 17.0045 31.0802 17.0759 31.0802V30.788V30.4958C16.855 30.4958 16.6536 30.5755 16.5066 30.7493L16.7297 30.938ZM17.0759 30.788V31.0802C17.1126 31.0802 17.1453 31.0872 17.1766 31.1012L17.2952 30.8341L17.4139 30.5671C17.3067 30.5195 17.1931 30.4958 17.0759 30.4958V30.788ZM17.2952 30.8341L17.1773 31.1015C17.4568 31.2248 17.7915 31.3371 18.1783 31.4398L18.2532 31.1573L18.3282 30.8749C17.9609 30.7774 17.6569 30.6743 17.4132 30.5668L17.2952 30.8341ZM18.2532 31.1573L18.1797 31.4401C18.5934 31.5477 19.0574 31.5996 19.569 31.5996V31.3074V31.0152C19.0957 31.0152 18.6826 30.967 18.3268 30.8745L18.2532 31.1573ZM19.569 31.3074V31.5996C19.9726 31.5996 20.3402 31.5593 20.6689 31.475L20.5963 31.1919L20.5237 30.9089C20.2522 30.9785 19.9349 31.0152 19.569 31.0152V31.3074ZM20.5963 31.1919L20.6738 31.4737C21.0227 31.3777 21.317 31.215 21.5385 30.9743L21.3235 30.7764L21.1084 30.5786C20.976 30.7225 20.7855 30.8369 20.5188 30.9102L20.5963 31.1919ZM21.3235 30.7764L21.5423 30.97C21.7771 30.7046 21.8811 30.3645 21.8811 29.98H21.5889H21.2967C21.2967 30.2573 21.2238 30.4481 21.1046 30.5828L21.3235 30.7764ZM21.5889 29.98H21.8811C21.8811 29.6538 21.7591 29.3722 21.5096 29.1661L21.3235 29.3914L21.1374 29.6166C21.2418 29.7029 21.2967 29.8137 21.2967 29.98H21.5889ZM21.3235 29.3914L21.5152 29.1709C21.3023 28.9857 21.0313 28.8426 20.714 28.734L20.6194 29.0105L20.5248 29.2869C20.7923 29.3784 20.9907 29.4892 21.1317 29.6119L21.3235 29.3914ZM20.6194 29.0105L20.714 28.734C20.4115 28.6305 20.0792 28.5357 19.7178 28.4493L19.6498 28.7334L19.5819 29.0176C19.9284 29.1005 20.2425 29.1904 20.5248 29.2869L20.6194 29.0105ZM19.6498 28.7334L19.7192 28.4496C19.3769 28.3659 19.0346 28.2746 18.6921 28.1757L18.611 28.4564L18.5299 28.7372C18.8801 28.8383 19.2302 28.9317 19.5805 29.0173L19.6498 28.7334ZM18.611 28.4564L18.6979 28.1774C18.3709 28.0757 18.0717 27.9457 17.7994 27.788L17.653 28.0409L17.5066 28.2938C17.8192 28.4748 18.1587 28.6217 18.5242 28.7355L18.611 28.4564ZM17.653 28.0409L17.7994 27.788C17.5425 27.6393 17.3415 27.4534 17.191 27.2308L16.949 27.3946L16.7069 27.5583C16.9103 27.859 17.1788 28.104 17.5066 28.2938L17.653 28.0409ZM16.949 27.3946L17.1932 27.2341C17.0549 27.0236 16.9757 26.7447 16.9757 26.3788H16.6835H16.3913C16.3913 26.8286 16.4891 27.2268 16.7048 27.555L16.949 27.3946ZM16.6835 26.3788H16.9757C16.9757 26.0013 17.0726 25.6632 17.2654 25.3574L17.0182 25.2015L16.771 25.0457C16.5176 25.4478 16.3913 25.8945 16.3913 26.3788H16.6835ZM17.0182 25.2015L17.2645 25.3588C17.4619 25.0495 17.7558 24.7946 18.161 24.599L18.0339 24.3359L17.9069 24.0727C17.4195 24.308 17.0362 24.6303 16.7719 25.0443L17.0182 25.2015ZM18.0339 24.3359L18.161 24.599C18.5575 24.4076 19.0577 24.3049 19.6729 24.3049V24.0127V23.7205C18.9954 23.7205 18.403 23.8332 17.9069 24.0727L18.0339 24.3359ZM19.6729 24.0127V24.3049C20.1123 24.3049 20.5141 24.3384 20.8793 24.4042L20.931 24.1166L20.9828 23.829C20.5785 23.7562 20.1416 23.7205 19.6729 23.7205V24.0127ZM20.931 24.1166L20.8793 24.4042C21.2498 24.4709 21.5787 24.559 21.8672 24.6672L21.9698 24.3936L22.0724 24.12C21.7454 23.9973 21.3817 23.9008 20.9828 23.829L20.931 24.1166ZM21.9698 24.3936L21.87 24.6682C21.9077 24.6819 21.9404 24.7037 21.9707 24.7378L22.1891 24.5436L22.4075 24.3495C22.3147 24.2451 22.2013 24.1668 22.0697 24.119L21.9698 24.3936ZM22.1891 24.5436L21.9825 24.7502C21.9825 24.7503 21.9826 24.7504 21.9828 24.7506C21.983 24.7509 21.9834 24.7514 21.984 24.7524C21.9851 24.7543 21.9873 24.7584 21.9898 24.7659C21.995 24.7813 22.0008 24.8095 22.0008 24.8553H22.293H22.5852C22.5852 24.6717 22.5391 24.4804 22.3958 24.337L22.1891 24.5436ZM22.293 24.8553H22.0008C22.0008 24.8936 21.9883 24.9432 21.9363 25.0095L22.166 25.19L22.3958 25.3705C22.5131 25.2213 22.5852 25.0478 22.5852 24.8553H22.293ZM22.166 25.19L21.9344 25.0118C21.922 25.028 21.9031 25.0478 21.8313 25.0478V25.34V25.6322C22.052 25.6322 22.2562 25.5521 22.3977 25.3682L22.166 25.19ZM21.8313 25.34V25.0478C21.8252 25.0478 21.8182 25.0471 21.8099 25.045L21.739 25.3285L21.6681 25.612C21.7214 25.6253 21.7759 25.6322 21.8313 25.6322V25.34ZM21.739 25.3285L21.8697 25.0671C21.8214 25.043 21.7706 25.0237 21.7175 25.0104L21.6466 25.2939L21.5758 25.5774C21.5842 25.5795 21.595 25.5832 21.6083 25.5899L21.739 25.3285ZM21.6466 25.2939L21.7439 25.0183C21.4645 24.9197 21.1596 24.8428 20.8302 24.7865L20.781 25.0746L20.7318 25.3626C21.0334 25.4141 21.3056 25.4834 21.5494 25.5694L21.6466 25.2939ZM20.781 25.0746L20.8383 24.788C20.5094 24.7223 20.1592 24.69 19.7884 24.69V24.9822V25.2744C20.1255 25.2744 20.437 25.3038 20.7237 25.3611L20.781 25.0746ZM19.7884 24.9822V24.69C19.1675 24.69 18.6257 24.8084 18.1781 25.0629L18.3225 25.317L18.4669 25.571C18.8042 25.3792 19.2396 25.2744 19.7884 25.2744V24.9822ZM18.3225 25.317L18.1781 25.0629C17.6996 25.335 17.4416 25.756 17.4416 26.298H17.7338H18.026C18.026 25.9782 18.1605 25.7452 18.4669 25.571L18.3225 25.317ZM17.7338 26.298H17.4416C17.4416 26.6484 17.5533 26.9567 17.7973 27.1902L17.9993 26.979L18.2013 26.7679C18.0914 26.6628 18.026 26.5171 18.026 26.298H17.7338ZM17.9993 26.979L17.7973 27.1902C18.0119 27.3954 18.2865 27.5492 18.6088 27.6595L18.7034 27.383L18.798 27.1065C18.5355 27.0167 18.3407 26.9012 18.2013 26.7679L17.9993 26.979ZM18.7034 27.383L18.6088 27.6595C18.9106 27.7627 19.2385 27.8575 19.592 27.9439L19.6614 27.66L19.7308 27.3762C19.3918 27.2933 19.0809 27.2033 18.798 27.1065L18.7034 27.383ZM19.6614 27.66L19.598 27.9453C19.9382 28.0209 20.2786 28.1079 20.6191 28.2062L20.7002 27.9255L20.7813 27.6448C20.4293 27.5431 20.0771 27.4531 19.7248 27.3748L19.6614 27.66ZM20.7002 27.9255L20.6191 28.2062C20.944 28.3001 21.2413 28.4257 21.5118 28.5824L21.6582 28.3295L21.8046 28.0766C21.4903 27.8946 21.1489 27.751 20.7813 27.6448L20.7002 27.9255ZM21.6582 28.3295L21.5169 28.5852C21.7674 28.7237 21.9657 28.9094 22.116 29.1447L22.3623 28.9874L22.6085 28.8301C22.4049 28.5113 22.1338 28.2585 21.7995 28.0737L21.6582 28.3295ZM22.3623 28.9874L22.1181 29.1479C22.2543 29.3552 22.3355 29.6477 22.3355 30.0493H22.6277H22.9199C22.9199 29.5736 22.8242 29.1582 22.6065 28.8269L22.3623 28.9874ZM22.6277 30.0493H22.3355C22.3355 30.4204 22.2308 30.7496 22.0202 31.0457L22.2584 31.215L22.4965 31.3844C22.7785 30.9879 22.9199 30.5399 22.9199 30.0493H22.6277ZM22.2584 31.215L22.0195 31.0467C21.8171 31.3341 21.521 31.5683 21.1155 31.7431L21.2311 32.0114L21.3468 32.2798C21.8339 32.0698 22.2226 31.7731 22.4973 31.3833L22.2584 31.215ZM21.2311 32.0114L21.1138 31.7438C20.7203 31.9164 20.2426 32.0078 19.6729 32.0078V32.3V32.5922C20.3036 32.5922 20.8648 32.4912 21.3485 32.279L21.2311 32.0114ZM25.2041 32.0345L25.4107 31.8279V31.8279L25.2041 32.0345ZM25.2041 24.2897L25.4108 24.4965L25.4182 24.4885L25.2041 24.2897ZM29.694 24.4859L29.5698 24.7504L29.5731 24.7519L29.694 24.4859ZM30.9636 25.4208L30.7424 25.6117L30.7443 25.6139L30.9636 25.4208ZM31.7139 26.7136L31.4371 26.8073L31.4385 26.8113L31.7139 26.7136ZM31.7139 29.5991L31.4385 29.5014L31.4371 29.5054L31.7139 29.5991ZM30.9636 30.9034L31.183 31.0964L31.1849 31.0943L30.9636 30.9034ZM29.694 31.8383L29.8149 32.1043L29.8182 32.1028L29.694 31.8383ZM26.1044 31.2035H25.8122V31.4957H26.1044V31.2035ZM29.4401 30.8226L29.5791 31.0796L29.5806 31.0788L29.4401 30.8226ZM30.5366 29.7492L30.2824 29.6051L30.2816 29.6065L30.5366 29.7492ZM30.5366 26.5751L30.2805 26.7159L30.2834 26.721L30.5366 26.5751ZM29.4401 25.5016L29.2978 25.7569L29.3028 25.7596L29.4401 25.5016ZM26.1044 25.1092V24.817H25.8122V25.1092H26.1044ZM25.5734 32.1846V31.8924C25.5018 31.8924 25.4539 31.8711 25.4107 31.8279L25.2041 32.0345L24.9975 32.2411C25.1543 32.398 25.3526 32.4768 25.5734 32.4768V32.1846ZM25.2041 32.0345L25.4107 31.8279C25.3675 31.7847 25.3462 31.7368 25.3462 31.6652H25.054H24.7618C24.7618 31.886 24.8406 32.0843 24.9975 32.2411L25.2041 32.0345ZM25.054 31.6652H25.3462V24.6591H25.054H24.7618V31.6652H25.054ZM25.054 24.6591H25.3462C25.3462 24.5874 25.3675 24.5395 25.4107 24.4963L25.2041 24.2897L24.9975 24.0831C24.8406 24.2399 24.7618 24.4382 24.7618 24.6591H25.054ZM25.2041 24.2897L25.4182 24.4885C25.4633 24.44 25.509 24.4203 25.5734 24.4203V24.1281V23.8359C25.3455 23.8359 25.1449 23.924 24.99 24.0909L25.2041 24.2897ZM25.5734 24.1281V24.4203H27.8934V24.1281V23.8359H25.5734V24.1281ZM27.8934 24.1281V24.4203C28.5528 24.4203 29.1088 24.5339 29.5698 24.7504L29.694 24.4859L29.8182 24.2214C29.2635 23.9609 28.6191 23.8359 27.8934 23.8359V24.1281ZM29.694 24.4859L29.5731 24.7519C30.0454 24.9666 30.4335 25.2537 30.7424 25.6117L30.9636 25.4208L31.1849 25.23C30.8166 24.8031 30.3583 24.4669 29.8149 24.2199L29.694 24.4859ZM30.9636 25.4208L30.7443 25.6139C31.0578 25.9702 31.2881 26.3674 31.4371 26.8073L31.7139 26.7136L31.9907 26.6198C31.8165 26.1055 31.5466 25.641 31.183 25.2278L30.9636 25.4208ZM31.7139 26.7136L31.4385 26.8113C31.5972 27.2584 31.6756 27.7063 31.6756 28.1563H31.9678H32.26C32.26 27.6368 32.1692 27.1229 31.9893 26.6158L31.7139 26.7136ZM31.9678 28.1563H31.6756C31.6756 28.6064 31.5972 29.0543 31.4385 29.5014L31.7139 29.5991L31.9893 29.6968C32.1692 29.1898 32.26 28.6759 32.26 28.1563H31.9678ZM31.7139 29.5991L31.4371 29.5054C31.288 29.9458 31.0571 30.3477 30.7424 30.7125L30.9636 30.9034L31.1849 31.0943C31.5473 30.6742 31.8166 30.2066 31.9907 29.6929L31.7139 29.5991ZM30.9636 30.9034L30.7443 30.7103C30.4346 31.0623 30.0448 31.3507 29.5698 31.5738L29.694 31.8383L29.8182 32.1028C30.3589 31.8488 30.8155 31.514 31.183 31.0964L30.9636 30.9034ZM29.694 31.8383L29.5731 31.5723C29.1112 31.7822 28.554 31.8924 27.8934 31.8924V32.1846V32.4768C28.6179 32.4768 29.2611 32.3561 29.8149 32.1043L29.694 31.8383ZM27.8934 32.1846V31.8924H25.5734V32.1846V32.4768H27.8934V32.1846ZM26.1044 31.2035V31.4957H27.7665V31.2035V30.9113H26.1044V31.2035ZM27.7665 31.2035V31.4957C28.4512 31.4957 29.0589 31.361 29.5791 31.0796L29.4401 30.8226L29.301 30.5656C28.8825 30.792 28.3744 30.9113 27.7665 30.9113V31.2035ZM29.4401 30.8226L29.5806 31.0788C30.1034 30.7921 30.5097 30.3959 30.7916 29.8918L30.5366 29.7492L30.2816 29.6065C30.0557 30.0104 29.7309 30.3298 29.2996 30.5664L29.4401 30.8226ZM30.5366 29.7492L30.7908 29.8932C31.0804 29.3821 31.2212 28.8003 31.2212 28.1563H30.929H30.6368C30.6368 28.7128 30.516 29.1929 30.2824 29.6051L30.5366 29.7492ZM30.929 28.1563H31.2212C31.2212 27.5125 31.0805 26.9336 30.7898 26.4292L30.5366 26.5751L30.2834 26.721C30.5159 27.1245 30.6368 27.5998 30.6368 28.1563H30.929ZM30.5366 26.5751L30.7926 26.4342C30.5106 25.9215 30.1032 25.5236 29.5774 25.2437L29.4401 25.5016L29.3028 25.7596C29.7311 25.9876 30.0547 26.3053 30.2805 26.7159L30.5366 26.5751ZM29.4401 25.5016L29.5823 25.2464C29.0614 24.9561 28.4525 24.817 27.7665 24.817V25.1092V25.4014C28.3731 25.4014 28.8799 25.524 29.2978 25.7569L29.4401 25.5016ZM27.7665 25.1092V24.817H26.1044V25.1092V25.4014H27.7665V25.1092ZM26.1044 25.1092H25.8122V31.2035H26.1044H26.3966V25.1092H26.1044Z" fill="white" mask="url(#path-3-outside-1_383_20982)"/>
<g filter="url(#filter0_d_383_20982)">
<path d="M39.7405 14.9026H28.0522C26.277 14.9026 24.8379 13.4635 24.8379 11.6883V0L39.7405 14.9026Z" fill="url(#paint2_linear_383_20982)"/>
</g>
</g>
<defs>
<filter id="filter0_d_383_20982" x="21.4775" y="-3.50649" width="22.208" height="22.2075" filterUnits="userSpaceOnUse" color-interpolation-filters="sRGB">
<feFlood flood-opacity="0" result="BackgroundImageFix"/>
<feColorMatrix in="SourceAlpha" type="matrix" values="0 0 0 0 0 0 0 0 0 0 0 0 0 0 0 0 0 0 127 0" result="hardAlpha"/>
<feOffset dx="0.292208" dy="0.146104"/>
<feGaussianBlur stdDeviation="1.8263"/>
<feColorMatrix type="matrix" values="0 0 0 0 0 0 0 0 0 0 0 0 0 0 0 0 0 0 0.33 0"/>
<feBlend mode="normal" in2="BackgroundImageFix" result="effect1_dropShadow_383_20982"/>
<feBlend mode="normal" in="SourceGraphic" in2="effect1_dropShadow_383_20982" result="shape"/>
</filter>
<linearGradient id="paint0_linear_383_20982" x1="19.8701" y1="0" x2="19.8701" y2="45" gradientUnits="userSpaceOnUse">
<stop stop-color="#FF7979"/>
<stop offset="1" stop-color="#E85555"/>
</linearGradient>
<linearGradient id="paint1_linear_383_20982" x1="19.8701" y1="0" x2="19.8701" y2="45" gradientUnits="userSpaceOnUse">
<stop stop-color="#9391FC"/>
<stop offset="1" stop-color="#5B59EF"/>
</linearGradient>
<linearGradient id="paint2_linear_383_20982" x1="32.2892" y1="0" x2="32.2892" y2="14.9026" gradientUnits="userSpaceOnUse">
<stop stop-color="#7371F1"/>
<stop offset="1" stop-color="#504DE8"/>
</linearGradient>
</defs>
</svg>
