<svg width="40" height="45" viewBox="0 0 40 45" fill="none" xmlns="http://www.w3.org/2000/svg">
<mask id="mask0_383_20919" style="mask-type:alpha" maskUnits="userSpaceOnUse" x="0" y="0" width="40" height="45">
<path d="M36.526 45H3.21429C1.43909 45 0 43.5609 0 41.7857V3.21429C0 1.43909 1.43909 0 3.21429 0H24.8377L39.7403 14.9026V41.7857C39.7403 43.5609 38.3012 45 36.526 45Z" fill="url(#paint0_linear_383_20919)"/>
</mask>
<g mask="url(#mask0_383_20919)">
<path d="M36.526 45H3.21429C1.43909 45 0 43.5609 0 41.7857V3.21429C0 1.43909 1.43909 0 3.21429 0H24.8377L39.7403 14.9026V41.7857C39.7403 43.5609 38.3012 45 36.526 45Z" fill="url(#paint1_linear_383_20919)"/>
<g filter="url(#filter0_f_383_20919)">
<rect x="7.01318" y="21.7695" width="26.0065" height="12.2727" fill="#CC1583" fill-opacity="0.15" style="mix-blend-mode:darken"/>
</g>
<mask id="path-4-outside-1_383_20919" maskUnits="userSpaceOnUse" x="7.45117" y="23.1846" width="25" height="10" fill="black">
<rect fill="white" x="7.45117" y="23.1846" width="25" height="10"/>
<path d="M11.1101 32.3C10.5329 32.3 10.0135 32.2461 9.55185 32.1384C9.09786 32.023 8.70158 31.8922 8.36301 31.746C8.27836 31.7075 8.20142 31.6459 8.13216 31.5613C8.0706 31.469 8.03982 31.3728 8.03982 31.2727C8.03982 31.1419 8.08215 31.0303 8.16679 30.938C8.25143 30.838 8.36685 30.788 8.51306 30.788C8.59 30.788 8.6631 30.8034 8.73236 30.8341C8.99398 30.9496 9.31331 31.0573 9.69036 31.1573C10.0751 31.2573 10.5137 31.3074 11.0062 31.3074C11.3909 31.3074 11.7333 31.2689 12.0334 31.1919C12.3412 31.1073 12.5836 30.9688 12.7606 30.7764C12.9376 30.5764 13.0261 30.3109 13.0261 29.98C13.0261 29.7338 12.9376 29.5376 12.7606 29.3914C12.5836 29.2375 12.3489 29.1105 12.0565 29.0105C11.7641 28.9104 11.4409 28.8181 11.087 28.7334C10.7407 28.6488 10.3944 28.5565 10.0482 28.4564C9.7019 28.3487 9.38257 28.2102 9.09017 28.0409C8.79776 27.8716 8.56307 27.6562 8.38609 27.3946C8.20911 27.1252 8.12062 26.7867 8.12062 26.3788C8.12062 25.9479 8.23219 25.5555 8.45534 25.2015C8.68619 24.8399 9.02476 24.5513 9.47106 24.3359C9.91736 24.1204 10.4637 24.0127 11.1101 24.0127C11.564 24.0127 11.9834 24.0473 12.3682 24.1166C12.7529 24.1858 13.0992 24.2782 13.407 24.3936C13.4916 24.4244 13.5647 24.4744 13.6263 24.5436C13.6955 24.6129 13.7301 24.7168 13.7301 24.8553C13.7301 24.9707 13.6878 25.0823 13.6032 25.19C13.5262 25.29 13.4146 25.34 13.2684 25.34C13.2377 25.34 13.2069 25.3362 13.1761 25.3285C13.1453 25.3131 13.1145 25.3016 13.0838 25.2939C12.8221 25.2015 12.5336 25.1284 12.2181 25.0746C11.9103 25.013 11.5794 24.9822 11.2255 24.9822C10.6407 24.9822 10.152 25.0938 9.75961 25.317C9.36718 25.5401 9.17096 25.8671 9.17096 26.298C9.17096 26.5828 9.25945 26.8097 9.43643 26.979C9.61341 27.1483 9.8481 27.283 10.1405 27.383C10.4329 27.483 10.7522 27.5754 11.0985 27.66C11.4448 27.737 11.791 27.8255 12.1373 27.9255C12.4836 28.0255 12.8029 28.1602 13.0953 28.3295C13.3877 28.4911 13.6224 28.7104 13.7994 28.9874C13.9764 29.2567 14.0649 29.6107 14.0649 30.0493C14.0649 30.4802 13.9417 30.8688 13.6955 31.215C13.457 31.5536 13.1145 31.8191 12.6683 32.0114C12.2296 32.2038 11.7102 32.3 11.1101 32.3ZM19.1821 32.2423C18.8666 32.2423 18.6281 32.0653 18.4665 31.7113L15.6156 24.7976C15.5925 24.736 15.5809 24.6706 15.5809 24.6013C15.5809 24.4474 15.6271 24.3205 15.7195 24.2204C15.8118 24.1204 15.9388 24.0704 16.1003 24.0704C16.3312 24.0704 16.4966 24.1897 16.5967 24.4282L19.3091 31.1919L22.0215 24.4282C22.1215 24.1897 22.287 24.0704 22.5178 24.0704C22.6794 24.0704 22.8064 24.1204 22.8987 24.2204C22.991 24.3205 23.0372 24.4474 23.0372 24.6013C23.0372 24.6706 23.0257 24.736 23.0026 24.7976L20.1517 31.7113C19.9901 32.0653 19.7515 32.2423 19.436 32.2423H19.1821ZM28.6657 32.3C27.8577 32.3 27.1498 32.123 26.5419 31.7691C25.934 31.4151 25.4608 30.9303 25.1222 30.3147C24.7836 29.6915 24.6143 28.9758 24.6143 28.1679C24.6143 27.5446 24.7182 26.979 24.926 26.4712C25.1337 25.9556 25.4185 25.517 25.7801 25.1554C26.1495 24.786 26.5765 24.5052 27.0613 24.3128C27.5461 24.1127 28.0693 24.0127 28.631 24.0127C29.2851 24.0127 29.8353 24.0935 30.2816 24.2551C30.7356 24.4167 31.1434 24.6129 31.505 24.8437C31.5589 24.8745 31.6089 24.9245 31.6551 24.9938C31.709 25.063 31.7359 25.1515 31.7359 25.2592C31.7359 25.3824 31.6936 25.4939 31.6089 25.594C31.5243 25.6863 31.405 25.7325 31.2511 25.7325C31.1665 25.7325 31.0857 25.7132 31.0087 25.6748C30.6702 25.4747 30.32 25.317 29.9584 25.2015C29.5967 25.0861 29.1928 25.0284 28.7465 25.0284C28.1693 25.0284 27.6461 25.1515 27.1767 25.3978C26.715 25.6363 26.3457 25.9903 26.0687 26.4596C25.7993 26.9213 25.6647 27.4907 25.6647 28.1679C25.6647 28.7604 25.7878 29.2952 26.034 29.7722C26.2803 30.2416 26.6381 30.6148 27.1075 30.8918C27.5768 31.1689 28.1424 31.3074 28.8042 31.3074C29.212 31.3074 29.5852 31.2612 29.9238 31.1689C30.2623 31.0688 30.5624 30.9457 30.8241 30.7995V28.7104H28.9196C28.7888 28.7104 28.6772 28.6642 28.5849 28.5719C28.4925 28.4795 28.4464 28.3679 28.4464 28.2371C28.4464 28.1063 28.4925 27.9947 28.5849 27.9024C28.6772 27.8101 28.7888 27.7639 28.9196 27.7639H31.1934C31.3473 27.7639 31.4781 27.8178 31.5858 27.9255C31.6936 28.0332 31.7474 28.164 31.7474 28.3179V30.938C31.7474 31.0996 31.7051 31.2458 31.6205 31.3766C31.5435 31.4997 31.4396 31.5921 31.3088 31.6536C30.9318 31.846 30.5201 32.0037 30.0738 32.1269C29.6352 32.2423 29.1658 32.3 28.6657 32.3Z"/>
</mask>
<path d="M11.1101 32.3C10.5329 32.3 10.0135 32.2461 9.55185 32.1384C9.09786 32.023 8.70158 31.8922 8.36301 31.746C8.27836 31.7075 8.20142 31.6459 8.13216 31.5613C8.0706 31.469 8.03982 31.3728 8.03982 31.2727C8.03982 31.1419 8.08215 31.0303 8.16679 30.938C8.25143 30.838 8.36685 30.788 8.51306 30.788C8.59 30.788 8.6631 30.8034 8.73236 30.8341C8.99398 30.9496 9.31331 31.0573 9.69036 31.1573C10.0751 31.2573 10.5137 31.3074 11.0062 31.3074C11.3909 31.3074 11.7333 31.2689 12.0334 31.1919C12.3412 31.1073 12.5836 30.9688 12.7606 30.7764C12.9376 30.5764 13.0261 30.3109 13.0261 29.98C13.0261 29.7338 12.9376 29.5376 12.7606 29.3914C12.5836 29.2375 12.3489 29.1105 12.0565 29.0105C11.7641 28.9104 11.4409 28.8181 11.087 28.7334C10.7407 28.6488 10.3944 28.5565 10.0482 28.4564C9.7019 28.3487 9.38257 28.2102 9.09017 28.0409C8.79776 27.8716 8.56307 27.6562 8.38609 27.3946C8.20911 27.1252 8.12062 26.7867 8.12062 26.3788C8.12062 25.9479 8.23219 25.5555 8.45534 25.2015C8.68619 24.8399 9.02476 24.5513 9.47106 24.3359C9.91736 24.1204 10.4637 24.0127 11.1101 24.0127C11.564 24.0127 11.9834 24.0473 12.3682 24.1166C12.7529 24.1858 13.0992 24.2782 13.407 24.3936C13.4916 24.4244 13.5647 24.4744 13.6263 24.5436C13.6955 24.6129 13.7301 24.7168 13.7301 24.8553C13.7301 24.9707 13.6878 25.0823 13.6032 25.19C13.5262 25.29 13.4146 25.34 13.2684 25.34C13.2377 25.34 13.2069 25.3362 13.1761 25.3285C13.1453 25.3131 13.1145 25.3016 13.0838 25.2939C12.8221 25.2015 12.5336 25.1284 12.2181 25.0746C11.9103 25.013 11.5794 24.9822 11.2255 24.9822C10.6407 24.9822 10.152 25.0938 9.75961 25.317C9.36718 25.5401 9.17096 25.8671 9.17096 26.298C9.17096 26.5828 9.25945 26.8097 9.43643 26.979C9.61341 27.1483 9.8481 27.283 10.1405 27.383C10.4329 27.483 10.7522 27.5754 11.0985 27.66C11.4448 27.737 11.791 27.8255 12.1373 27.9255C12.4836 28.0255 12.8029 28.1602 13.0953 28.3295C13.3877 28.4911 13.6224 28.7104 13.7994 28.9874C13.9764 29.2567 14.0649 29.6107 14.0649 30.0493C14.0649 30.4802 13.9417 30.8688 13.6955 31.215C13.457 31.5536 13.1145 31.8191 12.6683 32.0114C12.2296 32.2038 11.7102 32.3 11.1101 32.3ZM19.1821 32.2423C18.8666 32.2423 18.6281 32.0653 18.4665 31.7113L15.6156 24.7976C15.5925 24.736 15.5809 24.6706 15.5809 24.6013C15.5809 24.4474 15.6271 24.3205 15.7195 24.2204C15.8118 24.1204 15.9388 24.0704 16.1003 24.0704C16.3312 24.0704 16.4966 24.1897 16.5967 24.4282L19.3091 31.1919L22.0215 24.4282C22.1215 24.1897 22.287 24.0704 22.5178 24.0704C22.6794 24.0704 22.8064 24.1204 22.8987 24.2204C22.991 24.3205 23.0372 24.4474 23.0372 24.6013C23.0372 24.6706 23.0257 24.736 23.0026 24.7976L20.1517 31.7113C19.9901 32.0653 19.7515 32.2423 19.436 32.2423H19.1821ZM28.6657 32.3C27.8577 32.3 27.1498 32.123 26.5419 31.7691C25.934 31.4151 25.4608 30.9303 25.1222 30.3147C24.7836 29.6915 24.6143 28.9758 24.6143 28.1679C24.6143 27.5446 24.7182 26.979 24.926 26.4712C25.1337 25.9556 25.4185 25.517 25.7801 25.1554C26.1495 24.786 26.5765 24.5052 27.0613 24.3128C27.5461 24.1127 28.0693 24.0127 28.631 24.0127C29.2851 24.0127 29.8353 24.0935 30.2816 24.2551C30.7356 24.4167 31.1434 24.6129 31.505 24.8437C31.5589 24.8745 31.6089 24.9245 31.6551 24.9938C31.709 25.063 31.7359 25.1515 31.7359 25.2592C31.7359 25.3824 31.6936 25.4939 31.6089 25.594C31.5243 25.6863 31.405 25.7325 31.2511 25.7325C31.1665 25.7325 31.0857 25.7132 31.0087 25.6748C30.6702 25.4747 30.32 25.317 29.9584 25.2015C29.5967 25.0861 29.1928 25.0284 28.7465 25.0284C28.1693 25.0284 27.6461 25.1515 27.1767 25.3978C26.715 25.6363 26.3457 25.9903 26.0687 26.4596C25.7993 26.9213 25.6647 27.4907 25.6647 28.1679C25.6647 28.7604 25.7878 29.2952 26.034 29.7722C26.2803 30.2416 26.6381 30.6148 27.1075 30.8918C27.5768 31.1689 28.1424 31.3074 28.8042 31.3074C29.212 31.3074 29.5852 31.2612 29.9238 31.1689C30.2623 31.0688 30.5624 30.9457 30.8241 30.7995V28.7104H28.9196C28.7888 28.7104 28.6772 28.6642 28.5849 28.5719C28.4925 28.4795 28.4464 28.3679 28.4464 28.2371C28.4464 28.1063 28.4925 27.9947 28.5849 27.9024C28.6772 27.8101 28.7888 27.7639 28.9196 27.7639H31.1934C31.3473 27.7639 31.4781 27.8178 31.5858 27.9255C31.6936 28.0332 31.7474 28.164 31.7474 28.3179V30.938C31.7474 31.0996 31.7051 31.2458 31.6205 31.3766C31.5435 31.4997 31.4396 31.5921 31.3088 31.6536C30.9318 31.846 30.5201 32.0037 30.0738 32.1269C29.6352 32.2423 29.1658 32.3 28.6657 32.3Z" fill="white"/>
<path d="M9.55185 32.1384L9.47984 32.4217L9.48546 32.423L9.55185 32.1384ZM8.36301 31.746L8.24207 32.012L8.24716 32.0142L8.36301 31.746ZM8.13216 31.5613L7.88903 31.7234L7.89696 31.7353L7.90601 31.7463L8.13216 31.5613ZM8.16679 30.938L8.38236 31.1356L8.38986 31.1268L8.16679 30.938ZM8.73236 30.8341L8.61368 31.1012L8.61441 31.1015L8.73236 30.8341ZM9.69036 31.1573L9.61543 31.4398L9.61683 31.4401L9.69036 31.1573ZM12.0334 31.1919L12.106 31.475L12.1109 31.4737L12.0334 31.1919ZM12.7606 30.7764L12.9757 30.9743L12.9795 30.97L12.7606 30.7764ZM12.7606 29.3914L12.5688 29.6119L12.5745 29.6166L12.7606 29.3914ZM12.0565 29.0105L11.9619 29.2869V29.2869L12.0565 29.0105ZM11.087 28.7334L11.0176 29.0173L11.019 29.0176L11.087 28.7334ZM10.0482 28.4564L9.96135 28.7355L9.96707 28.7372L10.0482 28.4564ZM9.09017 28.0409L9.23657 27.788L9.23657 27.788L9.09017 28.0409ZM8.38609 27.3946L8.14187 27.555L8.14406 27.5583L8.38609 27.3946ZM8.45534 25.2015L8.20903 25.0443L8.20816 25.0457L8.45534 25.2015ZM9.47106 24.3359L9.5981 24.599V24.599L9.47106 24.3359ZM12.3682 24.1166L12.4199 23.829H12.4199L12.3682 24.1166ZM13.407 24.3936L13.3043 24.6672L13.3071 24.6682L13.407 24.3936ZM13.6263 24.5436L13.4079 24.7378L13.4136 24.7442L13.4196 24.7502L13.6263 24.5436ZM13.6032 25.19L13.3734 25.0095L13.3716 25.0118L13.6032 25.19ZM13.1761 25.3285L13.0454 25.5899L13.0741 25.6042L13.1052 25.612L13.1761 25.3285ZM13.0838 25.2939L12.9865 25.5694L12.9995 25.574L13.0129 25.5774L13.0838 25.2939ZM12.2181 25.0746L12.1608 25.3612L12.1689 25.3626L12.2181 25.0746ZM9.75961 25.317L9.61517 25.0629V25.0629L9.75961 25.317ZM9.43643 26.979L9.63841 26.7679V26.7679L9.43643 26.979ZM10.1405 27.383L10.0459 27.6595L10.0459 27.6595L10.1405 27.383ZM11.0985 27.66L11.0291 27.9439L11.0351 27.9453L11.0985 27.66ZM12.1373 27.9255L12.0562 28.2062V28.2062L12.1373 27.9255ZM13.0953 28.3295L12.9489 28.5824L12.954 28.5852L13.0953 28.3295ZM13.7994 28.9874L13.5531 29.1447L13.5552 29.1479L13.7994 28.9874ZM13.6955 31.215L13.4574 31.0457L13.4566 31.0467L13.6955 31.215ZM12.6683 32.0114L12.5526 31.7431L12.5509 31.7438L12.6683 32.0114ZM11.1101 32.3V32.0078C10.5507 32.0078 10.0541 31.9555 9.61825 31.8538L9.55185 32.1384L9.48546 32.423C9.97301 32.5367 10.5152 32.5922 11.1101 32.5922V32.3ZM9.55185 32.1384L9.62385 31.8552C9.18105 31.7426 8.80003 31.6164 8.47885 31.4777L8.36301 31.746L8.24716 32.0142C8.60313 32.1679 9.01467 32.3033 9.47985 32.4216L9.55185 32.1384ZM8.36301 31.746L8.48392 31.4799C8.44671 31.463 8.40415 31.4323 8.35832 31.3763L8.13216 31.5613L7.90601 31.7463C7.99868 31.8596 8.11002 31.9519 8.24209 32.012L8.36301 31.746ZM8.13216 31.5613L8.37529 31.3992C8.3421 31.3494 8.33203 31.3089 8.33203 31.2727H8.03982H7.74762C7.74762 31.4367 7.79911 31.5885 7.88903 31.7234L8.13216 31.5613ZM8.03982 31.2727H8.33203C8.33203 31.2115 8.3493 31.1713 8.38219 31.1355L8.16679 30.938L7.95139 30.7406C7.81499 30.8894 7.74762 31.0724 7.74762 31.2727H8.03982ZM8.16679 30.938L8.38986 31.1268C8.41214 31.1004 8.44162 31.0802 8.51306 31.0802V30.788V30.4958C8.29209 30.4958 8.09073 30.5755 7.94372 30.7493L8.16679 30.938ZM8.51306 30.788V31.0802C8.54976 31.0802 8.58237 31.0872 8.61368 31.1012L8.73236 30.8341L8.85103 30.5671C8.74383 30.5195 8.63024 30.4958 8.51306 30.4958V30.788ZM8.73236 30.8341L8.61441 31.1015C8.89393 31.2248 9.22858 31.3371 9.61543 31.4398L9.69036 31.1573L9.76529 30.8749C9.39805 30.7774 9.09403 30.6743 8.8503 30.5668L8.73236 30.8341ZM9.69036 31.1573L9.61683 31.4401C10.0305 31.5477 10.4945 31.5996 11.0062 31.5996V31.3074V31.0152C10.5329 31.0152 10.1197 30.967 9.76389 30.8745L9.69036 31.1573ZM11.0062 31.3074V31.5996C11.4098 31.5996 11.7773 31.5593 12.106 31.475L12.0334 31.1919L11.9609 30.9089C11.6894 30.9785 11.3721 31.0152 11.0062 31.0152V31.3074ZM12.0334 31.1919L12.1109 31.4737C12.4598 31.3777 12.7541 31.215 12.9756 30.9743L12.7606 30.7764L12.5455 30.5786C12.4131 30.7225 12.2226 30.8369 11.9559 30.9102L12.0334 31.1919ZM12.7606 30.7764L12.9795 30.97C13.2142 30.7046 13.3183 30.3645 13.3183 29.98H13.0261H12.7339C12.7339 30.2573 12.6609 30.4481 12.5417 30.5828L12.7606 30.7764ZM13.0261 29.98H13.3183C13.3183 29.6538 13.1963 29.3722 12.9467 29.1661L12.7606 29.3914L12.5745 29.6166C12.6789 29.7029 12.7339 29.8137 12.7339 29.98H13.0261ZM12.7606 29.3914L12.9523 29.1709C12.7394 28.9857 12.4684 28.8426 12.1511 28.734L12.0565 29.0105L11.9619 29.2869C12.2294 29.3784 12.4278 29.4892 12.5688 29.6119L12.7606 29.3914ZM12.0565 29.0105L12.1511 28.734C11.8486 28.6305 11.5164 28.5357 11.1549 28.4493L11.087 28.7334L11.019 29.0176C11.3655 29.1005 11.6796 29.1904 11.9619 29.2869L12.0565 29.0105ZM11.087 28.7334L11.1564 28.4496C10.8141 28.3659 10.4717 28.2746 10.1293 28.1757L10.0482 28.4564L9.96707 28.7372C10.3172 28.8383 10.6673 28.9317 11.0176 29.0173L11.087 28.7334ZM10.0482 28.4564L10.135 28.1774C9.80798 28.0757 9.50882 27.9457 9.23657 27.788L9.09017 28.0409L8.94376 28.2938C9.25631 28.4748 9.59583 28.6217 9.96136 28.7355L10.0482 28.4564ZM9.09017 28.0409L9.23657 27.788C8.97965 27.6393 8.77867 27.4534 8.62812 27.2308L8.38609 27.3946L8.14406 27.5583C8.34747 27.859 8.61588 28.104 8.94376 28.2938L9.09017 28.0409ZM8.38609 27.3946L8.63029 27.2341C8.492 27.0236 8.41283 26.7447 8.41283 26.3788H8.12062H7.82841C7.82841 26.8286 7.92622 27.2268 8.14189 27.555L8.38609 27.3946ZM8.12062 26.3788H8.41283C8.41283 26.0013 8.50971 25.6632 8.70253 25.3574L8.45534 25.2015L8.20816 25.0457C7.95468 25.4478 7.82841 25.8945 7.82841 26.3788H8.12062ZM8.45534 25.2015L8.70165 25.3588C8.89905 25.0495 9.1929 24.7946 9.5981 24.599L9.47106 24.3359L9.34402 24.0727C8.85662 24.308 8.47333 24.6303 8.20904 25.0443L8.45534 25.2015ZM9.47106 24.3359L9.5981 24.599C9.99463 24.4076 10.4948 24.3049 11.1101 24.3049V24.0127V23.7205C10.4326 23.7205 9.84009 23.8332 9.34402 24.0727L9.47106 24.3359ZM11.1101 24.0127V24.3049C11.5494 24.3049 11.9512 24.3384 12.3164 24.4042L12.3682 24.1166L12.4199 23.829C12.0156 23.7562 11.5787 23.7205 11.1101 23.7205V24.0127ZM12.3682 24.1166L12.3164 24.4042C12.6869 24.4709 13.0158 24.559 13.3044 24.6672L13.407 24.3936L13.5096 24.12C13.1825 23.9973 12.8188 23.9008 12.4199 23.829L12.3682 24.1166ZM13.407 24.3936L13.3071 24.6682C13.3448 24.6819 13.3776 24.7037 13.4079 24.7378L13.6263 24.5436L13.8447 24.3495C13.7518 24.2451 13.6384 24.1668 13.5068 24.119L13.407 24.3936ZM13.6263 24.5436L13.4196 24.7502C13.4197 24.7503 13.4198 24.7504 13.4199 24.7506C13.4201 24.7509 13.4206 24.7514 13.4211 24.7524C13.4223 24.7543 13.4245 24.7584 13.427 24.7659C13.4321 24.7813 13.4379 24.8095 13.4379 24.8553H13.7301H14.0223C14.0223 24.6717 13.9763 24.4804 13.8329 24.337L13.6263 24.5436ZM13.7301 24.8553H13.4379C13.4379 24.8936 13.4254 24.9432 13.3734 25.0095L13.6032 25.19L13.8329 25.3705C13.9502 25.2213 14.0223 25.0478 14.0223 24.8553H13.7301ZM13.6032 25.19L13.3716 25.0118C13.3591 25.028 13.3402 25.0478 13.2684 25.0478V25.34V25.6322C13.4891 25.6322 13.6933 25.5521 13.8348 25.3682L13.6032 25.19ZM13.2684 25.34V25.0478C13.2623 25.0478 13.2553 25.0471 13.247 25.045L13.1761 25.3285L13.1052 25.612C13.1585 25.6253 13.213 25.6322 13.2684 25.6322V25.34ZM13.1761 25.3285L13.3068 25.0671C13.2585 25.043 13.2078 25.0237 13.1546 25.0104L13.0838 25.2939L13.0129 25.5774C13.0213 25.5795 13.0321 25.5832 13.0454 25.5899L13.1761 25.3285ZM13.0838 25.2939L13.181 25.0183C12.9016 24.9197 12.5967 24.8428 12.2673 24.7865L12.2181 25.0746L12.1689 25.3626C12.4705 25.4141 12.7427 25.4834 12.9865 25.5694L13.0838 25.2939ZM12.2181 25.0746L12.2754 24.788C11.9465 24.7223 11.5963 24.69 11.2255 24.69V24.9822V25.2744C11.5626 25.2744 11.8741 25.3038 12.1608 25.3611L12.2181 25.0746ZM11.2255 24.9822V24.69C10.6046 24.69 10.0628 24.8084 9.61517 25.0629L9.75961 25.317L9.90405 25.571C10.2413 25.3792 10.6767 25.2744 11.2255 25.2744V24.9822ZM9.75961 25.317L9.61517 25.0629C9.13676 25.335 8.87875 25.756 8.87875 26.298H9.17096H9.46317C9.46317 25.9782 9.5976 25.7452 9.90405 25.571L9.75961 25.317ZM9.17096 26.298H8.87875C8.87875 26.6484 8.99038 26.9567 9.23445 27.1902L9.43643 26.979L9.63841 26.7679C9.52852 26.6628 9.46317 26.5171 9.46317 26.298H9.17096ZM9.43643 26.979L9.23445 27.1902C9.44899 27.3954 9.72359 27.5492 10.0459 27.6595L10.1405 27.383L10.2351 27.1065C9.97262 27.0167 9.77783 26.9012 9.63841 26.7679L9.43643 26.979ZM10.1405 27.383L10.0459 27.6595C10.3478 27.7627 10.6756 27.8575 11.0291 27.9439L11.0985 27.66L11.1679 27.3762C10.8289 27.2933 10.5181 27.2033 10.2351 27.1065L10.1405 27.383ZM11.0985 27.66L11.0351 27.9453C11.3753 28.0209 11.7157 28.1079 12.0562 28.2062L12.1373 27.9255L12.2184 27.6448C11.8664 27.5431 11.5142 27.4531 11.1619 27.3748L11.0985 27.66ZM12.1373 27.9255L12.0562 28.2062C12.3812 28.3001 12.6784 28.4257 12.9489 28.5824L13.0953 28.3295L13.2417 28.0766C12.9274 27.8946 12.586 27.751 12.2184 27.6448L12.1373 27.9255ZM13.0953 28.3295L12.954 28.5852C13.2045 28.7237 13.4028 28.9094 13.5531 29.1447L13.7994 28.9874L14.0456 28.8301C13.842 28.5113 13.571 28.2585 13.2366 28.0737L13.0953 28.3295ZM13.7994 28.9874L13.5552 29.1479C13.6914 29.3552 13.7726 29.6477 13.7726 30.0493H14.0649H14.3571C14.3571 29.5736 14.2613 29.1582 14.0436 28.8269L13.7994 28.9874ZM14.0649 30.0493H13.7726C13.7726 30.4204 13.6679 30.7496 13.4574 31.0457L13.6955 31.215L13.9336 31.3844C14.2156 30.9879 14.3571 30.5399 14.3571 30.0493H14.0649ZM13.6955 31.215L13.4566 31.0467C13.2542 31.3341 12.9581 31.5683 12.5526 31.7431L12.6683 32.0114L12.7839 32.2798C13.271 32.0698 13.6597 31.7731 13.9344 31.3833L13.6955 31.215ZM12.6683 32.0114L12.5509 31.7438C12.1574 31.9164 11.6797 32.0078 11.1101 32.0078V32.3V32.5922C11.7407 32.5922 12.3019 32.4912 12.7856 32.279L12.6683 32.0114ZM18.4665 31.7113L18.1962 31.8228L18.2007 31.8327L18.4665 31.7113ZM15.6156 24.7976L15.3418 24.9002L15.3454 24.909L15.6156 24.7976ZM15.7195 24.2204L15.5047 24.0222V24.0222L15.7195 24.2204ZM16.5967 24.4282L16.8679 24.3194L16.8661 24.3152L16.5967 24.4282ZM19.3091 31.1919L19.0379 31.3007L19.3091 31.977L19.5803 31.3007L19.3091 31.1919ZM22.0215 24.4282L21.752 24.3152L21.7503 24.3194L22.0215 24.4282ZM22.8987 24.2204L23.1134 24.0222L23.1134 24.0222L22.8987 24.2204ZM23.0026 24.7976L23.2729 24.909L23.2762 24.9002L23.0026 24.7976ZM20.1517 31.7113L20.4177 31.8328L20.4218 31.8227L20.1517 31.7113ZM19.1821 32.2423V31.9501C19.0829 31.9501 19.0064 31.9236 18.9407 31.8749C18.8715 31.8235 18.7988 31.7355 18.7323 31.59L18.4665 31.7113L18.2007 31.8327C18.2958 32.0411 18.4231 32.2186 18.5925 32.3442C18.7653 32.4725 18.9658 32.5345 19.1821 32.5345V32.2423ZM18.4665 31.7113L18.7366 31.5999L15.8857 24.6862L15.6156 24.7976L15.3454 24.909L18.1964 31.8227L18.4665 31.7113ZM15.6156 24.7976L15.8892 24.695C15.879 24.6679 15.8732 24.6374 15.8732 24.6013H15.5809H15.2887C15.2887 24.7037 15.3059 24.8041 15.342 24.9002L15.6156 24.7976ZM15.5809 24.6013H15.8732C15.8732 24.5106 15.8982 24.4576 15.9342 24.4186L15.7195 24.2204L15.5047 24.0222C15.356 24.1834 15.2887 24.3843 15.2887 24.6013H15.5809ZM15.7195 24.2204L15.9342 24.4186C15.9609 24.3897 16.0037 24.3626 16.1003 24.3626V24.0704V23.7782C15.8738 23.7782 15.6627 23.8511 15.5047 24.0222L15.7195 24.2204ZM16.1003 24.0704V24.3626C16.1629 24.3626 16.2001 24.3778 16.2267 24.3969C16.2554 24.4176 16.2925 24.4584 16.3272 24.5412L16.5967 24.4282L16.8661 24.3152C16.8008 24.1595 16.7051 24.0213 16.5684 23.9228C16.4295 23.8227 16.2687 23.7782 16.1003 23.7782V24.0704ZM16.5967 24.4282L16.3254 24.537L19.0379 31.3007L19.3091 31.1919L19.5803 31.0832L16.8679 24.3194L16.5967 24.4282ZM19.3091 31.1919L19.5803 31.3007L22.2927 24.537L22.0215 24.4282L21.7503 24.3194L19.0379 31.0832L19.3091 31.1919ZM22.0215 24.4282L22.291 24.5412C22.3257 24.4584 22.3627 24.4176 22.3915 24.3969C22.418 24.3778 22.4553 24.3626 22.5178 24.3626V24.0704V23.7782C22.3495 23.7782 22.1886 23.8227 22.0497 23.9228C21.9131 24.0213 21.8173 24.1595 21.752 24.3152L22.0215 24.4282ZM22.5178 24.0704V24.3626C22.6144 24.3626 22.6573 24.3897 22.684 24.4186L22.8987 24.2204L23.1134 24.0222C22.9554 23.8511 22.7444 23.7782 22.5178 23.7782V24.0704ZM22.8987 24.2204L22.684 24.4186C22.7199 24.4576 22.745 24.5106 22.745 24.6013H23.0372H23.3294C23.3294 24.3843 23.2622 24.1834 23.1134 24.0222L22.8987 24.2204ZM23.0372 24.6013H22.745C22.745 24.6374 22.7391 24.6679 22.729 24.695L23.0026 24.7976L23.2762 24.9002C23.3122 24.8041 23.3294 24.7037 23.3294 24.6013H23.0372ZM23.0026 24.7976L22.7324 24.6862L19.8815 31.5999L20.1517 31.7113L20.4218 31.8227L23.2727 24.909L23.0026 24.7976ZM20.1517 31.7113L19.8858 31.59C19.8194 31.7355 19.7467 31.8235 19.6775 31.8749C19.6118 31.9236 19.5352 31.9501 19.436 31.9501V32.2423V32.5345C19.6523 32.5345 19.8528 32.4725 20.0257 32.3442C20.195 32.2186 20.3223 32.0411 20.4175 31.8327L20.1517 31.7113ZM19.436 32.2423V31.9501H19.1821V32.2423V32.5345H19.436V32.2423ZM26.5419 31.7691L26.6889 31.5165V31.5165L26.5419 31.7691ZM25.1222 30.3147L24.8654 30.4542L24.8662 30.4556L25.1222 30.3147ZM24.926 26.4712L25.1964 26.5818L25.197 26.5804L24.926 26.4712ZM25.7801 25.1554L25.5735 24.9487V24.9487L25.7801 25.1554ZM27.0613 24.3128L27.1691 24.5844L27.1728 24.5829L27.0613 24.3128ZM30.2816 24.2551L30.1821 24.5298L30.1836 24.5304L30.2816 24.2551ZM31.505 24.8437L31.3478 25.09L31.3539 25.0939L31.3601 25.0974L31.505 24.8437ZM31.6551 24.9938L31.412 25.1559L31.4179 25.1647L31.4244 25.1732L31.6551 24.9938ZM31.6089 25.594L31.8245 25.7916L31.832 25.7827L31.6089 25.594ZM31.0087 25.6748L30.8601 25.9263L30.8689 25.9315L30.878 25.9361L31.0087 25.6748ZM27.1767 25.3978L27.3108 25.6574L27.3125 25.6565L27.1767 25.3978ZM26.0687 26.4596L25.817 26.3111L25.8163 26.3124L26.0687 26.4596ZM26.034 29.7722L25.7744 29.9063L25.7753 29.908L26.034 29.7722ZM27.1075 30.8918L27.256 30.6402V30.6402L27.1075 30.8918ZM29.9238 31.1689L30.0007 31.4508L30.0066 31.4491L29.9238 31.1689ZM30.8241 30.7995L30.9666 31.0546L31.1163 30.971V30.7995H30.8241ZM30.8241 28.7104H31.1163V28.4182H30.8241V28.7104ZM31.6205 31.3766L31.3751 31.2179L31.3727 31.2217L31.6205 31.3766ZM31.3088 31.6536L31.1843 31.3891L31.176 31.3933L31.3088 31.6536ZM30.0738 32.1269L30.1482 32.4095L30.1515 32.4085L30.0738 32.1269ZM28.6657 32.3V32.0078C27.9016 32.0078 27.2459 31.8408 26.6889 31.5165L26.5419 31.7691L26.3949 32.0216C27.0537 32.4052 27.8138 32.5922 28.6657 32.5922V32.3ZM26.5419 31.7691L26.6889 31.5165C26.1268 31.1892 25.6912 30.743 25.3782 30.1739L25.1222 30.3147L24.8662 30.4556C25.2303 31.1176 25.7412 31.641 26.3949 32.0216L26.5419 31.7691ZM25.1222 30.3147L25.379 30.1753C25.0667 29.6004 24.9066 28.934 24.9066 28.1679H24.6143H24.3221C24.3221 29.0177 24.5005 29.7825 24.8654 30.4542L25.1222 30.3147ZM24.6143 28.1679H24.9066C24.9066 27.5774 25.0049 27.0501 25.1964 26.5818L24.926 26.4712L24.6555 26.3605C24.4316 26.908 24.3221 27.5118 24.3221 28.1679H24.6143ZM24.926 26.4712L25.197 26.5804C25.3914 26.0981 25.6552 25.6935 25.9867 25.362L25.7801 25.1554L25.5735 24.9487C25.1817 25.3405 24.8761 25.8131 24.655 26.362L24.926 26.4712ZM25.7801 25.1554L25.9867 25.362C26.328 25.0208 26.7214 24.762 27.1691 24.5844L27.0613 24.3128L26.9535 24.0412C26.4317 24.2483 25.971 24.5513 25.5735 24.9487L25.7801 25.1554ZM27.0613 24.3128L27.1728 24.5829C27.6197 24.3984 28.1048 24.3049 28.631 24.3049V24.0127V23.7205C28.0338 23.7205 27.4724 23.827 26.9498 24.0427L27.0613 24.3128ZM28.631 24.0127V24.3049C29.2631 24.3049 29.7772 24.3832 30.1821 24.5298L30.2816 24.2551L30.3811 23.9803C29.8933 23.8037 29.3071 23.7205 28.631 23.7205V24.0127ZM30.2816 24.2551L30.1836 24.5304C30.6193 24.6855 31.0069 24.8724 31.3478 25.09L31.505 24.8437L31.6623 24.5974C31.2799 24.3534 30.8518 24.1479 30.3796 23.9798L30.2816 24.2551ZM31.505 24.8437L31.3601 25.0974C31.3635 25.0994 31.3828 25.1121 31.412 25.1559L31.6551 24.9938L31.8982 24.8317C31.8351 24.737 31.7544 24.6496 31.65 24.59L31.505 24.8437ZM31.6551 24.9938L31.4244 25.1732C31.43 25.1803 31.4437 25.2013 31.4437 25.2592H31.7359H32.0281C32.0281 25.1017 31.9879 24.9457 31.8857 24.8144L31.6551 24.9938ZM31.7359 25.2592H31.4437C31.4437 25.3086 31.429 25.3543 31.3859 25.4052L31.6089 25.594L31.832 25.7827C31.9582 25.6336 32.0281 25.4561 32.0281 25.2592H31.7359ZM31.6089 25.594L31.3935 25.3965C31.3765 25.4151 31.3433 25.4403 31.2511 25.4403V25.7325V26.0247C31.4668 26.0247 31.672 25.9576 31.8243 25.7914L31.6089 25.594ZM31.2511 25.7325V25.4403C31.2126 25.4403 31.1765 25.4319 31.1394 25.4134L31.0087 25.6748L30.878 25.9361C30.9949 25.9945 31.1203 26.0247 31.2511 26.0247V25.7325ZM31.0087 25.6748L31.1574 25.4232C30.8006 25.2124 30.4305 25.0455 30.0472 24.9232L29.9584 25.2015L29.8695 25.4799C30.2096 25.5884 30.5397 25.737 30.8601 25.9263L31.0087 25.6748ZM29.9584 25.2015L30.0472 24.9232C29.6523 24.7971 29.2178 24.7362 28.7465 24.7362V25.0284V25.3206C29.1678 25.3206 29.5411 25.3751 29.8695 25.4799L29.9584 25.2015ZM28.7465 25.0284V24.7362C28.1264 24.7362 27.5559 24.8689 27.041 25.139L27.1767 25.3978L27.3125 25.6565C27.7363 25.4342 28.2123 25.3206 28.7465 25.3206V25.0284ZM27.1767 25.3978L27.0426 25.1381C26.5296 25.4032 26.1205 25.7968 25.817 26.3111L26.0687 26.4596L26.3203 26.6082C26.5708 26.1837 26.9004 25.8694 27.3108 25.6574L27.1767 25.3978ZM26.0687 26.4596L25.8163 26.3124C25.5148 26.8292 25.3725 27.4526 25.3725 28.1679H25.6647H25.9569C25.9569 27.5289 26.0839 27.0134 26.3211 26.6069L26.0687 26.4596ZM25.6647 28.1679H25.3725C25.3725 28.8021 25.5046 29.3836 25.7744 29.9063L26.034 29.7722L26.2937 29.6382C26.071 29.2067 25.9569 28.7187 25.9569 28.1679H25.6647ZM26.034 29.7722L25.7753 29.908C26.0475 30.4269 26.4441 30.8397 26.9589 31.1435L27.1075 30.8918L27.256 30.6402C26.832 30.39 26.513 30.0563 26.2928 29.6365L26.034 29.7722ZM27.1075 30.8918L26.9589 31.1435C27.4821 31.4522 28.1014 31.5996 28.8042 31.5996V31.3074V31.0152C28.1835 31.0152 27.6716 30.8855 27.256 30.6402L27.1075 30.8918ZM28.8042 31.3074V31.5996C29.2339 31.5996 29.6334 31.5509 30.0006 31.4508L29.9238 31.1689L29.8469 30.8869C29.537 30.9714 29.1901 31.0152 28.8042 31.0152V31.3074ZM29.9238 31.1689L30.0066 31.4491C30.3623 31.344 30.6831 31.213 30.9666 31.0546L30.8241 30.7995L30.6815 30.5444C30.4418 30.6784 30.1623 30.7937 29.841 30.8886L29.9238 31.1689ZM30.8241 30.7995H31.1163V28.7104H30.8241H30.5318V30.7995H30.8241ZM30.8241 28.7104V28.4182H28.9196V28.7104V29.0026H30.8241V28.7104ZM28.9196 28.7104V28.4182C28.8661 28.4182 28.8289 28.4027 28.7915 28.3652L28.5849 28.5719L28.3782 28.7785C28.5255 28.9257 28.7114 29.0026 28.9196 29.0026V28.7104ZM28.5849 28.5719L28.7915 28.3652C28.7541 28.3278 28.7386 28.2906 28.7386 28.2371H28.4464H28.1542C28.1542 28.4453 28.231 28.6312 28.3782 28.7785L28.5849 28.5719ZM28.4464 28.2371H28.7386C28.7386 28.1837 28.7541 28.1465 28.7915 28.109L28.5849 27.9024L28.3782 27.6958C28.231 27.843 28.1542 28.029 28.1542 28.2371H28.4464ZM28.5849 27.9024L28.7915 28.109C28.8289 28.0716 28.8661 28.0561 28.9196 28.0561V27.7639V27.4717C28.7114 27.4717 28.5255 27.5485 28.3782 27.6958L28.5849 27.9024ZM28.9196 27.7639V28.0561H31.1934V27.7639V27.4717H28.9196V27.7639ZM31.1934 27.7639V28.0561C31.2707 28.0561 31.3269 28.0798 31.3792 28.1321L31.5858 27.9255L31.7925 27.7189C31.6293 27.5557 31.4239 27.4717 31.1934 27.4717V27.7639ZM31.5858 27.9255L31.3792 28.1321C31.4315 28.1844 31.4552 28.2406 31.4552 28.3179H31.7474H32.0396C32.0396 28.0874 31.9556 27.882 31.7925 27.7189L31.5858 27.9255ZM31.7474 28.3179H31.4552V30.938H31.7474H32.0396V28.3179H31.7474ZM31.7474 30.938H31.4552C31.4552 31.0455 31.428 31.1362 31.3751 31.2179L31.6205 31.3766L31.8658 31.5354C31.9822 31.3554 32.0396 31.1537 32.0396 30.938H31.7474ZM31.6205 31.3766L31.3727 31.2217C31.3253 31.2975 31.2642 31.3517 31.1844 31.3892L31.3088 31.6536L31.4332 31.918C31.6151 31.8325 31.7617 31.702 31.8683 31.5315L31.6205 31.3766ZM31.3088 31.6536L31.176 31.3933C30.8181 31.5759 30.4251 31.7268 29.9961 31.8452L30.0738 32.1269L30.1515 32.4085C30.6151 32.2807 31.0454 32.1161 31.4416 31.9139L31.3088 31.6536ZM30.0738 32.1269L29.9994 31.8443C29.5875 31.9527 29.1433 32.0078 28.6657 32.0078V32.3V32.5922C29.1884 32.5922 29.683 32.5319 30.1482 32.4094L30.0738 32.1269Z" fill="white" mask="url(#path-4-outside-1_383_20919)"/>
<g filter="url(#filter1_d_383_20919)">
<path d="M39.74 14.9026H28.0517C26.2765 14.9026 24.8374 13.4635 24.8374 11.6883V0L39.74 14.9026Z" fill="url(#paint2_linear_383_20919)"/>
</g>
</g>
<defs>
<filter id="filter0_f_383_20919" x="1.31513" y="16.0715" width="37.4025" height="23.6686" filterUnits="userSpaceOnUse" color-interpolation-filters="sRGB">
<feFlood flood-opacity="0" result="BackgroundImageFix"/>
<feBlend mode="normal" in="SourceGraphic" in2="BackgroundImageFix" result="shape"/>
<feGaussianBlur stdDeviation="2.84903" result="effect1_foregroundBlur_383_20919"/>
</filter>
<filter id="filter1_d_383_20919" x="21.477" y="-3.50649" width="22.208" height="22.2075" filterUnits="userSpaceOnUse" color-interpolation-filters="sRGB">
<feFlood flood-opacity="0" result="BackgroundImageFix"/>
<feColorMatrix in="SourceAlpha" type="matrix" values="0 0 0 0 0 0 0 0 0 0 0 0 0 0 0 0 0 0 127 0" result="hardAlpha"/>
<feOffset dx="0.292208" dy="0.146104"/>
<feGaussianBlur stdDeviation="1.8263"/>
<feColorMatrix type="matrix" values="0 0 0 0 0 0 0 0 0 0 0 0 0 0 0 0 0 0 0.33 0"/>
<feBlend mode="normal" in2="BackgroundImageFix" result="effect1_dropShadow_383_20919"/>
<feBlend mode="normal" in="SourceGraphic" in2="effect1_dropShadow_383_20919" result="shape"/>
</filter>
<linearGradient id="paint0_linear_383_20919" x1="19.8701" y1="0" x2="19.8701" y2="45" gradientUnits="userSpaceOnUse">
<stop stop-color="#FF7979"/>
<stop offset="1" stop-color="#E85555"/>
</linearGradient>
<linearGradient id="paint1_linear_383_20919" x1="19.8701" y1="0" x2="19.8701" y2="45" gradientUnits="userSpaceOnUse">
<stop stop-color="#FF6AC3"/>
<stop offset="1" stop-color="#DD3C9C"/>
</linearGradient>
<linearGradient id="paint2_linear_383_20919" x1="32.2887" y1="0" x2="32.2887" y2="14.9026" gradientUnits="userSpaceOnUse">
<stop stop-color="#F430A6"/>
<stop offset="1" stop-color="#BF0B77"/>
</linearGradient>
</defs>
</svg>
