<svg width="40" height="45" viewBox="0 0 40 45" fill="none" xmlns="http://www.w3.org/2000/svg">
<mask id="mask0_383_20899" style="mask-type:alpha" maskUnits="userSpaceOnUse" x="0" y="0" width="40" height="45">
<path d="M36.526 45H3.21429C1.43909 45 0 43.5609 0 41.7857V3.21429C0 1.43909 1.43909 0 3.21429 0H24.8377L39.7403 14.9026V41.7857C39.7403 43.5609 38.3012 45 36.526 45Z" fill="url(#paint0_linear_383_20899)"/>
</mask>
<g mask="url(#mask0_383_20899)">
<path d="M36.526 45H3.21429C1.43909 45 0 43.5609 0 41.7857V3.21429C0 1.43909 1.43909 0 3.21429 0H24.8377L39.7403 14.9026V41.7857C39.7403 43.5609 38.3012 45 36.526 45Z" fill="url(#paint1_linear_383_20899)"/>
<g filter="url(#filter0_f_383_20899)">
<rect x="6.8667" y="21.7695" width="26.0065" height="12.2727" fill="#3F3F46" fill-opacity="0.07" style="mix-blend-mode:darken"/>
</g>
<mask id="path-4-outside-1_383_20899" maskUnits="userSpaceOnUse" x="6.45117" y="23.1846" width="26" height="10" fill="black">
<rect fill="white" x="6.45117" y="23.1846" width="26" height="10"/>
<path d="M10.96 32.2423C10.8138 32.2423 10.6907 32.1923 10.5907 32.0922C10.4906 31.9922 10.4406 31.8691 10.4406 31.7229V25.1092H8.08599C7.94749 25.1092 7.83206 25.063 7.73973 24.9707C7.64739 24.8784 7.60122 24.7629 7.60122 24.6244C7.60122 24.4859 7.64739 24.3705 7.73973 24.2782C7.83206 24.1781 7.94749 24.1281 8.08599 24.1281H13.834C13.9725 24.1281 14.0879 24.1781 14.1803 24.2782C14.2803 24.3705 14.3303 24.4859 14.3303 24.6244C14.3303 24.7629 14.2803 24.8784 14.1803 24.9707C14.0879 25.063 13.9725 25.1092 13.834 25.1092H11.4909V31.7229C11.4909 31.8691 11.4371 31.9922 11.3294 32.0922C11.2293 32.1923 11.1062 32.2423 10.96 32.2423ZM16.6911 32.2423C16.5603 32.2423 16.4448 32.1961 16.3448 32.1038C16.2525 32.0037 16.2063 31.8883 16.2063 31.7575C16.2063 31.6344 16.2409 31.5267 16.3102 31.4343L18.9764 28.1563L16.3333 24.9014C16.264 24.8091 16.2294 24.7014 16.2294 24.5783C16.2294 24.4321 16.2756 24.3128 16.3679 24.2204C16.4679 24.1204 16.591 24.0704 16.7372 24.0704C16.9219 24.0704 17.0643 24.1397 17.1643 24.2782L19.5997 27.3715L22.0351 24.2551C22.1198 24.132 22.2467 24.0704 22.416 24.0704C22.5545 24.0704 22.6738 24.1204 22.7738 24.2204C22.8738 24.3128 22.9239 24.4282 22.9239 24.5667C22.9239 24.6744 22.8931 24.7706 22.8315 24.8553L20.1653 28.1448L22.8315 31.4228C22.9008 31.4997 22.9354 31.5998 22.9354 31.7229C22.9354 31.8614 22.8892 31.9845 22.7969 32.0922C22.7046 32.1923 22.5776 32.2423 22.416 32.2423C22.2467 32.2423 22.1082 32.1692 22.0005 32.023L19.5305 28.9181L17.095 32.0345C16.9796 32.173 16.845 32.2423 16.6911 32.2423ZM28.1308 32.2423C27.9846 32.2423 27.8615 32.1923 27.7615 32.0922C27.6615 31.9922 27.6114 31.8691 27.6114 31.7229V25.1092H25.2568C25.1183 25.1092 25.0029 25.063 24.9106 24.9707C24.8182 24.8784 24.7721 24.7629 24.7721 24.6244C24.7721 24.4859 24.8182 24.3705 24.9106 24.2782C25.0029 24.1781 25.1183 24.1281 25.2568 24.1281H31.0049C31.1434 24.1281 31.2588 24.1781 31.3511 24.2782C31.4512 24.3705 31.5012 24.4859 31.5012 24.6244C31.5012 24.7629 31.4512 24.8784 31.3511 24.9707C31.2588 25.063 31.1434 25.1092 31.0049 25.1092H28.6618V31.7229C28.6618 31.8691 28.6079 31.9922 28.5002 32.0922C28.4002 32.1923 28.277 32.2423 28.1308 32.2423Z"/>
</mask>
<path d="M10.96 32.2423C10.8138 32.2423 10.6907 32.1923 10.5907 32.0922C10.4906 31.9922 10.4406 31.8691 10.4406 31.7229V25.1092H8.08599C7.94749 25.1092 7.83206 25.063 7.73973 24.9707C7.64739 24.8784 7.60122 24.7629 7.60122 24.6244C7.60122 24.4859 7.64739 24.3705 7.73973 24.2782C7.83206 24.1781 7.94749 24.1281 8.08599 24.1281H13.834C13.9725 24.1281 14.0879 24.1781 14.1803 24.2782C14.2803 24.3705 14.3303 24.4859 14.3303 24.6244C14.3303 24.7629 14.2803 24.8784 14.1803 24.9707C14.0879 25.063 13.9725 25.1092 13.834 25.1092H11.4909V31.7229C11.4909 31.8691 11.4371 31.9922 11.3294 32.0922C11.2293 32.1923 11.1062 32.2423 10.96 32.2423ZM16.6911 32.2423C16.5603 32.2423 16.4448 32.1961 16.3448 32.1038C16.2525 32.0037 16.2063 31.8883 16.2063 31.7575C16.2063 31.6344 16.2409 31.5267 16.3102 31.4343L18.9764 28.1563L16.3333 24.9014C16.264 24.8091 16.2294 24.7014 16.2294 24.5783C16.2294 24.4321 16.2756 24.3128 16.3679 24.2204C16.4679 24.1204 16.591 24.0704 16.7372 24.0704C16.9219 24.0704 17.0643 24.1397 17.1643 24.2782L19.5997 27.3715L22.0351 24.2551C22.1198 24.132 22.2467 24.0704 22.416 24.0704C22.5545 24.0704 22.6738 24.1204 22.7738 24.2204C22.8738 24.3128 22.9239 24.4282 22.9239 24.5667C22.9239 24.6744 22.8931 24.7706 22.8315 24.8553L20.1653 28.1448L22.8315 31.4228C22.9008 31.4997 22.9354 31.5998 22.9354 31.7229C22.9354 31.8614 22.8892 31.9845 22.7969 32.0922C22.7046 32.1923 22.5776 32.2423 22.416 32.2423C22.2467 32.2423 22.1082 32.1692 22.0005 32.023L19.5305 28.9181L17.095 32.0345C16.9796 32.173 16.845 32.2423 16.6911 32.2423ZM28.1308 32.2423C27.9846 32.2423 27.8615 32.1923 27.7615 32.0922C27.6615 31.9922 27.6114 31.8691 27.6114 31.7229V25.1092H25.2568C25.1183 25.1092 25.0029 25.063 24.9106 24.9707C24.8182 24.8784 24.7721 24.7629 24.7721 24.6244C24.7721 24.4859 24.8182 24.3705 24.9106 24.2782C25.0029 24.1781 25.1183 24.1281 25.2568 24.1281H31.0049C31.1434 24.1281 31.2588 24.1781 31.3511 24.2782C31.4512 24.3705 31.5012 24.4859 31.5012 24.6244C31.5012 24.7629 31.4512 24.8784 31.3511 24.9707C31.2588 25.063 31.1434 25.1092 31.0049 25.1092H28.6618V31.7229C28.6618 31.8691 28.6079 31.9922 28.5002 32.0922C28.4002 32.1923 28.277 32.2423 28.1308 32.2423Z" fill="white"/>
<path d="M10.5907 32.0922L10.384 32.2989L10.5907 32.0922ZM10.4406 25.1092H10.7328V24.817H10.4406V25.1092ZM7.73973 24.9707L7.5331 25.1773L7.53311 25.1773L7.73973 24.9707ZM7.73973 24.2782L7.94651 24.4849L7.95444 24.4764L7.73973 24.2782ZM14.1803 24.2782L13.9656 24.4764L13.9735 24.4849L13.9821 24.4929L14.1803 24.2782ZM14.1803 24.9707L13.9819 24.7558L13.9737 24.7641L14.1803 24.9707ZM11.4909 25.1092V24.817H11.1987V25.1092H11.4909ZM11.3294 32.0922L11.1304 31.878L11.1227 31.8856L11.3294 32.0922ZM10.96 32.2423V31.9501C10.8884 31.9501 10.8405 31.9288 10.7973 31.8856L10.5907 32.0922L10.384 32.2989C10.5409 32.4557 10.7392 32.5345 10.96 32.5345V32.2423ZM10.5907 32.0922L10.7973 31.8856C10.7541 31.8424 10.7328 31.7945 10.7328 31.7229H10.4406H10.1484C10.1484 31.9437 10.2272 32.142 10.384 32.2989L10.5907 32.0922ZM10.4406 31.7229H10.7328V25.1092H10.4406H10.1484V31.7229H10.4406ZM10.4406 25.1092V24.817H8.08599V25.1092V25.4014H10.4406V25.1092ZM8.08599 25.1092V24.817C8.01977 24.817 7.9803 24.798 7.94635 24.7641L7.73973 24.9707L7.53311 25.1773C7.68382 25.328 7.87521 25.4014 8.08599 25.4014V25.1092ZM7.73973 24.9707L7.94635 24.7641C7.91239 24.7301 7.89343 24.6906 7.89343 24.6244H7.60122H7.30901C7.30901 24.8352 7.38239 25.0266 7.5331 25.1773L7.73973 24.9707ZM7.60122 24.6244H7.89343C7.89343 24.5582 7.91239 24.5187 7.94635 24.4848L7.73973 24.2782L7.5331 24.0715C7.38239 24.2223 7.30901 24.4136 7.30901 24.6244H7.60122ZM7.73973 24.2782L7.95444 24.4764C7.99038 24.4374 8.02743 24.4203 8.08599 24.4203V24.1281V23.8359C7.86755 23.8359 7.67375 23.9188 7.52501 24.08L7.73973 24.2782ZM8.08599 24.1281V24.4203H13.834V24.1281V23.8359H8.08599V24.1281ZM13.834 24.1281V24.4203C13.8926 24.4203 13.9296 24.4374 13.9656 24.4764L14.1803 24.2782L14.395 24.08C14.2463 23.9188 14.0525 23.8359 13.834 23.8359V24.1281ZM14.1803 24.2782L13.9821 24.4929C14.021 24.5288 14.0381 24.5659 14.0381 24.6244H14.3303H14.6225C14.6225 24.406 14.5396 24.2122 14.3785 24.0634L14.1803 24.2782ZM14.3303 24.6244H14.0381C14.0381 24.683 14.021 24.72 13.9821 24.756L14.1803 24.9707L14.3785 25.1854C14.5396 25.0367 14.6225 24.8429 14.6225 24.6244H14.3303ZM14.1803 24.9707L13.9737 24.7641C13.9397 24.798 13.9002 24.817 13.834 24.817V25.1092V25.4014C14.0448 25.4014 14.2362 25.328 14.3869 25.1773L14.1803 24.9707ZM13.834 25.1092V24.817H11.4909V25.1092V25.4014H13.834V25.1092ZM11.4909 25.1092H11.1987V31.7229H11.4909H11.7832V25.1092H11.4909ZM11.4909 31.7229H11.1987C11.1987 31.7873 11.1791 31.833 11.1305 31.8781L11.3294 32.0922L11.5282 32.3064C11.6951 32.1514 11.7832 31.9508 11.7832 31.7229H11.4909ZM11.3294 32.0922L11.1227 31.8856C11.0795 31.9288 11.0316 31.9501 10.96 31.9501V32.2423V32.5345C11.1808 32.5345 11.3791 32.4557 11.536 32.2989L11.3294 32.0922ZM16.3448 32.1038L16.1301 32.302L16.138 32.3106L16.1466 32.3185L16.3448 32.1038ZM16.3102 31.4343L16.0833 31.2498L16.0764 31.259L16.3102 31.4343ZM18.9764 28.1563L19.2031 28.3407L19.353 28.1565L19.2033 27.9721L18.9764 28.1563ZM16.3333 24.9014L16.0993 25.0769L16.1064 25.0856L16.3333 24.9014ZM16.3679 24.2204L16.1613 24.0138L16.1613 24.0138L16.3679 24.2204ZM17.1643 24.2782L16.9272 24.4494L16.9347 24.4589L17.1643 24.2782ZM19.5997 27.3715L19.3701 27.5522L19.6006 27.8449L19.8299 27.5514L19.5997 27.3715ZM22.0351 24.2551L22.2654 24.435L22.2708 24.428L22.2759 24.4206L22.0351 24.2551ZM22.7738 24.2204L22.567 24.4272L22.5756 24.4352L22.7738 24.2204ZM22.8315 24.8553L23.0585 25.0393L23.0633 25.0333L23.0678 25.0271L22.8315 24.8553ZM20.1653 28.1448L19.9383 27.9608L19.7889 28.1451L19.9386 28.3292L20.1653 28.1448ZM22.8315 31.4228L22.6048 31.6072L22.6094 31.6128L22.6143 31.6183L22.8315 31.4228ZM22.7969 32.0922L23.0118 32.2906L23.0188 32.2824L22.7969 32.0922ZM22.0005 32.023L22.2359 31.8495L22.2292 31.8411L22.0005 32.023ZM19.5305 28.9181L19.7591 28.7362L19.5284 28.4462L19.3002 28.7382L19.5305 28.9181ZM17.095 32.0345L17.3196 32.2217L17.3253 32.2145L17.095 32.0345ZM16.6911 32.2423V31.9501C16.6369 31.9501 16.5915 31.9338 16.543 31.8891L16.3448 32.1038L16.1466 32.3185C16.2982 32.4584 16.4836 32.5345 16.6911 32.5345V32.2423ZM16.3448 32.1038L16.5595 31.9056C16.5148 31.8571 16.4985 31.8116 16.4985 31.7575H16.2063H15.9141C15.9141 31.965 15.9902 32.1504 16.1301 32.302L16.3448 32.1038ZM16.2063 31.7575H16.4985C16.4985 31.6931 16.5152 31.6479 16.5439 31.6097L16.3102 31.4343L16.0764 31.259C15.9666 31.4054 15.9141 31.5757 15.9141 31.7575H16.2063ZM16.3102 31.4343L16.5369 31.6187L19.2031 28.3407L18.9764 28.1563L18.7497 27.972L16.0835 31.2499L16.3102 31.4343ZM18.9764 28.1563L19.2033 27.9721L16.5601 24.7172L16.3333 24.9014L16.1064 25.0856L18.7496 28.3405L18.9764 28.1563ZM16.3333 24.9014L16.567 24.7261C16.5383 24.6878 16.5216 24.6426 16.5216 24.5783H16.2294H15.9372C15.9372 24.7601 15.9897 24.9304 16.0995 25.0768L16.3333 24.9014ZM16.2294 24.5783H16.5216C16.5216 24.4994 16.5437 24.4578 16.5745 24.4271L16.3679 24.2204L16.1613 24.0138C16.0074 24.1677 15.9372 24.3647 15.9372 24.5783H16.2294ZM16.3679 24.2204L16.5745 24.4271C16.6177 24.3839 16.6656 24.3626 16.7372 24.3626V24.0704V23.7782C16.5164 23.7782 16.3181 23.857 16.1613 24.0138L16.3679 24.2204ZM16.7372 24.0704V24.3626C16.837 24.3626 16.8873 24.3937 16.9274 24.4492L17.1643 24.2782L17.4012 24.1071C17.2412 23.8856 17.0069 23.7782 16.7372 23.7782V24.0704ZM17.1643 24.2782L16.9347 24.4589L19.3701 27.5522L19.5997 27.3715L19.8293 27.1907L17.3939 24.0974L17.1643 24.2782ZM19.5997 27.3715L19.8299 27.5514L22.2654 24.435L22.0351 24.2551L21.8049 24.0751L19.3695 27.1915L19.5997 27.3715ZM22.0351 24.2551L22.2759 24.4206C22.2981 24.3883 22.3281 24.3626 22.416 24.3626V24.0704V23.7782C22.1654 23.7782 21.9414 23.8756 21.7943 24.0895L22.0351 24.2551ZM22.416 24.0704V24.3626C22.4752 24.3626 22.5206 24.3805 22.5672 24.4271L22.7738 24.2204L22.9804 24.0138C22.8269 23.8603 22.6338 23.7782 22.416 23.7782V24.0704ZM22.7738 24.2204L22.5756 24.4352C22.6145 24.4711 22.6317 24.5081 22.6317 24.5667H22.9239H23.2161C23.2161 24.3483 23.1331 24.1545 22.972 24.0057L22.7738 24.2204ZM22.9239 24.5667H22.6317C22.6317 24.6146 22.6193 24.6502 22.5952 24.6834L22.8315 24.8553L23.0678 25.0271C23.1669 24.891 23.2161 24.7343 23.2161 24.5667H22.9239ZM22.8315 24.8553L22.6045 24.6713L19.9383 27.9608L20.1653 28.1448L20.3923 28.3288L23.0585 25.0393L22.8315 24.8553ZM20.1653 28.1448L19.9386 28.3292L22.6048 31.6072L22.8315 31.4228L23.0582 31.2384L20.392 27.9604L20.1653 28.1448ZM22.8315 31.4228L22.6143 31.6183C22.6264 31.6317 22.6432 31.6575 22.6432 31.7229H22.9354H23.2276C23.2276 31.542 23.1751 31.3678 23.0487 31.2273L22.8315 31.4228ZM22.9354 31.7229H22.6432C22.6432 31.7898 22.6232 31.8459 22.575 31.9021L22.7969 32.0922L23.0188 32.2824C23.1553 32.1231 23.2276 31.933 23.2276 31.7229H22.9354ZM22.7969 32.0922L22.5822 31.894C22.5555 31.9229 22.5126 31.9501 22.416 31.9501V32.2423V32.5345C22.6426 32.5345 22.8536 32.4616 23.0116 32.2904L22.7969 32.0922ZM22.416 32.2423V31.9501C22.3472 31.9501 22.2931 31.9274 22.2357 31.8496L22.0005 32.023L21.7652 32.1963C21.9234 32.4109 22.1463 32.5345 22.416 32.5345V32.2423ZM22.0005 32.023L22.2292 31.8411L19.7591 28.7362L19.5305 28.9181L19.3018 29.1L21.7718 32.2049L22.0005 32.023ZM19.5305 28.9181L19.3002 28.7382L16.8648 31.8546L17.095 32.0345L17.3253 32.2145L19.7607 29.0981L19.5305 28.9181ZM17.095 32.0345L16.8706 31.8475C16.8001 31.932 16.743 31.9501 16.6911 31.9501V32.2423V32.5345C16.947 32.5345 17.1592 32.414 17.3195 32.2216L17.095 32.0345ZM27.7615 32.0922L27.5549 32.2989L27.7615 32.0922ZM27.6114 25.1092H27.9037V24.817H27.6114V25.1092ZM24.9106 24.9707L24.7039 25.1773L24.7039 25.1773L24.9106 24.9707ZM24.9106 24.2782L25.1174 24.4849L25.1253 24.4764L24.9106 24.2782ZM31.3511 24.2782L31.1364 24.4764L31.1443 24.4849L31.1529 24.4929L31.3511 24.2782ZM31.3511 24.9707L31.1528 24.7558L31.1445 24.7641L31.3511 24.9707ZM28.6618 25.1092V24.817H28.3696V25.1092H28.6618ZM28.5002 32.0922L28.3012 31.878L28.2936 31.8856L28.5002 32.0922ZM28.1308 32.2423V31.9501C28.0592 31.9501 28.0113 31.9288 27.9681 31.8856L27.7615 32.0922L27.5549 32.2989C27.7117 32.4557 27.91 32.5345 28.1308 32.5345V32.2423ZM27.7615 32.0922L27.9681 31.8856C27.9249 31.8424 27.9037 31.7945 27.9037 31.7229H27.6114H27.3192C27.3192 31.9437 27.398 32.142 27.5549 32.2989L27.7615 32.0922ZM27.6114 31.7229H27.9037V25.1092H27.6114H27.3192V31.7229H27.6114ZM27.6114 25.1092V24.817H25.2568V25.1092V25.4014H27.6114V25.1092ZM25.2568 25.1092V24.817C25.1906 24.817 25.1511 24.798 25.1172 24.7641L24.9106 24.9707L24.7039 25.1773C24.8547 25.328 25.046 25.4014 25.2568 25.4014V25.1092ZM24.9106 24.9707L25.1172 24.7641C25.0832 24.7301 25.0643 24.6906 25.0643 24.6244H24.7721H24.4799C24.4799 24.8352 24.5532 25.0266 24.7039 25.1773L24.9106 24.9707ZM24.7721 24.6244H25.0643C25.0643 24.5582 25.0832 24.5187 25.1172 24.4848L24.9106 24.2782L24.7039 24.0715C24.5532 24.2223 24.4799 24.4136 24.4799 24.6244H24.7721ZM24.9106 24.2782L25.1253 24.4764C25.1612 24.4374 25.1983 24.4203 25.2568 24.4203V24.1281V23.8359C25.0384 23.8359 24.8446 23.9188 24.6959 24.08L24.9106 24.2782ZM25.2568 24.1281V24.4203H31.0049V24.1281V23.8359H25.2568V24.1281ZM31.0049 24.1281V24.4203C31.0634 24.4203 31.1005 24.4374 31.1364 24.4764L31.3511 24.2782L31.5658 24.08C31.4171 23.9188 31.2233 23.8359 31.0049 23.8359V24.1281ZM31.3511 24.2782L31.1529 24.4929C31.1918 24.5288 31.209 24.5659 31.209 24.6244H31.5012H31.7934C31.7934 24.406 31.7105 24.2122 31.5493 24.0634L31.3511 24.2782ZM31.5012 24.6244H31.209C31.209 24.683 31.1918 24.72 31.1529 24.756L31.3511 24.9707L31.5493 25.1854C31.7105 25.0367 31.7934 24.8429 31.7934 24.6244H31.5012ZM31.3511 24.9707L31.1445 24.7641C31.1105 24.798 31.0711 24.817 31.0049 24.817V25.1092V25.4014C31.2156 25.4014 31.407 25.328 31.5577 25.1773L31.3511 24.9707ZM31.0049 25.1092V24.817H28.6618V25.1092V25.4014H31.0049V25.1092ZM28.6618 25.1092H28.3696V31.7229H28.6618H28.954V25.1092H28.6618ZM28.6618 31.7229H28.3696C28.3696 31.7873 28.3499 31.833 28.3014 31.8781L28.5002 32.0922L28.699 32.3064C28.8659 32.1514 28.954 31.9508 28.954 31.7229H28.6618ZM28.5002 32.0922L28.2936 31.8856C28.2504 31.9288 28.2024 31.9501 28.1308 31.9501V32.2423V32.5345C28.3516 32.5345 28.55 32.4557 28.7068 32.2989L28.5002 32.0922Z" fill="white" mask="url(#path-4-outside-1_383_20899)"/>
<g filter="url(#filter1_d_383_20899)">
<path d="M39.74 14.9026H28.0517C26.2765 14.9026 24.8374 13.4635 24.8374 11.6883V0L39.74 14.9026Z" fill="url(#paint2_linear_383_20899)"/>
</g>
</g>
<defs>
<filter id="filter0_f_383_20899" x="1.16865" y="16.0715" width="37.4025" height="23.6686" filterUnits="userSpaceOnUse" color-interpolation-filters="sRGB">
<feFlood flood-opacity="0" result="BackgroundImageFix"/>
<feBlend mode="normal" in="SourceGraphic" in2="BackgroundImageFix" result="shape"/>
<feGaussianBlur stdDeviation="2.84903" result="effect1_foregroundBlur_383_20899"/>
</filter>
<filter id="filter1_d_383_20899" x="21.477" y="-3.50649" width="22.208" height="22.2075" filterUnits="userSpaceOnUse" color-interpolation-filters="sRGB">
<feFlood flood-opacity="0" result="BackgroundImageFix"/>
<feColorMatrix in="SourceAlpha" type="matrix" values="0 0 0 0 0 0 0 0 0 0 0 0 0 0 0 0 0 0 127 0" result="hardAlpha"/>
<feOffset dx="0.292208" dy="0.146104"/>
<feGaussianBlur stdDeviation="1.8263"/>
<feColorMatrix type="matrix" values="0 0 0 0 0 0 0 0 0 0 0 0 0 0 0 0 0 0 0.33 0"/>
<feBlend mode="normal" in2="BackgroundImageFix" result="effect1_dropShadow_383_20899"/>
<feBlend mode="normal" in="SourceGraphic" in2="effect1_dropShadow_383_20899" result="shape"/>
</filter>
<linearGradient id="paint0_linear_383_20899" x1="19.8701" y1="0" x2="19.8701" y2="45" gradientUnits="userSpaceOnUse">
<stop stop-color="#FF7979"/>
<stop offset="1" stop-color="#E85555"/>
</linearGradient>
<linearGradient id="paint1_linear_383_20899" x1="19.8701" y1="0" x2="19.8701" y2="45" gradientUnits="userSpaceOnUse">
<stop stop-color="#B4B6BC"/>
<stop offset="0.0730828" stop-color="#B1B3B9"/>
<stop offset="1" stop-color="#8D8F94"/>
</linearGradient>
<linearGradient id="paint2_linear_383_20899" x1="32.2887" y1="0" x2="32.2887" y2="14.9026" gradientUnits="userSpaceOnUse">
<stop stop-color="#979CAB"/>
<stop offset="1" stop-color="#797C88"/>
</linearGradient>
</defs>
</svg>
