<svg width="40" height="45" viewBox="0 0 40 45" fill="none" xmlns="http://www.w3.org/2000/svg">
<mask id="mask0_383_20940" style="mask-type:alpha" maskUnits="userSpaceOnUse" x="0" y="0" width="40" height="45">
<path d="M36.526 45H3.21429C1.43909 45 0 43.5609 0 41.7857V3.21429C0 1.43909 1.43909 0 3.21429 0H24.8377L39.7403 14.9026V41.7857C39.7403 43.5609 38.3012 45 36.526 45Z" fill="url(#paint0_linear_383_20940)"/>
</mask>
<g mask="url(#mask0_383_20940)">
<path d="M36.526 45H3.21429C1.43909 45 0 43.5609 0 41.7857V3.21429C0 1.43909 1.43909 0 3.21429 0H24.8377L39.7403 14.9026V41.7857C39.7403 43.5609 38.3012 45 36.526 45Z" fill="url(#paint1_linear_383_20940)"/>
<g opacity="0.82" filter="url(#filter0_f_383_20940)">
<rect x="7.0127" y="21.7695" width="26.0065" height="12.2727" fill="#0F7D56" fill-opacity="0.27" style="mix-blend-mode:darken"/>
</g>
<mask id="path-4-outside-1_383_20940" maskUnits="userSpaceOnUse" x="8.32764" y="23.1846" width="23" height="10" fill="black">
<rect fill="white" x="8.32764" y="23.1846" width="23" height="10"/>
<path d="M9.32027 32.2423C9.18946 32.2423 9.07403 32.1961 8.974 32.1038C8.88166 32.0037 8.83549 31.8883 8.83549 31.7575C8.83549 31.6344 8.87012 31.5267 8.93937 31.4343L11.6056 28.1563L8.96246 24.9014C8.8932 24.8091 8.85858 24.7014 8.85858 24.5783C8.85858 24.4321 8.90475 24.3128 8.99708 24.2204C9.09712 24.1204 9.22023 24.0704 9.36644 24.0704C9.55111 24.0704 9.69346 24.1397 9.7935 24.2782L12.2289 27.3715L14.6643 24.2551C14.749 24.132 14.8759 24.0704 15.0452 24.0704C15.1837 24.0704 15.303 24.1204 15.403 24.2204C15.503 24.3128 15.5531 24.4282 15.5531 24.5667C15.5531 24.6744 15.5223 24.7706 15.4607 24.8553L12.7945 28.1448L15.4607 31.4228C15.53 31.4997 15.5646 31.5998 15.5646 31.7229C15.5646 31.8614 15.5184 31.9845 15.4261 32.0922C15.3338 32.1923 15.2068 32.2423 15.0452 32.2423C14.8759 32.2423 14.7374 32.1692 14.6297 32.023L12.1597 28.9181L9.72424 32.0345C9.60882 32.173 9.47416 32.2423 9.32027 32.2423ZM18.726 32.1846C18.5259 32.1846 18.3528 32.1153 18.2066 31.9768C18.0681 31.8306 17.9988 31.6575 17.9988 31.4574V24.6013C17.9988 24.4551 18.0489 24.332 18.1489 24.232C18.2489 24.1243 18.372 24.0704 18.5182 24.0704C18.6644 24.0704 18.7876 24.1243 18.8876 24.232C18.9953 24.332 19.0492 24.4551 19.0492 24.6013V31.1342H22.8235C22.9697 31.1342 23.0928 31.1881 23.1928 31.2958C23.3006 31.3959 23.3544 31.519 23.3544 31.6652C23.3544 31.8114 23.3006 31.9345 23.1928 32.0345C23.0928 32.1346 22.9697 32.1846 22.8235 32.1846H18.726ZM27.9964 32.3C27.4193 32.3 26.8999 32.2461 26.4382 32.1384C25.9842 32.023 25.5879 31.8922 25.2493 31.746C25.1647 31.7075 25.0877 31.6459 25.0185 31.5613C24.9569 31.469 24.9261 31.3728 24.9261 31.2727C24.9261 31.1419 24.9685 31.0303 25.0531 30.938C25.1378 30.838 25.2532 30.788 25.3994 30.788C25.4763 30.788 25.5494 30.8034 25.6187 30.8341C25.8803 30.9496 26.1996 31.0573 26.5767 31.1573C26.9614 31.2573 27.4 31.3074 27.8925 31.3074C28.2772 31.3074 28.6197 31.2689 28.9197 31.1919C29.2275 31.1073 29.4699 30.9688 29.6469 30.7764C29.8239 30.5764 29.9124 30.3109 29.9124 29.98C29.9124 29.7338 29.8239 29.5376 29.6469 29.3914C29.4699 29.2375 29.2352 29.1105 28.9428 29.0105C28.6504 28.9104 28.3272 28.8181 27.9733 28.7334C27.627 28.6488 27.2808 28.5565 26.9345 28.4564C26.5882 28.3487 26.2689 28.2102 25.9765 28.0409C25.6841 27.8716 25.4494 27.6562 25.2724 27.3946C25.0954 27.1252 25.0069 26.7867 25.0069 26.3788C25.0069 25.9479 25.1185 25.5555 25.3417 25.2015C25.5725 24.8399 25.9111 24.5513 26.3574 24.3359C26.8037 24.1204 27.35 24.0127 27.9964 24.0127C28.4504 24.0127 28.8697 24.0473 29.2545 24.1166C29.6392 24.1858 29.9855 24.2782 30.2933 24.3936C30.3779 24.4244 30.451 24.4744 30.5126 24.5436C30.5818 24.6129 30.6165 24.7168 30.6165 24.8553C30.6165 24.9707 30.5741 25.0823 30.4895 25.19C30.4125 25.29 30.301 25.34 30.1548 25.34C30.124 25.34 30.0932 25.3362 30.0624 25.3285C30.0316 25.3131 30.0009 25.3016 29.9701 25.2939C29.7085 25.2015 29.4199 25.1284 29.1044 25.0746C28.7966 25.013 28.4658 24.9822 28.1118 24.9822C27.527 24.9822 27.0384 25.0938 26.6459 25.317C26.2535 25.5401 26.0573 25.8671 26.0573 26.298C26.0573 26.5828 26.1458 26.8097 26.3228 26.979C26.4997 27.1483 26.7344 27.283 27.0268 27.383C27.3192 27.483 27.6386 27.5754 27.9848 27.66C28.3311 27.737 28.6774 27.8255 29.0236 27.9255C29.3699 28.0255 29.6892 28.1602 29.9816 28.3295C30.274 28.4911 30.5087 28.7104 30.6857 28.9874C30.8627 29.2567 30.9512 29.6107 30.9512 30.0493C30.9512 30.4802 30.8281 30.8688 30.5818 31.215C30.3433 31.5536 30.0009 31.8191 29.5546 32.0114C29.116 32.2038 28.5966 32.3 27.9964 32.3Z"/>
</mask>
<path d="M9.32027 32.2423C9.18946 32.2423 9.07403 32.1961 8.974 32.1038C8.88166 32.0037 8.83549 31.8883 8.83549 31.7575C8.83549 31.6344 8.87012 31.5267 8.93937 31.4343L11.6056 28.1563L8.96246 24.9014C8.8932 24.8091 8.85858 24.7014 8.85858 24.5783C8.85858 24.4321 8.90475 24.3128 8.99708 24.2204C9.09712 24.1204 9.22023 24.0704 9.36644 24.0704C9.55111 24.0704 9.69346 24.1397 9.7935 24.2782L12.2289 27.3715L14.6643 24.2551C14.749 24.132 14.8759 24.0704 15.0452 24.0704C15.1837 24.0704 15.303 24.1204 15.403 24.2204C15.503 24.3128 15.5531 24.4282 15.5531 24.5667C15.5531 24.6744 15.5223 24.7706 15.4607 24.8553L12.7945 28.1448L15.4607 31.4228C15.53 31.4997 15.5646 31.5998 15.5646 31.7229C15.5646 31.8614 15.5184 31.9845 15.4261 32.0922C15.3338 32.1923 15.2068 32.2423 15.0452 32.2423C14.8759 32.2423 14.7374 32.1692 14.6297 32.023L12.1597 28.9181L9.72424 32.0345C9.60882 32.173 9.47416 32.2423 9.32027 32.2423ZM18.726 32.1846C18.5259 32.1846 18.3528 32.1153 18.2066 31.9768C18.0681 31.8306 17.9988 31.6575 17.9988 31.4574V24.6013C17.9988 24.4551 18.0489 24.332 18.1489 24.232C18.2489 24.1243 18.372 24.0704 18.5182 24.0704C18.6644 24.0704 18.7876 24.1243 18.8876 24.232C18.9953 24.332 19.0492 24.4551 19.0492 24.6013V31.1342H22.8235C22.9697 31.1342 23.0928 31.1881 23.1928 31.2958C23.3006 31.3959 23.3544 31.519 23.3544 31.6652C23.3544 31.8114 23.3006 31.9345 23.1928 32.0345C23.0928 32.1346 22.9697 32.1846 22.8235 32.1846H18.726ZM27.9964 32.3C27.4193 32.3 26.8999 32.2461 26.4382 32.1384C25.9842 32.023 25.5879 31.8922 25.2493 31.746C25.1647 31.7075 25.0877 31.6459 25.0185 31.5613C24.9569 31.469 24.9261 31.3728 24.9261 31.2727C24.9261 31.1419 24.9685 31.0303 25.0531 30.938C25.1378 30.838 25.2532 30.788 25.3994 30.788C25.4763 30.788 25.5494 30.8034 25.6187 30.8341C25.8803 30.9496 26.1996 31.0573 26.5767 31.1573C26.9614 31.2573 27.4 31.3074 27.8925 31.3074C28.2772 31.3074 28.6197 31.2689 28.9197 31.1919C29.2275 31.1073 29.4699 30.9688 29.6469 30.7764C29.8239 30.5764 29.9124 30.3109 29.9124 29.98C29.9124 29.7338 29.8239 29.5376 29.6469 29.3914C29.4699 29.2375 29.2352 29.1105 28.9428 29.0105C28.6504 28.9104 28.3272 28.8181 27.9733 28.7334C27.627 28.6488 27.2808 28.5565 26.9345 28.4564C26.5882 28.3487 26.2689 28.2102 25.9765 28.0409C25.6841 27.8716 25.4494 27.6562 25.2724 27.3946C25.0954 27.1252 25.0069 26.7867 25.0069 26.3788C25.0069 25.9479 25.1185 25.5555 25.3417 25.2015C25.5725 24.8399 25.9111 24.5513 26.3574 24.3359C26.8037 24.1204 27.35 24.0127 27.9964 24.0127C28.4504 24.0127 28.8697 24.0473 29.2545 24.1166C29.6392 24.1858 29.9855 24.2782 30.2933 24.3936C30.3779 24.4244 30.451 24.4744 30.5126 24.5436C30.5818 24.6129 30.6165 24.7168 30.6165 24.8553C30.6165 24.9707 30.5741 25.0823 30.4895 25.19C30.4125 25.29 30.301 25.34 30.1548 25.34C30.124 25.34 30.0932 25.3362 30.0624 25.3285C30.0316 25.3131 30.0009 25.3016 29.9701 25.2939C29.7085 25.2015 29.4199 25.1284 29.1044 25.0746C28.7966 25.013 28.4658 24.9822 28.1118 24.9822C27.527 24.9822 27.0384 25.0938 26.6459 25.317C26.2535 25.5401 26.0573 25.8671 26.0573 26.298C26.0573 26.5828 26.1458 26.8097 26.3228 26.979C26.4997 27.1483 26.7344 27.283 27.0268 27.383C27.3192 27.483 27.6386 27.5754 27.9848 27.66C28.3311 27.737 28.6774 27.8255 29.0236 27.9255C29.3699 28.0255 29.6892 28.1602 29.9816 28.3295C30.274 28.4911 30.5087 28.7104 30.6857 28.9874C30.8627 29.2567 30.9512 29.6107 30.9512 30.0493C30.9512 30.4802 30.8281 30.8688 30.5818 31.215C30.3433 31.5536 30.0009 31.8191 29.5546 32.0114C29.116 32.2038 28.5966 32.3 27.9964 32.3Z" fill="white"/>
<path d="M8.974 32.1038L8.75929 32.302L8.76721 32.3106L8.7758 32.3185L8.974 32.1038ZM8.93937 31.4343L8.71251 31.2498L8.70561 31.259L8.93937 31.4343ZM11.6056 28.1563L11.8323 28.3407L11.9822 28.1565L11.8325 27.9721L11.6056 28.1563ZM8.96246 24.9014L8.72852 25.0769L8.73562 25.0856L8.96246 24.9014ZM8.99708 24.2204L8.79046 24.0138L8.79046 24.0138L8.99708 24.2204ZM9.7935 24.2782L9.55641 24.4494L9.56391 24.4589L9.7935 24.2782ZM12.2289 27.3715L11.9993 27.5522L12.2298 27.8449L12.4591 27.5514L12.2289 27.3715ZM14.6643 24.2551L14.8946 24.435L14.9 24.428L14.9051 24.4206L14.6643 24.2551ZM15.403 24.2204L15.1962 24.4272L15.2048 24.4352L15.403 24.2204ZM15.4607 24.8553L15.6877 25.0393L15.6925 25.0333L15.697 25.0271L15.4607 24.8553ZM12.7945 28.1448L12.5675 27.9608L12.4181 28.1451L12.5678 28.3292L12.7945 28.1448ZM15.4607 31.4228L15.234 31.6072L15.2386 31.6128L15.2435 31.6183L15.4607 31.4228ZM15.4261 32.0922L15.641 32.2906L15.648 32.2824L15.4261 32.0922ZM14.6297 32.023L14.8651 31.8495L14.8584 31.8411L14.6297 32.023ZM12.1597 28.9181L12.3883 28.7362L12.1576 28.4462L11.9294 28.7382L12.1597 28.9181ZM9.72424 32.0345L9.94883 32.2217L9.95449 32.2145L9.72424 32.0345ZM9.32027 32.2423V31.9501C9.26614 31.9501 9.22067 31.9338 9.1722 31.8891L8.974 32.1038L8.7758 32.3185C8.92739 32.4584 9.11277 32.5345 9.32027 32.5345V32.2423ZM8.974 32.1038L9.18872 31.9056C9.14397 31.8571 9.1277 31.8116 9.1277 31.7575H8.83549H8.54329C8.54329 31.965 8.61936 32.1504 8.75929 32.302L8.974 32.1038ZM8.83549 31.7575H9.1277C9.1277 31.6931 9.14443 31.6479 9.17314 31.6097L8.93937 31.4343L8.70561 31.259C8.59581 31.4054 8.54329 31.5757 8.54329 31.7575H8.83549ZM8.93937 31.4343L9.16606 31.6187L11.8323 28.3407L11.6056 28.1563L11.3789 27.972L8.71268 31.2499L8.93937 31.4343ZM11.6056 28.1563L11.8325 27.9721L9.18929 24.7172L8.96246 24.9014L8.73562 25.0856L11.3788 28.3405L11.6056 28.1563ZM8.96246 24.9014L9.19622 24.7261C9.16751 24.6878 9.15079 24.6426 9.15079 24.5783H8.85858H8.56637C8.56637 24.7601 8.6189 24.9304 8.72869 25.0768L8.96246 24.9014ZM8.85858 24.5783H9.15079C9.15079 24.4994 9.17294 24.4578 9.20371 24.4271L8.99708 24.2204L8.79046 24.0138C8.63656 24.1677 8.56637 24.3647 8.56637 24.5783H8.85858ZM8.99708 24.2204L9.20371 24.4271C9.24692 24.3839 9.29483 24.3626 9.36644 24.3626V24.0704V23.7782C9.14563 23.7782 8.94731 23.857 8.79046 24.0138L8.99708 24.2204ZM9.36644 24.0704V24.3626C9.46615 24.3626 9.51651 24.3937 9.55661 24.4492L9.7935 24.2782L10.0304 24.1071C9.87042 23.8856 9.63607 23.7782 9.36644 23.7782V24.0704ZM9.7935 24.2782L9.56391 24.4589L11.9993 27.5522L12.2289 27.3715L12.4585 27.1907L10.0231 24.0974L9.7935 24.2782ZM12.2289 27.3715L12.4591 27.5514L14.8946 24.435L14.6643 24.2551L14.4341 24.0751L11.9987 27.1915L12.2289 27.3715ZM14.6643 24.2551L14.9051 24.4206C14.9273 24.3883 14.9573 24.3626 15.0452 24.3626V24.0704V23.7782C14.7946 23.7782 14.5706 23.8756 14.4235 24.0895L14.6643 24.2551ZM15.0452 24.0704V24.3626C15.1044 24.3626 15.1498 24.3805 15.1964 24.4271L15.403 24.2204L15.6096 24.0138C15.4561 23.8603 15.263 23.7782 15.0452 23.7782V24.0704ZM15.403 24.2204L15.2048 24.4352C15.2437 24.4711 15.2609 24.5081 15.2609 24.5667H15.5531H15.8453C15.8453 24.3483 15.7623 24.1545 15.6012 24.0057L15.403 24.2204ZM15.5531 24.5667H15.2609C15.2609 24.6146 15.2485 24.6502 15.2244 24.6834L15.4607 24.8553L15.697 25.0271C15.796 24.891 15.8453 24.7343 15.8453 24.5667H15.5531ZM15.4607 24.8553L15.2337 24.6713L12.5675 27.9608L12.7945 28.1448L13.0215 28.3288L15.6877 25.0393L15.4607 24.8553ZM12.7945 28.1448L12.5678 28.3292L15.234 31.6072L15.4607 31.4228L15.6874 31.2384L13.0212 27.9604L12.7945 28.1448ZM15.4607 31.4228L15.2435 31.6183C15.2556 31.6317 15.2724 31.6575 15.2724 31.7229H15.5646H15.8568C15.8568 31.542 15.8043 31.3678 15.6779 31.2273L15.4607 31.4228ZM15.5646 31.7229H15.2724C15.2724 31.7898 15.2524 31.8459 15.2042 31.9021L15.4261 32.0922L15.648 32.2824C15.7845 32.1231 15.8568 31.933 15.8568 31.7229H15.5646ZM15.4261 32.0922L15.2114 31.894C15.1847 31.9229 15.1418 31.9501 15.0452 31.9501V32.2423V32.5345C15.2718 32.5345 15.4828 32.4616 15.6408 32.2904L15.4261 32.0922ZM15.0452 32.2423V31.9501C14.9764 31.9501 14.9223 31.9274 14.8649 31.8496L14.6297 32.023L14.3944 32.1963C14.5526 32.4109 14.7755 32.5345 15.0452 32.5345V32.2423ZM14.6297 32.023L14.8584 31.8411L12.3883 28.7362L12.1597 28.9181L11.931 29.1L14.401 32.2049L14.6297 32.023ZM12.1597 28.9181L11.9294 28.7382L9.494 31.8546L9.72424 32.0345L9.95449 32.2145L12.3899 29.0981L12.1597 28.9181ZM9.72424 32.0345L9.49976 31.8475C9.42927 31.932 9.37216 31.9501 9.32027 31.9501V32.2423V32.5345C9.57616 32.5345 9.78837 32.414 9.94872 32.2216L9.72424 32.0345ZM18.2066 31.9768L17.9945 32.1778L17.9999 32.1835L18.0056 32.1889L18.2066 31.9768ZM18.1489 24.232L18.3556 24.4388L18.363 24.4308L18.1489 24.232ZM18.8876 24.232L18.6735 24.4308L18.6808 24.4388L18.6888 24.4461L18.8876 24.232ZM19.0492 31.1342H18.757V31.4264H19.0492V31.1342ZM23.1928 31.2958L22.9787 31.4947L22.9861 31.5026L22.994 31.5099L23.1928 31.2958ZM23.1928 32.0345L22.9939 31.8202L22.9862 31.8279L23.1928 32.0345ZM18.726 32.1846V31.8924C18.6012 31.8924 18.4999 31.8521 18.4076 31.7647L18.2066 31.9768L18.0056 32.1889C18.2057 32.3785 18.4506 32.4768 18.726 32.4768V32.1846ZM18.2066 31.9768L18.4187 31.7758C18.3313 31.6835 18.291 31.5822 18.291 31.4574H17.9988H17.7066C17.7066 31.7328 17.8049 31.9777 17.9945 32.1778L18.2066 31.9768ZM17.9988 31.4574H18.291V24.6013H17.9988H17.7066V31.4574H17.9988ZM17.9988 24.6013H18.291C18.291 24.5297 18.3123 24.4818 18.3555 24.4386L18.1489 24.232L17.9423 24.0254C17.7854 24.1822 17.7066 24.3805 17.7066 24.6013H17.9988ZM18.1489 24.232L18.363 24.4308C18.4081 24.3823 18.4538 24.3626 18.5182 24.3626V24.0704V23.7782C18.2903 23.7782 18.0897 23.8663 17.9348 24.0332L18.1489 24.232ZM18.5182 24.0704V24.3626C18.5827 24.3626 18.6284 24.3823 18.6735 24.4308L18.8876 24.232L19.1017 24.0332C18.9467 23.8663 18.7462 23.7782 18.5182 23.7782V24.0704ZM18.8876 24.232L18.6888 24.4461C18.7373 24.4912 18.757 24.5369 18.757 24.6013H19.0492H19.3414C19.3414 24.3734 19.2533 24.1728 19.0864 24.0179L18.8876 24.232ZM19.0492 24.6013H18.757V31.1342H19.0492H19.3414V24.6013H19.0492ZM19.0492 31.1342V31.4264H22.8235V31.1342V30.842H19.0492V31.1342ZM22.8235 31.1342V31.4264C22.8879 31.4264 22.9336 31.4461 22.9787 31.4947L23.1928 31.2958L23.407 31.097C23.252 30.9301 23.0514 30.842 22.8235 30.842V31.1342ZM23.1928 31.2958L22.994 31.5099C23.0426 31.555 23.0622 31.6007 23.0622 31.6652H23.3544H23.6466C23.6466 31.4372 23.5586 31.2367 23.3917 31.0817L23.1928 31.2958ZM23.3544 31.6652H23.0622C23.0622 31.7296 23.0426 31.7753 22.994 31.8204L23.1928 32.0345L23.3917 32.2486C23.5586 32.0937 23.6466 31.8931 23.6466 31.6652H23.3544ZM23.1928 32.0345L22.9862 31.8279C22.943 31.8711 22.8951 31.8924 22.8235 31.8924V32.1846V32.4768C23.0443 32.4768 23.2426 32.398 23.3995 32.2411L23.1928 32.0345ZM22.8235 32.1846V31.8924H18.726V32.1846V32.4768H22.8235V32.1846ZM26.4382 32.1384L26.3662 32.4217L26.3718 32.423L26.4382 32.1384ZM25.2493 31.746L25.1284 32.012L25.1335 32.0142L25.2493 31.746ZM25.0185 31.5613L24.7754 31.7234L24.7833 31.7353L24.7923 31.7463L25.0185 31.5613ZM25.0531 30.938L25.2687 31.1356L25.2762 31.1268L25.0531 30.938ZM25.6187 30.8341L25.5 31.1012L25.5007 31.1015L25.6187 30.8341ZM26.5767 31.1573L26.5017 31.4398L26.5032 31.4401L26.5767 31.1573ZM28.9197 31.1919L28.9923 31.475L28.9972 31.4737L28.9197 31.1919ZM29.6469 30.7764L29.862 30.9743L29.8658 30.97L29.6469 30.7764ZM29.6469 29.3914L29.4551 29.6119L29.4608 29.6166L29.6469 29.3914ZM28.9428 29.0105L28.8482 29.2869V29.2869L28.9428 29.0105ZM27.9733 28.7334L27.9039 29.0173L27.9053 29.0176L27.9733 28.7334ZM26.9345 28.4564L26.8477 28.7355L26.8534 28.7372L26.9345 28.4564ZM25.9765 28.0409L26.1229 27.788V27.788L25.9765 28.0409ZM25.2724 27.3946L25.0282 27.555L25.0304 27.5583L25.2724 27.3946ZM25.3417 25.2015L25.0954 25.0443L25.0945 25.0457L25.3417 25.2015ZM26.3574 24.3359L26.4844 24.599V24.599L26.3574 24.3359ZM29.2545 24.1166L29.3062 23.829V23.829L29.2545 24.1166ZM30.2933 24.3936L30.1907 24.6672L30.1934 24.6682L30.2933 24.3936ZM30.5126 24.5436L30.2942 24.7378L30.2999 24.7442L30.306 24.7502L30.5126 24.5436ZM30.4895 25.19L30.2597 25.0095L30.2579 25.0118L30.4895 25.19ZM30.0624 25.3285L29.9317 25.5899L29.9604 25.6042L29.9916 25.612L30.0624 25.3285ZM29.9701 25.2939L29.8728 25.5694L29.8858 25.574L29.8992 25.5774L29.9701 25.2939ZM29.1044 25.0746L29.0471 25.3612L29.0552 25.3626L29.1044 25.0746ZM26.6459 25.317L26.5015 25.0629V25.0629L26.6459 25.317ZM26.3228 26.979L26.5247 26.7679V26.7679L26.3228 26.979ZM27.0268 27.383L26.9322 27.6595V27.6595L27.0268 27.383ZM27.9848 27.66L27.9154 27.9439L27.9214 27.9453L27.9848 27.66ZM29.0236 27.9255L28.9425 28.2062V28.2062L29.0236 27.9255ZM29.9816 28.3295L29.8352 28.5824L29.8403 28.5852L29.9816 28.3295ZM30.6857 28.9874L30.4394 29.1447L30.4415 29.1479L30.6857 28.9874ZM30.5818 31.215L30.3437 31.0457L30.343 31.0467L30.5818 31.215ZM29.5546 32.0114L29.4389 31.7431L29.4372 31.7438L29.5546 32.0114ZM27.9964 32.3V32.0078C27.437 32.0078 26.9404 31.9555 26.5046 31.8538L26.4382 32.1384L26.3718 32.423C26.8593 32.5367 27.4016 32.5922 27.9964 32.5922V32.3ZM26.4382 32.1384L26.5102 31.8552C26.0674 31.7426 25.6863 31.6164 25.3652 31.4777L25.2493 31.746L25.1335 32.0142C25.4894 32.1679 25.901 32.3033 26.3662 32.4216L26.4382 32.1384ZM25.2493 31.746L25.3702 31.4799C25.333 31.463 25.2905 31.4323 25.2446 31.3763L25.0185 31.5613L24.7923 31.7463C24.885 31.8596 24.9963 31.9519 25.1284 32.012L25.2493 31.746ZM25.0185 31.5613L25.2616 31.3992C25.2284 31.3494 25.2184 31.3089 25.2184 31.2727H24.9261H24.6339C24.6339 31.4367 24.6854 31.5885 24.7754 31.7234L25.0185 31.5613ZM24.9261 31.2727H25.2184C25.2184 31.2115 25.2356 31.1713 25.2685 31.1355L25.0531 30.938L24.8377 30.7406C24.7013 30.8894 24.6339 31.0724 24.6339 31.2727H24.9261ZM25.0531 30.938L25.2762 31.1268C25.2985 31.1004 25.3279 31.0802 25.3994 31.0802V30.788V30.4958C25.1784 30.4958 24.977 30.5755 24.83 30.7493L25.0531 30.938ZM25.3994 30.788V31.0802C25.4361 31.0802 25.4687 31.0872 25.5 31.1012L25.6187 30.8341L25.7374 30.5671C25.6302 30.5195 25.5166 30.4958 25.3994 30.4958V30.788ZM25.6187 30.8341L25.5007 31.1015C25.7803 31.2248 26.1149 31.3371 26.5017 31.4398L26.5767 31.1573L26.6516 30.8749C26.2844 30.7774 25.9803 30.6743 25.7366 30.5668L25.6187 30.8341ZM26.5767 31.1573L26.5032 31.4401C26.9168 31.5477 27.3809 31.5996 27.8925 31.5996V31.3074V31.0152C27.4192 31.0152 27.006 30.967 26.6502 30.8745L26.5767 31.1573ZM27.8925 31.3074V31.5996C28.2961 31.5996 28.6636 31.5593 28.9923 31.475L28.9197 31.1919L28.8472 30.9089C28.5757 30.9785 28.2584 31.0152 27.8925 31.0152V31.3074ZM28.9197 31.1919L28.9972 31.4737C29.3461 31.3777 29.6404 31.215 29.862 30.9743L29.6469 30.7764L29.4319 30.5786C29.2994 30.7225 29.109 30.8369 28.8423 30.9102L28.9197 31.1919ZM29.6469 30.7764L29.8658 30.97C30.1006 30.7046 30.2046 30.3645 30.2046 29.98H29.9124H29.6202C29.6202 30.2573 29.5472 30.4481 29.428 30.5828L29.6469 30.7764ZM29.9124 29.98H30.2046C30.2046 29.6538 30.0826 29.3722 29.833 29.1661L29.6469 29.3914L29.4608 29.6166C29.5652 29.7029 29.6202 29.8137 29.6202 29.98H29.9124ZM29.6469 29.3914L29.8386 29.1709C29.6257 28.9857 29.3548 28.8426 29.0374 28.734L28.9428 29.0105L28.8482 29.2869C29.1157 29.3784 29.3141 29.4892 29.4552 29.6119L29.6469 29.3914ZM28.9428 29.0105L29.0374 28.734C28.7349 28.6305 28.4027 28.5357 28.0412 28.4493L27.9733 28.7334L27.9053 29.0176C28.2518 29.1005 28.566 29.1904 28.8482 29.2869L28.9428 29.0105ZM27.9733 28.7334L28.0427 28.4496C27.7004 28.3659 27.358 28.2746 27.0156 28.1757L26.9345 28.4564L26.8534 28.7372C27.2035 28.8383 27.5537 28.9317 27.9039 29.0173L27.9733 28.7334ZM26.9345 28.4564L27.0213 28.1774C26.6943 28.0757 26.3951 27.9457 26.1229 27.788L25.9765 28.0409L25.8301 28.2938C26.1426 28.4748 26.4821 28.6217 26.8477 28.7355L26.9345 28.4564ZM25.9765 28.0409L26.1229 27.788C25.866 27.6393 25.665 27.4534 25.5144 27.2308L25.2724 27.3946L25.0304 27.5583C25.2338 27.859 25.5022 28.104 25.8301 28.2938L25.9765 28.0409ZM25.2724 27.3946L25.5166 27.2341C25.3783 27.0236 25.2991 26.7447 25.2991 26.3788H25.0069H24.7147C24.7147 26.8286 24.8125 27.2268 25.0282 27.555L25.2724 27.3946ZM25.0069 26.3788H25.2991C25.2991 26.0013 25.396 25.6632 25.5889 25.3574L25.3417 25.2015L25.0945 25.0457C24.841 25.4478 24.7147 25.8945 24.7147 26.3788H25.0069ZM25.3417 25.2015L25.588 25.3588C25.7854 25.0495 26.0792 24.7946 26.4844 24.599L26.3574 24.3359L26.2303 24.0727C25.7429 24.308 25.3597 24.6303 25.0954 25.0443L25.3417 25.2015ZM26.3574 24.3359L26.4844 24.599C26.8809 24.4076 27.3811 24.3049 27.9964 24.3049V24.0127V23.7205C27.3189 23.7205 26.7264 23.8332 26.2303 24.0727L26.3574 24.3359ZM27.9964 24.0127V24.3049C28.4357 24.3049 28.8375 24.3384 29.2027 24.4042L29.2545 24.1166L29.3062 23.829C28.9019 23.7562 28.465 23.7205 27.9964 23.7205V24.0127ZM29.2545 24.1166L29.2027 24.4042C29.5733 24.4709 29.9021 24.559 30.1907 24.6672L30.2933 24.3936L30.3959 24.12C30.0688 23.9973 29.7052 23.9008 29.3062 23.829L29.2545 24.1166ZM30.2933 24.3936L30.1934 24.6682C30.2311 24.6819 30.2639 24.7037 30.2942 24.7378L30.5126 24.5436L30.731 24.3495C30.6382 24.2451 30.5247 24.1668 30.3931 24.119L30.2933 24.3936ZM30.5126 24.5436L30.306 24.7502C30.306 24.7503 30.3061 24.7504 30.3063 24.7506C30.3065 24.7509 30.3069 24.7514 30.3075 24.7524C30.3086 24.7543 30.3108 24.7584 30.3133 24.7659C30.3184 24.7813 30.3242 24.8095 30.3242 24.8553H30.6165H30.9087C30.9087 24.6717 30.8626 24.4804 30.7192 24.337L30.5126 24.5436ZM30.6165 24.8553H30.3242C30.3242 24.8936 30.3118 24.9432 30.2597 25.0095L30.4895 25.19L30.7193 25.3705C30.8365 25.2213 30.9087 25.0478 30.9087 24.8553H30.6165ZM30.4895 25.19L30.2579 25.0118C30.2455 25.028 30.2265 25.0478 30.1548 25.0478V25.34V25.6322C30.3754 25.6322 30.5796 25.5521 30.7211 25.3682L30.4895 25.19ZM30.1548 25.34V25.0478C30.1486 25.0478 30.1416 25.0471 30.1333 25.045L30.0624 25.3285L29.9916 25.612C30.0448 25.6253 30.0994 25.6322 30.1548 25.6322V25.34ZM30.0624 25.3285L30.1931 25.0671C30.1449 25.043 30.0941 25.0237 30.041 25.0104L29.9701 25.2939L29.8992 25.5774C29.9077 25.5795 29.9184 25.5832 29.9317 25.5899L30.0624 25.3285ZM29.9701 25.2939L30.0673 25.0183C29.7879 24.9197 29.483 24.8428 29.1536 24.7865L29.1044 25.0746L29.0552 25.3626C29.3568 25.4141 29.629 25.4834 29.8728 25.5694L29.9701 25.2939ZM29.1044 25.0746L29.1617 24.788C28.8329 24.7223 28.4826 24.69 28.1118 24.69V24.9822V25.2744C28.4489 25.2744 28.7604 25.3038 29.0471 25.3611L29.1044 25.0746ZM28.1118 24.9822V24.69C27.4909 24.69 26.9491 24.8084 26.5015 25.0629L26.6459 25.317L26.7904 25.571C27.1276 25.3792 27.563 25.2744 28.1118 25.2744V24.9822ZM26.6459 25.317L26.5015 25.0629C26.0231 25.335 25.7651 25.756 25.7651 26.298H26.0573H26.3495C26.3495 25.9782 26.4839 25.7452 26.7904 25.571L26.6459 25.317ZM26.0573 26.298H25.7651C25.7651 26.6484 25.8767 26.9567 26.1208 27.1902L26.3228 26.979L26.5247 26.7679C26.4148 26.6628 26.3495 26.5171 26.3495 26.298H26.0573ZM26.3228 26.979L26.1208 27.1902C26.3353 27.3954 26.6099 27.5492 26.9322 27.6595L27.0268 27.383L27.1214 27.1065C26.8589 27.0167 26.6642 26.9012 26.5247 26.7679L26.3228 26.979ZM27.0268 27.383L26.9322 27.6595C27.2341 27.7627 27.5619 27.8575 27.9154 27.9439L27.9848 27.66L28.0542 27.3762C27.7152 27.2933 27.4044 27.2033 27.1214 27.1065L27.0268 27.383ZM27.9848 27.66L27.9214 27.9453C28.2617 28.0209 28.602 28.1079 28.9425 28.2062L29.0236 27.9255L29.1047 27.6448C28.7527 27.5431 28.4005 27.4531 28.0482 27.3748L27.9848 27.66ZM29.0236 27.9255L28.9425 28.2062C29.2675 28.3001 29.5647 28.4257 29.8352 28.5824L29.9816 28.3295L30.128 28.0766C29.8138 27.8946 29.4723 27.751 29.1047 27.6448L29.0236 27.9255ZM29.9816 28.3295L29.8403 28.5852C30.0908 28.7237 30.2891 28.9094 30.4395 29.1447L30.6857 28.9874L30.9319 28.8301C30.7283 28.5113 30.4573 28.2585 30.123 28.0737L29.9816 28.3295ZM30.6857 28.9874L30.4415 29.1479C30.5777 29.3552 30.659 29.6477 30.659 30.0493H30.9512H31.2434C31.2434 29.5736 31.1476 29.1582 30.9299 28.8269L30.6857 28.9874ZM30.9512 30.0493H30.659C30.659 30.4204 30.5542 30.7496 30.3437 31.0457L30.5818 31.215L30.82 31.3844C31.1019 30.9879 31.2434 30.5399 31.2434 30.0493H30.9512ZM30.5818 31.215L30.343 31.0467C30.1405 31.3341 29.8444 31.5683 29.4389 31.7431L29.5546 32.0114L29.6702 32.2798C30.1573 32.0698 30.5461 31.7731 30.8207 31.3833L30.5818 31.215ZM29.5546 32.0114L29.4372 31.7438C29.0437 31.9164 28.5661 32.0078 27.9964 32.0078V32.3V32.5922C28.6271 32.5922 29.1882 32.4912 29.6719 32.279L29.5546 32.0114Z" fill="white" mask="url(#path-4-outside-1_383_20940)"/>
<g filter="url(#filter1_d_383_20940)">
<path d="M39.74 14.9026H28.0517C26.2765 14.9026 24.8374 13.4635 24.8374 11.6883V0L39.74 14.9026Z" fill="url(#paint2_linear_383_20940)"/>
</g>
</g>
<defs>
<filter id="filter0_f_383_20940" x="1.31464" y="16.0715" width="37.4025" height="23.6686" filterUnits="userSpaceOnUse" color-interpolation-filters="sRGB">
<feFlood flood-opacity="0" result="BackgroundImageFix"/>
<feBlend mode="normal" in="SourceGraphic" in2="BackgroundImageFix" result="shape"/>
<feGaussianBlur stdDeviation="2.84903" result="effect1_foregroundBlur_383_20940"/>
</filter>
<filter id="filter1_d_383_20940" x="21.477" y="-3.50649" width="22.208" height="22.2075" filterUnits="userSpaceOnUse" color-interpolation-filters="sRGB">
<feFlood flood-opacity="0" result="BackgroundImageFix"/>
<feColorMatrix in="SourceAlpha" type="matrix" values="0 0 0 0 0 0 0 0 0 0 0 0 0 0 0 0 0 0 127 0" result="hardAlpha"/>
<feOffset dx="0.292208" dy="0.146104"/>
<feGaussianBlur stdDeviation="1.8263"/>
<feColorMatrix type="matrix" values="0 0 0 0 0 0 0 0 0 0 0 0 0 0 0 0 0 0 0.33 0"/>
<feBlend mode="normal" in2="BackgroundImageFix" result="effect1_dropShadow_383_20940"/>
<feBlend mode="normal" in="SourceGraphic" in2="effect1_dropShadow_383_20940" result="shape"/>
</filter>
<linearGradient id="paint0_linear_383_20940" x1="19.8701" y1="0" x2="19.8701" y2="45" gradientUnits="userSpaceOnUse">
<stop stop-color="#FF7979"/>
<stop offset="1" stop-color="#E85555"/>
</linearGradient>
<linearGradient id="paint1_linear_383_20940" x1="19.8701" y1="0" x2="19.8701" y2="45" gradientUnits="userSpaceOnUse">
<stop offset="0.000265127" stop-color="#83CC70"/>
<stop offset="1" stop-color="#61A850"/>
</linearGradient>
<linearGradient id="paint2_linear_383_20940" x1="32.2887" y1="0" x2="32.2887" y2="14.9026" gradientUnits="userSpaceOnUse">
<stop stop-color="#3FAF43"/>
<stop offset="1" stop-color="#0E8312"/>
</linearGradient>
</defs>
</svg>
