<svg width="40" height="45" viewBox="0 0 40 45" fill="none" xmlns="http://www.w3.org/2000/svg">
<mask id="mask0_383_20892" style="mask-type:alpha" maskUnits="userSpaceOnUse" x="0" y="0" width="40" height="45">
<path d="M36.526 45H3.21429C1.43909 45 0 43.5609 0 41.7857V3.21429C0 1.43909 1.43909 0 3.21429 0H24.8377L39.7403 14.9026V41.7857C39.7403 43.5609 38.3012 45 36.526 45Z" fill="url(#paint0_linear_383_20892)"/>
</mask>
<g mask="url(#mask0_383_20892)">
<path d="M36.526 45H3.21429C1.43909 45 0 43.5609 0 41.7857V3.21429C0 1.43909 1.43909 0 3.21429 0H24.8377L39.7403 14.9026V41.7857C39.7403 43.5609 38.3012 45 36.526 45Z" fill="url(#paint1_linear_383_20892)"/>
<g filter="url(#filter0_f_383_20892)">
<rect x="6.86719" y="21.0391" width="26.0065" height="12.2727" fill="#0F7D56" fill-opacity="0.27" style="mix-blend-mode:darken"/>
</g>
<mask id="path-4-outside-1_383_20892" maskUnits="userSpaceOnUse" x="9.93506" y="23.1846" width="21" height="10" fill="black">
<rect fill="white" x="9.93506" y="23.1846" width="21" height="10"/>
<path d="M11.6357 32.1846C11.451 32.1846 11.2933 32.1192 11.1625 31.9884C11.0317 31.8575 10.9663 31.6998 10.9663 31.5151C10.9663 31.3458 11.0124 31.2035 11.1048 31.0881L15.9294 25.1323H11.4857C11.3471 25.1323 11.2279 25.0861 11.1278 24.9938C11.0355 24.8937 10.9893 24.7745 10.9893 24.636C10.9893 24.4975 11.0355 24.3782 11.1278 24.2782C11.2279 24.1781 11.3471 24.1281 11.4857 24.1281H16.495C16.7181 24.1281 16.8913 24.2012 17.0144 24.3474C17.1375 24.4859 17.199 24.6514 17.199 24.8437C17.199 25.013 17.1375 25.1669 17.0144 25.3054L12.2474 31.2035H16.772C16.9105 31.2035 17.0259 31.2535 17.1183 31.3535C17.2183 31.4459 17.2683 31.5613 17.2683 31.6998C17.2683 31.8383 17.2183 31.9537 17.1183 32.0461C17.0259 32.1384 16.9105 32.1846 16.772 32.1846H11.6357ZM20.2311 32.2423C20.0849 32.2423 19.9618 32.1923 19.8618 32.0922C19.7617 31.9922 19.7117 31.8691 19.7117 31.7229V24.6013C19.7117 24.4551 19.7617 24.332 19.8618 24.232C19.9618 24.1243 20.0849 24.0704 20.2311 24.0704C20.3773 24.0704 20.5005 24.1243 20.6005 24.232C20.7082 24.332 20.7621 24.4551 20.7621 24.6013V31.7229C20.7621 31.8691 20.7082 31.9922 20.6005 32.0922C20.5005 32.1923 20.3773 32.2423 20.2311 32.2423ZM24.3304 32.2423C24.1842 32.2423 24.0611 32.1923 23.9611 32.0922C23.861 31.9922 23.811 31.8691 23.811 31.7229V24.6591C23.811 24.5128 23.861 24.3897 23.9611 24.2897C24.0611 24.182 24.1842 24.1281 24.3304 24.1281H26.962C27.5468 24.1281 28.0355 24.2051 28.4279 24.359C28.828 24.5052 29.1435 24.7052 29.3744 24.9591C29.6129 25.2054 29.7822 25.4785 29.8822 25.7786C29.9899 26.0787 30.0438 26.3827 30.0438 26.6905C30.0438 26.9983 29.9899 27.3022 29.8822 27.6023C29.7822 27.9024 29.6129 28.1794 29.3744 28.4334C29.1435 28.6796 28.828 28.8797 28.4279 29.0335C28.0355 29.1797 27.5468 29.2528 26.962 29.2528H24.8614V31.7229C24.8614 31.8691 24.8075 31.9922 24.6998 32.0922C24.5997 32.1923 24.4766 32.2423 24.3304 32.2423ZM24.8614 28.2602H26.8582C27.4353 28.2602 27.8777 28.1833 28.1855 28.0294C28.4933 27.8678 28.7049 27.6677 28.8203 27.4292C28.9358 27.1829 28.9935 26.9367 28.9935 26.6905C28.9935 26.4366 28.9358 26.1903 28.8203 25.9518C28.7049 25.7132 28.4933 25.517 28.1855 25.3631C27.8777 25.2015 27.4353 25.1207 26.8582 25.1207H24.8614V28.2602Z"/>
</mask>
<path d="M11.6357 32.1846C11.451 32.1846 11.2933 32.1192 11.1625 31.9884C11.0317 31.8575 10.9663 31.6998 10.9663 31.5151C10.9663 31.3458 11.0124 31.2035 11.1048 31.0881L15.9294 25.1323H11.4857C11.3471 25.1323 11.2279 25.0861 11.1278 24.9938C11.0355 24.8937 10.9893 24.7745 10.9893 24.636C10.9893 24.4975 11.0355 24.3782 11.1278 24.2782C11.2279 24.1781 11.3471 24.1281 11.4857 24.1281H16.495C16.7181 24.1281 16.8913 24.2012 17.0144 24.3474C17.1375 24.4859 17.199 24.6514 17.199 24.8437C17.199 25.013 17.1375 25.1669 17.0144 25.3054L12.2474 31.2035H16.772C16.9105 31.2035 17.0259 31.2535 17.1183 31.3535C17.2183 31.4459 17.2683 31.5613 17.2683 31.6998C17.2683 31.8383 17.2183 31.9537 17.1183 32.0461C17.0259 32.1384 16.9105 32.1846 16.772 32.1846H11.6357ZM20.2311 32.2423C20.0849 32.2423 19.9618 32.1923 19.8618 32.0922C19.7617 31.9922 19.7117 31.8691 19.7117 31.7229V24.6013C19.7117 24.4551 19.7617 24.332 19.8618 24.232C19.9618 24.1243 20.0849 24.0704 20.2311 24.0704C20.3773 24.0704 20.5005 24.1243 20.6005 24.232C20.7082 24.332 20.7621 24.4551 20.7621 24.6013V31.7229C20.7621 31.8691 20.7082 31.9922 20.6005 32.0922C20.5005 32.1923 20.3773 32.2423 20.2311 32.2423ZM24.3304 32.2423C24.1842 32.2423 24.0611 32.1923 23.9611 32.0922C23.861 31.9922 23.811 31.8691 23.811 31.7229V24.6591C23.811 24.5128 23.861 24.3897 23.9611 24.2897C24.0611 24.182 24.1842 24.1281 24.3304 24.1281H26.962C27.5468 24.1281 28.0355 24.2051 28.4279 24.359C28.828 24.5052 29.1435 24.7052 29.3744 24.9591C29.6129 25.2054 29.7822 25.4785 29.8822 25.7786C29.9899 26.0787 30.0438 26.3827 30.0438 26.6905C30.0438 26.9983 29.9899 27.3022 29.8822 27.6023C29.7822 27.9024 29.6129 28.1794 29.3744 28.4334C29.1435 28.6796 28.828 28.8797 28.4279 29.0335C28.0355 29.1797 27.5468 29.2528 26.962 29.2528H24.8614V31.7229C24.8614 31.8691 24.8075 31.9922 24.6998 32.0922C24.5997 32.1923 24.4766 32.2423 24.3304 32.2423ZM24.8614 28.2602H26.8582C27.4353 28.2602 27.8777 28.1833 28.1855 28.0294C28.4933 27.8678 28.7049 27.6677 28.8203 27.4292C28.9358 27.1829 28.9935 26.9367 28.9935 26.6905C28.9935 26.4366 28.9358 26.1903 28.8203 25.9518C28.7049 25.7132 28.4933 25.517 28.1855 25.3631C27.8777 25.2015 27.4353 25.1207 26.8582 25.1207H24.8614V28.2602Z" fill="white"/>
<path d="M11.1625 31.9884L11.3691 31.7817H11.3691L11.1625 31.9884ZM11.1048 31.0881L10.8777 30.9041L10.8766 30.9055L11.1048 31.0881ZM15.9294 25.1323L16.1565 25.3162L16.5422 24.8401H15.9294V25.1323ZM11.1278 24.9938L10.9131 25.192L10.9211 25.2006L10.9296 25.2085L11.1278 24.9938ZM11.1278 24.2782L10.9211 24.0714L10.9131 24.08L11.1278 24.2782ZM17.0144 24.3474L16.7908 24.5357L16.796 24.5415L17.0144 24.3474ZM17.0144 25.3054L16.7957 25.1111L16.7871 25.1217L17.0144 25.3054ZM12.2474 31.2035L12.0202 31.0198L11.6356 31.4957H12.2474V31.2035ZM17.1183 31.3535L16.9035 31.5517L16.9115 31.5603L16.9201 31.5682L17.1183 31.3535ZM17.1183 32.0461L16.9199 31.8312L16.9116 31.8394L17.1183 32.0461ZM11.6357 32.1846V31.8924C11.5287 31.8924 11.4452 31.8579 11.3691 31.7817L11.1625 31.9884L10.9559 32.195C11.1414 32.3805 11.3734 32.4768 11.6357 32.4768V32.1846ZM11.1625 31.9884L11.3691 31.7817C11.293 31.7056 11.2585 31.6221 11.2585 31.5151H10.9663H10.674C10.674 31.7774 10.7703 32.0095 10.9559 32.195L11.1625 31.9884ZM10.9663 31.5151H11.2585C11.2585 31.4021 11.288 31.3268 11.3329 31.2706L11.1048 31.0881L10.8766 30.9055C10.7369 31.0802 10.674 31.2896 10.674 31.5151H10.9663ZM11.1048 31.0881L11.3318 31.272L16.1565 25.3162L15.9294 25.1323L15.7023 24.9483L10.8777 30.9041L11.1048 31.0881ZM15.9294 25.1323V24.8401H11.4857V25.1323V25.4245H15.9294V25.1323ZM11.4857 25.1323V24.8401C11.4192 24.8401 11.3711 24.8206 11.326 24.7791L11.1278 24.9938L10.9296 25.2085C11.0847 25.3516 11.2751 25.4245 11.4857 25.4245V25.1323ZM11.1278 24.9938L11.3426 24.7956C11.301 24.7506 11.2815 24.7024 11.2815 24.636H10.9893H10.6971C10.6971 24.8465 10.77 25.0369 10.9131 25.192L11.1278 24.9938ZM10.9893 24.636H11.2815C11.2815 24.5695 11.301 24.5214 11.3426 24.4764L11.1278 24.2782L10.9131 24.08C10.77 24.235 10.6971 24.4254 10.6971 24.636H10.9893ZM11.1278 24.2782L11.3345 24.4848C11.381 24.4382 11.4265 24.4203 11.4857 24.4203V24.1281V23.8359C11.2678 23.8359 11.0747 23.918 10.9212 24.0715L11.1278 24.2782ZM11.4857 24.1281V24.4203H16.495V24.1281V23.8359H11.4857V24.1281ZM16.495 24.1281V24.4203C16.648 24.4203 16.7328 24.4667 16.7909 24.5356L17.0144 24.3474L17.2379 24.1592C17.0497 23.9357 16.7883 23.8359 16.495 23.8359V24.1281ZM17.0144 24.3474L16.796 24.5415C16.8696 24.6244 16.9068 24.7199 16.9068 24.8437H17.199H17.4913C17.4913 24.5828 17.4054 24.3475 17.2328 24.1533L17.0144 24.3474ZM17.199 24.8437H16.9068C16.9068 24.9344 16.8764 25.0208 16.796 25.1113L17.0144 25.3054L17.2328 25.4995C17.3986 25.313 17.4913 25.0916 17.4913 24.8437H17.199ZM17.0144 25.3054L16.7871 25.1217L12.0202 31.0198L12.2474 31.2035L12.4747 31.3872L17.2416 25.4891L17.0144 25.3054ZM12.2474 31.2035V31.4957H16.772V31.2035V30.9113H12.2474V31.2035ZM16.772 31.2035V31.4957C16.8306 31.4957 16.8676 31.5128 16.9035 31.5517L17.1183 31.3535L17.333 31.1553C17.1842 30.9942 16.9904 30.9113 16.772 30.9113V31.2035ZM17.1183 31.3535L16.9201 31.5682C16.959 31.6042 16.9761 31.6412 16.9761 31.6998H17.2683H17.5605C17.5605 31.4814 17.4776 31.2876 17.3165 31.1388L17.1183 31.3535ZM17.2683 31.6998H16.9761C16.9761 31.7584 16.959 31.7954 16.9201 31.8313L17.1183 32.0461L17.3165 32.2608C17.4776 32.112 17.5605 31.9182 17.5605 31.6998H17.2683ZM17.1183 32.0461L16.9116 31.8394C16.8777 31.8734 16.8382 31.8924 16.772 31.8924V32.1846V32.4768C16.9828 32.4768 17.1742 32.4034 17.3249 32.2527L17.1183 32.0461ZM16.772 32.1846V31.8924H11.6357V32.1846V32.4768H16.772V32.1846ZM19.8618 32.0922L20.0684 31.8856V31.8856L19.8618 32.0922ZM19.8618 24.232L20.0685 24.4388L20.0759 24.4308L19.8618 24.232ZM20.6005 24.232L20.3864 24.4308L20.3937 24.4388L20.4017 24.4461L20.6005 24.232ZM20.6005 32.0922L20.4015 31.878L20.3939 31.8856L20.6005 32.0922ZM20.2311 32.2423V31.9501C20.1595 31.9501 20.1116 31.9288 20.0684 31.8856L19.8618 32.0922L19.6552 32.2989C19.812 32.4557 20.0103 32.5345 20.2311 32.5345V32.2423ZM19.8618 32.0922L20.0684 31.8856C20.0252 31.8424 20.0039 31.7945 20.0039 31.7229H19.7117H19.4195C19.4195 31.9437 19.4983 32.142 19.6552 32.2989L19.8618 32.0922ZM19.7117 31.7229H20.0039V24.6013H19.7117H19.4195V31.7229H19.7117ZM19.7117 24.6013H20.0039C20.0039 24.5297 20.0252 24.4818 20.0684 24.4386L19.8618 24.232L19.6552 24.0254C19.4983 24.1822 19.4195 24.3805 19.4195 24.6013H19.7117ZM19.8618 24.232L20.0759 24.4308C20.121 24.3823 20.1667 24.3626 20.2311 24.3626V24.0704V23.7782C20.0032 23.7782 19.8026 23.8663 19.6477 24.0332L19.8618 24.232ZM20.2311 24.0704V24.3626C20.2956 24.3626 20.3413 24.3823 20.3864 24.4308L20.6005 24.232L20.8146 24.0332C20.6596 23.8663 20.4591 23.7782 20.2311 23.7782V24.0704ZM20.6005 24.232L20.4017 24.4461C20.4502 24.4912 20.4699 24.5369 20.4699 24.6013H20.7621H21.0543C21.0543 24.3734 20.9662 24.1728 20.7993 24.0179L20.6005 24.232ZM20.7621 24.6013H20.4699V31.7229H20.7621H21.0543V24.6013H20.7621ZM20.7621 31.7229H20.4699C20.4699 31.7873 20.4502 31.833 20.4016 31.8781L20.6005 32.0922L20.7993 32.3064C20.9662 32.1514 21.0543 31.9508 21.0543 31.7229H20.7621ZM20.6005 32.0922L20.3939 31.8856C20.3506 31.9288 20.3027 31.9501 20.2311 31.9501V32.2423V32.5345C20.4519 32.5345 20.6503 32.4557 20.8071 32.2989L20.6005 32.0922ZM23.9611 32.0922L24.1677 31.8856V31.8856L23.9611 32.0922ZM23.9611 24.2897L24.1678 24.4965L24.1752 24.4885L23.9611 24.2897ZM28.4279 24.359L28.3212 24.6311L28.3276 24.6334L28.4279 24.359ZM29.3744 24.9591L29.158 25.1558L29.1645 25.1625L29.3744 24.9591ZM29.8822 25.7786L29.6049 25.8711L29.6072 25.8774L29.8822 25.7786ZM29.8822 27.6023L29.6071 27.5036L29.605 27.5099L29.8822 27.6023ZM29.3744 28.4334L29.1614 28.2333L29.1612 28.2335L29.3744 28.4334ZM28.4279 29.0335L28.5299 29.3074L28.5328 29.3063L28.4279 29.0335ZM24.8614 29.2528V28.9606H24.5692V29.2528H24.8614ZM24.6998 32.0922L24.5008 31.878L24.4931 31.8856L24.6998 32.0922ZM24.8614 28.2602H24.5692V28.5524H24.8614V28.2602ZM28.1855 28.0294L28.3162 28.2908L28.3213 28.2881L28.1855 28.0294ZM28.8203 27.4292L29.0834 27.5565L29.0849 27.5532L28.8203 27.4292ZM28.1855 25.3631L28.0497 25.6219L28.0548 25.6245L28.1855 25.3631ZM24.8614 25.1207V24.8285H24.5692V25.1207H24.8614ZM24.3304 32.2423V31.9501C24.2588 31.9501 24.2109 31.9288 24.1677 31.8856L23.9611 32.0922L23.7544 32.2989C23.9113 32.4557 24.1096 32.5345 24.3304 32.5345V32.2423ZM23.9611 32.0922L24.1677 31.8856C24.1245 31.8424 24.1032 31.7945 24.1032 31.7229H23.811H23.5188C23.5188 31.9437 23.5976 32.142 23.7544 32.2989L23.9611 32.0922ZM23.811 31.7229H24.1032V24.6591H23.811H23.5188V31.7229H23.811ZM23.811 24.6591H24.1032C24.1032 24.5874 24.1245 24.5395 24.1677 24.4963L23.9611 24.2897L23.7544 24.0831C23.5976 24.2399 23.5188 24.4382 23.5188 24.6591H23.811ZM23.9611 24.2897L24.1752 24.4885C24.2203 24.44 24.266 24.4203 24.3304 24.4203V24.1281V23.8359C24.1025 23.8359 23.9019 23.924 23.7469 24.0909L23.9611 24.2897ZM24.3304 24.1281V24.4203H26.962V24.1281V23.8359H24.3304V24.1281ZM26.962 24.1281V24.4203C27.5235 24.4203 27.9732 24.4945 28.3212 24.631L28.4279 24.359L28.5346 24.0869C28.0978 23.9156 27.5702 23.8359 26.962 23.8359V24.1281ZM28.4279 24.359L28.3276 24.6334C28.6939 24.7672 28.9658 24.9442 29.1581 25.1557L29.3744 24.9591L29.5906 24.7626C29.3212 24.4663 28.9622 24.2431 28.5282 24.0845L28.4279 24.359ZM29.3744 24.9591L29.1645 25.1625C29.3752 25.3799 29.52 25.6159 29.605 25.871L29.8822 25.7786L30.1594 25.6862C30.0444 25.3412 29.8507 25.0308 29.5842 24.7558L29.3744 24.9591ZM29.8822 25.7786L29.6072 25.8774C29.704 26.1469 29.7516 26.4175 29.7516 26.6905H30.0438H30.336C30.336 26.3478 30.2759 26.0105 30.1572 25.6799L29.8822 25.7786ZM30.0438 26.6905H29.7516C29.7516 26.9634 29.704 27.234 29.6072 27.5036L29.8822 27.6023L30.1572 27.701C30.2759 27.3704 30.336 27.0331 30.336 26.6905H30.0438ZM29.8822 27.6023L29.605 27.5099C29.5197 27.766 29.3739 28.007 29.1614 28.2333L29.3744 28.4334L29.5873 28.6334C29.8519 28.3518 30.0447 28.0388 30.1594 27.6947L29.8822 27.6023ZM29.3744 28.4334L29.1612 28.2335C28.9675 28.4401 28.6928 28.6186 28.323 28.7608L28.4279 29.0335L28.5328 29.3063C28.9633 29.1407 29.3196 28.9191 29.5875 28.6332L29.3744 28.4334ZM28.4279 29.0335L28.3259 28.7597C27.9762 28.89 27.5248 28.9606 26.962 28.9606V29.2528V29.5451C27.5689 29.5451 28.0947 29.4695 28.5299 29.3074L28.4279 29.0335ZM26.962 29.2528V28.9606H24.8614V29.2528V29.5451H26.962V29.2528ZM24.8614 29.2528H24.5692V31.7229H24.8614H25.1536V29.2528H24.8614ZM24.8614 31.7229H24.5692C24.5692 31.7873 24.5495 31.833 24.5009 31.8781L24.6998 32.0922L24.8986 32.3064C25.0655 32.1514 25.1536 31.9508 25.1536 31.7229H24.8614ZM24.6998 32.0922L24.4931 31.8856C24.4499 31.9288 24.402 31.9501 24.3304 31.9501V32.2423V32.5345C24.5512 32.5345 24.7495 32.4557 24.9064 32.2989L24.6998 32.0922ZM24.8614 28.2602V28.5524H26.8582V28.2602V27.968H24.8614V28.2602ZM26.8582 28.2602V28.5524C27.4538 28.5524 27.9492 28.4742 28.3162 28.2907L28.1855 28.0294L28.0548 27.768C27.8063 27.8923 27.4168 27.968 26.8582 27.968V28.2602ZM28.1855 28.0294L28.3213 28.2881C28.6673 28.1065 28.9333 27.8666 29.0834 27.5565L28.8203 27.4292L28.5573 27.3019C28.4765 27.4689 28.3193 27.6291 28.0497 27.7707L28.1855 28.0294ZM28.8203 27.4292L29.0849 27.5532C29.2166 27.2722 29.2857 26.9839 29.2857 26.6905H28.9935H28.7013C28.7013 26.8895 28.6549 27.0936 28.5558 27.3052L28.8203 27.4292ZM28.9935 26.6905H29.2857C29.2857 26.3905 29.2171 26.1009 29.0834 25.8245L28.8203 25.9518L28.5573 26.0791C28.6544 26.2797 28.7013 26.4826 28.7013 26.6905H28.9935ZM28.8203 25.9518L29.0834 25.8245C28.9324 25.5126 28.6644 25.2759 28.3162 25.1018L28.1855 25.3631L28.0548 25.6245C28.3222 25.7582 28.4774 25.9139 28.5573 26.0791L28.8203 25.9518ZM28.1855 25.3631L28.3213 25.1044C27.9527 24.9108 27.4551 24.8285 26.8582 24.8285V25.1207V25.4129C27.4155 25.4129 27.8028 25.4922 28.0497 25.6218L28.1855 25.3631ZM26.8582 25.1207V24.8285H24.8614V25.1207V25.4129H26.8582V25.1207ZM24.8614 25.1207H24.5692V28.2602H24.8614H25.1536V25.1207H24.8614Z" fill="white" mask="url(#path-4-outside-1_383_20892)"/>
<g filter="url(#filter1_d_383_20892)">
<path d="M39.7405 14.9026H28.0522C26.277 14.9026 24.8379 13.4635 24.8379 11.6883V0L39.7405 14.9026Z" fill="url(#paint2_linear_383_20892)"/>
</g>
</g>
<defs>
<filter id="filter0_f_383_20892" x="1.16914" y="15.341" width="37.4025" height="23.6686" filterUnits="userSpaceOnUse" color-interpolation-filters="sRGB">
<feFlood flood-opacity="0" result="BackgroundImageFix"/>
<feBlend mode="normal" in="SourceGraphic" in2="BackgroundImageFix" result="shape"/>
<feGaussianBlur stdDeviation="2.84903" result="effect1_foregroundBlur_383_20892"/>
</filter>
<filter id="filter1_d_383_20892" x="21.4775" y="-3.50649" width="22.208" height="22.2075" filterUnits="userSpaceOnUse" color-interpolation-filters="sRGB">
<feFlood flood-opacity="0" result="BackgroundImageFix"/>
<feColorMatrix in="SourceAlpha" type="matrix" values="0 0 0 0 0 0 0 0 0 0 0 0 0 0 0 0 0 0 127 0" result="hardAlpha"/>
<feOffset dx="0.292208" dy="0.146104"/>
<feGaussianBlur stdDeviation="1.8263"/>
<feColorMatrix type="matrix" values="0 0 0 0 0 0 0 0 0 0 0 0 0 0 0 0 0 0 0.33 0"/>
<feBlend mode="normal" in2="BackgroundImageFix" result="effect1_dropShadow_383_20892"/>
<feBlend mode="normal" in="SourceGraphic" in2="effect1_dropShadow_383_20892" result="shape"/>
</filter>
<linearGradient id="paint0_linear_383_20892" x1="19.8701" y1="0" x2="19.8701" y2="45" gradientUnits="userSpaceOnUse">
<stop stop-color="#FF7979"/>
<stop offset="1" stop-color="#E85555"/>
</linearGradient>
<linearGradient id="paint1_linear_383_20892" x1="19.8701" y1="0" x2="19.8701" y2="45" gradientUnits="userSpaceOnUse">
<stop stop-color="#2EBC89"/>
<stop offset="1" stop-color="#1DA473"/>
</linearGradient>
<linearGradient id="paint2_linear_383_20892" x1="32.2892" y1="0" x2="32.2892" y2="14.9026" gradientUnits="userSpaceOnUse">
<stop stop-color="#23A476"/>
<stop offset="1" stop-color="#11835A"/>
</linearGradient>
</defs>
</svg>
