<?xml version="1.0" encoding="UTF-8"?>
<svg version="1.1" xmlns="http://www.w3.org/2000/svg" width="3238" height="1315">
<path d="M0 0 C54.07033032 -0.97172487 107.70923454 3.17459549 160.71551514 14.0435791 C161.40951416 14.18581909 162.10351318 14.32805908 162.81854248 14.47460938 C210.48247532 24.31206441 257.21192302 39.3700448 301.71551514 59.0435791 C302.74676514 59.49378418 303.77801514 59.94398926 304.84051514 60.40783691 C331.76221682 72.19493722 357.72152057 85.95061462 382.79315186 101.26135254 C385.52055777 102.9246828 388.25808006 104.56950911 391.00067139 106.2076416 C398.22892339 110.54269754 405.24151734 114.97708605 411.98504639 120.04748535 C414.52193795 121.90206559 417.1144265 123.63561509 419.74945068 125.34680176 C430.50180455 132.33633082 440.58612786 140.19011766 450.71551514 148.0435791 C451.51070557 148.65620605 452.305896 149.26883301 453.12518311 149.90002441 C457.53705572 153.30831416 461.86162081 156.78625003 466.09051514 160.4185791 C470.11008043 163.85030283 474.16093146 167.22852471 478.27801514 170.5435791 C483.71301212 174.97759822 488.88908739 179.66396199 494.01092529 184.45227051 C495.81712638 186.1384376 497.63155919 187.81548567 499.44598389 189.49279785 C508.07805058 197.5096405 516.50116723 205.72440717 524.84051514 214.0435791 C525.3316983 214.53217407 525.82288147 215.02076904 526.32894897 215.52416992 C531.47322217 220.64698843 536.51024625 225.80494367 541.23553467 231.31848145 C543.29496773 233.71900173 545.44447931 236.03301338 547.59051514 238.3560791 C551.60932107 242.76711084 555.44416837 247.28093268 559.18817139 251.9263916 C561.0659943 254.25595852 562.97575631 256.55615307 564.89910889 258.8482666 C583.82444528 281.45784956 600.88947992 305.72334957 616.34490967 330.82434082 C617.66316258 332.95881161 618.99774457 335.08215036 620.33660889 337.20373535 C659.80292307 400.18941185 687.31759436 470.27150107 704.75473022 542.37249756 C705.1319694 543.931648 705.51149055 545.49024899 705.89382935 547.04815674 C709.61649733 562.29067968 712.03855654 577.51721927 714.71551514 593.0435791 C672.80551514 593.0435791 630.89551514 593.0435791 587.71551514 593.0435791 C583.71551514 577.0435791 583.71551514 577.0435791 582.11004639 570.37561035 C573.09759039 533.02250759 560.57149409 497.01206965 544.71551514 462.0435791 C544.23968994 460.9926709 543.76386475 459.9417627 543.27362061 458.85900879 C536.9996561 445.11646346 529.96041136 431.91178301 522.35516357 418.86242676 C520.75519029 416.11178776 519.17548997 413.35031339 517.59832764 410.58654785 C500.0305855 380.05141829 479.00473731 351.87175983 456.02801514 325.2310791 C455.5542041 324.68161621 455.08039307 324.13215332 454.59222412 323.56604004 C445.60334219 313.23858155 436.20624166 303.34769419 426.52703857 293.6697998 C424.71195957 291.85251922 422.90507607 290.02734077 421.09832764 288.20178223 C414.98030815 282.05498443 408.80065642 276.2624797 402.00311279 270.86560059 C399.34000859 268.74449635 396.87716376 266.50550604 394.40301514 264.1685791 C388.74859912 258.98403709 382.83121846 254.24904836 376.74090576 249.59338379 C375.3484068 248.52786023 373.95925968 247.45794646 372.57293701 246.38439941 C295.10844432 186.45205298 202.47990865 147.04486297 19.52801514 125.7935791 C18.36932922 125.79290436 17.21064331 125.79222961 16.0168457 125.79153442 C-27.02262877 125.83102695 -69.31531728 130.41111738 -111.28448486 140.0435791 C-112.42369385 140.30364746 -113.56290283 140.56371582 -114.7366333 140.83166504 C-152.92198974 149.67197 -189.68860482 162.64999451 -225.28448486 179.0435791 C-226.32056885 179.51908203 -227.35665283 179.99458496 -228.4241333 180.48449707 C-242.83160921 187.13700793 -256.76798583 194.40182065 -270.47149658 202.40246582 C-273.28905208 204.04624364 -276.11620605 205.67251497 -278.94464111 207.29748535 C-291.12394112 214.34107635 -302.80855665 221.90899143 -314.28448486 230.0435791 C-315.42893066 230.8479541 -315.42893066 230.8479541 -316.59649658 231.6685791 C-326.90570856 238.92361346 -336.82758725 246.54008771 -346.52716064 254.5904541 C-349.05381853 256.67973831 -351.60916393 258.73329179 -354.15948486 260.7935791 C-359.35319944 265.04792228 -364.32463928 269.5208994 -369.28448486 274.0435791 C-370.80515653 275.39792731 -372.32599422 276.75208912 -373.84698486 278.1060791 C-384.98346881 288.15350626 -395.93552368 298.28558311 -405.90264893 309.50891113 C-407.97093493 311.80595103 -410.09486359 314.0496104 -412.2131958 316.30041504 C-417.32557619 321.74243653 -422.25797143 327.26043731 -426.92510986 333.09436035 C-428.68762781 335.29750779 -430.46700245 337.47852541 -432.26885986 339.64904785 C-450.88227959 362.13943917 -467.84274301 386.65775052 -482.28448486 412.0435791 C-482.78866943 412.92094727 -483.292854 413.79831543 -483.81231689 414.70227051 C-499.88189574 442.7163937 -514.27413034 471.6377602 -525.28448486 502.0435791 C-520.72917471 504.09194004 -516.17925383 505.77660476 -511.42071533 507.28820801 C-494.54649088 512.65044021 -478.35821418 519.65412311 -462.28448486 527.0435791 C-462.92400121 531.39424377 -464.53134614 535.06073949 -466.42510986 538.98498535 C-466.90278305 539.99241791 -466.90278305 539.99241791 -467.3901062 541.02020264 C-468.43328092 543.21788785 -469.48394501 545.41190644 -470.53448486 547.6060791 C-471.63206836 549.91436948 -472.7276456 552.22360528 -473.82315063 554.53288269 C-474.5652082 556.09675396 -475.30790824 557.66032054 -476.05123901 559.22358704 C-479.46805361 566.4127597 -482.82035915 573.63052148 -486.15948486 580.8560791 C-491.45269705 592.29134549 -496.83394049 603.68251303 -502.28448486 615.0435791 C-503.2938208 614.58209473 -504.30315674 614.12061035 -505.34307861 613.6451416 C-535.55061068 599.95205911 -566.38951402 588.23014411 -599.28448486 583.0435791 C-600.30026611 582.88131836 -601.31604736 582.71905762 -602.36260986 582.55187988 C-659.15394198 573.9101084 -717.9446232 582.8622796 -770.28448486 606.0435791 C-771.148479 606.42208008 -772.01247314 606.80058105 -772.90264893 607.19055176 C-799.37297201 618.89953219 -823.60641274 634.9123843 -845.28448486 654.0435791 C-846.08370361 654.73193848 -846.88292236 655.42029785 -847.70635986 656.1295166 C-859.84775128 666.76341982 -871.42844314 678.25091414 -881.28448486 691.0435791 C-882.1585453 692.13002177 -883.03498697 693.21455161 -883.91339111 694.29748535 C-894.73631764 707.71283182 -903.77006417 722.07741663 -912.28448486 737.0435791 C-912.62689209 737.63509766 -912.96929932 738.22661621 -913.32208252 738.83605957 C-938.19781375 781.99440182 -949.54189322 833.01998124 -949.47198486 882.5435791 C-949.47138062 883.33760132 -949.47077637 884.13162354 -949.47015381 884.94970703 C-949.44446404 897.41676336 -949.04011247 909.68415394 -947.28448486 922.0435791 C-947.09910156 923.40821289 -947.09910156 923.40821289 -946.90997314 924.80041504 C-936.63786702 998.53546047 -898.34819766 1070.73316462 -839.28448486 1117.0435791 C-838.11976495 1117.99561396 -836.9571242 1118.95019623 -835.79620361 1119.90686035 C-817.03416071 1135.29889003 -796.23760386 1147.73234999 -774.28448486 1158.0435791 C-773.34886719 1158.48347168 -773.34886719 1158.48347168 -772.39434814 1158.93225098 C-744.39605544 1171.94258311 -714.848707 1179.90686508 -684.28448486 1184.0435791 C-683.42935303 1184.16072266 -682.57422119 1184.27786621 -681.69317627 1184.39855957 C-642.60450843 1189.50764356 -604.35319062 1184.13913619 -566.23443604 1175.66027832 C-563.26698753 1175.03992121 -560.27483587 1174.54197094 -557.28448486 1174.0435791 C-557.28448486 1206.7135791 -557.28448486 1239.3835791 -557.28448486 1273.0435791 C-565.86378856 1275.02341842 -574.2337362 1276.81179338 -582.90948486 1278.1060791 C-584.03467529 1278.27599365 -585.15986572 1278.4459082 -586.31915283 1278.62097168 C-595.95163138 1280.04742219 -605.58358106 1281.2080401 -615.28448486 1282.0435791 C-616.51811768 1282.15572754 -617.75175049 1282.26787598 -619.02276611 1282.38342285 C-722.16155681 1290.33393153 -826.98251013 1255.02096808 -905.40948486 1188.0435791 C-920.95870401 1174.61791581 -936.74959547 1160.63068602 -949.42901611 1144.3951416 C-951.22923353 1142.1136029 -953.12623229 1139.99072794 -955.09698486 1137.8560791 C-972.17178407 1118.7605936 -985.66845073 1096.22114802 -998.28448486 1074.0435791 C-998.90033447 1072.97091797 -998.90033447 1072.97091797 -999.52862549 1071.87658691 C-1033.72875508 1011.83700677 -1048.1402819 939.59825884 -1046.28448486 871.0435791 C-1046.26369873 870.11625977 -1046.2429126 869.18894043 -1046.22149658 868.23352051 C-1044.15732744 784.61173522 -1013.54653586 701.29503306 -961.28448486 636.0435791 C-960.84829834 635.49008789 -960.41211182 634.93659668 -959.96270752 634.36633301 C-948.94154473 620.38961112 -936.8903809 607.59477329 -924.34698486 594.9810791 C-923.66152588 594.2908667 -922.97606689 593.6006543 -922.26983643 592.88952637 C-917.77100624 588.40543034 -913.11971499 584.1616419 -908.28448486 580.0435791 C-907.64680176 579.49919189 -907.00911865 578.95480469 -906.35211182 578.3939209 C-884.88019586 560.20036687 -861.80216796 544.80613677 -837.28448486 531.0435791 C-836.27345703 530.46809326 -836.27345703 530.46809326 -835.24200439 529.88098145 C-780.67570433 498.96326031 -713.8731199 482.19789255 -651.28448486 483.0435791 C-651.12955566 482.41991455 -650.97462646 481.79625 -650.81500244 481.15368652 C-648.7069825 473.02885747 -645.93163517 465.20062147 -642.97198486 457.3560791 C-642.71359833 456.66849518 -642.45521179 455.98091125 -642.18899536 455.27249146 C-629.71080026 422.18078648 -614.81066033 389.76009528 -597.28448486 359.0435791 C-596.70392334 358.02393066 -596.12336182 357.00428223 -595.52520752 355.95373535 C-587.7641525 342.40627089 -579.57794834 329.21331825 -570.90948486 316.2310791 C-570.50109375 315.61917725 -570.09270264 315.00727539 -569.67193604 314.37683105 C-561.77395719 302.57369618 -553.63421301 290.9260269 -544.97198486 279.6685791 C-544.433479 278.96652344 -543.89497314 278.26446777 -543.34014893 277.5411377 C-537.92880915 270.52208103 -532.34660506 263.64640349 -526.72003174 256.79943848 C-525.44403246 255.23872644 -524.18343831 253.66544798 -522.92510986 252.0904541 C-518.21229009 246.20802942 -513.23274268 240.64473832 -508.06378174 235.16418457 C-505.3477932 232.2833088 -502.69298155 229.37211087 -500.11480713 226.36682129 C-496.18432552 221.86541858 -492.01841672 217.6332528 -487.78839111 213.41467285 C-486.99601547 212.62134048 -486.20363983 211.82800812 -485.38725281 211.01063538 C-483.72198204 209.34468829 -482.05546458 207.67998654 -480.38775635 206.01647949 C-477.85413864 203.48821776 -475.32590319 200.95466249 -472.79815674 198.42053223 C-471.17022204 196.7932584 -469.54197712 195.16629485 -467.91339111 193.53967285 C-467.16731094 192.79156845 -466.42123077 192.04346405 -465.65254211 191.27268982 C-461.02221353 186.66270147 -456.24536536 182.29423261 -451.28448486 178.0435791 C-450.116624 177.02150453 -448.94977898 175.99826663 -447.78448486 174.9732666 C-434.67721199 163.51322397 -421.22288293 152.48048624 -407.28448486 142.0435791 C-406.71294678 141.61270996 -406.14140869 141.18184082 -405.55255127 140.73791504 C-380.70018888 122.09696811 -354.49426654 105.01943484 -327.28448486 90.0435791 C-325.3806089 88.98149153 -323.47695938 87.91899791 -321.57354736 86.8560791 C-278.87969878 63.15596528 -233.84418488 44.630415 -187.28448486 30.0435791 C-185.54787598 29.49927246 -185.54787598 29.49927246 -183.77618408 28.94396973 C-140.34022278 15.52871991 -95.40826951 7.9030636 -50.28448486 3.0435791 C-49.24662842 2.93030273 -48.20877197 2.81702637 -47.13946533 2.70031738 C-31.45431229 1.02288845 -15.7671868 0.30077671 0 0 Z " fill="#0589F1" transform="translate(1046.2844848632813,-0.0435791015625)"/>
<path d="M0 0 C20.13 0 40.26 0 61 0 C61 154.44 61 308.88 61 468 C40.87 468 20.74 468 0 468 C-0.33 458.43 -0.66 448.86 -1 439 C-3.97 441.64 -6.94 444.28 -10 447 C-42.88426125 471.32975413 -88.78276441 475.84372552 -128.2331543 470.0559082 C-170.88370484 463.12433246 -208.84394193 439.23478416 -234.1875 404.1875 C-259.12912362 368.6564691 -269.15836787 325.28678231 -262.40673828 282.2890625 C-257.94534325 257.1809954 -248.24374033 234.43485191 -233 214 C-232.37738281 213.1646875 -231.75476562 212.329375 -231.11328125 211.46875 C-223.16558152 201.20505392 -214.17335977 191.10135439 -204 183 C-203.06027344 182.23429688 -202.12054687 181.46859375 -201.15234375 180.6796875 C-175.80323893 160.36029181 -143.75257693 147.00088798 -110.9609375 146.796875 C-110.20619141 146.78986069 -109.45144531 146.78284637 -108.67382812 146.77561951 C-106.2408244 146.75816022 -103.80806414 146.75176391 -101.375 146.75 C-100.12846649 146.74898788 -100.12846649 146.74898788 -98.85675049 146.74795532 C-86.02105398 146.76452131 -73.58581972 147.26827754 -61 150 C-60.20577637 150.16628906 -59.41155273 150.33257813 -58.59326172 150.50390625 C-35.99501983 155.38610294 -18.79996688 165.16669427 -1 180 C-0.67 120.6 -0.34 61.2 0 0 Z M-178.1875 242.1875 C-196.52589892 263.14992998 -204.86694642 289.70684192 -203.22314453 317.38867188 C-200.71638102 346.7238387 -186.71053762 369.37707101 -164.93359375 388.62109375 C-143.88143879 405.69268146 -117.44536018 412.89297629 -90.5625 410.375 C-62.61670669 407.2353725 -38.39671301 392.95030668 -20.62792969 371.33056641 C-3.99471089 349.91094887 2.81008409 323.13289805 -0.31640625 296.28271484 C-4.6054638 268.07591524 -18.61577879 243.9607346 -41.58447266 226.81738281 C-85.58435301 195.30167282 -141.66941338 204.12397711 -178.1875 242.1875 Z " fill="#FEFEFE" transform="translate(1663,640)"/>
<path d="M0 0 C0.55558594 0.45552246 1.11117188 0.91104492 1.68359375 1.38037109 C28.07734987 23.10819315 49.09622275 50.18608111 64 81 C64 81.66 64 82.32 64 83 C45.52 90.92 27.04 98.84 8 107 C5.66064846 104.66064846 4.43265538 103.2687643 2.90625 100.515625 C2.52154541 99.8352417 2.13684082 99.1548584 1.74047852 98.45385742 C1.33112061 97.72658447 0.9217627 96.99931152 0.5 96.25 C-21.80322821 57.61003853 -57.12856527 28.42813834 -100.48046875 16.75390625 C-114.53914075 13.21051222 -128.50824361 11.58513823 -143 11.625 C-143.71622528 11.62521149 -144.43245056 11.62542297 -145.17037964 11.62564087 C-177.83392402 11.72130872 -209.33502607 22.00968389 -236 41 C-236.95261719 41.66515625 -237.90523437 42.3303125 -238.88671875 43.015625 C-273.61842672 68.0558417 -296.96318817 105.30868214 -304.48095703 147.42895508 C-309.58856646 179.94487009 -306.19119764 215.08229972 -292 245 C-291.47664063 246.12535156 -290.95328125 247.25070312 -290.4140625 248.41015625 C-282.67665862 264.49765436 -272.09232904 277.9774918 -260 291 C-259.46117187 291.59296875 -258.92234375 292.1859375 -258.3671875 292.796875 C-253.02879857 298.43035075 -246.80774824 303.06792906 -240.64257812 307.75 C-239.28917244 308.77994012 -237.94760046 309.8254114 -236.609375 310.875 C-202.69673374 336.24848698 -158.00396335 343.54716057 -116.79541016 338.15795898 C-90.97240933 334.37461397 -65.60158121 324.04691245 -45 308 C-43.69482422 307.00226563 -43.69482422 307.00226563 -42.36328125 305.984375 C-21.95835918 289.898743 -5.65004162 269.19788989 6 246 C10.08745672 246.56527238 13.55977544 247.4727736 17.34692383 249.10131836 C18.3643013 249.53524399 19.38167877 249.96916962 20.42988586 250.41624451 C21.51134384 250.88603226 22.59280182 251.35582001 23.70703125 251.83984375 C24.82816818 252.32199844 25.94930511 252.80415314 27.10441589 253.30091858 C29.46678301 254.318986 31.82770196 255.34041957 34.18725586 256.36499023 C37.81266833 257.93757302 41.44401047 259.49581317 45.07617188 261.05273438 C47.3701604 262.04341744 49.66379295 263.0349253 51.95703125 264.02734375 C53.04861038 264.49510727 54.14018951 264.96287079 55.2648468 265.44480896 C56.26646347 265.88188675 57.26808014 266.31896454 58.30004883 266.76928711 C59.62858635 267.34434242 59.62858635 267.34434242 60.98396301 267.93101501 C63 269 63 269 64 271 C63.26245117 272.82495117 63.26245117 272.82495117 62.04296875 275.04296875 C61.5948584 275.86216797 61.14674805 276.68136719 60.68505859 277.52539062 C60.19086426 278.40388672 59.69666992 279.28238281 59.1875 280.1875 C58.68557129 281.08791016 58.18364258 281.98832031 57.66650391 282.91601562 C42.6555991 309.51188468 23.21909112 334.22763517 -1 353 C-1.92167969 353.72703125 -2.84335937 354.4540625 -3.79296875 355.203125 C-11.83359391 361.40992337 -20.26705285 366.8263354 -29 372 C-29.76876465 372.45697266 -30.5375293 372.91394531 -31.32958984 373.38476562 C-43.75452663 380.69266011 -56.34725945 386.38901408 -70 391 C-70.82999512 391.28214355 -71.65999023 391.56428711 -72.51513672 391.85498047 C-129.94798363 411.03694095 -192.82550911 404.71581352 -246.6875 377.875 C-249.14056373 376.61134797 -251.57185175 375.31072857 -254 374 C-255.16144531 373.38898438 -256.32289063 372.77796875 -257.51953125 372.1484375 C-280.72281112 359.49210303 -301.80293046 340.76944802 -318 320 C-318.50321777 319.36255859 -319.00643555 318.72511719 -319.52490234 318.06835938 C-326.64211296 309.04124053 -333.35073405 300.03309632 -339 290 C-339.38220703 289.32839844 -339.76441406 288.65679688 -340.15820312 287.96484375 C-353.73027598 263.91796982 -362.38208242 238.15867731 -367 211 C-367.18006592 209.96480225 -367.18006592 209.96480225 -367.36376953 208.90869141 C-376.661824 152.6353692 -361.27676658 91.79115391 -328.34033203 45.67626953 C-322.59643546 37.82243827 -316.59536706 30.2387065 -309.9609375 23.11328125 C-308.15390788 21.16586487 -306.45229001 19.16359609 -304.75 17.125 C-274.38320551 -17.48063765 -229.4845052 -38.37677502 -185 -47 C-184.19208008 -47.16516113 -183.38416016 -47.33032227 -182.55175781 -47.50048828 C-118.59890902 -60.14719682 -49.85876891 -41.22437273 0 0 Z " fill="#FEFEFE" transform="translate(552,713)"/>
<path d="M0 0 C0.79436462 0.00182281 1.58872925 0.00364563 2.40716553 0.00552368 C13.95918558 0.05016594 24.99739938 0.49649964 36.25 3.3125 C36.95044434 3.47347168 37.65088867 3.63444336 38.37255859 3.80029297 C71.75513916 11.50738243 103.92923549 31.239238 125.25 58.3125 C125.67458496 58.84117676 126.09916992 59.36985352 126.53662109 59.91455078 C152.38137525 92.27948979 164.42159678 130.96821713 162.25 172.3125 C161.92 174.9525 161.59 177.5925 161.25 180.3125 C75.12 180.6425 -11.01 180.9725 -99.75 181.3125 C-96.17299515 194.48940186 -96.17299515 194.48940186 -90.875 206.6875 C-90.53041748 207.34339111 -90.18583496 207.99928223 -89.83081055 208.67504883 C-88.82384496 210.56597593 -87.7912648 212.4403007 -86.75 214.3125 C-86.21761719 215.29863281 -85.68523438 216.28476562 -85.13671875 217.30078125 C-73.10375066 237.93299205 -50.00593569 253.4763994 -27.26904297 259.83935547 C-3.60037052 265.82833716 21.20403272 263.96424326 43.25 253.3125 C44.43078125 252.75949219 45.6115625 252.20648437 46.828125 251.63671875 C65.72789587 242.42938936 78.77189286 227.61100697 89.2590332 209.66650391 C91.75898822 205.52728325 91.75898822 205.52728325 94.04656982 204.52662659 C97.00430285 204.23919779 98.75125787 205.0472637 101.47753906 206.21850586 C102.51831604 206.65903793 103.55909302 207.09957001 104.63140869 207.55345154 C105.74820007 208.03983597 106.86499146 208.5262204 108.015625 209.02734375 C109.16415955 209.51707169 110.31269409 210.00679962 111.49603271 210.5113678 C114.54427776 211.81353287 117.58794968 213.12541851 120.62988281 214.44219971 C123.73669404 215.78419209 126.84903597 217.11322445 129.9609375 218.44335938 C136.06246365 221.05448252 142.15829111 223.67856102 148.25 226.3125 C147.35196628 230.32557115 145.62763242 233.7129177 143.6875 237.3125 C143.32889893 237.97822021 142.97029785 238.64394043 142.60083008 239.32983398 C133.16664648 256.57873166 120.52560847 273.78947682 105.25 286.3125 C104.76144531 286.71871582 104.27289062 287.12493164 103.76953125 287.54345703 C70.12397683 315.3947256 28.849981 328.25637195 -14.6875 324.5625 C-57.21031751 320.46314746 -97.17847847 300.70245668 -124.6875 267.625 C-126.05308397 265.86295617 -127.40742205 264.09213549 -128.75 262.3125 C-129.48347656 261.3946875 -130.21695313 260.476875 -130.97265625 259.53125 C-157.11947289 226.16378588 -166.39829762 183.24466056 -161.80249023 141.58032227 C-156.72818303 101.63704692 -136.0965013 63.83075734 -104.75 38.3125 C-103.64969946 37.38806858 -102.54944317 36.46358451 -101.44921875 35.5390625 C-72.51781204 11.50379908 -37.5090323 -0.17882908 0 0 Z M-61.75 82.3125 C-62.6884375 82.99441406 -63.626875 83.67632813 -64.59375 84.37890625 C-73.37806265 91.08914508 -80.10213542 99.06603593 -86.25 108.1875 C-86.68376953 108.83017822 -87.11753906 109.47285645 -87.56445312 110.13500977 C-89.61656025 113.26710825 -90.83092701 115.63620804 -91.75 119.3125 C-31.03 119.3125 29.69 119.3125 92.25 119.3125 C77.4709502 92.21757536 56.38230759 73.79267844 27.0078125 64.28515625 C-5.26884265 55.93080372 -35.27930522 62.98481557 -61.75 82.3125 Z " fill="#FEFEFE" transform="translate(2300.75,786.6875)"/>
<path d="M0 0 C20.13 0 40.26 0 61 0 C61.33 49.83 61.66 99.66 62 151 C66.62 148.36 71.24 145.72 76 143 C79.21451448 141.59969107 82.27216203 140.32368529 85.5625 139.1875 C86.36405518 138.90181152 87.16561035 138.61612305 87.99145508 138.32177734 C120.21737084 127.09901425 157.48831407 129.33283127 188.29223633 143.81933594 C199.63323017 149.39458222 209.6072654 156.37144221 218.859375 165.01171875 C220.58936838 166.61859216 222.33446146 168.10445125 224.1875 169.5625 C248.26364202 190.42848975 261.04041605 222.41054132 263.78883171 253.50814247 C264.24651013 261.07626668 264.12909992 268.66185955 264.11352539 276.2409668 C264.11324292 278.17359923 264.11340243 280.10623177 264.1139679 282.03886414 C264.11425352 287.2570641 264.10839477 292.47524084 264.10139394 297.69343543 C264.09512129 303.15734217 264.09455351 308.62124951 264.09336853 314.0851593 C264.09026672 324.41917733 264.08206888 334.75318472 264.07201904 345.08719808 C264.06082213 356.85748172 264.05533845 368.62776588 264.05032361 380.39805353 C264.03988527 404.5987096 264.02155413 428.7993511 264 453 C243.87 453 223.74 453 203 453 C202.97812622 444.21169556 202.97812622 444.21169556 202.95581055 435.24584961 C202.90542777 415.86768104 202.83897488 396.48959205 202.76428509 377.11150265 C202.71940074 365.36495297 202.67996919 353.61843312 202.65356445 341.87182617 C202.63052467 331.62842288 202.59706014 321.38511453 202.55129844 311.14178663 C202.52744672 305.72262755 202.50866531 300.30356203 202.50238609 294.88435173 C202.49629866 289.77322452 202.47616798 284.66233647 202.44572449 279.55129814 C202.43700252 277.68543667 202.43320941 275.81954387 202.43499184 273.95366287 C202.44859261 253.12798036 199.33613867 235.7433757 186 219 C185.52949219 218.36449219 185.05898437 217.72898437 184.57421875 217.07421875 C174.91441123 204.67889052 158.48551656 196.00028201 143 194 C131.48842238 193.2375537 119.9758516 193.07395666 109 197 C108.18144531 197.25523437 107.36289063 197.51046875 106.51953125 197.7734375 C88.47272132 204.02813474 75.49653621 218.59853822 67.25 235.3125 C61.81230921 248.22859021 61.55464469 261.00388145 61.56762695 274.76513672 C61.55859237 276.71792209 61.54826105 278.67070182 61.53674316 280.62347412 C61.50934616 285.88282324 61.49991232 291.14206425 61.49388909 296.40147543 C61.48446008 301.91345534 61.45825325 307.42535592 61.43388367 312.93728638 C61.39033898 323.35618185 61.36171828 333.77506183 61.33856028 344.19402039 C61.31144389 356.06357272 61.2675365 367.93304476 61.22227156 379.80253959 C61.12959767 404.20166107 61.06005412 428.60077492 61 453 C40.87 453 20.74 453 0 453 C0 303.51 0 154.02 0 0 Z " fill="#FEFEFE" transform="translate(2835,655)"/>
<path d="M0 0 C0.79336761 0.00149048 1.58673523 0.00298096 2.40414429 0.0045166 C13.95072218 0.04352679 24.9967436 0.52609326 36.25 3.3125 C37.51457031 3.60253906 38.77914062 3.89257812 40.08203125 4.19140625 C80.43933501 14.12487237 116.67039834 40.83955404 138.46191406 76.28369141 C154.42595181 103.06981648 162.47246441 130.90354951 162.5 162.0625 C162.50100708 162.84806274 162.50201416 163.63362549 162.50305176 164.44299316 C162.49274689 176.31117535 161.97738904 187.71600274 159.25 199.3125 C159.0331958 200.29089844 159.0331958 200.29089844 158.81201172 201.2890625 C152.59839182 228.92350052 138.18332462 253.5077787 119.25 274.3125 C117.99316406 275.69501953 117.99316406 275.69501953 116.7109375 277.10546875 C86.14534988 309.10237543 44.38510793 324.20928013 0.81152344 325.28076172 C-24.11994758 325.58967243 -48.2923247 319.9854546 -70.75 309.3125 C-71.68457031 308.879375 -72.61914062 308.44625 -73.58203125 308 C-87.65904072 301.26077027 -101.10721064 291.75795783 -111.75 280.3125 C-112.925625 279.136875 -112.925625 279.136875 -114.125 277.9375 C-114.99125 277.07125 -115.8575 276.205 -116.75 275.3125 C-117.38421875 274.7246875 -118.0184375 274.136875 -118.671875 273.53125 C-147.18562495 246.43307629 -161.12732516 206.81899424 -162.6796875 168.21044922 C-163.66657989 129.10483829 -151.9847589 91.47692495 -126.75 61.3125 C-126.01523437 60.43078125 -125.28046875 59.5490625 -124.5234375 58.640625 C-122.33039996 56.12725614 -120.06345852 53.71562745 -117.75 51.3125 C-117.22067871 50.75208008 -116.69135742 50.19166016 -116.14599609 49.61425781 C-107.39395702 40.37882829 -98.36691683 32.33741579 -87.75 25.3125 C-87.15251953 24.91337402 -86.55503906 24.51424805 -85.93945312 24.10302734 C-72.48211199 15.23740114 -57.93691523 9.23939492 -42.4375 4.9375 C-41.57954834 4.69878174 -40.72159668 4.46006348 -39.83764648 4.21411133 C-26.62567062 0.75177475 -13.57667169 -0.06315474 0 0 Z M-69.75 89.3125 C-70.59691406 90.15296875 -71.44382812 90.9934375 -72.31640625 91.859375 C-91.56699793 111.26446581 -101.69519016 135.7838116 -101.7890625 163.04199219 C-101.37849441 186.90626245 -93.76158461 209.36955694 -77.75 227.3125 C-77.08742188 228.116875 -76.42484375 228.92125 -75.7421875 229.75 C-58.89485499 249.64352916 -35.07162366 261.44099144 -9.26489258 263.98242188 C18.55313691 265.98287001 43.77739681 257.93189065 65.25 240.3125 C65.92546875 239.77753906 66.6009375 239.24257812 67.296875 238.69140625 C85.76745337 223.61254913 98.84684126 199.02530107 101.25 175.3125 C102.1118099 156.03164949 101.06032646 139.18477857 93.25 121.3125 C92.89292969 120.47460938 92.53585937 119.63671875 92.16796875 118.7734375 C84.23311088 101.55788015 70.27364141 86.2953704 54.25 76.3125 C53.63511719 75.879375 53.02023437 75.44625 52.38671875 75 C15.20833791 49.52444996 -38.94824813 58.61240408 -69.75 89.3125 Z " fill="#FEFEFE" transform="translate(904.75,786.6875)"/>
<path d="M0 0 C20.13 0 40.26 0 61 0 C61.01458252 5.85886963 61.02916504 11.71773926 61.04418945 17.75415039 C61.09457223 37.13231896 61.16102512 56.51040795 61.23571491 75.88849735 C61.28059926 87.63504703 61.32003081 99.38156688 61.34643555 111.12817383 C61.36947533 121.37157712 61.40293986 131.61488547 61.44870156 141.85821337 C61.47255328 147.27737245 61.49133469 152.69643797 61.49761391 158.11564827 C61.50370134 163.22677548 61.52383202 168.33766353 61.55427551 173.44870186 C61.56299748 175.31456333 61.56679059 177.18045613 61.56500816 179.04633713 C61.55599408 192.84881049 61.92294587 206.88627178 68.6875 219.3125 C69.21077881 220.30938843 69.21077881 220.30938843 69.74462891 221.32641602 C78.84350184 238.14114954 93.18502889 249.8949121 111.2265625 255.9609375 C130.96576831 261.39637098 150.09839355 258.96350605 168.05859375 249.3671875 C182.74461593 240.96195746 195.15006652 225.44963468 199.79172993 209.23411369 C202.27609451 198.84000285 202.44240716 188.87106648 202.43237305 178.23486328 C202.44140763 176.28207791 202.45173895 174.32929818 202.46325684 172.37652588 C202.49065384 167.11717676 202.50008768 161.85793575 202.50611091 156.59852457 C202.51553992 151.08654466 202.54174675 145.57464408 202.56611633 140.06271362 C202.60966102 129.64381815 202.63828172 119.22493817 202.66143972 108.80597961 C202.68855611 96.93642728 202.7324635 85.06695524 202.77772844 73.19746041 C202.87040233 48.79833893 202.93994588 24.39922508 203 0 C223.13 0 243.26 0 264 0 C264 104.61 264 209.22 264 317 C243.87 317 223.74 317 203 317 C203 311.72 203 306.44 203 301 C202.030625 301.58007812 201.06125 302.16015625 200.0625 302.7578125 C169.59111351 320.65370615 133.40654431 325.52467719 99 317 C69.81459753 309.16430519 44.21589418 292.16762199 26 268 C25.42121094 267.26007813 24.84242187 266.52015625 24.24609375 265.7578125 C4.62415136 239.44346749 -0.17887179 209.6329718 -0.11352539 177.66723633 C-0.11324292 175.72475181 -0.11340242 173.78226718 -0.1139679 171.83978271 C-0.11425354 166.59472415 -0.10839456 161.34968869 -0.10139394 156.10463548 C-0.09512152 150.61270151 -0.09455353 145.12076695 -0.09336853 139.62882996 C-0.09026665 129.241688 -0.08206872 118.85455663 -0.07201904 108.46741933 C-0.06082234 96.63667734 -0.0553385 84.80593483 -0.05032361 72.97518885 C-0.03988511 48.65011869 -0.0215539 24.32506303 0 0 Z " fill="#FEFEFE" transform="translate(1101,791)"/>
<path d="M0 0 C1.04028854 -0.00101212 1.04028854 -0.00101212 2.10159302 -0.00204468 C12.37438892 0.01384162 22.02734383 0.46797668 32 3.25 C32.95737061 3.49943359 32.95737061 3.49943359 33.93408203 3.75390625 C48.50910509 7.58290769 62.09102134 13.95902822 74 23.25 C74.91394531 23.9615625 75.82789063 24.673125 76.76953125 25.40625 C93.36983316 38.6683243 105.87410199 54.78740824 115.4375 73.6875 C115.76758057 74.3374292 116.09766113 74.9873584 116.43774414 75.65698242 C116.74574951 76.28451416 117.05375488 76.9120459 117.37109375 77.55859375 C117.63849365 78.10314209 117.90589355 78.64769043 118.18139648 79.20874023 C119.35640295 82.13872207 120.13275828 85.21465396 121 88.25 C102.85 94.85 84.7 101.45 66 108.25 C63.0330048 105.2830048 61.32473061 102.38292319 59.375 98.75 C49.66658604 81.32545248 35.76540362 69.61051456 16.8125 63.3125 C-0.17717445 59.27211952 -18.47922254 62.8786545 -34 70.25 C-36.3024764 71.7612229 -38.41495417 73.33080686 -40.51171875 75.11328125 C-42 76.25 -42 76.25 -44 76.25 C-44.37125 77.0234375 -44.37125 77.0234375 -44.75 77.8125 C-45.75464535 79.77155843 -46.8620399 81.67775359 -48 83.5625 C-52.14630874 90.8804255 -53.6125017 99.31027854 -51.3828125 107.5234375 C-47.28006759 116.99968901 -38.18715146 120.28282098 -29.171875 123.85546875 C-19.80146367 127.15151094 -10.35216621 128.76201613 -0.5 129.75 C1.78802137 129.99891499 4.07578141 130.25024322 6.36328125 130.50390625 C7.48428223 130.62781738 8.6052832 130.75172852 9.76025391 130.87939453 C43.64975063 134.75612822 78.79991241 144.29297428 101.30566406 171.84863281 C116.22224189 190.84833569 121.98905211 211.3101875 120 235.25 C116.78990993 261.79150025 105.01779783 284.40846589 84 301.25 C54.29117837 323.04655607 19.03392557 328.74384554 -17 323.25 C-48.81218702 317.81949285 -77.66053078 302.46432335 -97 276.25 C-105.18173874 264.54291602 -117 245.90955944 -117 231.25 C-109.40549174 229.07986957 -101.80621686 226.92710641 -94.20336914 224.78637695 C-91.61688795 224.05724178 -89.03206355 223.32260916 -86.44848633 222.58325195 C-82.73545533 221.5228953 -79.01863973 220.47687926 -75.30078125 219.43359375 C-74.14540359 219.10032578 -72.99002594 218.7670578 -71.79963684 218.4236908 C-70.71889389 218.12330399 -69.63815094 217.82291718 -68.5246582 217.51342773 C-67.57645706 217.24473373 -66.62825592 216.97603973 -65.65132141 216.69920349 C-62.72424776 216.20328033 -60.81218502 216.31050889 -58 217.25 C-56.4453125 220.0234375 -56.4453125 220.0234375 -55.125 223.625 C-49.24741876 238.60088587 -40.7130774 249.84345426 -25.8828125 256.74609375 C-15.47918228 260.99678088 -4.1809951 262.84193449 7 263.25 C7.79019531 263.31316406 8.58039063 263.37632812 9.39453125 263.44140625 C23.54018525 264.16862893 39.40111565 258.49961264 50 249.25 C56.40813899 241.63821585 58.67740064 231.58958959 58.34375 221.81640625 C57.34687098 214.3737981 52.82787081 208.74518166 47 204.25 C33.97431504 195.95731202 18.77854422 193.90729124 3.72113037 192.52545166 C-27.55681405 189.6087405 -60.00683628 183.63202188 -85 163.25 C-86.29357422 162.20199219 -86.29357422 162.20199219 -87.61328125 161.1328125 C-100.54863622 150.10144756 -109.6078819 134.94965835 -113 118.25 C-113.27457031 116.96416016 -113.27457031 116.96416016 -113.5546875 115.65234375 C-116.7386878 91.3254643 -112.45080245 64.70674722 -97.77197266 44.56494141 C-78.3437338 19.42293902 -50.422759 5.74999019 -19.453125 0.66796875 C-13.00149254 -0.07855939 -6.48632343 0.00566441 0 0 Z " fill="#FEFEFE" transform="translate(1870,786.75)"/>
<path d="M0 0 C0.7463974 0.00215515 1.4927948 0.0043103 2.2618103 0.00653076 C13.83902876 0.06005666 25.02542127 0.57623849 36.3125 3.3125 C37.13395508 3.50585938 37.95541016 3.69921875 38.80175781 3.8984375 C62.58435295 9.65960447 84.89942147 20.06732216 103.3125 36.3125 C104.17617187 37.06660156 105.03984375 37.82070313 105.9296875 38.59765625 C108.4210938 40.80508767 110.87450932 43.04631403 113.3125 45.3125 C114.31023438 46.22902344 114.31023438 46.22902344 115.328125 47.1640625 C124.17507972 55.61542168 131.37257348 65.61505234 138.0625 75.8125 C138.48571533 76.4511499 138.90893066 77.0897998 139.3449707 77.74780273 C143.55573663 84.31152417 146.90136147 91.31212144 150.3125 98.3125 C144.73017883 100.76693571 139.14747996 103.2205097 133.56445312 105.67333984 C131.67144942 106.50514341 129.77854307 107.33716859 127.88574219 108.16943359 C117.04915819 112.93409037 106.20606942 117.67933811 95.3125 122.3125 C92.12295633 117.56855008 88.99786207 112.8055237 86 107.9375 C70.98370141 84.37801184 49.22763152 69.950856 22.3125 63.375 C-5.09675518 58.61973051 -32.81621466 63.36915692 -55.6875 79.3125 C-78.24459398 95.56295084 -93.08523104 118.28166525 -98.3046875 145.53515625 C-101.17681631 173.87544766 -96.465605 201.71173217 -78.28515625 224.296875 C-76.14520687 226.70387297 -73.9555673 229.0265739 -71.6875 231.3125 C-70.8625 232.17875 -70.0375 233.045 -69.1875 233.9375 C-68.3625 234.72125 -67.5375 235.505 -66.6875 236.3125 C-66.0790625 236.90417969 -65.470625 237.49585938 -64.84375 238.10546875 C-54.91997739 247.40001665 -43.34856155 253.53841178 -30.6875 258.3125 C-29.84445313 258.63089844 -29.00140625 258.94929688 -28.1328125 259.27734375 C-3.50407835 267.18529194 24.3517068 263.4096613 47.3125 252.3125 C48.69115234 251.65314453 48.69115234 251.65314453 50.09765625 250.98046875 C57.28094419 247.3130517 63.2956287 242.65673485 69.3125 237.3125 C69.99957031 236.70921875 70.68664063 236.1059375 71.39453125 235.484375 C80.71208836 226.75509542 88.12634469 215.40581648 94.3125 204.3125 C99.27951163 204.90879206 103.5203551 206.48049846 108.0625 208.48046875 C108.79766846 208.79776443 109.53283691 209.11506012 110.2902832 209.44197083 C112.63378577 210.455072 114.97317287 211.47729974 117.3125 212.5 C118.85259619 213.1679369 120.39295877 213.83525993 121.93359375 214.50195312 C124.20791674 215.48641717 126.4815026 216.47239205 128.75268555 217.46408081 C132.33191762 219.02682681 135.91619842 220.57173734 139.5234375 222.06884766 C140.50147339 222.47747795 140.50147339 222.47747795 141.49926758 222.8943634 C143.2592156 223.62754623 145.02208885 224.35369604 146.78515625 225.0793457 C149.3125 226.3125 149.3125 226.3125 150.3125 228.3125 C149.00389484 231.08600742 147.63290955 233.71111869 146.125 236.375 C145.44703369 237.57914551 145.44703369 237.57914551 144.75537109 238.80761719 C121.95784135 278.52245407 87.71277835 307.65096994 43.31640625 320.02734375 C0.7710207 331.27948938 -44.33363677 324.42230205 -82.35058594 302.72607422 C-92.64666999 296.49808355 -102.02901764 288.63009723 -110.6875 280.3125 C-111.17782715 279.85327148 -111.6681543 279.39404297 -112.17333984 278.92089844 C-140.08574379 252.71601628 -159.2156791 215.14782463 -160.84863281 176.4987793 C-160.8682107 175.1281608 -160.88195553 173.75744965 -160.890625 172.38671875 C-160.90107849 171.27538574 -160.90107849 171.27538574 -160.91174316 170.14160156 C-160.92906245 167.76100947 -160.93546369 165.38065249 -160.9375 163 C-160.93850708 162.18914948 -160.93951416 161.37829895 -160.94055176 160.5428772 C-160.93070441 148.85277377 -160.50613993 137.70803138 -157.6875 126.3125 C-157.39746094 125.03632812 -157.10742188 123.76015625 -156.80859375 122.4453125 C-151.69527962 101.52137436 -141.92672052 82.2382106 -128.6875 65.3125 C-128.27306641 64.78237305 -127.85863281 64.25224609 -127.43164062 63.70605469 C-116.60033508 50.04517552 -104.21947754 37.0248267 -89.6875 27.3125 C-89.09001953 26.90837891 -88.49253906 26.50425781 -87.87695312 26.08789062 C-61.67125001 8.50213452 -31.51140426 -0.16446315 0 0 Z " fill="#FEFEFE" transform="translate(2643.6875,786.6875)"/>
<path d="M0 0 C20.13 0 40.26 0 61 0 C61 149.49 61 298.98 61 453 C40.87 453 20.74 453 0 453 C0 303.51 0 154.02 0 0 Z " fill="#FEFEFE" transform="translate(650,655)"/>
<path d="M0 0 C20.13 0 40.26 0 61 0 C61 17.82 61 35.64 61 54 C78.49 54 95.98 54 114 54 C114 73.8 114 93.6 114 114 C96.51 114 79.02 114 61 114 C61.04036074 134.37625937 61.09722379 154.75225715 61.18390274 175.12836742 C61.22362975 184.59038242 61.25605434 194.05231501 61.27099609 203.5144043 C61.28404557 211.76624516 61.3110939 220.01790421 61.35461307 228.26964265 C61.37715407 232.63466634 61.39291513 236.99946641 61.39188385 241.36455345 C61.39113285 245.4826332 61.40925798 249.60022002 61.44116783 253.71817207 C61.44960789 255.22042971 61.45145737 256.72274303 61.44580269 258.22501373 C61.39874524 272.66235877 63.90149451 285.44308854 74.0703125 296.1875 C84.3530877 305.93284792 95.79172705 307.88633328 109.53125 308.75390625 C112 309 112 309 114 310 C114 330.13 114 350.26 114 371 C91.78213722 369.8306388 91.78213722 369.8306388 84.8125 368.3125 C83.98991699 368.13879883 83.16733398 367.96509766 82.31982422 367.78613281 C63.97850632 363.69610753 48.02995217 355.59558007 34 343 C33.31679687 342.39929687 32.63359375 341.79859375 31.9296875 341.1796875 C13.47279597 323.91838409 1.39740572 298.27613757 -0.18289971 273.08438349 C-0.24900614 270.08079188 -0.25735484 267.08318575 -0.24050903 264.07891846 C-0.24221788 262.94160491 -0.24392673 261.80429136 -0.24568737 260.63251376 C-0.2489582 256.85552917 -0.23801837 253.07872579 -0.22705078 249.30175781 C-0.22536931 246.58080942 -0.22671637 243.85986445 -0.22793579 241.13891602 C-0.22898023 235.29831345 -0.22275005 229.45775586 -0.21146011 223.61716461 C-0.19514784 215.17284527 -0.18999127 206.7285475 -0.18748413 198.28421411 C-0.18311598 184.58106533 -0.16983084 170.87794049 -0.15087891 157.17480469 C-0.13249727 143.8701184 -0.11835196 130.56543863 -0.10986328 117.26074219 C-0.10933783 116.43948409 -0.10881239 115.61822599 -0.10827102 114.77208129 C-0.10566078 110.65172527 -0.10313341 106.53136922 -0.10064721 102.41101313 C-0.07994213 68.27398754 -0.04308722 34.13700649 0 0 Z " fill="#FEFEFE" transform="translate(2016,737)"/>
<path d="M0 0 C0.94359375 0.48597656 1.8871875 0.97195313 2.859375 1.47265625 C9.84622209 5.46648912 14.04316928 10.03770769 18 17 C18.40992187 17.68578125 18.81984375 18.3715625 19.2421875 19.078125 C23.94848072 28.07848137 25.20606801 40.52366097 22.88671875 50.34765625 C18.27189397 64.15147135 10.50588884 73.59154078 -2.375 80.22265625 C-13.86449915 85.35978808 -25.92702769 84.73660078 -37.6875 80.75 C-49.88736697 74.30478726 -58.57305891 66.05732712 -63.078125 52.8359375 C-65.73817804 41.76741172 -65.26443549 29.16694103 -60 19 C-59.38125 17.71222656 -59.38125 17.71222656 -58.75 16.3984375 C-53.36830305 6.2771779 -44.80901882 0.35648479 -34 -3 C-23.25631307 -6.02057146 -9.82260425 -5.20474471 0 0 Z " fill="#FEFEFE" transform="translate(3214,1031)"/>
<path d="M0 0 C58.35981308 0 58.35981308 0 69 9 C75.6242073 16.17353181 76.87333458 24.48857851 77 34 C76.53268736 42.41162758 74.58432491 47.74782962 69 54 C67.98957647 55.32545165 66.98675502 56.65683496 66 58 C66.88751953 58.51046875 66.88751953 58.51046875 67.79296875 59.03125 C73.8984922 62.77623665 78.48973916 66.78960011 80.54199219 73.86987305 C82.41822231 82.59594332 82.54961897 95.16815591 78 103 C71.79975624 112.40370303 63.62741452 115.34314637 53 118 C35.51 118 18.02 118 0 118 C0 79.06 0 40.12 0 0 Z M16 14 C16 26.54 16 39.08 16 52 C20.434375 52.061875 24.86875 52.12375 29.4375 52.1875 C30.81736084 52.21481201 32.19722168 52.24212402 33.61889648 52.27026367 C44.75778397 52.42015823 44.75778397 52.42015823 54.57568359 47.72436523 C58.67261645 43.28883682 59.78061261 38.41326127 60.3125 32.5625 C59.8086128 26.81818587 58.31180715 22.63089538 54.6875 18.125 C49.74895157 14.22010124 45.01847103 13.75197888 38.8515625 13.8046875 C37.04679443 13.81218018 37.04679443 13.81218018 35.20556641 13.81982422 C33.69397949 13.83803223 32.18239258 13.85624023 30.625 13.875 C25.79875 13.91625 20.9725 13.9575 16 14 Z M16 65 C16 77.87 16 90.74 16 104 C21.094375 104.061875 26.18875 104.12375 31.4375 104.1875 C33.82053345 104.22846802 33.82053345 104.22846802 36.25170898 104.27026367 C48.32296848 104.5647721 48.32296848 104.5647721 58.86083984 99.41723633 C63.33176167 94.86669913 64.88632326 90.04973398 65.0625 83.7734375 C64.7418056 77.94080814 62.86237059 73.4008244 59 69 C53.06715741 65.1683725 47.44010556 64.87474062 40.51171875 64.90234375 C38.58138794 64.90609009 38.58138794 64.90609009 36.61206055 64.90991211 C34.17440308 64.92356812 34.17440308 64.92356812 31.6875 64.9375 C26.510625 64.958125 21.33375 64.97875 16 65 Z " fill="#FEFEFE" transform="translate(532,1165)"/>
<path d="M0 0 C3.90939851 3.54802553 6.30429496 8.35691278 8.8125 12.9375 C9.1528125 12.28523438 9.493125 11.63296875 9.84375 10.9609375 C13.95949987 3.53945236 18.13301277 -1.00352562 25.9375 -4.4375 C35.92190813 -6.04788841 45.81994884 -6.18001463 54.703125 -0.94921875 C62.65793697 4.91313181 65.75973003 14.4329802 67.39830017 23.78611755 C68.1196958 29.27475701 68.05665517 34.73442044 68.0078125 40.26171875 C68.0049826 41.48913284 68.00215271 42.71654694 67.99923706 43.9811554 C67.9881325 47.86254038 67.96304606 51.74368595 67.9375 55.625 C67.92745763 58.2727831 67.91833399 60.92056986 67.91015625 63.56835938 C67.88822504 70.0248304 67.85376291 76.48112475 67.8125 82.9375 C62.5325 82.9375 57.2525 82.9375 51.8125 82.9375 C51.79791748 81.29346191 51.78333496 79.64942383 51.76831055 77.95556641 C51.71009707 71.82384086 51.63286522 65.69247369 51.55004883 59.56103516 C51.51690778 56.91330811 51.4888426 54.26551226 51.46606445 51.61767578 C51.43231983 47.79950794 51.37999212 43.98196457 51.32421875 40.1640625 C51.31782883 38.99074371 51.3114389 37.81742493 51.30485535 36.60855103 C51.13846835 25.33578594 51.13846835 25.33578594 46.53813171 15.28994751 C42.42786982 11.52280601 37.86964591 9.97638262 32.35546875 9.90625 C25.46797231 10.31929326 21.42756232 12.24979706 16.5625 17.25 C12.02430286 24.21937419 12.47668011 31.81868733 12.3984375 39.87109375 C12.37907135 41.10416763 12.3597052 42.33724152 12.3397522 43.60768127 C12.28017048 47.53005139 12.23365612 51.45245119 12.1875 55.375 C12.15036031 58.04104703 12.11024779 60.70703905 12.0703125 63.37304688 C11.97448628 69.89443264 11.89037581 76.41587617 11.8125 82.9375 C6.5325 82.9375 1.2525 82.9375 -4.1875 82.9375 C-4.20208252 81.22240234 -4.21666504 79.50730469 -4.23168945 77.74023438 C-4.2835138 72.04839099 -4.34884544 66.35680771 -4.42321491 60.66521454 C-4.46778042 57.21726355 -4.50706587 53.76942696 -4.53393555 50.32128906 C-4.56512537 46.34935767 -4.61990877 42.37791378 -4.67578125 38.40625 C-4.68217117 37.17886108 -4.6885611 35.95147217 -4.69514465 34.68688965 C-4.83108165 26.71643786 -5.37896293 20.52618626 -10.4375 14.0625 C-15.1596468 10.41356838 -19.41499609 9.71322044 -25.25 10.125 C-30.72988613 10.84844476 -34.56776746 12.22778232 -38.4375 16.3125 C-42.41997945 22.28621917 -43.27419874 28.40036741 -43.39282227 35.48388672 C-43.41276749 36.54453339 -43.43271271 37.60518005 -43.45326233 38.69796753 C-43.46997482 39.82631012 -43.48668732 40.95465271 -43.50390625 42.1171875 C-43.52468735 43.2850882 -43.54546844 44.45298889 -43.56687927 45.65628052 C-43.63209175 49.37496238 -43.69112801 53.09371289 -43.75 56.8125 C-43.79321213 59.33854867 -43.83682728 61.86459049 -43.88085938 64.390625 C-43.98774412 70.57284689 -44.08909102 76.75513762 -44.1875 82.9375 C-49.4675 82.9375 -54.7475 82.9375 -60.1875 82.9375 C-60.1875 54.8875 -60.1875 26.8375 -60.1875 -2.0625 C-55.8975 -2.0625 -51.6075 -2.0625 -47.1875 -2.0625 C-46.8575 2.2275 -46.5275 6.5175 -46.1875 10.9375 C-45.218125 9.390625 -44.24875 7.84375 -43.25 6.25 C-33.53457696 -7.69123712 -13.744948 -8.89378988 0 0 Z " fill="#FEFEFE" transform="translate(1637.1875,1198.0625)"/>
<path d="M0 0 C4.88168765 3.20062529 9.94667458 7.40116166 12.59765625 12.703125 C13.09265625 6.268125 13.09265625 6.268125 13.59765625 -0.296875 C17.88765625 -0.296875 22.17765625 -0.296875 26.59765625 -0.296875 C26.66763175 9.8574533 26.72070626 20.01172282 26.75309277 30.16624451 C26.76864846 34.88305266 26.78969857 39.59969404 26.82397461 44.31640625 C26.85693285 48.88113 26.87458483 53.44569487 26.88228798 58.01052856 C26.88776688 59.73896785 26.89846239 61.46739995 26.91484642 63.19577026 C27.21008358 95.67726628 27.21008358 95.67726628 16.34765625 107.453125 C6.09637195 116.98920342 -7.73620759 118.20544646 -21.16772461 118.03930664 C-23.23004592 118.01544914 -25.29108861 118.01880608 -27.35351562 118.02539062 C-33.75475648 117.99868263 -39.29478598 117.66165645 -45.40234375 115.703125 C-45.40234375 111.413125 -45.40234375 107.123125 -45.40234375 102.703125 C-43.448125 102.79851562 -41.49390625 102.89390625 -39.48046875 102.9921875 C-37.54414671 103.07576975 -35.60781938 103.15925543 -33.67138672 103.24023438 C-31.702402 103.32594592 -29.7339907 103.42452465 -27.765625 103.5234375 C-16.77787049 103.96964073 -5.13740142 104.34102567 3.59765625 96.703125 C9.89648614 89.07822566 9.8768409 81.14887222 9.59765625 71.703125 C9.20835938 72.15042969 8.8190625 72.59773438 8.41796875 73.05859375 C2.01515982 79.97775824 -5.64824069 84.3348141 -15.125 84.94140625 C-27.89608481 85.27162938 -37.18890496 83.46813353 -47.1796875 74.90234375 C-55.97584761 66.19893752 -60.4348129 54.61767371 -60.64404297 42.37109375 C-60.69095908 29.05795587 -58.44507876 18.3327546 -49.10546875 8.21484375 C-36.19239394 -4.03653623 -16.42765513 -8.04054006 0 0 Z M-38.65234375 19.890625 C-44.84137609 29.83728411 -46.06736532 40.51796226 -43.46484375 51.890625 C-41.01783467 58.86744624 -36.14720554 64.588123 -29.71875 68.21875 C-21.45713141 71.54683465 -13.02216759 72.05986193 -4.63671875 68.86328125 C2.07809803 65.37674177 7.55213859 60.18866323 10.01171875 52.9453125 C10.81842974 48.48151168 10.98516149 44.10822837 11.03515625 39.578125 C11.05074585 38.30727051 11.05074585 38.30727051 11.06665039 37.01074219 C10.96633397 29.91802553 9.77461492 23.12701704 4.47265625 17.953125 C-8.95647125 5.64777386 -26.31789766 7.89880242 -38.65234375 19.890625 Z " fill="#FEFEFE" transform="translate(1345.40234375,1196.296875)"/>
<path d="M0 0 C7.90318329 6.83401407 12.56213553 14.27369529 13.75 24.75 C13.8325 26.02875 13.915 27.3075 14 28.625 C8.39 28.625 2.78 28.625 -3 28.625 C-3.433125 27.078125 -3.86625 25.53125 -4.3125 23.9375 C-6.25069955 17.68240144 -7.5702793 14.18351263 -13.4375 10.875 C-21.16159025 7.30570465 -29.67429871 6.57394447 -37.90234375 8.84375 C-43.27129499 10.8433594 -47.5792262 13.23957709 -50.5 18.3125 C-52.48742581 23.006019 -52.83962714 27.61242596 -52 32.625 C-49.46258864 37.60920088 -46.64638601 40.54669031 -41.48828125 42.6484375 C-37.01611918 43.90044256 -32.68047356 44.17187205 -28.0625 44.5 C-13.21281771 45.75295807 1.94416398 48.22295056 12.4921875 59.703125 C18.66667957 67.57320298 19.01197102 75.86000127 18 85.625 C15.77721737 95.41050462 9.25529492 102.57881435 1.24609375 108.30859375 C-11.69850146 115.89525216 -29.55305532 116.91520161 -44.05078125 113.94140625 C-54.90727967 110.80797377 -64.4879401 105.48846131 -70.21484375 95.5078125 C-73.43466784 89.25149949 -74.10173872 84.64497157 -74 77.625 C-68.72 77.625 -63.44 77.625 -58 77.625 C-57.62875 79.130625 -57.2575 80.63625 -56.875 82.1875 C-54.96803775 88.40050605 -52.46072489 92.75186838 -46.6328125 95.90625 C-35.81149028 100.51106797 -24.26971383 100.80742283 -13 97.625 C-6.97001448 94.86670946 -2.92023418 91.17743323 0.25 85.3125 C1.72212558 80.03738333 1.7948454 76.2146908 -0.625 71.375 C-8.75941338 61.95620556 -20.98557171 61.74438881 -32.6875 60.6875 C-45.20828394 59.53143 -55.32584251 56.2122267 -64 46.625 C-69.97196692 39.11738444 -70.61515777 31.29630736 -69.65625 21.96875 C-67.69558564 11.97869824 -62.39622409 4.28360968 -54 -1.375 C-38.0176914 -10.14444231 -15.14565256 -11.17952423 0 0 Z " fill="#FEFEFE" transform="translate(2395,1169.375)"/>
<path d="M0 0 C4.95 0 9.9 0 15 0 C17.91416383 7.25494098 19.95596236 14.70327883 22.01171875 22.23828125 C22.38835875 23.60977525 22.765219 24.98120878 23.14228821 26.35258484 C23.92713394 29.2103871 24.70928466 32.06890929 25.48950195 34.92797852 C26.48971967 38.59234186 27.49679211 42.25478053 28.50586224 45.91671467 C29.28327108 48.74091248 30.05704672 51.56609572 30.82972145 54.39159203 C31.19978955 55.74310403 31.57099651 57.09430473 31.9433651 58.44518471 C32.46162777 60.32743253 32.97447309 62.21116945 33.48706055 64.0949707 C33.78001511 65.16560257 34.07296967 66.23623444 34.37480164 67.33930969 C35 70 35 70 35 73 C35.99 73 36.98 73 38 73 C38.16809425 71.83081024 38.16809425 71.83081024 38.33958435 70.63800049 C39.55181327 62.4586025 41.07324609 54.38513561 42.78515625 46.296875 C43.04630722 45.05246643 43.30745819 43.80805786 43.57652283 42.52593994 C44.12357921 39.9239724 44.67202507 37.32234793 45.22290039 34.72119141 C45.92957562 31.38325014 46.62953239 28.04393934 47.32767582 24.70420456 C47.99738219 21.5051645 48.67276822 18.30732526 49.34765625 15.109375 C49.59870621 13.90851257 49.84975616 12.70765015 50.1084137 11.47039795 C50.34213181 10.37125061 50.57584991 9.27210327 50.81665039 8.13964844 C51.02157608 7.16848083 51.22650177 6.19731323 51.43763733 5.19671631 C52 3 52 3 53 2 C54.56172745 1.91314397 56.12729344 1.89297781 57.69140625 1.90234375 C58.63564453 1.90556641 59.57988281 1.90878906 60.55273438 1.91210938 C61.54595703 1.92048828 62.53917969 1.92886719 63.5625 1.9375 C64.55958984 1.94201172 65.55667969 1.94652344 66.58398438 1.95117188 C69.05604849 1.96299993 71.52799518 1.97948151 74 2 C77.87041438 15.43210455 81.25780074 28.96002897 84.50415039 42.55541992 C85.32395541 45.98542868 86.15096473 49.41364964 86.97851562 52.84179688 C87.50302995 55.02854375 88.02713428 57.21538901 88.55078125 59.40234375 C88.79758133 60.42408188 89.04438141 61.44582001 89.29866028 62.4985199 C89.52277084 63.44123245 89.74688141 64.38394501 89.9777832 65.35522461 C90.17588089 66.18251572 90.37397858 67.00980682 90.57807922 67.86216736 C91 70 91 70 91 73 C91.99 73 92.98 73 94 73 C94.10698715 72.2933168 94.2139743 71.58663361 94.32420349 70.85853577 C95.5856567 62.88393929 97.3055699 55.08625583 99.22265625 47.24609375 C99.52819931 45.98281754 99.83374237 44.71954132 100.14854431 43.41798401 C100.78891077 40.77110379 101.43200002 38.12490716 102.07739258 35.47924805 C102.90392485 32.09090705 103.72552297 28.70139431 104.54537296 25.31143093 C105.33193568 22.06007224 106.12099944 18.80932386 106.91015625 15.55859375 C107.20495377 14.34304306 107.49975128 13.12749237 107.80348206 11.87510681 C108.07724167 10.75286209 108.35100128 9.63061737 108.63305664 8.47436523 C108.99373985 6.99310402 108.99373985 6.99310402 109.36170959 5.48191833 C109.83672918 3.63485966 110.39690222 1.80929335 111 0 C115.95 0 120.9 0 126 0 C122.60644875 15.7475029 118.77548466 31.38058439 114.91723633 47.01904297 C113.9861811 50.79311421 113.05921362 54.56817663 112.13330555 58.34351349 C111.41526282 61.26920147 110.69498845 64.19433646 109.97403526 67.11930847 C109.63082329 68.5130181 109.28833976 69.90690734 108.94660378 71.30097961 C108.47296561 73.2318169 107.99596697 75.16182893 107.51879883 77.09179688 C107.24884598 78.18778198 106.97889313 79.28376709 106.70075989 80.41296387 C106 83 106 83 105 85 C96.75 85 88.5 85 80 85 C79.52054932 83.06648682 79.04109863 81.13297363 78.54711914 79.14086914 C76.96544993 72.76589458 75.38053807 66.39173322 73.79338932 60.01812077 C72.8308477 56.15227194 71.86962719 52.28610444 70.91137695 48.41918945 C69.98725458 44.69019865 69.05972606 40.96207058 68.12978935 37.23452568 C67.77490207 35.80941648 67.42126122 34.3839963 67.06886482 32.95826912 C66.57659189 30.96752666 66.0799724 28.9779176 65.58227539 26.98852539 C65.30025772 25.85379288 65.01824005 24.71906036 64.72767639 23.54994202 C64.24783019 21.0858564 64.24783019 21.0858564 63 20 C62.83935562 20.7553302 62.67871124 21.5106604 62.51319885 22.28887939 C60.9984552 29.41039993 59.48303088 36.53177512 57.96684361 43.65298843 C57.18739993 47.31398937 56.40821869 50.97504575 55.62963867 54.63623047 C54.87812694 58.17008204 54.12592393 61.70378582 53.37324333 65.23738861 C53.08633791 66.58491536 52.79968075 67.932495 52.51327705 69.28012848 C52.11180544 71.16898889 51.70936577 73.05764347 51.30688477 74.94628906 C51.07816177 76.02106506 50.84943878 77.09584106 50.61378479 78.20318604 C50.11463448 80.47764866 49.56476602 82.7409359 49 85 C40.75 85 32.5 85 24 85 C22.14356628 80.04951007 20.4625712 75.41802669 19.0546875 70.37548828 C18.70422363 69.12704132 18.35375977 67.87859436 17.99267578 66.59231567 C17.62007164 65.25166061 17.24751421 63.91099256 16.875 62.5703125 C16.48324286 61.17071371 16.09114678 59.77120976 15.69873047 58.37179565 C14.67104044 54.70390624 13.6473786 51.03490556 12.62475586 47.36560059 C10.9896592 41.50155227 9.34806102 35.63931984 7.70709229 29.77691269 C7.1393911 27.74677603 6.57320653 25.7162217 6.00732422 23.68557739 C4.25650795 17.41720236 2.47855085 11.16814026 0.51123047 4.96383667 C0 3 0 3 0 0 Z " fill="#FEFEFE" transform="translate(2776,1196)"/>
<path d="M0 0 C5.28 0 10.56 0 16 0 C16 38.28 16 76.56 16 116 C11.71 116 7.42 116 3 116 C2.67 111.71 2.34 107.42 2 103 C0.081875 105.3203125 0.081875 105.3203125 -1.875 107.6875 C-8.20766529 114.75047266 -15.45495426 118.66476929 -24.94140625 119.23828125 C-38.68220013 119.57044353 -48.59787958 117.60822082 -59 108 C-67.78744633 99.5128081 -72.1471131 88.31879523 -72.38061523 76.20092773 C-72.3455963 61.30569866 -69.34626839 49.8040162 -58.86328125 38.74609375 C-48.99400566 29.39353416 -38.85668181 27.4096044 -25.6328125 27.6640625 C-14.25138569 28.22502081 -9.04110082 32.95889918 -1 41 C-0.67 27.47 -0.34 13.94 0 0 Z M-50 52 C-56.10119848 61.70438766 -57.61151873 71.96182223 -55.3515625 83.234375 C-53.08971355 90.85119966 -49.71992351 96.97395558 -42.91015625 101.33984375 C-35.45552653 105.24068351 -27.55829888 106.40971349 -19.3046875 104.31640625 C-10.6031568 101.10987888 -5.01414225 96.33706467 -1 88 C0.54145347 83.03501879 0.26402318 77.90147019 0.3125 72.75 C0.34150391 71.73808594 0.37050781 70.72617188 0.40039062 69.68359375 C0.46684445 61.80114805 -0.97435535 56.65549675 -6.0078125 50.57421875 C-13.39773851 43.98873118 -20.62883451 41.33416802 -30.55859375 41.72265625 C-38.63773865 42.64044711 -44.69098655 45.78880126 -50 52 Z " fill="#FEFEFE" transform="translate(1011,1165)"/>
<path d="M0 0 C8.92807049 6.19395439 14.57032062 14.1666247 18.12890625 24.30859375 C19.2094667 30.70190978 18.87890625 37.26210573 18.87890625 43.74609375 C-3.23109375 44.07609375 -25.34109375 44.40609375 -48.12109375 44.74609375 C-45.67620478 55.16255726 -45.67620478 55.16255726 -41.12109375 63.74609375 C-40.79109375 64.73609375 -40.46109375 65.72609375 -40.12109375 66.74609375 C-38.29456825 67.89933741 -38.29456825 67.89933741 -36.12109375 68.74609375 C-35.48171875 69.02710938 -34.84234375 69.308125 -34.18359375 69.59765625 C-25.58264495 72.82301205 -16.62395058 73.0071354 -8.01953125 69.65234375 C-2.28807367 66.91633931 0.05100398 63.19242405 2.87890625 57.74609375 C7.82890625 57.74609375 12.77890625 57.74609375 17.87890625 57.74609375 C15.31256806 67.24154505 11.75155086 74.56044441 3.87890625 80.74609375 C-8.28927089 87.45065594 -21.15904123 88.50722337 -34.7890625 86.09765625 C-44.79565879 83.06849256 -52.84997308 76.79103124 -58.12109375 67.74609375 C-65.26897065 52.86921174 -66.69922492 36.64907284 -61.4453125 20.83203125 C-56.81567938 10.0432107 -49.04040781 1.95732079 -38.19921875 -2.52734375 C-26.85605075 -6.4931882 -10.39875996 -6.14733323 0 0 Z M-42.12109375 17.74609375 C-45.58555276 22.82542255 -47.09176118 26.57009835 -48.12109375 32.74609375 C-31.29109375 32.74609375 -14.46109375 32.74609375 2.87890625 32.74609375 C1.82010995 24.27572335 0.39913002 20.36410151 -5.37109375 14.43359375 C-17.12148949 7.22312363 -32.2709608 7.44822749 -42.12109375 17.74609375 Z " fill="#FEFEFE" transform="translate(3219.12109375,1197.25390625)"/>
<path d="M0 0 C8.92807049 6.19395439 14.57032062 14.1666247 18.12890625 24.30859375 C19.2094667 30.70190978 18.87890625 37.26210573 18.87890625 43.74609375 C-3.23109375 44.07609375 -25.34109375 44.40609375 -48.12109375 44.74609375 C-45.67620478 55.16255726 -45.67620478 55.16255726 -41.12109375 63.74609375 C-40.79109375 64.73609375 -40.46109375 65.72609375 -40.12109375 66.74609375 C-38.29456825 67.89933741 -38.29456825 67.89933741 -36.12109375 68.74609375 C-35.48171875 69.02710938 -34.84234375 69.308125 -34.18359375 69.59765625 C-25.58264495 72.82301205 -16.62395058 73.0071354 -8.01953125 69.65234375 C-2.28807367 66.91633931 0.05100398 63.19242405 2.87890625 57.74609375 C7.82890625 57.74609375 12.77890625 57.74609375 17.87890625 57.74609375 C15.31256806 67.24154505 11.75155086 74.56044441 3.87890625 80.74609375 C-8.28927089 87.45065594 -21.15904123 88.50722337 -34.7890625 86.09765625 C-44.79565879 83.06849256 -52.84997308 76.79103124 -58.12109375 67.74609375 C-65.26897065 52.86921174 -66.69922492 36.64907284 -61.4453125 20.83203125 C-56.81567938 10.0432107 -49.04040781 1.95732079 -38.19921875 -2.52734375 C-26.85605075 -6.4931882 -10.39875996 -6.14733323 0 0 Z M-42.12109375 17.74609375 C-45.58555276 22.82542255 -47.09176118 26.57009835 -48.12109375 32.74609375 C-31.29109375 32.74609375 -14.46109375 32.74609375 2.87890625 32.74609375 C1.82010995 24.27572335 0.39913002 20.36410151 -5.37109375 14.43359375 C-17.12148949 7.22312363 -32.2709608 7.44822749 -42.12109375 17.74609375 Z " fill="#FEFEFE" transform="translate(2128.12109375,1197.25390625)"/>
<path d="M0 0 C11.256319 7.35278236 18.21607034 17.35720167 21.30078125 30.45703125 C22.83210431 45.3320158 20.79022308 58.52019079 11.30078125 70.45703125 C10.58341797 71.37935547 10.58341797 71.37935547 9.8515625 72.3203125 C3.50045114 79.53530298 -7.18009995 84.96688557 -16.76660156 85.59179688 C-32.21785311 86.26552483 -44.5008326 84.81295283 -56.69921875 74.45703125 C-65.14911419 66.51875057 -70.37175778 56.05663517 -71.03515625 44.4140625 C-71.37627372 28.88951003 -67.79803662 17.17481633 -56.9765625 5.6171875 C-42.08524374 -8.21800936 -17.32323355 -9.902572 0 0 Z M-49.69921875 20.45703125 C-54.81738398 28.80274658 -56.03020028 38.62596428 -54.16796875 48.18359375 C-51.73292485 56.94445823 -47.22651708 63.30882721 -39.69921875 68.45703125 C-31.09720295 72.50839524 -21.83565197 72.75250899 -12.88671875 69.76953125 C-4.55323847 66.35553079 -0.45583019 61.5939934 3.30078125 53.45703125 C6.78536703 44.82853312 6.38164526 34.46458815 3.3359375 25.73828125 C-0.526356 17.22666086 -6.45770759 12.53385643 -15.01171875 9.14453125 C-29.1128288 6.51551073 -40.19129121 9.43687392 -49.69921875 20.45703125 Z " fill="#FEFEFE" transform="translate(2528.69921875,1198.54296875)"/>
<path d="M0 0 C4.9255044 -0.07491408 9.85066732 -0.12895771 14.77661133 -0.16479492 C16.44756864 -0.17975584 18.11848755 -0.20013204 19.78930664 -0.22631836 C45.15595713 -0.61353751 45.15595713 -0.61353751 55 8 C62.67978054 16.95321354 62.2849921 28.03418614 62.1953125 39.22265625 C62.19157439 40.57742604 62.1887312 41.93219857 62.18673706 43.28697205 C62.17916332 46.82314748 62.15957004 50.35915414 62.1373291 53.89526367 C62.11673443 57.51543903 62.10770645 61.13564211 62.09765625 64.75585938 C62.07631706 71.83731454 62.04118734 78.91862837 62 86 C57.71 86 53.42 86 49 86 C48.67 82.37 48.34 78.74 48 75 C46.989375 76.2375 45.97875 77.475 44.9375 78.75 C40.30814671 84.04470568 35.22156424 87.57152401 28.03637695 88.16113281 C7.14550938 88.5894591 7.14550938 88.5894591 -1.8125 81.4375 C-8.12473761 75.36804076 -10.16433881 69.15599016 -10.5 60.5 C-10.19556994 52.41357648 -8.3685118 45.89570327 -2.5 40.125 C7.5004747 32.5683943 18.77458502 32.46474292 30.75 32.75 C32.23695478 32.7701203 33.72393622 32.78836118 35.2109375 32.8046875 C38.80785773 32.84818914 42.40375057 32.91690145 46 33 C45.87504331 31.56960448 45.74032611 30.14005967 45.6015625 28.7109375 C45.52760254 27.91478027 45.45364258 27.11862305 45.37744141 26.29833984 C44.78850857 22.71217317 43.41823979 20.67279135 41 18 C35.91057266 15.35539668 31.62318704 14.540156 25.87890625 14.48828125 C25.13414536 14.47033005 24.38938446 14.45237885 23.62205505 14.43388367 C21.26892577 14.3801769 18.91599456 14.34601457 16.5625 14.3125 C14.95635287 14.27929171 13.35023176 14.24479885 11.74414062 14.20898438 C7.82957101 14.12447426 3.91505606 14.05747629 0 14 C0 9.38 0 4.76 0 0 Z M8 52 C5.43414657 56.22971742 5.44679358 60.17673154 6 65 C7.75443348 69.15523719 10.22458752 71.5669564 14 74 C21.59812003 76.7044156 28.96468585 76.63835926 36.375 73.25 C41.48335267 70.39714982 44.24563002 66.53533978 46 61 C46.13760722 58.19006055 46.19011573 55.48998076 46.125 52.6875 C46.11597656 51.94693359 46.10695313 51.20636719 46.09765625 50.44335938 C46.07424213 48.62876533 46.03837615 46.81433929 46 45 C42.16673205 44.94140112 38.33358112 44.90620357 34.5 44.875 C33.42234375 44.85824219 32.3446875 44.84148437 31.234375 44.82421875 C21.93096522 44.76749064 14.80230978 45.19769022 8 52 Z " fill="#FEFEFE" transform="translate(2952,1195)"/>
<path d="M0 0 C4.9255044 -0.07491408 9.85066732 -0.12895771 14.77661133 -0.16479492 C16.44756864 -0.17975584 18.11848755 -0.20013204 19.78930664 -0.22631836 C45.15595713 -0.61353751 45.15595713 -0.61353751 55 8 C62.67978054 16.95321354 62.2849921 28.03418614 62.1953125 39.22265625 C62.19157439 40.57742604 62.1887312 41.93219857 62.18673706 43.28697205 C62.17916332 46.82314748 62.15957004 50.35915414 62.1373291 53.89526367 C62.11673443 57.51543903 62.10770645 61.13564211 62.09765625 64.75585938 C62.07631706 71.83731454 62.04118734 78.91862837 62 86 C57.71 86 53.42 86 49 86 C48.67 82.37 48.34 78.74 48 75 C46.989375 76.2375 45.97875 77.475 44.9375 78.75 C40.30814671 84.04470568 35.22156424 87.57152401 28.03637695 88.16113281 C7.14550938 88.5894591 7.14550938 88.5894591 -1.8125 81.4375 C-8.12473761 75.36804076 -10.16433881 69.15599016 -10.5 60.5 C-10.19556994 52.41357648 -8.3685118 45.89570327 -2.5 40.125 C7.5004747 32.5683943 18.77458502 32.46474292 30.75 32.75 C32.23695478 32.7701203 33.72393622 32.78836118 35.2109375 32.8046875 C38.80785773 32.84818914 42.40375057 32.91690145 46 33 C45.87504331 31.56960448 45.74032611 30.14005967 45.6015625 28.7109375 C45.52760254 27.91478027 45.45364258 27.11862305 45.37744141 26.29833984 C44.78850857 22.71217317 43.41823979 20.67279135 41 18 C35.91057266 15.35539668 31.62318704 14.540156 25.87890625 14.48828125 C25.13414536 14.47033005 24.38938446 14.45237885 23.62205505 14.43388367 C21.26892577 14.3801769 18.91599456 14.34601457 16.5625 14.3125 C14.95635287 14.27929171 13.35023176 14.24479885 11.74414062 14.20898438 C7.82957101 14.12447426 3.91505606 14.05747629 0 14 C0 9.38 0 4.76 0 0 Z M8 52 C5.43414657 56.22971742 5.44679358 60.17673154 6 65 C7.75443348 69.15523719 10.22458752 71.5669564 14 74 C21.59812003 76.7044156 28.96468585 76.63835926 36.375 73.25 C41.48335267 70.39714982 44.24563002 66.53533978 46 61 C46.13760722 58.19006055 46.19011573 55.48998076 46.125 52.6875 C46.11597656 51.94693359 46.10695313 51.20636719 46.09765625 50.44335938 C46.07424213 48.62876533 46.03837615 46.81433929 46 45 C42.16673205 44.94140112 38.33358112 44.90620357 34.5 44.875 C33.42234375 44.85824219 32.3446875 44.84148437 31.234375 44.82421875 C21.93096522 44.76749064 14.80230978 45.19769022 8 52 Z " fill="#FEFEFE" transform="translate(1762,1195)"/>
<path d="M0 0 C5.61 0 11.22 0 17 0 C17.0093457 1.77568359 17.01869141 3.55136719 17.02832031 5.38085938 C17.06395687 11.27229897 17.11782402 17.16342331 17.18390274 23.05458832 C17.22327716 26.62364948 17.25551416 30.19246764 17.27099609 33.76171875 C17.2862298 37.21148889 17.32079137 40.66059053 17.36830902 44.11006165 C17.39019091 46.05516362 17.39246796 48.00045457 17.39434814 49.94567871 C17.51143034 57.07465666 18.06011989 61.98188237 22 68 C27.97670048 72.85606914 33.50540873 73.66563804 41 73 C46.08732117 71.92802875 49.83460703 70.0943673 52.98173523 65.7674408 C57.28843488 58.29213882 57.46512608 50.52333817 57.51171875 42.08984375 C57.52966995 40.88179581 57.54762115 39.67374786 57.56611633 38.42909241 C57.61997878 34.59859632 57.65403865 30.76822315 57.6875 26.9375 C57.72069421 24.32875903 57.7551858 21.72003423 57.79101562 19.11132812 C57.87569183 12.74097442 57.94261813 6.37065566 58 0 C63.28 0 68.56 0 74 0 C74 28.05 74 56.1 74 85 C69.71 85 65.42 85 61 85 C60.67 80.71 60.34 76.42 60 72 C58.948125 73.8253125 58.948125 73.8253125 57.875 75.6875 C54.36353964 81.25468925 50.02981312 85.3566956 43.66015625 87.4921875 C33.9383258 89.34804353 22.56221097 89.45599534 14 84 C5.51520292 77.50485495 1.8912827 68.45231149 0.45532227 58.05688477 C-0.16255375 52.21576053 -0.1248705 46.39518815 -0.09765625 40.52734375 C-0.0962413 39.3636879 -0.09482635 38.20003204 -0.09336853 37.00111389 C-0.08780628 33.31321557 -0.07526083 29.62537973 -0.0625 25.9375 C-0.05748012 23.42513109 -0.05291807 20.91276122 -0.04882812 18.40039062 C-0.03784922 12.2669033 -0.02061082 6.13346221 0 0 Z " fill="#FEFEFE" transform="translate(664,1196)"/>
<path d="M0 0 C7.60918831 5.99021207 11.05943481 14.01861227 12.63671875 23.44140625 C12.72124619 25.46514176 12.75450834 27.49135018 12.75024414 29.5168457 C12.75013084 31.3181469 12.75013084 31.3181469 12.75001526 33.15583801 C12.74485397 34.44245834 12.73969269 35.72907867 12.734375 37.0546875 C12.73250831 38.39275561 12.73108559 39.7308244 12.73008728 41.06889343 C12.72628189 44.57876495 12.71646863 48.08859464 12.7053833 51.59844971 C12.69512652 55.18476801 12.69058054 58.77109311 12.68554688 62.35742188 C12.67484447 69.38543551 12.65726381 76.41341456 12.63671875 83.44140625 C7.35671875 83.44140625 2.07671875 83.44140625 -3.36328125 83.44140625 C-3.37262695 81.69601562 -3.38197266 79.950625 -3.39160156 78.15234375 C-3.4272416 72.36068569 -3.48111089 66.56934819 -3.54718399 60.77796936 C-3.58655441 57.26944209 -3.61879332 53.76116185 -3.63427734 50.25244141 C-3.65243469 46.21086067 -3.70243078 42.17020101 -3.75390625 38.12890625 C-3.75513489 36.87964355 -3.75636353 35.63038086 -3.75762939 34.34326172 C-3.89549405 26.08884434 -4.74171925 20.26416614 -10.61328125 14.06640625 C-17.38285424 10.06620403 -23.82032214 9.93027471 -31.36328125 11.44140625 C-36.62038961 13.26117453 -40.63251805 16.58854394 -43.36328125 21.44140625 C-45.57373201 28.50131029 -45.70116436 35.57483925 -45.77734375 42.9140625 C-45.7967099 44.07771835 -45.81607605 45.24137421 -45.83602905 46.44029236 C-45.89543046 50.12809094 -45.94205202 53.8159214 -45.98828125 57.50390625 C-46.02649732 60.01628906 -46.06555113 62.52865927 -46.10546875 65.04101562 C-46.20109948 71.17437593 -46.28527537 77.3077975 -46.36328125 83.44140625 C-51.64328125 83.44140625 -56.92328125 83.44140625 -62.36328125 83.44140625 C-62.36328125 55.39140625 -62.36328125 27.34140625 -62.36328125 -1.55859375 C-58.07328125 -1.55859375 -53.78328125 -1.55859375 -49.36328125 -1.55859375 C-49.03328125 3.06140625 -48.70328125 7.68140625 -48.36328125 12.44140625 C-47.68265625 11.24515625 -47.00203125 10.04890625 -46.30078125 8.81640625 C-42.30067235 2.4857017 -37.44516708 -1.98718411 -30.1484375 -4.08984375 C-19.90307235 -5.81416888 -8.86879952 -5.84900993 0 0 Z " fill="#FEFEFE" transform="translate(1222.36328125,1197.55859375)"/>
<path d="M0 0 C5.6821259 3.9374463 10.01622139 8.10818344 11.42578125 15.1171875 C11.71363988 17.06630259 11.86672919 19.03425558 12 21 C11 22 11 22 7.83984375 22.09765625 C6.55207031 22.08605469 5.26429687 22.07445312 3.9375 22.0625 C2.64714844 22.05347656 1.35679688 22.04445313 0.02734375 22.03515625 C-0.97167969 22.02355469 -1.97070312 22.01195312 -3 22 C-3.32871094 21.18595703 -3.32871094 21.18595703 -3.6640625 20.35546875 C-5.24122385 16.79723887 -6.41601262 14.44155144 -9.5625 12.0625 C-17.2253437 9.69398468 -24.42654028 9.25788527 -32 12 C-35.62277579 14.45615991 -35.62277579 14.45615991 -38 18 C-38.58087412 23.54165612 -38.58087412 23.54165612 -36.375 28.375 C-31.42453718 31.76215877 -26.17918558 32.28976257 -20.359375 32.88525391 C-8.97836115 34.08826749 1.64624339 35.76197666 10.14453125 44.10546875 C14.04537536 49.2670072 15.40438825 54.57910368 15 61 C13.89874594 68.48171576 10.87970113 74.19961464 5 79 C-3.94938471 84.37665914 -10.86988894 86.19270888 -21.125 86.25 C-22.02476563 86.270625 -22.92453125 86.29125 -23.8515625 86.3125 C-33.71658543 86.36919553 -42.65240543 84.27976039 -49.84765625 77.17578125 C-55.37412753 71.21808634 -57 67.29407641 -57 59 C-52.05 59 -47.1 59 -42 59 C-41.4225 60.258125 -40.845 61.51625 -40.25 62.8125 C-38.15930399 66.91431535 -36.64089347 69.04698192 -32.203125 70.6484375 C-24.16334852 72.90779075 -14.92220928 72.72231711 -7.3125 69.125 C-3.85804333 67.2212854 -3.85804333 67.2212854 -2 64 C-1.17342661 59.35378748 -1.32065486 55.99778817 -4 52.0625 C-9.54606477 48.24958047 -16.11495858 47.78535783 -22.66381836 47.01269531 C-34.00773034 45.65203878 -43.39268584 44.12490416 -50.84375 34.74609375 C-54.99599608 28.47564105 -54.6457406 22.37634452 -54 15 C-52.31229768 8.30259901 -47.6033954 3.77059827 -42 0 C-30.58159588 -6.68538687 -11.41485627 -6.71114826 0 0 Z " fill="#FEFEFE" transform="translate(1513,1198)"/>
<path d="M0 0 C4.95 0 9.9 0 15 0 C15 8.58 15 17.16 15 26 C24.9 26 34.8 26 45 26 C45 29.63 45 33.26 45 37 C35.1 37 25.2 37 15 37 C15.07404127 44.15391878 15.15691448 51.30659723 15.26245117 58.45996094 C15.29566947 60.8925124 15.32371099 63.32514037 15.34643555 65.7578125 C15.38003758 69.25814358 15.43235834 72.75777555 15.48828125 76.2578125 C15.49467117 77.34240753 15.5010611 78.42700256 15.50764465 79.54446411 C15.61464228 85.06136081 15.78278456 89.29175029 19 94 C24.05127283 97.64468762 29.37060522 97.53760427 35.375 97.6875 C36.30183594 97.72166016 37.22867188 97.75582031 38.18359375 97.79101562 C40.45531844 97.87298507 42.72763767 97.93818151 45 98 C45 102.62 45 107.24 45 112 C41.22836888 112.10905921 37.459965 112.18782871 33.6875 112.25 C32.63498047 112.28351563 31.58246094 112.31703125 30.49804688 112.3515625 C22.36890775 112.45161344 14.18268891 111.58766783 7.7878418 106.10253906 C0.11711453 98.15422847 -0.43355461 89.73578316 -0.29296875 79.1875 C-0.28872391 77.97803711 -0.28447906 76.76857422 -0.28010559 75.52246094 C-0.26339038 71.68140866 -0.22575015 67.84089216 -0.1875 64 C-0.17244397 61.38672636 -0.15875717 58.77344445 -0.14648438 56.16015625 C-0.1135101 49.77323288 -0.06177618 43.3867071 0 37 C-4.95 37 -9.9 37 -15 37 C-15 33.37 -15 29.74 -15 26 C-10.05 26 -5.1 26 0 26 C0 17.42 0 8.84 0 0 Z " fill="#FEFEFE" transform="translate(2693,1170)"/>
<path d="M0 0 C4.95 0 9.9 0 15 0 C15 8.58 15 17.16 15 26 C24.9 26 34.8 26 45 26 C45 29.63 45 33.26 45 37 C35.1 37 25.2 37 15 37 C15.07404127 44.15391878 15.15691448 51.30659723 15.26245117 58.45996094 C15.29566947 60.8925124 15.32371099 63.32514037 15.34643555 65.7578125 C15.38003758 69.25814358 15.43235834 72.75777555 15.48828125 76.2578125 C15.49467117 77.34240753 15.5010611 78.42700256 15.50764465 79.54446411 C15.61464228 85.06136081 15.78278456 89.29175029 19 94 C24.05127283 97.64468762 29.37060522 97.53760427 35.375 97.6875 C36.30183594 97.72166016 37.22867187 97.75582031 38.18359375 97.79101562 C40.45531844 97.87298507 42.72763767 97.93818151 45 98 C45 102.62 45 107.24 45 112 C41.22836888 112.10905921 37.459965 112.18782871 33.6875 112.25 C32.63498047 112.28351563 31.58246094 112.31703125 30.49804688 112.3515625 C22.36890775 112.45161344 14.18268891 111.58766783 7.7878418 106.10253906 C0.11711453 98.15422847 -0.43355461 89.73578316 -0.29296875 79.1875 C-0.28872391 77.97803711 -0.28447906 76.76857422 -0.28010559 75.52246094 C-0.26339038 71.68140866 -0.22575015 67.84089216 -0.1875 64 C-0.17244397 61.38672636 -0.15875717 58.77344445 -0.14648438 56.16015625 C-0.1135101 49.77323288 -0.06177618 43.3867071 0 37 C-4.95 37 -9.9 37 -15 37 C-15 33.37 -15 29.74 -15 26 C-10.05 26 -5.1 26 0 26 C0 17.42 0 8.84 0 0 Z " fill="#FEFEFE" transform="translate(1977,1170)"/>
<path d="M0 0 C0.96099609 0.01353516 1.92199219 0.02707031 2.91210938 0.04101562 C5.25415439 0.07597152 7.59590586 0.12976206 9.9375 0.1875 C9.9375 4.4775 9.9375 8.7675 9.9375 13.1875 C8.86371094 13.22488281 7.78992187 13.26226563 6.68359375 13.30078125 C5.2473638 13.36649112 3.81116738 13.43293668 2.375 13.5 C1.67052734 13.52255859 0.96605469 13.54511719 0.24023438 13.56835938 C-4.82100671 13.82491998 -8.59775583 14.72710504 -13.0625 17.1875 C-15.89812902 22.23977358 -15.89812902 22.23977358 -16.0625 33.1875 C-7.1525 33.1875 1.7575 33.1875 10.9375 33.1875 C10.9375 36.8175 10.9375 40.4475 10.9375 44.1875 C2.0275 44.1875 -6.8825 44.1875 -16.0625 44.1875 C-16.0625 68.6075 -16.0625 93.0275 -16.0625 118.1875 C-21.0125 118.1875 -25.9625 118.1875 -31.0625 118.1875 C-31.0625 93.7675 -31.0625 69.3475 -31.0625 44.1875 C-35.0225 44.1875 -38.9825 44.1875 -43.0625 44.1875 C-43.0625 40.5575 -43.0625 36.9275 -43.0625 33.1875 C-39.1025 33.1875 -35.1425 33.1875 -31.0625 33.1875 C-31.10890625 32.29289062 -31.1553125 31.39828125 -31.203125 30.4765625 C-31.46185911 21.80896989 -31.24373433 14.28947247 -25.5546875 7.34765625 C-18.32386304 0.46996508 -9.54419693 -0.25902831 0 0 Z " fill="#FEFEFE" transform="translate(2634.0625,1164.8125)"/>
<path d="M0 0 C9.24 0 18.48 0 28 0 C28 38.61 28 77.22 28 117 C22.72 117 17.44 117 12 117 C12 82.35 12 47.7 12 12 C8.04 12 4.08 12 0 12 C0 8.04 0 4.08 0 0 Z " fill="#FEFEFE" transform="translate(860,1165)"/>
<path d="M0 0 C0 4.62 0 9.24 0 14 C-1.05058594 14.08636719 -2.10117188 14.17273437 -3.18359375 14.26171875 C-15.00707736 15.17618111 -15.00707736 15.17618111 -25 21 C-31.11286489 29.73266413 -31.14704806 38.90999635 -31.31640625 49.18359375 C-31.33718735 50.23909927 -31.35796844 51.2946048 -31.37937927 52.38209534 C-31.44444848 55.7338345 -31.50356052 59.085648 -31.5625 62.4375 C-31.60572581 64.71810646 -31.64934136 66.99870557 -31.69335938 69.27929688 C-31.80008589 74.85278957 -31.901472 80.42635659 -32 86 C-37.28 86 -42.56 86 -48 86 C-48 57.95 -48 29.9 -48 1 C-43.71 1 -39.42 1 -35 1 C-34.67 6.94 -34.34 12.88 -34 19 C-33.34 17.47375 -32.68 15.9475 -32 14.375 C-28.54184577 7.50726113 -23.84443141 3.91393409 -16.75 1.125 C-11.20811991 -0.53465236 -5.73661318 -0.19781425 0 0 Z " fill="#FEFEFE" transform="translate(3116,1195)"/>
<path d="M0 0 C0 4.62 0 9.24 0 14 C-1.05058594 14.08636719 -2.10117188 14.17273437 -3.18359375 14.26171875 C-15.00707736 15.17618111 -15.00707736 15.17618111 -25 21 C-31.11286489 29.73266413 -31.14704806 38.90999635 -31.31640625 49.18359375 C-31.33718735 50.23909927 -31.35796844 51.2946048 -31.37937927 52.38209534 C-31.44444848 55.7338345 -31.50356052 59.085648 -31.5625 62.4375 C-31.60572581 64.71810646 -31.64934136 66.99870557 -31.69335938 69.27929688 C-31.80008589 74.85278957 -31.901472 80.42635659 -32 86 C-37.28 86 -42.56 86 -48 86 C-48 57.95 -48 29.9 -48 1 C-43.71 1 -39.42 1 -35 1 C-34.67 6.94 -34.34 12.88 -34 19 C-33.34 17.47375 -32.68 15.9475 -32 14.375 C-28.54184577 7.50726113 -23.84443141 3.91393409 -16.75 1.125 C-11.20811991 -0.53465236 -5.73661318 -0.19781425 0 0 Z " fill="#FEFEFE" transform="translate(2244,1195)"/>
<path d="M0 0 C0 4.62 0 9.24 0 14 C-1.05058594 14.08636719 -2.10117188 14.17273437 -3.18359375 14.26171875 C-15.00707736 15.17618111 -15.00707736 15.17618111 -25 21 C-31.11286489 29.73266413 -31.14704806 38.90999635 -31.31640625 49.18359375 C-31.33718735 50.23909927 -31.35796844 51.2946048 -31.37937927 52.38209534 C-31.44444848 55.7338345 -31.50356052 59.085648 -31.5625 62.4375 C-31.60572581 64.71810646 -31.64934136 66.99870557 -31.69335938 69.27929688 C-31.80008589 74.85278957 -31.901472 80.42635659 -32 86 C-37.28 86 -42.56 86 -48 86 C-48 57.95 -48 29.9 -48 1 C-43.71 1 -39.42 1 -35 1 C-34.67 6.94 -34.34 12.88 -34 19 C-33.34 17.47375 -32.68 15.9475 -32 14.375 C-28.54184577 7.50726113 -23.84443141 3.91393409 -16.75 1.125 C-11.20811991 -0.53465236 -5.73661318 -0.19781425 0 0 Z " fill="#FEFEFE" transform="translate(1927,1195)"/>
<path d="M0 0 C9.9 0 19.8 0 30 0 C30 28.05 30 56.1 30 85 C24.39 85 18.78 85 13 85 C13 60.91 13 36.82 13 12 C8.71 12 4.42 12 0 12 C0 8.04 0 4.08 0 0 Z " fill="#FEFEFE" transform="translate(1074,1197)"/>
<path d="M0 0 C9.9 0 19.8 0 30 0 C30 28.05 30 56.1 30 85 C24.39 85 18.78 85 13 85 C13 60.91 13 36.82 13 12 C8.71 12 4.42 12 0 12 C0 8.04 0 4.08 0 0 Z " fill="#FEFEFE" transform="translate(785,1197)"/>
<path d="M0 0 C3.0625 1.5 3.0625 1.5 5 4 C6.33704482 8.02795263 6.44942243 10.96632841 4.75 14.875 C2.65946421 17.41350774 0.99269143 18.84015985 -2.3046875 19.37109375 C-6.73392819 19.48552702 -9.28533537 19.44309207 -13.125 17.0625 C-15.65598921 12.92855095 -16.02533012 9.72506298 -15 5 C-11.35736037 -0.94964473 -6.39577789 -1.10272033 0 0 Z " fill="#FEFEFE" transform="translate(1097,1164)"/>
<path d="M0 0 C3.0625 1.5 3.0625 1.5 5 4 C6.33704482 8.02795263 6.44942243 10.96632841 4.75 14.875 C2.65946421 17.41350774 0.99269143 18.84015985 -2.3046875 19.37109375 C-6.73392819 19.48552702 -9.28533537 19.44309207 -13.125 17.0625 C-15.65598921 12.92855095 -16.02533012 9.72506298 -15 5 C-11.35736037 -0.94964473 -6.39577789 -1.10272033 0 0 Z " fill="#FEFEFE" transform="translate(808,1164)"/>
</svg>
